0
SECTION
2
HEADER
9
$INSUNITS
70
4
9
$ACADVER
1
AC1014
9
$HANDSEED
5
FFFF
0
ENDSEC
0
SECTION
2
TABLES
0
TABLE
2
VPORT
5
8
100
AcDbSymbolTable
0
ENDTAB
0
TABLE
2
LTYPE
5
5
100
AcDbSymbolTable
0
LTYPE
5
14
100
AcDbSymbolTableRecord
100
AcDbLinetypeTableRecord
2
BYBLOCK
70
0
0
LTYPE
5
15
100
AcDbSymbolTableRecord
100
AcDbLinetypeTableRecord
2
BYLAYER
70
0
0
ENDTAB
0
TABLE
2
LAYER
5
2
100
AcDbSymbolTable
70
2
0
LAYER
5
50
100
AcDbSymbolTableRecord
100
AcDbLayerTableRecord
2
0
70
0
6
CONTINUOUS
0
ENDTAB
0
TABLE
2
STYLE
5
3
100
AcDbSymbolTable
70
1
0
STYLE
5
11
100
AcDbSymbolTableRecord
100
AcDbTextStyleTableRecord
2
STANDARD
70
0
0
ENDTAB
0
TABLE
2
VIEW
5
6
100
AcDbSymbolTable
70
0
0
ENDTAB
0
TABLE
2
UCS
5
7
100
AcDbSymbolTable
70
0
0
ENDTAB
0
TABLE
2
APPID
5
9
100
AcDbSymbolTable
70
2
0
APPID
5
12
100
AcDbSymbolTableRecord
100
AcDbRegAppTableRecord
2
ACAD
70
0
0
ENDTAB
0
TABLE
2
DIMSTYLE
5
A
100
AcDbSymbolTable
70
1
0
ENDTAB
0
TABLE
2
BLOCK_RECORD
5
1
100
AcDbSymbolTable
70
1
0
BLOCK_RECORD
5
1F
100
AcDbSymbolTableRecord
100
AcDbBlockTableRecord
2
*MODEL_SPACE
0
BLOCK_RECORD
5
1B
100
AcDbSymbolTableRecord
100
AcDbBlockTableRecord
2
*PAPER_SPACE
0
ENDTAB
0
ENDSEC
0
SECTION
2
BLOCKS
0
BLOCK
5
20
100
AcDbEntity
100
AcDbBlockBegin
2
*MODEL_SPACE
0
ENDBLK
5
21
100
AcDbEntity
100
AcDbBlockEnd
0
BLOCK
5
1C
100
AcDbEntity
100
AcDbBlockBegin
2
*PAPER_SPACE
0
ENDBLK
5
1D
100
AcDbEntity
100
AcDbBlockEnd
0
ENDSEC
0
SECTION
2
ENTITIES
0
LWPOLYLINE
5
100
100
AcDbEntity
8
0
100
AcDbPolyline
90
36
70
1
43
0.0
10
-18.561348915100776
20
119.49300408363277
10
-18.561348915100783
20
125.49300408363274
10
-26.061348915100822
20
125.49300408363273
10
-26.061348915100812
20
119.49300408363277
10
-36.311348915100837
20
119.49300408362242
10
-36.311348915100837
20
115.993004083633
10
-42.311348915100872
20
115.99300408363298
10
-42.311348915100844
20
108.493004083633
10
-36.311348915100808
20
108.49300408363302
10
-36.311348915100815
20
100.99300408363304
10
-42.311348915100844
20
100.99300408363304
10
-42.311348915100844
20
93.493004083633053
10
-36.311348915100808
20
93.493004083633053
10
-36.311348915100808
20
85.993004083633068
10
-42.311348915100837
20
85.993004083633068
10
-42.311348915100815
20
78.493004083633082
10
-36.311348915100794
20
78.493004083633082
10
-36.311348915100325
20
68.993004083633252
10
6.6886510848998881
20
68.993004083633224
10
6.6886510848998002
20
78.493004083633068
10
12.68865108489983
20
78.493004083633068
10
12.688651084899821
20
85.993004083633039
10
6.6886510848997922
20
85.993004083633053
10
6.6886510848997984
20
93.493004083633039
10
12.688651084899824
20
93.493004083633039
10
12.688651084899806
20
100.99300408363302
10
6.6886510848997798
20
100.99300408363302
10
6.6886510848997762
20
108.493004083633
10
12.688651084899806
20
108.493004083633
10
12.688651084899806
20
115.99300408363298
10
6.6886510848997744
20
115.99300408363297
10
6.6886510848997736
20
119.4930040836224
10
-3.5613489151007038
20
119.49300408363277
10
-3.5613489151007087
20
125.49300408363274
10
-11.061348915100746
20
125.49300408363274
10
-11.061348915100741
20
119.49300408363277
0
ENDSEC
0
SECTION
2
OBJECTS
0
DICTIONARY
5
C
100
AcDbDictionary
3
ACAD_GROUP
350
D
3
ACAD_MLINESTYLE
350
17
0
DICTIONARY
5
D
100
AcDbDictionary
0
DICTIONARY
5
1A
330
C
100
AcDbDictionary
0
DICTIONARY
5
17
100
AcDbDictionary
0
ENDSEC
0
EOF
