0
SECTION
2
HEADER
9
$INSUNITS
70
4
9
$ACADVER
1
AC1014
9
$HANDSEED
5
FFFF
0
ENDSEC
0
SECTION
2
TABLES
0
TABLE
2
VPORT
5
8
100
AcDbSymbolTable
0
ENDTAB
0
TABLE
2
LTYPE
5
5
100
AcDbSymbolTable
0
LTYPE
5
14
100
AcDbSymbolTableRecord
100
AcDbLinetypeTableRecord
2
BYBLOCK
70
0
0
LTYPE
5
15
100
AcDbSymbolTableRecord
100
AcDbLinetypeTableRecord
2
BYLAYER
70
0
0
ENDTAB
0
TABLE
2
LAYER
5
2
100
AcDbSymbolTable
70
2
0
LAYER
5
50
100
AcDbSymbolTableRecord
100
AcDbLayerTableRecord
2
0
70
0
6
CONTINUOUS
0
ENDTAB
0
TABLE
2
STYLE
5
3
100
AcDbSymbolTable
70
1
0
STYLE
5
11
100
AcDbSymbolTableRecord
100
AcDbTextStyleTableRecord
2
STANDARD
70
0
0
ENDTAB
0
TABLE
2
VIEW
5
6
100
AcDbSymbolTable
70
0
0
ENDTAB
0
TABLE
2
UCS
5
7
100
AcDbSymbolTable
70
0
0
ENDTAB
0
TABLE
2
APPID
5
9
100
AcDbSymbolTable
70
2
0
APPID
5
12
100
AcDbSymbolTableRecord
100
AcDbRegAppTableRecord
2
ACAD
70
0
0
ENDTAB
0
TABLE
2
DIMSTYLE
5
A
100
AcDbSymbolTable
70
1
0
ENDTAB
0
TABLE
2
BLOCK_RECORD
5
1
100
AcDbSymbolTable
70
1
0
BLOCK_RECORD
5
1F
100
AcDbSymbolTableRecord
100
AcDbBlockTableRecord
2
*MODEL_SPACE
0
BLOCK_RECORD
5
1B
100
AcDbSymbolTableRecord
100
AcDbBlockTableRecord
2
*PAPER_SPACE
0
ENDTAB
0
ENDSEC
0
SECTION
2
BLOCKS
0
BLOCK
5
20
100
AcDbEntity
100
AcDbBlockBegin
2
*MODEL_SPACE
0
ENDBLK
5
21
100
AcDbEntity
100
AcDbBlockEnd
0
BLOCK
5
1C
100
AcDbEntity
100
AcDbBlockBegin
2
*PAPER_SPACE
0
ENDBLK
5
1D
100
AcDbEntity
100
AcDbBlockEnd
0
ENDSEC
0
SECTION
2
ENTITIES
0
LWPOLYLINE
5
100
100
AcDbEntity
8
0
100
AcDbPolyline
90
46
70
1
43
0.0
10
-51.225055564195486
20
108.49300408363288
10
-57.225055564195515
20
108.49300408363285
10
-57.225055564195493
20
100.9930040836329
10
-51.225055564195472
20
100.99300408363291
10
-51.225055564195472
20
93.493004083632911
10
-57.2250555641955
20
93.493004083632897
10
-57.225055564195486
20
85.993004083632925
10
-51.225055564195443
20
85.99300408363294
10
-51.225055564195443
20
78.49300408363294
10
-57.225055564195493
20
78.49300408363294
10
-57.225055564195202
20
68.993004083633124
10
57.774944435805281
20
68.993004083633366
10
57.774944435805466
20
78.493004083633181
10
51.774944435805423
20
78.493004083633195
10
51.774944435805423
20
85.993004083633167
10
57.774944435805473
20
85.993004083633167
10
57.774944435805452
20
93.493004083633139
10
51.774944435805423
20
93.493004083633139
10
51.774944435805423
20
100.99300408363312
10
57.774944435805452
20
100.99300408363312
10
57.774944435805438
20
108.49300408363311
10
51.774944435805423
20
108.49300408363311
10
51.774944435805423
20
115.99300408363308
10
57.774944435805445
20
115.99300408363307
10
57.774944435805438
20
119.49300408362242
10
39.649944435765669
20
119.49300408362242
10
39.649944435765654
20
125.49300408362241
10
28.399944435765605
20
125.4930040836224
10
28.399944435765612
20
119.49300408362241
10
17.149944435765562
20
119.49300408362241
10
17.149944435765558
20
125.49300408362237
10
5.8999444357655122
20
125.49300408362235
10
5.899944435765514
20
119.49300408362237
10
-5.3500555642345313
20
119.49300408362235
10
-5.350055564234534
20
125.49300408362234
10
-16.60005556423458
20
125.49300408362234
10
-16.600055564234584
20
119.49300408362234
10
-27.85005556423463
20
119.49300408362232
10
-27.850055564234633
20
125.4930040836223
10
-39.10005556423468
20
125.4930040836223
10
-39.100055564234673
20
119.49300408362232
10
-51.225055564195337
20
119.49300408362204
10
-51.225055564195323
20
125.493004083622
10
-57.225055564195593
20
125.493004083622
10
-57.225055564195515
20
115.99300408363284
10
-51.225055564195486
20
115.99300408363285
0
ENDSEC
0
SECTION
2
OBJECTS
0
DICTIONARY
5
C
100
AcDbDictionary
3
ACAD_GROUP
350
D
3
ACAD_MLINESTYLE
350
17
0
DICTIONARY
5
D
100
AcDbDictionary
0
DICTIONARY
5
1A
330
C
100
AcDbDictionary
0
DICTIONARY
5
17
100
AcDbDictionary
0
ENDSEC
0
EOF
