0
SECTION
2
HEADER
9
$INSUNITS
70
4
9
$ACADVER
1
AC1014
9
$HANDSEED
5
FFFF
0
ENDSEC
0
SECTION
2
TABLES
0
TABLE
2
VPORT
5
8
100
AcDbSymbolTable
0
ENDTAB
0
TABLE
2
LTYPE
5
5
100
AcDbSymbolTable
0
LTYPE
5
14
100
AcDbSymbolTableRecord
100
AcDbLinetypeTableRecord
2
BYBLOCK
70
0
0
LTYPE
5
15
100
AcDbSymbolTableRecord
100
AcDbLinetypeTableRecord
2
BYLAYER
70
0
0
ENDTAB
0
TABLE
2
LAYER
5
2
100
AcDbSymbolTable
70
2
0
LAYER
5
50
100
AcDbSymbolTableRecord
100
AcDbLayerTableRecord
2
0
70
0
6
CONTINUOUS
0
ENDTAB
0
TABLE
2
STYLE
5
3
100
AcDbSymbolTable
70
1
0
STYLE
5
11
100
AcDbSymbolTableRecord
100
AcDbTextStyleTableRecord
2
STANDARD
70
0
0
ENDTAB
0
TABLE
2
VIEW
5
6
100
AcDbSymbolTable
70
0
0
ENDTAB
0
TABLE
2
UCS
5
7
100
AcDbSymbolTable
70
0
0
ENDTAB
0
TABLE
2
APPID
5
9
100
AcDbSymbolTable
70
2
0
APPID
5
12
100
AcDbSymbolTableRecord
100
AcDbRegAppTableRecord
2
ACAD
70
0
0
ENDTAB
0
TABLE
2
DIMSTYLE
5
A
100
AcDbSymbolTable
70
1
0
ENDTAB
0
TABLE
2
BLOCK_RECORD
5
1
100
AcDbSymbolTable
70
1
0
BLOCK_RECORD
5
1F
100
AcDbSymbolTableRecord
100
AcDbBlockTableRecord
2
*MODEL_SPACE
0
BLOCK_RECORD
5
1B
100
AcDbSymbolTableRecord
100
AcDbBlockTableRecord
2
*PAPER_SPACE
0
ENDTAB
0
ENDSEC
0
SECTION
2
BLOCKS
0
BLOCK
5
20
100
AcDbEntity
100
AcDbBlockBegin
2
*MODEL_SPACE
0
ENDBLK
5
21
100
AcDbEntity
100
AcDbBlockEnd
0
BLOCK
5
1C
100
AcDbEntity
100
AcDbBlockBegin
2
*PAPER_SPACE
0
ENDBLK
5
1D
100
AcDbEntity
100
AcDbBlockEnd
0
ENDSEC
0
SECTION
2
ENTITIES
0
LWPOLYLINE
5
100
100
AcDbEntity
8
0
100
AcDbPolyline
90
46
70
1
43
0.0
10
-5.8999444357656241
20
119.49300408362237
10
-5.8999444357656214
20
125.49300408362235
10
-17.149944435765669
20
125.49300408362237
10
-17.149944435765669
20
119.49300408362241
10
-28.399944435765718
20
119.49300408362241
10
-28.399944435765715
20
125.4930040836224
10
-39.649944435765761
20
125.49300408362241
10
-39.649944435765761
20
119.49300408362242
10
-57.774944435805523
20
119.49300408362245
10
-57.774944435805551
20
115.99300408363308
10
-51.77494443580553
20
115.99300408363307
10
-51.77494443580553
20
108.49300408363311
10
-57.774944435805551
20
108.49300408363312
10
-57.774944435805573
20
100.99300408363312
10
-51.77494443580553
20
100.99300408363312
10
-51.77494443580553
20
93.493004083633167
10
-57.774944435805565
20
93.493004083633167
10
-57.77494443580558
20
85.993004083633167
10
-51.774944435805537
20
85.993004083633167
10
-51.774944435805537
20
78.493004083633181
10
-57.774944435805573
20
78.493004083633167
10
-57.774944435805281
20
68.993004083633338
10
57.225055564195202
20
68.993004083633096
10
57.225055564195387
20
78.49300408363294
10
51.225055564195344
20
78.49300408363294
10
51.225055564195344
20
85.993004083632911
10
57.22505556419538
20
85.993004083632911
10
57.225055564195401
20
93.493004083632911
10
51.225055564195365
20
93.493004083632925
10
51.225055564195365
20
100.99300408363291
10
57.225055564195401
20
100.9930040836329
10
57.225055564195415
20
108.49300408363288
10
51.225055564195387
20
108.4930040836329
10
51.225055564195387
20
115.99300408363288
10
57.225055564195408
20
115.99300408363284
10
57.225055564195358
20
125.49300408362194
10
51.225055564195372
20
125.49300408362194
10
51.225055564195372
20
119.49300408362197
10
39.100055564234552
20
119.49300408362232
10
39.100055564234573
20
125.4930040836223
10
27.850055564234523
20
125.4930040836223
10
27.850055564234523
20
119.49300408362232
10
16.600055564234477
20
119.49300408362234
10
16.600055564234474
20
125.49300408362234
10
5.3500555642344256
20
125.49300408362234
10
5.3500555642344247
20
119.49300408362235
0
ENDSEC
0
SECTION
2
OBJECTS
0
DICTIONARY
5
C
100
AcDbDictionary
3
ACAD_GROUP
350
D
3
ACAD_MLINESTYLE
350
17
0
DICTIONARY
5
D
100
AcDbDictionary
0
DICTIONARY
5
1A
330
C
100
AcDbDictionary
0
DICTIONARY
5
17
100
AcDbDictionary
0
ENDSEC
0
EOF
