0
SECTION
2
HEADER
9
$INSUNITS
70
4
9
$ACADVER
1
AC1014
9
$HANDSEED
5
FFFF
0
ENDSEC
0
SECTION
2
TABLES
0
TABLE
2
VPORT
5
8
100
AcDbSymbolTable
0
ENDTAB
0
TABLE
2
LTYPE
5
5
100
AcDbSymbolTable
0
LTYPE
5
14
100
AcDbSymbolTableRecord
100
AcDbLinetypeTableRecord
2
BYBLOCK
70
0
0
LTYPE
5
15
100
AcDbSymbolTableRecord
100
AcDbLinetypeTableRecord
2
BYLAYER
70
0
0
ENDTAB
0
TABLE
2
LAYER
5
2
100
AcDbSymbolTable
70
2
0
LAYER
5
50
100
AcDbSymbolTableRecord
100
AcDbLayerTableRecord
2
0
70
0
6
CONTINUOUS
0
ENDTAB
0
TABLE
2
STYLE
5
3
100
AcDbSymbolTable
70
1
0
STYLE
5
11
100
AcDbSymbolTableRecord
100
AcDbTextStyleTableRecord
2
STANDARD
70
0
0
ENDTAB
0
TABLE
2
VIEW
5
6
100
AcDbSymbolTable
70
0
0
ENDTAB
0
TABLE
2
UCS
5
7
100
AcDbSymbolTable
70
0
0
ENDTAB
0
TABLE
2
APPID
5
9
100
AcDbSymbolTable
70
2
0
APPID
5
12
100
AcDbSymbolTableRecord
100
AcDbRegAppTableRecord
2
ACAD
70
0
0
ENDTAB
0
TABLE
2
DIMSTYLE
5
A
100
AcDbSymbolTable
70
1
0
ENDTAB
0
TABLE
2
BLOCK_RECORD
5
1
100
AcDbSymbolTable
70
1
0
BLOCK_RECORD
5
1F
100
AcDbSymbolTableRecord
100
AcDbBlockTableRecord
2
*MODEL_SPACE
0
BLOCK_RECORD
5
1B
100
AcDbSymbolTableRecord
100
AcDbBlockTableRecord
2
*PAPER_SPACE
0
ENDTAB
0
ENDSEC
0
SECTION
2
BLOCKS
0
BLOCK
5
20
100
AcDbEntity
100
AcDbBlockBegin
2
*MODEL_SPACE
0
ENDBLK
5
21
100
AcDbEntity
100
AcDbBlockEnd
0
BLOCK
5
1C
100
AcDbEntity
100
AcDbBlockBegin
2
*PAPER_SPACE
0
ENDBLK
5
1D
100
AcDbEntity
100
AcDbBlockEnd
0
ENDSEC
0
SECTION
2
ENTITIES
0
LWPOLYLINE
5
100
100
AcDbEntity
8
0
100
AcDbPolyline
90
56
70
1
43
0.0
10
-51.774944435805317
20
-11.06134891510097
10
-57.774944435805338
20
-11.061348915100986
10
-57.774944435805352
20
-18.561348915101053
10
-51.774944435805317
20
-18.561348915101039
10
-51.774944435805324
20
-26.061348915101121
10
-57.774944435805352
20
-26.061348915101131
10
-57.774944435805658
20
-42.31134891510068
10
-39.649944435765889
20
-42.311348915100666
10
-39.649944435765867
20
-36.311348915100638
10
-28.399944435765825
20
-36.311348915100623
10
-28.399944435765839
20
-42.311348915100659
10
-17.149944435765793
20
-42.311348915100666
10
-17.149944435765779
20
-36.311348915100623
10
-5.8999444357657289
20
-36.311348915100616
10
-5.899944435765744
20
-42.311348915100652
10
5.3500555642343013
20
-42.311348915100652
10
5.3500555642343173
20
-36.311348915100616
10
16.600055564234367
20
-36.311348915100609
10
16.600055564234349
20
-42.311348915100638
10
27.850055564234395
20
-42.311348915100638
10
27.85005556423442
20
-36.311348915100609
10
39.100055564234466
20
-36.311348915100588
10
39.100055564234445
20
-42.311348915100623
10
51.22505556419511
20
-42.311348915100623
10
51.22505556419533
20
-36.311348915100943
10
57.225055564195358
20
-36.311348915100922
10
57.225055564195358
20
-26.061348915100851
10
51.22505556419533
20
-26.061348915100872
10
51.225055564195344
20
-18.561348915100787
10
57.225055564195372
20
-18.561348915100773
10
57.22505556419538
20
-11.061348915100705
10
51.225055564195344
20
-11.061348915100721
10
51.225055564195337
20
-3.5613489151006474
10
57.225055564195372
20
-3.561348915100631
10
57.22505556419538
20
6.6886510848999059
10
51.225055564195344
20
6.6886510848998899
10
51.225055564195131
20
12.688651084900043
10
39.100055564234573
20
12.68865108490003
10
39.100055564234573
20
6.6886510849000018
10
27.85005556423453
20
6.6886510849000027
10
27.850055564234545
20
12.688651084900034
10
16.600055564234498
20
12.688651084900028
10
16.600055564234481
20
6.6886510848999965
10
5.3500555642344283
20
6.6886510848999983
10
5.3500555642344434
20
12.688651084900028
10
-5.8999444357656019
20
12.688651084900007
10
-5.899944435765617
20
6.6886510848999787
10
-17.149944435765661
20
6.6886510848999805
10
-17.149944435765647
20
12.688651084900011
10
-28.39994443576569
20
12.688651084900007
10
-28.399944435765711
20
6.6886510848999752
10
-39.649944435765754
20
6.6886510848999672
10
-39.64994443576574
20
12.688651084899998
10
-57.774944435805509
20
12.688651084899995
10
-57.774944435805331
20
-3.5613489151009059
10
-51.77494443580531
20
-3.561348915100893
0
CIRCLE
5
101
100
AcDbEntity
8
0
100
AcDbCircle
10
17.225055564194982
20
-14.811348915100117
30
0
40
1.5000000000000067
210
2.4649305262354281e-46
220
-9.8607613152626476e-32
230
1
0
CIRCLE
5
102
100
AcDbEntity
8
0
100
AcDbCircle
10
-0.27494443580510769
20
-32.311348915100247
30
0
40
1.5000000000000078
210
-2.4649305262354281e-46
220
9.8607613152626476e-32
230
1
0
CIRCLE
5
103
100
AcDbEntity
8
0
100
AcDbCircle
10
-0.27494443580508571
20
2.688651084899929
30
0
40
1.5000000000000078
210
-2.4649305262354281e-46
220
9.8607613152626476e-32
230
1
0
CIRCLE
5
104
100
AcDbEntity
8
0
100
AcDbCircle
10
-17.774944435805168
20
-14.811348915100202
30
0
40
1.5000000000000067
210
2.4649305262354281e-46
220
-9.8607613152626476e-32
230
1
0
CIRCLE
5
105
100
AcDbEntity
8
0
100
AcDbCircle
10
-0.27494443580509281
20
-14.811348915100162
30
0
40
12.750000000000059
210
2.4649305262354277e-46
220
-9.8607613152626476e-32
230
1
0
ENDSEC
0
SECTION
2
OBJECTS
0
DICTIONARY
5
C
100
AcDbDictionary
3
ACAD_GROUP
350
D
3
ACAD_MLINESTYLE
350
17
0
DICTIONARY
5
D
100
AcDbDictionary
0
DICTIONARY
5
1A
330
C
100
AcDbDictionary
0
DICTIONARY
5
17
100
AcDbDictionary
0
ENDSEC
0
EOF
