0
SECTION
2
HEADER
9
$INSUNITS
70
4
9
$ACADVER
1
AC1014
9
$HANDSEED
5
FFFF
0
ENDSEC
0
SECTION
2
TABLES
0
TABLE
2
VPORT
5
8
100
AcDbSymbolTable
0
ENDTAB
0
TABLE
2
LTYPE
5
5
100
AcDbSymbolTable
0
LTYPE
5
14
100
AcDbSymbolTableRecord
100
AcDbLinetypeTableRecord
2
BYBLOCK
70
0
0
LTYPE
5
15
100
AcDbSymbolTableRecord
100
AcDbLinetypeTableRecord
2
BYLAYER
70
0
0
ENDTAB
0
TABLE
2
LAYER
5
2
100
AcDbSymbolTable
70
2
0
LAYER
5
50
100
AcDbSymbolTableRecord
100
AcDbLayerTableRecord
2
0
70
0
6
CONTINUOUS
0
ENDTAB
0
TABLE
2
STYLE
5
3
100
AcDbSymbolTable
70
1
0
STYLE
5
11
100
AcDbSymbolTableRecord
100
AcDbTextStyleTableRecord
2
STANDARD
70
0
0
ENDTAB
0
TABLE
2
VIEW
5
6
100
AcDbSymbolTable
70
0
0
ENDTAB
0
TABLE
2
UCS
5
7
100
AcDbSymbolTable
70
0
0
ENDTAB
0
TABLE
2
APPID
5
9
100
AcDbSymbolTable
70
2
0
APPID
5
12
100
AcDbSymbolTableRecord
100
AcDbRegAppTableRecord
2
ACAD
70
0
0
ENDTAB
0
TABLE
2
DIMSTYLE
5
A
100
AcDbSymbolTable
70
1
0
ENDTAB
0
TABLE
2
BLOCK_RECORD
5
1
100
AcDbSymbolTable
70
1
0
BLOCK_RECORD
5
1F
100
AcDbSymbolTableRecord
100
AcDbBlockTableRecord
2
*MODEL_SPACE
0
BLOCK_RECORD
5
1B
100
AcDbSymbolTableRecord
100
AcDbBlockTableRecord
2
*PAPER_SPACE
0
ENDTAB
0
ENDSEC
0
SECTION
2
BLOCKS
0
BLOCK
5
20
100
AcDbEntity
100
AcDbBlockBegin
2
*MODEL_SPACE
0
ENDBLK
5
21
100
AcDbEntity
100
AcDbBlockEnd
0
BLOCK
5
1C
100
AcDbEntity
100
AcDbBlockBegin
2
*PAPER_SPACE
0
ENDBLK
5
1D
100
AcDbEntity
100
AcDbBlockEnd
0
ENDSEC
0
SECTION
2
ENTITIES
0
CIRCLE
5
100
100
AcDbEntity
8
0
100
AcDbCircle
10
-5.3269888897822817
20
24.498309771216967
30
0
40
1.2499999999999996
210
0
220
-0
230
1
0
CIRCLE
5
101
100
AcDbEntity
8
0
100
AcDbCircle
10
9.6885691862474683
20
-24.496924850788631
30
0
40
1.2499999999999996
210
0
220
-0
230
1
0
CIRCLE
5
102
100
AcDbEntity
8
0
100
AcDbCircle
10
9.673010354041331
20
24.503072679035171
30
0
40
1.2499999999999982
210
0
220
-0
230
1
0
CIRCLE
5
103
100
AcDbEntity
8
0
100
AcDbCircle
10
-5.3114300575761453
20
-24.501687758606835
30
0
40
1.2499999999999996
210
0
220
-0
230
1
0
CIRCLE
5
104
100
AcDbEntity
8
0
100
AcDbCircle
10
-0.069209738340948512
20
-2.1975958560187313e-05
30
0
40
12.999999999999993
210
0
220
-0
230
1
0
CIRCLE
5
105
100
AcDbEntity
8
0
100
AcDbCircle
10
17.430789379453266
20
0.005534749829343882
30
0
40
1.4999999999999987
210
-2.5048478486357922e-34
220
7.8886086545314633e-31
230
1
0
CIRCLE
5
106
100
AcDbEntity
8
0
100
AcDbCircle
10
-0.063653012553038402
20
-17.500021093752778
30
0
40
1.4999999999999996
210
-2.5048478486357918e-34
220
7.8886086545314615e-31
230
1
0
CIRCLE
5
107
100
AcDbEntity
8
0
100
AcDbCircle
10
-0.074766464128850837
20
17.499977141835654
30
0
40
1.4999999999999996
210
-2.5048478486357918e-34
220
7.8886086545314615e-31
230
1
0
CIRCLE
5
108
100
AcDbEntity
8
0
100
AcDbCircle
10
-17.569208856135162
20
-0.0055787017464663975
30
0
40
1.4999999999999987
210
-2.5048478486357922e-34
220
7.8886086545314633e-31
230
1
0
LWPOLYLINE
5
109
100
AcDbEntity
8
0
100
AcDbPolyline
90
24
70
1
43
0.0
10
-9.0779412823018255
20
27.497118893027142
10
-9.0760361191745424
20
21.497119195497696
10
-16.576035741086347
20
21.494737741588587
10
-16.577940904213634
20
27.494737439118033
10
-21.077940677360722
20
27.493308566772573
10
-21.0604766820273
20
-27.506688660580672
10
-16.560476908880204
20
-27.505259788235211
10
-16.562382072007495
20
-21.505260090705764
10
-9.06238245009569
20
-21.502878636796659
10
-9.0604772869684069
20
-27.502878334326102
10
-1.560477665056601
20
-27.500496880417003
10
-1.562382828183881
20
-21.500497182887557
10
5.9376167937279245
20
-21.498115728978455
10
5.9395219568552058
20
-27.498115426507898
10
13.43952157876701
20
-27.495733972598799
10
13.437616415639727
20
-21.495734275069353
10
20.937616037551535
20
-21.493352821160244
10
20.923962368472687
20
21.506645011134097
10
13.423962746560882
20
21.504263557224998
10
13.422057583433594
20
27.504263254754445
10
5.9220579615217872
20
27.501881800845339
10
5.9239631246490685
20
21.5018821033159
10
-1.5760364972627372
20
21.499500649406791
10
-1.5779416603900187
20
27.499500346936241
0
ENDSEC
0
SECTION
2
OBJECTS
0
DICTIONARY
5
C
100
AcDbDictionary
3
ACAD_GROUP
350
D
3
ACAD_MLINESTYLE
350
17
0
DICTIONARY
5
D
100
AcDbDictionary
0
DICTIONARY
5
1A
330
C
100
AcDbDictionary
0
DICTIONARY
5
17
100
AcDbDictionary
0
ENDSEC
0
EOF
