0
SECTION
2
HEADER
9
$INSUNITS
70
4
9
$ACADVER
1
AC1014
9
$HANDSEED
5
FFFF
0
ENDSEC
0
SECTION
2
TABLES
0
TABLE
2
VPORT
5
8
100
AcDbSymbolTable
0
ENDTAB
0
TABLE
2
LTYPE
5
5
100
AcDbSymbolTable
0
LTYPE
5
14
100
AcDbSymbolTableRecord
100
AcDbLinetypeTableRecord
2
BYBLOCK
70
0
0
LTYPE
5
15
100
AcDbSymbolTableRecord
100
AcDbLinetypeTableRecord
2
BYLAYER
70
0
0
ENDTAB
0
TABLE
2
LAYER
5
2
100
AcDbSymbolTable
70
2
0
LAYER
5
50
100
AcDbSymbolTableRecord
100
AcDbLayerTableRecord
2
0
70
0
6
CONTINUOUS
0
ENDTAB
0
TABLE
2
STYLE
5
3
100
AcDbSymbolTable
70
1
0
STYLE
5
11
100
AcDbSymbolTableRecord
100
AcDbTextStyleTableRecord
2
STANDARD
70
0
0
ENDTAB
0
TABLE
2
VIEW
5
6
100
AcDbSymbolTable
70
0
0
ENDTAB
0
TABLE
2
UCS
5
7
100
AcDbSymbolTable
70
0
0
ENDTAB
0
TABLE
2
APPID
5
9
100
AcDbSymbolTable
70
2
0
APPID
5
12
100
AcDbSymbolTableRecord
100
AcDbRegAppTableRecord
2
ACAD
70
0
0
ENDTAB
0
TABLE
2
DIMSTYLE
5
A
100
AcDbSymbolTable
70
1
0
ENDTAB
0
TABLE
2
BLOCK_RECORD
5
1
100
AcDbSymbolTable
70
1
0
BLOCK_RECORD
5
1F
100
AcDbSymbolTableRecord
100
AcDbBlockTableRecord
2
*MODEL_SPACE
0
BLOCK_RECORD
5
1B
100
AcDbSymbolTableRecord
100
AcDbBlockTableRecord
2
*PAPER_SPACE
0
ENDTAB
0
ENDSEC
0
SECTION
2
BLOCKS
0
BLOCK
5
20
100
AcDbEntity
100
AcDbBlockBegin
2
*MODEL_SPACE
0
ENDBLK
5
21
100
AcDbEntity
100
AcDbBlockEnd
0
BLOCK
5
1C
100
AcDbEntity
100
AcDbBlockBegin
2
*PAPER_SPACE
0
ENDBLK
5
1D
100
AcDbEntity
100
AcDbBlockEnd
0
ENDSEC
0
SECTION
2
ENTITIES
0
LWPOLYLINE
5
100
100
AcDbEntity
8
0
100
AcDbPolyline
90
32
70
1
43
0.0
10
-4.8469120070887266
20
168.91572321757894
10
-4.8469120070887328
20
162.91572321757897
10
2.6530879929112832
20
162.91572321757897
10
2.6530879929112889
20
168.91572321757894
10
10.153087992911304
20
168.91572321757894
10
10.153087992911299
20
162.91572321757897
10
17.653087992911317
20
162.91572321757897
10
17.653087992911324
20
168.91572321757894
10
25.153087992911338
20
168.91572321757894
10
25.153087992911342
20
162.91572321757894
10
32.653087992911367
20
162.915723217579
10
32.653087992911431
20
235.16572321757903
10
25.153087992911409
20
235.16572321757889
10
25.153087992911402
20
229.16572321757886
10
17.653087992911377
20
229.16572321757886
10
17.653087992911395
20
235.16572321757891
10
10.153087992911374
20
235.16572321757891
10
10.15308799291137
20
229.16572321757889
10
2.6530879929113524
20
229.16572321757889
10
2.6530879929113582
20
235.16572321757891
10
-4.8469120070886582
20
235.16572321757891
10
-4.8469120070886644
20
229.16572321757889
10
-12.346912007088681
20
229.16572321757889
10
-12.346912007088672
20
235.16572321757891
10
-19.84691200708869
20
235.16572321757891
10
-19.846912007088697
20
229.16572321757894
10
-27.346912007088715
20
229.16572321757894
10
-27.346912007088786
20
168.915723217579
10
-19.846912007088761
20
168.915723217579
10
-19.846912007088768
20
162.915723217579
10
-12.346912007088754
20
162.915723217579
10
-12.346912007088742
20
168.91572321757894
0
CIRCLE
5
101
100
AcDbEntity
8
0
100
AcDbCircle
10
-20.916912007088733
20
175.34572321757904
30
8.8817841970012523e-15
40
1.8750000000000131
210
-1.7347234759757457e-18
220
1.9526089283821514e-29
230
1
0
CIRCLE
5
102
100
AcDbEntity
8
0
100
AcDbCircle
10
-20.916912007088698
20
222.48572321757905
30
0
40
1.875000000000004
210
1.0618416734480198e-30
220
1.9524307404220042e-29
230
1
0
CIRCLE
5
103
100
AcDbEntity
8
0
100
AcDbCircle
10
26.22308799291137
20
175.34572321757895
30
0
40
1.875000000000004
210
1.0618416734480198e-30
220
1.9524307404220042e-29
230
1
0
CIRCLE
5
104
100
AcDbEntity
8
0
100
AcDbCircle
10
2.6530879929113365
20
198.91572321757903
30
-8.8817841970012523e-15
40
20.500000000000039
210
-1.7347234759757455e-18
220
1.9526089283821511e-29
230
1
0
CIRCLE
5
105
100
AcDbEntity
8
0
100
AcDbCircle
10
26.223087992911417
20
222.48572321757899
30
-8.8817841970012523e-15
40
1.8749999999999998
210
1.0618416734480199e-30
220
1.9721522630525295e-29
230
1
0
ENDSEC
0
SECTION
2
OBJECTS
0
DICTIONARY
5
C
100
AcDbDictionary
3
ACAD_GROUP
350
D
3
ACAD_MLINESTYLE
350
17
0
DICTIONARY
5
D
100
AcDbDictionary
0
DICTIONARY
5
1A
330
C
100
AcDbDictionary
0
DICTIONARY
5
17
100
AcDbDictionary
0
ENDSEC
0
EOF
