0
SECTION
2
HEADER
9
$INSUNITS
70
4
9
$ACADVER
1
AC1014
9
$HANDSEED
5
FFFF
0
ENDSEC
0
SECTION
2
TABLES
0
TABLE
2
VPORT
5
8
100
AcDbSymbolTable
0
ENDTAB
0
TABLE
2
LTYPE
5
5
100
AcDbSymbolTable
0
LTYPE
5
14
100
AcDbSymbolTableRecord
100
AcDbLinetypeTableRecord
2
BYBLOCK
70
0
0
LTYPE
5
15
100
AcDbSymbolTableRecord
100
AcDbLinetypeTableRecord
2
BYLAYER
70
0
0
ENDTAB
0
TABLE
2
LAYER
5
2
100
AcDbSymbolTable
70
2
0
LAYER
5
50
100
AcDbSymbolTableRecord
100
AcDbLayerTableRecord
2
0
70
0
6
CONTINUOUS
0
ENDTAB
0
TABLE
2
STYLE
5
3
100
AcDbSymbolTable
70
1
0
STYLE
5
11
100
AcDbSymbolTableRecord
100
AcDbTextStyleTableRecord
2
STANDARD
70
0
0
ENDTAB
0
TABLE
2
VIEW
5
6
100
AcDbSymbolTable
70
0
0
ENDTAB
0
TABLE
2
UCS
5
7
100
AcDbSymbolTable
70
0
0
ENDTAB
0
TABLE
2
APPID
5
9
100
AcDbSymbolTable
70
2
0
APPID
5
12
100
AcDbSymbolTableRecord
100
AcDbRegAppTableRecord
2
ACAD
70
0
0
ENDTAB
0
TABLE
2
DIMSTYLE
5
A
100
AcDbSymbolTable
70
1
0
ENDTAB
0
TABLE
2
BLOCK_RECORD
5
1
100
AcDbSymbolTable
70
1
0
BLOCK_RECORD
5
1F
100
AcDbSymbolTableRecord
100
AcDbBlockTableRecord
2
*MODEL_SPACE
0
BLOCK_RECORD
5
1B
100
AcDbSymbolTableRecord
100
AcDbBlockTableRecord
2
*PAPER_SPACE
0
ENDTAB
0
ENDSEC
0
SECTION
2
BLOCKS
0
BLOCK
5
20
100
AcDbEntity
100
AcDbBlockBegin
2
*MODEL_SPACE
0
ENDBLK
5
21
100
AcDbEntity
100
AcDbBlockEnd
0
BLOCK
5
1C
100
AcDbEntity
100
AcDbBlockBegin
2
*PAPER_SPACE
0
ENDBLK
5
1D
100
AcDbEntity
100
AcDbBlockEnd
0
ENDSEC
0
SECTION
2
ENTITIES
0
LWPOLYLINE
5
100
100
AcDbEntity
8
0
100
AcDbPolyline
90
32
70
1
43
0.0
10
-4.81652528047562
20
165.91572369441607
10
-4.81652528047562
20
159.91572369441604
10
2.6834747195243791
20
159.91572369441604
10
2.6834747195243791
20
165.91572369441607
10
10.183474719524375
20
165.91572369441607
10
10.183474719524376
20
159.91572369441604
10
17.683474719524376
20
159.91572369441604
10
17.683474719524376
20
165.91572369441607
10
25.183474719524376
20
165.91572369441607
10
25.183474719524369
20
159.91572369441604
10
32.683474719524384
20
159.91572369441613
10
32.683474719524391
20
232.1657236944161
10
25.183474719524376
20
232.16572369441599
10
25.183474719524376
20
226.16572369441599
10
17.683474719524376
20
226.16572369441599
10
17.68347471952438
20
232.16572369441599
10
10.183474719524384
20
232.16572369441599
10
10.183474719524384
20
226.16572369441599
10
2.6834747195243858
20
226.16572369441599
10
2.6834747195243844
20
232.16572369441599
10
-4.8165252804756147
20
232.16572369441599
10
-4.8165252804756156
20
226.16572369441599
10
-12.316525280475616
20
226.16572369441599
10
-12.316525280475615
20
232.16572369441599
10
-19.816525280475613
20
232.16572369441599
10
-19.816525280475609
20
226.16572369441599
10
-27.316525280475609
20
226.16572369441599
10
-27.316525280475624
20
165.91572369441607
10
-19.81652528047562
20
165.91572369441607
10
-19.816525280475613
20
159.91572369441604
10
-12.316525280475616
20
159.91572369441604
10
-12.316525280475618
20
165.91572369441607
0
CIRCLE
5
101
100
AcDbEntity
8
0
100
AcDbCircle
10
-20.886525280475603
20
172.34572369441617
30
-8.8817841970012523e-15
40
1.8750000000000087
210
1.6933979332458204e-32
220
-8.8049029580097492e-49
230
1
0
CIRCLE
5
102
100
AcDbEntity
8
0
100
AcDbCircle
10
-20.88652528047561
20
219.48572369441615
30
0
40
1.8749999999999998
210
-7.7179239556984091e-33
220
4.0129712061812536e-49
230
1
0
CIRCLE
5
103
100
AcDbEntity
8
0
100
AcDbCircle
10
26.253474719524384
20
172.34572369441617
30
0
40
1.8749999999999998
210
-7.7179239556984091e-33
220
4.0129712061812536e-49
230
1
0
CIRCLE
5
104
100
AcDbEntity
8
0
100
AcDbCircle
10
2.6834747195243946
20
195.91572369441616
30
0
40
20.499999999999993
210
-7.7179239556984174e-33
220
1.9721522630525295e-31
230
1
0
CIRCLE
5
105
100
AcDbEntity
8
0
100
AcDbCircle
10
26.253474719524394
20
219.48572369441615
30
8.8817841970012523e-15
40
1.8749999999999951
210
-7.717923955698416e-33
220
4.0129712061812567e-49
230
1
0
ENDSEC
0
SECTION
2
OBJECTS
0
DICTIONARY
5
C
100
AcDbDictionary
3
ACAD_GROUP
350
D
3
ACAD_MLINESTYLE
350
17
0
DICTIONARY
5
D
100
AcDbDictionary
0
DICTIONARY
5
1A
330
C
100
AcDbDictionary
0
DICTIONARY
5
17
100
AcDbDictionary
0
ENDSEC
0
EOF
