0
SECTION
2
HEADER
9
$INSUNITS
70
4
9
$ACADVER
1
AC1014
9
$HANDSEED
5
FFFF
0
ENDSEC
0
SECTION
2
TABLES
0
TABLE
2
VPORT
5
8
100
AcDbSymbolTable
0
ENDTAB
0
TABLE
2
LTYPE
5
5
100
AcDbSymbolTable
0
LTYPE
5
14
100
AcDbSymbolTableRecord
100
AcDbLinetypeTableRecord
2
BYBLOCK
70
0
0
LTYPE
5
15
100
AcDbSymbolTableRecord
100
AcDbLinetypeTableRecord
2
BYLAYER
70
0
0
ENDTAB
0
TABLE
2
LAYER
5
2
100
AcDbSymbolTable
70
2
0
LAYER
5
50
100
AcDbSymbolTableRecord
100
AcDbLayerTableRecord
2
0
70
0
6
CONTINUOUS
0
ENDTAB
0
TABLE
2
STYLE
5
3
100
AcDbSymbolTable
70
1
0
STYLE
5
11
100
AcDbSymbolTableRecord
100
AcDbTextStyleTableRecord
2
STANDARD
70
0
0
ENDTAB
0
TABLE
2
VIEW
5
6
100
AcDbSymbolTable
70
0
0
ENDTAB
0
TABLE
2
UCS
5
7
100
AcDbSymbolTable
70
0
0
ENDTAB
0
TABLE
2
APPID
5
9
100
AcDbSymbolTable
70
2
0
APPID
5
12
100
AcDbSymbolTableRecord
100
AcDbRegAppTableRecord
2
ACAD
70
0
0
ENDTAB
0
TABLE
2
DIMSTYLE
5
A
100
AcDbSymbolTable
70
1
0
ENDTAB
0
TABLE
2
BLOCK_RECORD
5
1
100
AcDbSymbolTable
70
1
0
BLOCK_RECORD
5
1F
100
AcDbSymbolTableRecord
100
AcDbBlockTableRecord
2
*MODEL_SPACE
0
BLOCK_RECORD
5
1B
100
AcDbSymbolTableRecord
100
AcDbBlockTableRecord
2
*PAPER_SPACE
0
ENDTAB
0
ENDSEC
0
SECTION
2
BLOCKS
0
BLOCK
5
20
100
AcDbEntity
100
AcDbBlockBegin
2
*MODEL_SPACE
0
ENDBLK
5
21
100
AcDbEntity
100
AcDbBlockEnd
0
BLOCK
5
1C
100
AcDbEntity
100
AcDbBlockBegin
2
*PAPER_SPACE
0
ENDBLK
5
1D
100
AcDbEntity
100
AcDbBlockEnd
0
ENDSEC
0
SECTION
2
ENTITIES
0
LINE
5
100
100
AcDbEntity
8
0
100
AcDbLine
10
27.316525280479141
20
168.91572287678679
30
1.7763568394002505e-14
11
27.316525280480768
21
249.46954843858316
31
1.7763568394002505e-14
0
LINE
5
101
100
AcDbEntity
8
0
100
AcDbLine
10
27.316525280480768
20
249.46954843858316
30
1.7763568394002505e-14
11
15.762699718684114
21
249.46954843858339
31
-4.6239908742329555e-31
0
LINE
5
102
100
AcDbEntity
8
0
100
AcDbLine
10
15.762699718684114
20
249.46954843858339
30
-4.6239908742329555e-31
11
15.76269971868423
21
255.46954843858344
31
-1.7763568394002505e-14
0
LINE
5
103
100
AcDbEntity
8
0
100
AcDbLine
10
15.76269971868423
20
255.46954843858344
30
-1.7763568394002505e-14
11
8.2626997186842281
21
255.46954843858359
31
4.1174157505306161e-32
0
LINE
5
104
100
AcDbEntity
8
0
100
AcDbLine
10
8.2626997186842281
20
255.46954843858359
30
4.1174157505306161e-32
11
8.2626997186841074
21
249.46954843858356
31
0
0
LINE
5
105
100
AcDbEntity
8
0
100
AcDbLine
10
8.2626997186841074
20
249.46954843858356
30
0
11
0.76269971868410669
21
249.46954843858373
31
4.1174157504633538e-32
0
LINE
5
106
100
AcDbEntity
8
0
100
AcDbLine
10
0.76269971868410669
20
249.46954843858373
30
4.1174157504633538e-32
11
0.76269971868423092
21
255.46954843858373
31
0
0
LINE
5
107
100
AcDbEntity
8
0
100
AcDbLine
10
0.76269971868423092
20
255.46954843858373
30
0
11
-6.7373002813157719
21
255.46954843858387
31
4.1174157505081954e-32
0
LINE
5
108
100
AcDbEntity
8
0
100
AcDbLine
10
-6.7373002813157719
20
255.46954843858387
30
4.1174157505081954e-32
11
-6.7373002813158944
21
249.46954843858384
31
1.7763568394002505e-14
0
LINE
5
109
100
AcDbEntity
8
0
100
AcDbLine
10
-6.7373002813158944
20
249.46954843858384
30
1.7763568394002505e-14
11
-14.237300281315894
21
249.46954843858401
31
4.1174157504857746e-32
0
LINE
5
110
100
AcDbEntity
8
0
100
AcDbLine
10
-14.237300281315894
20
249.46954843858401
30
4.1174157504857746e-32
11
-14.237300281315775
21
255.46954843858401
31
0
0
LINE
5
111
100
AcDbEntity
8
0
100
AcDbLine
10
-14.237300281315775
20
255.46954843858401
30
0
11
-21.737300281315779
21
255.46954843858416
31
1.7763568394002505e-14
0
LINE
5
112
100
AcDbEntity
8
0
100
AcDbLine
10
-21.737300281315779
20
255.46954843858416
30
1.7763568394002505e-14
11
-21.7373002813159
21
249.46954843858413
31
0
0
LINE
5
113
100
AcDbEntity
8
0
100
AcDbLine
10
-21.7373002813159
20
249.46954843858413
30
0
11
-29.237300281315903
21
249.4695484385843
31
-1.7763568394002505e-14
0
LINE
5
114
100
AcDbEntity
8
0
100
AcDbLine
10
-29.237300281315903
20
249.4695484385843
30
-1.7763568394002505e-14
11
-29.237300281315775
21
255.46954843858435
31
0
0
LINE
5
115
100
AcDbEntity
8
0
100
AcDbLine
10
-29.237300281315775
20
255.46954843858435
30
0
11
-36.737300281315783
21
255.46954843858452
31
4.1174157504857746e-32
0
LINE
5
116
100
AcDbEntity
8
0
100
AcDbLine
10
-36.737300281315783
20
255.46954843858452
30
4.1174157504857746e-32
11
-36.737300281315903
21
249.4695484385845
31
0
0
LINE
5
117
100
AcDbEntity
8
0
100
AcDbLine
10
-36.737300281315903
20
249.4695484385845
30
0
11
-44.237300281315903
21
249.46954843858464
31
4.1174157504857746e-32
0
LINE
5
118
100
AcDbEntity
8
0
100
AcDbLine
10
-44.237300281315903
20
249.46954843858464
30
4.1174157504857746e-32
11
-44.237300281315783
21
255.46954843858464
31
0
0
LINE
5
119
100
AcDbEntity
8
0
100
AcDbLine
10
-44.237300281315783
20
255.46954843858464
30
0
11
-51.737300281315783
21
255.46954843858481
31
1.7763568394002505e-14
0
LINE
5
120
100
AcDbEntity
8
0
100
AcDbLine
10
-51.737300281315783
20
255.46954843858481
30
1.7763568394002505e-14
11
-51.737300281315903
21
249.46954843858478
31
1.7763568394002505e-14
0
LINE
5
121
100
AcDbEntity
8
0
100
AcDbLine
10
-51.737300281315903
20
249.46954843858478
30
1.7763568394002505e-14
11
-59.237300281315903
21
249.46954843858492
31
4.1174157504857746e-32
0
LINE
5
122
100
AcDbEntity
8
0
100
AcDbLine
10
-59.237300281315903
20
249.46954843858492
30
4.1174157504857746e-32
11
-59.237300281316053
21
241.96954843858492
31
0
0
LINE
5
123
100
AcDbEntity
8
0
100
AcDbLine
10
-59.237300281316053
20
241.96954843858492
30
0
11
-53.23730028131606
21
241.96954843858481
31
-2.3015455230878042e-31
0
LINE
5
124
100
AcDbEntity
8
0
100
AcDbLine
10
-53.23730028131606
20
241.96954843858481
30
-2.3015455230878042e-31
11
-53.237300281316209
21
234.46954843858487
31
0
0
LINE
5
125
100
AcDbEntity
8
0
100
AcDbLine
10
-53.237300281316209
20
234.46954843858487
30
0
11
-59.237300281316216
21
234.46954843858495
31
2.3015455230878042e-31
0
LINE
5
126
100
AcDbEntity
8
0
100
AcDbLine
10
-59.237300281316216
20
234.46954843858495
30
2.3015455230878042e-31
11
-59.237300281316365
21
226.96954843858492
31
-7.8886090522101181e-30
0
LINE
5
127
100
AcDbEntity
8
0
100
AcDbLine
10
-59.237300281316365
20
226.96954843858492
30
-7.8886090522101181e-30
11
-53.237300281316365
21
226.96954843858481
31
7.5592157921737224e-31
0
LINE
5
128
100
AcDbEntity
8
0
100
AcDbLine
10
-53.237300281316365
20
226.96954843858481
30
7.5592157921737224e-31
11
-53.237300281316521
21
219.46954843858487
31
-7.8886090522101181e-30
0
LINE
5
129
100
AcDbEntity
8
0
100
AcDbLine
10
-53.237300281316521
20
219.46954843858487
30
-7.8886090522101181e-30
11
-59.237300281316514
21
219.46954843858495
31
2.3015455230878042e-31
0
LINE
5
130
100
AcDbEntity
8
0
100
AcDbLine
10
-59.237300281316514
20
219.46954843858495
30
2.3015455230878042e-31
11
-59.237300281316678
21
211.96954843858498
31
0
0
LINE
5
131
100
AcDbEntity
8
0
100
AcDbLine
10
-59.237300281316678
20
211.96954843858498
30
0
11
-53.237300281316671
21
211.96954843858489
31
-2.3015455231012566e-31
0
LINE
5
132
100
AcDbEntity
8
0
100
AcDbLine
10
-53.237300281316671
20
211.96954843858489
30
-2.3015455231012566e-31
11
-53.23730028131682
21
204.46954843858487
31
0
0
LINE
5
133
100
AcDbEntity
8
0
100
AcDbLine
10
-53.23730028131682
20
204.46954843858487
30
0
11
-59.237300281316834
21
204.46954843858495
31
1.7763568394002505e-14
0
LINE
5
134
100
AcDbEntity
8
0
100
AcDbLine
10
-59.237300281316834
20
204.46954843858495
30
1.7763568394002505e-14
11
-59.237300281316934
21
198.91572287678878
31
1.7763568394002505e-14
0
SPLINE
5
135
100
AcDbEntity
8
0
100
AcDbSpline
70
4
71
5
72
21
73
15
74
0
42
0.000000001
43
0.0000000001
44
0.0000000001
40
0
40
0
40
0
40
0
40
0
40
0
40
0.10000000000000001
40
0.20000000000000001
40
0.30000000000000004
40
0.40000000000000002
40
0.5
40
0.59999999999999998
40
0.69999999999999996
40
0.79999999999999993
40
0.89999999999999991
40
1
40
1
40
1
40
1
40
1
40
1
41
1
41
1
41
1
41
1
41
1
41
1
41
1
41
1
41
1
41
1
41
1
41
1
41
1
41
1
41
1
10
-59.237300281316934
20
198.91572287678878
30
0
10
-58.990199577433046
20
198.06436807504861
30
0
10
-58.471198697731843
20
196.3836091666262
30
0
10
-57.618301242398793
20
193.92832087105901
30
0
10
-56.329844739514641
20
190.78848743986313
30
0
10
-54.450064856916292
20
187.10198016987505
30
1.7763568394002505e-14
10
-52.27701674558017
20
183.67505267951424
30
0
10
-49.78676748753162
20
180.52888865308853
30
0
10
-46.966251633202361
20
177.67505267955505
30
0
10
-43.828534632165528
20
175.10198016994673
30
0
10
-40.397549402400436
20
172.78848743994678
30
0
10
-37.437393815403958
20
171.12832087112793
30
0
10
-35.10383220333356
20
169.98360916666746
30
0
10
-33.498527038102409
20
169.2643680750632
30
0
10
-32.68347471952093
20
168.91572287678798
30
0
0
LINE
5
136
100
AcDbEntity
8
0
100
AcDbLine
10
-32.683474719520923
20
168.91572287678798
30
0
11
27.316525280479141
21
168.91572287678679
31
1.7763568394002505e-14
0
CIRCLE
5
137
100
AcDbEntity
8
0
100
AcDbCircle
10
-2.6834747195203139
20
198.91572287678756
30
0
40
11.250000000000011
210
-6.0248521101113236e-32
220
-1.5777218104420224e-30
230
1
0
ENDSEC
0
SECTION
2
OBJECTS
0
DICTIONARY
5
C
100
AcDbDictionary
3
ACAD_GROUP
350
D
3
ACAD_MLINESTYLE
350
17
0
DICTIONARY
5
D
100
AcDbDictionary
0
DICTIONARY
5
1A
330
C
100
AcDbDictionary
0
DICTIONARY
5
17
100
AcDbDictionary
0
ENDSEC
0
EOF
