0
SECTION
2
HEADER
9
$INSUNITS
70
4
9
$ACADVER
1
AC1014
9
$HANDSEED
5
FFFF
0
ENDSEC
0
SECTION
2
TABLES
0
TABLE
2
VPORT
5
8
100
AcDbSymbolTable
0
ENDTAB
0
TABLE
2
LTYPE
5
5
100
AcDbSymbolTable
0
LTYPE
5
14
100
AcDbSymbolTableRecord
100
AcDbLinetypeTableRecord
2
BYBLOCK
70
0
0
LTYPE
5
15
100
AcDbSymbolTableRecord
100
AcDbLinetypeTableRecord
2
BYLAYER
70
0
0
ENDTAB
0
TABLE
2
LAYER
5
2
100
AcDbSymbolTable
70
2
0
LAYER
5
50
100
AcDbSymbolTableRecord
100
AcDbLayerTableRecord
2
0
70
0
6
CONTINUOUS
0
ENDTAB
0
TABLE
2
STYLE
5
3
100
AcDbSymbolTable
70
1
0
STYLE
5
11
100
AcDbSymbolTableRecord
100
AcDbTextStyleTableRecord
2
STANDARD
70
0
0
ENDTAB
0
TABLE
2
VIEW
5
6
100
AcDbSymbolTable
70
0
0
ENDTAB
0
TABLE
2
UCS
5
7
100
AcDbSymbolTable
70
0
0
ENDTAB
0
TABLE
2
APPID
5
9
100
AcDbSymbolTable
70
2
0
APPID
5
12
100
AcDbSymbolTableRecord
100
AcDbRegAppTableRecord
2
ACAD
70
0
0
ENDTAB
0
TABLE
2
DIMSTYLE
5
A
100
AcDbSymbolTable
70
1
0
ENDTAB
0
TABLE
2
BLOCK_RECORD
5
1
100
AcDbSymbolTable
70
1
0
BLOCK_RECORD
5
1F
100
AcDbSymbolTableRecord
100
AcDbBlockTableRecord
2
*MODEL_SPACE
0
BLOCK_RECORD
5
1B
100
AcDbSymbolTableRecord
100
AcDbBlockTableRecord
2
*PAPER_SPACE
0
ENDTAB
0
ENDSEC
0
SECTION
2
BLOCKS
0
BLOCK
5
20
100
AcDbEntity
100
AcDbBlockBegin
2
*MODEL_SPACE
0
ENDBLK
5
21
100
AcDbEntity
100
AcDbBlockEnd
0
BLOCK
5
1C
100
AcDbEntity
100
AcDbBlockBegin
2
*PAPER_SPACE
0
ENDBLK
5
1D
100
AcDbEntity
100
AcDbBlockEnd
0
ENDSEC
0
SECTION
2
ENTITIES
0
LWPOLYLINE
5
100
100
AcDbEntity
8
0
100
AcDbPolyline
90
76
70
1
43
0.0
10
93.336197746315563
20
249.46954843858464
10
73.33619774632561
20
249.46954843858438
10
73.336197746325539
20
255.46954843858435
10
65.836197746325539
20
255.4695484385843
10
65.836197746325581
20
249.4695484385843
10
58.336197746325588
20
249.46954843858421
10
58.336197746325539
20
255.46954843858424
10
50.836197746325539
20
255.46954843858416
10
50.836197746325588
20
249.46954843858421
10
43.336197746325588
20
249.46954843858413
10
43.336197746325539
20
255.46954843858416
10
35.836197746325553
20
255.46954843858407
10
35.83619774632561
20
249.46954843858407
10
28.33619774632561
20
249.46954843858401
10
28.336197746325563
20
255.46954843858401
10
20.836197746325563
20
255.46954843858396
10
20.83619774632561
20
249.46954843858393
10
13.336197746325604
20
249.46954843858384
10
13.336197746325558
20
255.46954843858396
10
5.8361977463255599
20
255.46954843858387
10
5.8361977463256043
20
249.46954843858384
10
-1.6638022536743935
20
249.46954843858379
10
-1.6638022536744381
20
255.46954843858379
10
-9.1638022536744383
20
255.46954843858373
10
-9.1638022536743939
20
249.46954843858373
10
-16.663802253674394
20
249.46954843858364
10
-16.663802253674437
20
255.46954843858373
10
-24.163802253674433
20
255.46954843858367
10
-24.163802253674383
20
249.46954843858364
10
-31.663802253674383
20
249.46954843858356
10
-31.663802253674426
20
255.46954843858359
10
-39.16380225367444
20
255.4695484385835
10
-39.163802253674397
20
249.4695484385835
10
-46.66380225367439
20
249.46954843858344
10
-46.66380225367444
20
255.46954843858344
10
-54.16380225367444
20
255.46954843858339
10
-54.163802253674397
20
249.46954843858344
10
-61.663802253674397
20
249.46954843858336
10
-61.66380225367444
20
255.46954843858339
10
-69.163802253674447
20
255.4695484385833
10
-69.16380225367439
20
249.46954843858327
10
-76.66380225367439
20
249.46954843858322
10
-76.663802253674447
20
255.46954843858322
10
-84.163802253674476
20
255.46954843858316
10
-84.163802253674405
20
249.46954843858316
10
-91.663802253674405
20
249.46954843858308
10
-91.663802253674461
20
255.46954843858316
10
-99.163802253674461
20
255.4695484385831
10
-99.163802253674405
20
249.46954843858308
10
-106.66380225367446
20
249.46954843858319
10
-106.66380225367439
20
241.96954843858282
10
-112.66380225367439
20
241.96954843858282
10
-112.66380225367433
20
234.46954843858279
10
-106.66380225367433
20
234.46954843858282
10
-106.66380225367428
20
226.96954843858288
10
-112.66380225367428
20
226.96954843858282
10
-112.66380225367422
20
219.46954843858282
10
-106.66380225367422
20
219.4695484385829
10
-106.66380225367418
20
211.96954843858293
10
-112.66380225367416
20
211.9695484385829
10
-112.66380225367412
20
204.46954843858288
10
-106.66380225367412
20
204.4695484385829
10
-106.66380225367389
20
198.91572287678682
10
93.336197746315889
20
198.91572287678815
10
93.336197746315889
20
204.46954843858441
10
99.336197746315875
20
204.46954843858447
10
99.336197746315818
20
211.9695484385845
10
93.336197746315833
20
211.96954843858447
10
93.336197746315776
20
219.46954843858441
10
99.336197746315776
20
219.46954843858447
10
99.336197746315719
20
226.96954843858447
10
93.336197746315719
20
226.96954843858438
10
93.336197746315662
20
234.46954843858435
10
99.336197746315662
20
234.46954843858438
10
99.336197746315605
20
241.96954843858441
10
93.336197746315605
20
241.96954843858438
0
ENDSEC
0
SECTION
2
OBJECTS
0
DICTIONARY
5
C
100
AcDbDictionary
3
ACAD_GROUP
350
D
3
ACAD_MLINESTYLE
350
17
0
DICTIONARY
5
D
100
AcDbDictionary
0
DICTIONARY
5
1A
330
C
100
AcDbDictionary
0
DICTIONARY
5
17
100
AcDbDictionary
0
ENDSEC
0
EOF
