0
SECTION
2
HEADER
9
$INSUNITS
70
4
9
$ACADVER
1
AC1014
9
$HANDSEED
5
FFFF
0
ENDSEC
0
SECTION
2
TABLES
0
TABLE
2
VPORT
5
8
100
AcDbSymbolTable
0
ENDTAB
0
TABLE
2
LTYPE
5
5
100
AcDbSymbolTable
0
LTYPE
5
14
100
AcDbSymbolTableRecord
100
AcDbLinetypeTableRecord
2
BYBLOCK
70
0
0
LTYPE
5
15
100
AcDbSymbolTableRecord
100
AcDbLinetypeTableRecord
2
BYLAYER
70
0
0
ENDTAB
0
TABLE
2
LAYER
5
2
100
AcDbSymbolTable
70
2
0
LAYER
5
50
100
AcDbSymbolTableRecord
100
AcDbLayerTableRecord
2
0
70
0
6
CONTINUOUS
0
ENDTAB
0
TABLE
2
STYLE
5
3
100
AcDbSymbolTable
70
1
0
STYLE
5
11
100
AcDbSymbolTableRecord
100
AcDbTextStyleTableRecord
2
STANDARD
70
0
0
ENDTAB
0
TABLE
2
VIEW
5
6
100
AcDbSymbolTable
70
0
0
ENDTAB
0
TABLE
2
UCS
5
7
100
AcDbSymbolTable
70
0
0
ENDTAB
0
TABLE
2
APPID
5
9
100
AcDbSymbolTable
70
2
0
APPID
5
12
100
AcDbSymbolTableRecord
100
AcDbRegAppTableRecord
2
ACAD
70
0
0
ENDTAB
0
TABLE
2
DIMSTYLE
5
A
100
AcDbSymbolTable
70
1
0
ENDTAB
0
TABLE
2
BLOCK_RECORD
5
1
100
AcDbSymbolTable
70
1
0
BLOCK_RECORD
5
1F
100
AcDbSymbolTableRecord
100
AcDbBlockTableRecord
2
*MODEL_SPACE
0
BLOCK_RECORD
5
1B
100
AcDbSymbolTableRecord
100
AcDbBlockTableRecord
2
*PAPER_SPACE
0
ENDTAB
0
ENDSEC
0
SECTION
2
BLOCKS
0
BLOCK
5
20
100
AcDbEntity
100
AcDbBlockBegin
2
*MODEL_SPACE
0
ENDBLK
5
21
100
AcDbEntity
100
AcDbBlockEnd
0
BLOCK
5
1C
100
AcDbEntity
100
AcDbBlockBegin
2
*PAPER_SPACE
0
ENDBLK
5
1D
100
AcDbEntity
100
AcDbBlockEnd
0
ENDSEC
0
SECTION
2
ENTITIES
0
LWPOLYLINE
5
100
100
AcDbEntity
8
0
100
AcDbPolyline
90
116
70
1
43
0.0
10
-21.500000000022339
20
36.500000000032273
10
-27.3165252729553
20
36.500000000032273
10
-27.316525272955253
20
29.000000000032276
10
-21.500000000022339
20
29.000000000032276
10
-21.500000000022339
20
21.500000000032276
10
-27.316525272955211
20
21.500000000032276
10
-27.316525272954955
20
-21.499999999888807
10
-21.500000000022922
20
-21.499999999888967
10
-21.500000000023128
20
-28.999999999888967
10
-27.316525272954912
20
-28.999999999888814
10
-27.31652527295487
20
-36.499999999888814
10
-21.500000000023331
20
-36.499999999888971
10
-21.500000000023537
20
-43.999999999888963
10
-27.316525272954824
20
-43.999999999888821
10
-27.316525272954777
20
-51.499999999891017
10
-21.500000000006324
20
-51.499999999891166
10
-21.500000000006487
20
-57.499999999927866
10
-27.316525272954742
20
-57.499999999927709
10
-27.316525272954543
20
-96.163802294613973
10
-18.7626997111579
20
-96.163802294613902
10
-18.762699711157939
20
-90.163802294613916
10
-11.262699711157936
20
-90.163802294613888
10
-11.262699711157902
20
-96.163802294613859
10
-3.7626997111579041
20
-96.163802294613831
10
-3.7626997111579379
20
-90.163802294613816
10
3.7373002888420621
20
-90.163802294613774
10
3.7373002888420972
20
-96.163802294613788
10
11.237300288842093
20
-96.16380229461376
10
11.237300288842061
20
-90.163802294613774
10
18.737300288842057
20
-90.163802294613703
10
18.737300288842093
20
-96.163802294613689
10
26.237300288842089
20
-96.163802294613646
10
26.237300288842057
20
-90.163802294613674
10
33.737300288842057
20
-90.163802294613603
10
33.737300288842093
20
-96.163802294613618
10
41.2373002888421
20
-96.163802294613575
10
41.237300288842064
20
-90.163802294613561
10
48.737300288842064
20
-90.163802294613532
10
48.7373002888421
20
-96.163802294613504
10
56.2373002888421
20
-96.163802294613475
10
56.237300288842064
20
-82.663802294613461
10
50.237300288842064
20
-82.663802294613461
10
50.237300288842064
20
-75.163802294613447
10
56.237300288842064
20
-75.163802294613447
10
56.237300288842064
20
-67.663802294613447
10
50.237300288842064
20
-67.663802294613447
10
50.237300288842064
20
-60.16380229461344
10
56.237300288842064
20
-60.16380229461344
10
56.237300288842064
20
-52.66380229461344
10
50.237300288842064
20
-52.66380229461344
10
50.237300288842064
20
-45.16380229461344
10
56.237300288842064
20
-45.16380229461344
10
56.237300288842064
20
-37.66380229461344
10
50.237300288842064
20
-37.663802294613433
10
50.237300288842064
20
-30.163802294613436
10
56.237300288842064
20
-30.163802294613436
10
56.237300288842064
20
-22.663802294613436
10
50.237300288842064
20
-22.663802294613436
10
50.237300288842064
20
-15.163802294613436
10
56.237300288842064
20
-15.163802294613436
10
56.237300288842064
20
-7.6638022946134354
10
50.237300288842064
20
-7.6638022946134354
10
50.237300288842064
20
-0.16380229461343543
10
56.237300288842064
20
-0.1638022946134354
10
56.237300288842064
20
7.3361977053865672
10
50.237300288842064
20
7.3361977053865672
10
50.237300288842064
20
14.836197705386564
10
56.237300288842064
20
14.836197705386564
10
56.237300288842064
20
22.336197705386564
10
50.237300288842064
20
22.336197705386564
10
50.237300288842064
20
29.836197705386564
10
56.237300288842064
20
29.836197705386564
10
56.237300288842064
20
37.336197705386567
10
50.237300288842064
20
37.336197705386567
10
50.237300288842064
20
44.83619770538656
10
56.237300288842064
20
44.83619770538656
10
56.237300288842064
20
52.33619770538656
10
50.237300288842064
20
52.33619770538656
10
50.237300288842064
20
59.83619770538656
10
56.237300288842064
20
59.83619770538656
10
56.237300288842064
20
67.336197705386553
10
50.237300288842064
20
67.336197705386553
10
50.237300288842064
20
74.836197705386553
10
56.237300288842064
20
74.836197705386553
10
56.237300288842064
20
82.336197705386553
10
50.237300288842064
20
82.336197705386553
10
50.237300288842064
20
89.836197705386539
10
56.237300288842064
20
89.836197705386539
10
56.23730028884097
20
99.336197705376549
10
48.73730028884097
20
99.33619770537652
10
48.737300288841006
20
93.336197705376506
10
41.237300288841006
20
93.336197705376463
10
41.23730028884097
20
99.336197705376449
10
33.737300288840963
20
99.336197705376406
10
33.737300288840999
20
93.336197705376435
10
26.237300288841002
20
93.336197705376364
10
26.237300288840967
20
99.336197705376378
10
18.737300288840967
20
99.336197705376335
10
18.737300288840999
20
93.336197705376321
10
11.237300288841004
20
93.33619770537625
10
11.237300288840968
20
99.336197705376264
10
3.7373002888409723
20
99.336197705376236
10
3.7373002888410065
20
93.33619770537625
10
-3.7626997111589935
20
93.336197705376222
10
-3.7626997111590281
20
99.336197705376193
10
-11.262699711159026
20
99.336197705376165
10
-11.262699711158993
20
93.336197705376151
10
-18.762699711158998
20
93.336197705376108
10
-18.762699711159033
20
99.336197705376122
10
-27.316525272955676
20
99.336197705376051
10
-27.316525272955424
20
57.500000000071161
10
-21.500000000004928
20
57.500000000071161
10
-21.500000000004928
20
51.500000000034461
10
-27.316525272955388
20
51.500000000034461
10
-27.316525272955342
20
44.000000000032273
10
-21.500000000022339
20
44.000000000032273
0
LWPOLYLINE
5
101
100
AcDbEntity
8
0
100
AcDbPolyline
90
4
70
1
43
0.0
10
27.499999999972879
20
51.500000000036181
10
21.499999999955467
20
51.500000000035804
10
21.499999999955094
20
57.500000000072482
10
27.499999999972506
20
57.500000000072859
0
LWPOLYLINE
5
102
100
AcDbEntity
8
0
100
AcDbPolyline
90
4
70
1
43
0.0
10
21.499999999979341
20
-36.499999999887635
10
27.499999999979341
20
-36.499999999887095
10
27.499999999980005
20
-43.999999999887095
10
21.499999999980005
20
-43.999999999887642
0
LWPOLYLINE
5
103
100
AcDbEntity
8
0
100
AcDbPolyline
90
4
70
1
43
0.0
10
21.499999999963265
20
-51.499999999889823
10
27.49999999998068
20
-51.49999999988929
10
27.499999999981213
20
-57.49999999992599
10
21.499999999963801
20
-57.49999999992653
0
LWPOLYLINE
5
104
100
AcDbEntity
8
0
100
AcDbPolyline
90
4
70
1
43
0.0
10
27.499999999973813
20
36.500000000033978
10
21.499999999973809
20
36.500000000033609
10
21.49999999997334
20
44.000000000033609
10
27.49999999997334
20
44.000000000033978
0
LWPOLYLINE
5
105
100
AcDbEntity
8
0
100
AcDbPolyline
90
4
70
1
43
0.0
10
6.4999999999761604
20
51.500000000034881
10
6.4999999999757874
20
57.500000000034881
10
13.999999999975788
20
57.500000000035342
10
13.999999999976161
20
51.500000000035342
0
LWPOLYLINE
5
106
100
AcDbEntity
8
0
100
AcDbPolyline
90
4
70
1
43
0.0
10
6.4999999999839631
20
-51.499999999891173
10
13.999999999983963
20
-51.49999999989052
10
13.999999999984498
20
-57.499999999890512
10
6.4999999999844951
20
-57.499999999891173
0
LWPOLYLINE
5
107
100
AcDbEntity
8
0
100
AcDbPolyline
90
4
70
1
43
0.0
10
27.499999999978666
20
-28.999999999887098
10
21.499999999978666
20
-28.999999999887631
10
21.499999999977998
20
-21.499999999887631
10
27.499999999978002
20
-21.499999999887098
0
LWPOLYLINE
5
108
100
AcDbEntity
8
0
100
AcDbPolyline
90
4
70
1
43
0.0
10
-14.000000000027184
20
-57.499999999891386
10
-14.00000000002702
20
-51.499999999891386
10
-6.5000000000270228
20
-51.499999999891585
10
-6.5000000000271818
20
-57.499999999891578
0
LWPOLYLINE
5
109
100
AcDbEntity
8
0
100
AcDbPolyline
90
4
70
1
43
0.0
10
-6.5000000000256231
20
51.500000000034476
10
-14.000000000025622
20
51.500000000034476
10
-14.000000000025622
20
57.500000000034468
10
-6.5000000000256239
20
57.500000000034468
0
LWPOLYLINE
5
110
100
AcDbEntity
8
0
100
AcDbPolyline
90
4
70
1
43
0.0
10
27.499999999974744
20
21.500000000033982
10
21.499999999974744
20
21.500000000033609
10
21.499999999974271
20
29.000000000033609
10
27.499999999974275
20
29.000000000033982
0
ENDSEC
0
SECTION
2
OBJECTS
0
DICTIONARY
5
C
100
AcDbDictionary
3
ACAD_GROUP
350
D
3
ACAD_MLINESTYLE
350
17
0
DICTIONARY
5
D
100
AcDbDictionary
0
DICTIONARY
5
1A
330
C
100
AcDbDictionary
0
DICTIONARY
5
17
100
AcDbDictionary
0
ENDSEC
0
EOF
