0
SECTION
2
HEADER
9
$INSUNITS
70
4
9
$ACADVER
1
AC1014
9
$HANDSEED
5
FFFF
0
ENDSEC
0
SECTION
2
TABLES
0
TABLE
2
VPORT
5
8
100
AcDbSymbolTable
0
ENDTAB
0
TABLE
2
LTYPE
5
5
100
AcDbSymbolTable
0
LTYPE
5
14
100
AcDbSymbolTableRecord
100
AcDbLinetypeTableRecord
2
BYBLOCK
70
0
0
LTYPE
5
15
100
AcDbSymbolTableRecord
100
AcDbLinetypeTableRecord
2
BYLAYER
70
0
0
ENDTAB
0
TABLE
2
LAYER
5
2
100
AcDbSymbolTable
70
2
0
LAYER
5
50
100
AcDbSymbolTableRecord
100
AcDbLayerTableRecord
2
0
70
0
6
CONTINUOUS
0
ENDTAB
0
TABLE
2
STYLE
5
3
100
AcDbSymbolTable
70
1
0
STYLE
5
11
100
AcDbSymbolTableRecord
100
AcDbTextStyleTableRecord
2
STANDARD
70
0
0
ENDTAB
0
TABLE
2
VIEW
5
6
100
AcDbSymbolTable
70
0
0
ENDTAB
0
TABLE
2
UCS
5
7
100
AcDbSymbolTable
70
0
0
ENDTAB
0
TABLE
2
APPID
5
9
100
AcDbSymbolTable
70
2
0
APPID
5
12
100
AcDbSymbolTableRecord
100
AcDbRegAppTableRecord
2
ACAD
70
0
0
ENDTAB
0
TABLE
2
DIMSTYLE
5
A
100
AcDbSymbolTable
70
1
0
ENDTAB
0
TABLE
2
BLOCK_RECORD
5
1
100
AcDbSymbolTable
70
1
0
BLOCK_RECORD
5
1F
100
AcDbSymbolTableRecord
100
AcDbBlockTableRecord
2
*MODEL_SPACE
0
BLOCK_RECORD
5
1B
100
AcDbSymbolTableRecord
100
AcDbBlockTableRecord
2
*PAPER_SPACE
0
ENDTAB
0
ENDSEC
0
SECTION
2
BLOCKS
0
BLOCK
5
20
100
AcDbEntity
100
AcDbBlockBegin
2
*MODEL_SPACE
0
ENDBLK
5
21
100
AcDbEntity
100
AcDbBlockEnd
0
BLOCK
5
1C
100
AcDbEntity
100
AcDbBlockBegin
2
*PAPER_SPACE
0
ENDBLK
5
1D
100
AcDbEntity
100
AcDbBlockEnd
0
ENDSEC
0
SECTION
2
ENTITIES
0
LWPOLYLINE
5
100
100
AcDbEntity
8
0
100
AcDbPolyline
90
76
70
1
43
0.0
10
93.33619774631741
20
243.46954846838628
10
89.8361977463274
20
243.46954846838617
10
89.836197746327414
20
249.46954846838619
10
82.336197746327457
20
249.46954846838619
10
82.336197746327443
20
243.46954846838617
10
74.836197746327443
20
243.46954846838617
10
74.836197746327457
20
249.46954846838619
10
67.336197746327457
20
249.46954846838619
10
67.336197746327457
20
243.46954846838617
10
59.836197746327457
20
243.46954846838617
10
59.836197746327457
20
249.46954846838619
10
52.336197746327457
20
249.46954846838619
10
52.336197746327457
20
243.46954846838617
10
44.836197746327457
20
243.46954846838617
10
44.836197746327457
20
249.46954846838619
10
37.336197746327471
20
249.46954846838619
10
37.336197746327485
20
243.46954846838617
10
29.836197746327478
20
243.46954846838617
10
29.836197746327478
20
249.46954846838619
10
22.336197746327482
20
249.46954846838619
10
22.336197746327482
20
243.46954846838617
10
14.836197746327482
20
243.46954846838617
10
14.836197746327482
20
249.46954846838619
10
7.3361977463274828
20
249.46954846838619
10
7.3361977463274828
20
243.46954846838617
10
-0.16380225367251589
20
243.46954846838617
10
-0.163802253672515
20
249.46954846838619
10
-7.6638022536725128
20
249.46954846838619
10
-7.6638022536725128
20
243.46954846838617
10
-15.163802253672509
20
243.46954846838617
10
-15.163802253672509
20
249.46954846838619
10
-22.663802253672504
20
249.46954846838619
10
-22.6638022536725
20
243.46954846838617
10
-30.163802253672504
20
243.46954846838617
10
-30.163802253672504
20
249.46954846838619
10
-37.663802253672507
20
249.46954846838619
10
-37.663802253672507
20
243.46954846838617
10
-45.163802253672507
20
243.46954846838617
10
-45.163802253672507
20
249.46954846838619
10
-52.663802253672507
20
249.46954846838619
10
-52.663802253672507
20
243.46954846838617
10
-60.163802253672507
20
243.46954846838617
10
-60.163802253672507
20
249.46954846838619
10
-67.663802253672515
20
249.46954846838619
10
-67.663802253672515
20
243.46954846838617
10
-75.163802253672515
20
243.46954846838617
10
-75.163802253672515
20
249.46954846838619
10
-82.663802253672515
20
249.46954846838619
10
-82.663802253672515
20
243.46954846838617
10
-90.163802253672557
20
243.46954846838634
10
-90.163802253672543
20
235.96954846838605
10
-96.163802253672543
20
235.96954846838605
10
-96.163802253672529
20
228.46954846838611
10
-90.163802253672543
20
228.46954846838611
10
-90.163802253672557
20
220.96954846838611
10
-96.163802253672543
20
220.96954846838614
10
-96.163802253672529
20
213.46954846838614
10
-90.163802253672543
20
213.46954846838614
10
-90.163802253672557
20
205.96954846838614
10
-96.163802253672543
20
205.96954846838614
10
-96.163802253672529
20
198.46954846838614
10
-90.163802253672543
20
198.46954846838614
10
-90.163802253672401
20
195.91572290658976
10
93.336197746317367
20
195.91572290658968
10
93.336197746317396
20
198.46954846838614
10
99.336197746317396
20
198.46954846838614
10
99.336197746317382
20
205.96954846838614
10
93.336197746317396
20
205.96954846838614
10
93.33619774631741
20
213.46954846838614
10
99.336197746317396
20
213.46954846838614
10
99.336197746317382
20
220.96954846838614
10
93.336197746317396
20
220.96954846838614
10
93.33619774631741
20
228.46954846838614
10
99.336197746317396
20
228.46954846838611
10
99.336197746317382
20
235.96954846838605
10
93.336197746317396
20
235.96954846838605
0
ENDSEC
0
SECTION
2
OBJECTS
0
DICTIONARY
5
C
100
AcDbDictionary
3
ACAD_GROUP
350
D
3
ACAD_MLINESTYLE
350
17
0
DICTIONARY
5
D
100
AcDbDictionary
0
DICTIONARY
5
1A
330
C
100
AcDbDictionary
0
DICTIONARY
5
17
100
AcDbDictionary
0
ENDSEC
0
EOF
