0
SECTION
2
HEADER
9
$INSUNITS
70
4
9
$ACADVER
1
AC1014
9
$HANDSEED
5
FFFF
0
ENDSEC
0
SECTION
2
TABLES
0
TABLE
2
VPORT
5
8
100
AcDbSymbolTable
0
ENDTAB
0
TABLE
2
LTYPE
5
5
100
AcDbSymbolTable
0
LTYPE
5
14
100
AcDbSymbolTableRecord
100
AcDbLinetypeTableRecord
2
BYBLOCK
70
0
0
LTYPE
5
15
100
AcDbSymbolTableRecord
100
AcDbLinetypeTableRecord
2
BYLAYER
70
0
0
ENDTAB
0
TABLE
2
LAYER
5
2
100
AcDbSymbolTable
70
2
0
LAYER
5
50
100
AcDbSymbolTableRecord
100
AcDbLayerTableRecord
2
0
70
0
6
CONTINUOUS
0
ENDTAB
0
TABLE
2
STYLE
5
3
100
AcDbSymbolTable
70
1
0
STYLE
5
11
100
AcDbSymbolTableRecord
100
AcDbTextStyleTableRecord
2
STANDARD
70
0
0
ENDTAB
0
TABLE
2
VIEW
5
6
100
AcDbSymbolTable
70
0
0
ENDTAB
0
TABLE
2
UCS
5
7
100
AcDbSymbolTable
70
0
0
ENDTAB
0
TABLE
2
APPID
5
9
100
AcDbSymbolTable
70
2
0
APPID
5
12
100
AcDbSymbolTableRecord
100
AcDbRegAppTableRecord
2
ACAD
70
0
0
ENDTAB
0
TABLE
2
DIMSTYLE
5
A
100
AcDbSymbolTable
70
1
0
ENDTAB
0
TABLE
2
BLOCK_RECORD
5
1
100
AcDbSymbolTable
70
1
0
BLOCK_RECORD
5
1F
100
AcDbSymbolTableRecord
100
AcDbBlockTableRecord
2
*MODEL_SPACE
0
BLOCK_RECORD
5
1B
100
AcDbSymbolTableRecord
100
AcDbBlockTableRecord
2
*PAPER_SPACE
0
ENDTAB
0
ENDSEC
0
SECTION
2
BLOCKS
0
BLOCK
5
20
100
AcDbEntity
100
AcDbBlockBegin
2
*MODEL_SPACE
0
ENDBLK
5
21
100
AcDbEntity
100
AcDbBlockEnd
0
BLOCK
5
1C
100
AcDbEntity
100
AcDbBlockBegin
2
*PAPER_SPACE
0
ENDBLK
5
1D
100
AcDbEntity
100
AcDbBlockEnd
0
ENDSEC
0
SECTION
2
ENTITIES
0
LWPOLYLINE
5
100
100
AcDbEntity
8
0
100
AcDbPolyline
90
116
70
1
43
0.0
10
-21.500000000016701
20
36.50000000003012
10
-27.316525272950535
20
36.50000000003012
10
-27.316525272950479
20
29.00000000003012
10
-21.500000000016701
20
29.00000000003012
10
-21.500000000016701
20
21.50000000003012
10
-27.316525272950432
20
21.50000000003012
10
-27.316525272950138
20
-21.49999999989096
10
-21.500000000017284
20
-21.499999999891124
10
-21.500000000017486
20
-28.999999999891124
10
-27.316525272950084
20
-28.999999999890967
10
-27.316525272950038
20
-36.499999999890967
10
-21.500000000017693
20
-36.499999999891124
10
-21.500000000017895
20
-43.999999999891124
10
-27.316525272949981
20
-43.999999999890974
10
-27.316525272949935
20
-51.499999999893163
10
-21.500000000000682
20
-51.499999999893319
10
-21.500000000000846
20
-57.499999999930012
10
-27.316525272949896
20
-57.499999999929862
10
-27.316525272949551
20
-112.66380229461426
10
-15.762699711152894
20
-112.6638022946142
10
-15.762699711152932
20
-106.66380229461421
10
-8.2626997111529317
20
-106.66380229461417
10
-8.2626997111528908
20
-112.66380229461417
10
-0.7626997111528977
20
-112.6638022946141
10
-0.76269971115293833
20
-106.6638022946141
10
6.7373002888470612
20
-106.66380229461407
10
6.7373002888471012
20
-112.66380229461406
10
14.237300288847099
20
-112.66380229461403
10
14.237300288847059
20
-106.66380229461403
10
21.737300288847059
20
-106.66380229461396
10
21.737300288847095
20
-112.66380229461396
10
29.237300288847091
20
-112.66380229461392
10
29.237300288847052
20
-106.66380229461393
10
36.737300288847052
20
-106.66380229461384
10
36.737300288847095
20
-112.66380229461384
10
44.237300288847095
20
-112.66380229461382
10
44.237300288847052
20
-106.66380229461382
10
51.737300288847052
20
-106.66380229461376
10
51.737300288847095
20
-112.66380229461376
10
59.237300288847095
20
-112.6638022946137
10
59.237300288847045
20
-99.163802294613689
10
53.237300288847045
20
-99.163802294613689
10
53.237300288847038
20
-91.663802294613689
10
59.237300288847038
20
-91.663802294613689
10
59.237300288847038
20
-84.163802294613689
10
53.237300288847038
20
-84.163802294613689
10
53.237300288847031
20
-76.663802294613703
10
59.237300288847024
20
-76.663802294613689
10
59.237300288847017
20
-69.163802294613689
10
53.237300288847024
20
-69.163802294613689
10
53.23730028884701
20
-61.663802294613689
10
59.23730028884701
20
-61.663802294613681
10
59.23730028884701
20
-54.163802294613681
10
53.23730028884701
20
-54.163802294613689
10
53.237300288847003
20
-46.663802294613689
10
59.237300288846995
20
-46.663802294613681
10
59.237300288846988
20
-39.163802294613681
10
53.237300288846995
20
-39.163802294613689
10
53.237300288846981
20
-31.663802294613681
10
59.237300288846981
20
-31.663802294613678
10
59.237300288846981
20
-24.163802294613678
10
53.237300288846981
20
-24.163802294613681
10
53.237300288846974
20
-16.663802294613685
10
59.237300288846974
20
-16.663802294613678
10
59.237300288846967
20
-9.1638022946136779
10
53.237300288846967
20
-9.163802294613685
10
53.23730028884696
20
-1.6638022946136832
10
59.237300288846953
20
-1.6638022946136783
10
59.237300288846953
20
5.8361977053863212
10
53.23730028884696
20
5.8361977053863168
10
53.237300288846953
20
13.336197705386315
10
59.237300288846946
20
13.336197705386322
10
59.237300288846939
20
20.836197705386322
10
53.237300288846939
20
20.836197705386319
10
53.237300288846932
20
28.336197705386319
10
59.237300288846924
20
28.336197705386322
10
59.237300288846924
20
35.836197705386319
10
53.237300288846932
20
35.836197705386319
10
53.237300288846924
20
43.336197705386311
10
59.237300288846917
20
43.336197705386319
10
59.23730028884691
20
50.836197705386319
10
53.23730028884691
20
50.836197705386311
10
53.237300288846903
20
58.336197705386311
10
59.237300288846903
20
58.336197705386319
10
59.237300288846903
20
65.836197705386311
10
53.237300288846903
20
65.836197705386311
10
53.237300288846896
20
73.336197705386311
10
59.237300288846896
20
73.336197705386311
10
59.237300288845674
20
99.336197705376321
10
51.737300288845674
20
99.33619770537625
10
51.737300288845717
20
93.33619770537625
10
44.237300288845717
20
93.336197705376208
10
44.237300288845674
20
99.336197705376193
10
36.737300288845688
20
99.336197705376165
10
36.737300288845724
20
93.336197705376165
10
29.237300288845724
20
93.336197705376094
10
29.237300288845685
20
99.336197705376094
10
21.737300288845688
20
99.336197705376051
10
21.737300288845731
20
93.336197705376065
10
14.237300288845729
20
93.33619770537598
10
14.237300288845692
20
99.33619770537598
10
6.7373002888456917
20
99.336197705375952
10
6.7373002888457325
20
93.336197705375952
10
-0.7626997111542666
20
93.336197705375923
10
-0.76269971115430613
20
99.336197705375909
10
-8.2626997111543012
20
99.336197705375838
10
-8.2626997111542586
20
93.336197705375838
10
-15.76269971115426
20
93.33619770537581
10
-15.762699711154305
20
99.33619770537581
10
-27.316525272950962
20
99.336197705375739
10
-27.316525272950678
20
57.500000000069001
10
-21.499999999999289
20
57.500000000069008
10
-21.499999999999289
20
51.500000000032315
10
-27.316525272950635
20
51.500000000032315
10
-27.316525272950582
20
44.00000000003012
10
-21.500000000016701
20
44.00000000003012
0
LWPOLYLINE
5
101
100
AcDbEntity
8
0
100
AcDbPolyline
90
4
70
1
43
0.0
10
27.49999999997852
20
51.500000000034028
10
21.499999999961105
20
51.500000000033658
10
21.499999999960732
20
57.500000000070337
10
27.499999999978147
20
57.500000000070706
0
LWPOLYLINE
5
102
100
AcDbEntity
8
0
100
AcDbPolyline
90
4
70
1
43
0.0
10
21.499999999984979
20
-36.499999999889788
10
27.499999999984979
20
-36.499999999889255
10
27.499999999985647
20
-43.999999999889255
10
21.499999999985647
20
-43.999999999889788
0
LWPOLYLINE
5
103
100
AcDbEntity
8
0
100
AcDbPolyline
90
4
70
1
43
0.0
10
21.499999999968903
20
-51.499999999891976
10
27.499999999986322
20
-51.499999999891443
10
27.499999999986855
20
-57.499999999928136
10
21.49999999996944
20
-57.499999999928676
0
LWPOLYLINE
5
104
100
AcDbEntity
8
0
100
AcDbPolyline
90
4
70
1
43
0.0
10
27.499999999979451
20
36.500000000031825
10
21.499999999979451
20
36.500000000031456
10
21.499999999978982
20
44.000000000031456
10
27.499999999978982
20
44.000000000031825
0
LWPOLYLINE
5
105
100
AcDbEntity
8
0
100
AcDbPolyline
90
4
70
1
43
0.0
10
6.4999999999818039
20
51.500000000032735
10
6.4999999999814309
20
57.500000000032728
10
13.99999999998143
20
57.500000000033189
10
13.999999999981803
20
51.500000000033197
0
LWPOLYLINE
5
106
100
AcDbEntity
8
0
100
AcDbPolyline
90
4
70
1
43
0.0
10
6.4999999999896065
20
-51.499999999893326
10
13.999999999989603
20
-51.499999999892665
10
13.999999999990141
20
-57.499999999892665
10
6.4999999999901394
20
-57.499999999893319
0
LWPOLYLINE
5
107
100
AcDbEntity
8
0
100
AcDbPolyline
90
4
70
1
43
0.0
10
27.499999999984304
20
-28.999999999889251
10
21.499999999984304
20
-28.999999999889784
10
21.49999999998364
20
-21.499999999889784
10
27.49999999998364
20
-21.499999999889251
0
LWPOLYLINE
5
108
100
AcDbEntity
8
0
100
AcDbPolyline
90
4
70
1
43
0.0
10
-14.000000000021542
20
-57.499999999893532
10
-14.000000000021377
20
-51.499999999893539
10
-6.5000000000213785
20
-51.499999999893731
10
-6.5000000000215383
20
-57.499999999893731
0
LWPOLYLINE
5
109
100
AcDbEntity
8
0
100
AcDbPolyline
90
4
70
1
43
0.0
10
-6.5000000000199796
20
51.500000000032323
10
-14.00000000001998
20
51.500000000032323
10
-14.00000000001998
20
57.500000000032323
10
-6.5000000000199796
20
57.500000000032323
0
LWPOLYLINE
5
110
100
AcDbEntity
8
0
100
AcDbPolyline
90
4
70
1
43
0.0
10
27.499999999980385
20
21.500000000031825
10
21.499999999980382
20
21.500000000031456
10
21.499999999979913
20
29.000000000031456
10
27.499999999979913
20
29.000000000031825
0
ENDSEC
0
SECTION
2
OBJECTS
0
DICTIONARY
5
C
100
AcDbDictionary
3
ACAD_GROUP
350
D
3
ACAD_MLINESTYLE
350
17
0
DICTIONARY
5
D
100
AcDbDictionary
0
DICTIONARY
5
1A
330
C
100
AcDbDictionary
0
DICTIONARY
5
17
100
AcDbDictionary
0
ENDSEC
0
EOF
