0
SECTION
2
HEADER
9
$INSUNITS
70
4
9
$ACADVER
1
AC1014
9
$HANDSEED
5
FFFF
0
ENDSEC
0
SECTION
2
TABLES
0
TABLE
2
VPORT
5
8
100
AcDbSymbolTable
0
ENDTAB
0
TABLE
2
LTYPE
5
5
100
AcDbSymbolTable
0
LTYPE
5
14
100
AcDbSymbolTableRecord
100
AcDbLinetypeTableRecord
2
BYBLOCK
70
0
0
LTYPE
5
15
100
AcDbSymbolTableRecord
100
AcDbLinetypeTableRecord
2
BYLAYER
70
0
0
ENDTAB
0
TABLE
2
LAYER
5
2
100
AcDbSymbolTable
70
2
0
LAYER
5
50
100
AcDbSymbolTableRecord
100
AcDbLayerTableRecord
2
0
70
0
6
CONTINUOUS
0
ENDTAB
0
TABLE
2
STYLE
5
3
100
AcDbSymbolTable
70
1
0
STYLE
5
11
100
AcDbSymbolTableRecord
100
AcDbTextStyleTableRecord
2
STANDARD
70
0
0
ENDTAB
0
TABLE
2
VIEW
5
6
100
AcDbSymbolTable
70
0
0
ENDTAB
0
TABLE
2
UCS
5
7
100
AcDbSymbolTable
70
0
0
ENDTAB
0
TABLE
2
APPID
5
9
100
AcDbSymbolTable
70
2
0
APPID
5
12
100
AcDbSymbolTableRecord
100
AcDbRegAppTableRecord
2
ACAD
70
0
0
ENDTAB
0
TABLE
2
DIMSTYLE
5
A
100
AcDbSymbolTable
70
1
0
ENDTAB
0
TABLE
2
BLOCK_RECORD
5
1
100
AcDbSymbolTable
70
1
0
BLOCK_RECORD
5
1F
100
AcDbSymbolTableRecord
100
AcDbBlockTableRecord
2
*MODEL_SPACE
0
BLOCK_RECORD
5
1B
100
AcDbSymbolTableRecord
100
AcDbBlockTableRecord
2
*PAPER_SPACE
0
ENDTAB
0
ENDSEC
0
SECTION
2
BLOCKS
0
BLOCK
5
20
100
AcDbEntity
100
AcDbBlockBegin
2
*MODEL_SPACE
0
ENDBLK
5
21
100
AcDbEntity
100
AcDbBlockEnd
0
BLOCK
5
1C
100
AcDbEntity
100
AcDbBlockBegin
2
*PAPER_SPACE
0
ENDBLK
5
1D
100
AcDbEntity
100
AcDbBlockEnd
0
ENDSEC
0
SECTION
2
ENTITIES
0
LINE
5
100
100
AcDbEntity
8
0
100
AcDbLine
10
11.237300281322129
20
249.46954846838622
30
0
11
11.237300281322129
21
243.46954846838622
31
0
0
LINE
5
101
100
AcDbEntity
8
0
100
AcDbLine
10
11.237300281322129
20
243.46954846838622
30
0
11
3.7373002813221312
21
243.46954846838622
31
1.7333369879121241e-32
0
LINE
5
102
100
AcDbEntity
8
0
100
AcDbLine
10
3.7373002813221312
20
243.46954846838622
30
1.7333369879121241e-32
11
3.7373002813221294
21
249.46954846838622
31
1.2325951644078309e-31
0
LINE
5
103
100
AcDbEntity
8
0
100
AcDbLine
10
3.7373002813221294
20
249.46954846838622
30
1.2325951644078309e-31
11
-3.7626997186778697
21
249.46954846838622
31
7.5689046852381988e-31
0
LINE
5
104
100
AcDbEntity
8
0
100
AcDbLine
10
-3.7626997186778697
20
249.46954846838622
30
7.5689046852381988e-31
11
-3.7626997186778706
21
243.46954846838622
31
1.2325951644078309e-30
0
LINE
5
105
100
AcDbEntity
8
0
100
AcDbLine
10
-3.7626997186778706
20
243.46954846838622
30
1.2325951644078309e-30
11
-11.262699718677869
21
243.46954846838622
31
1.7333369879121241e-32
0
LINE
5
106
100
AcDbEntity
8
0
100
AcDbLine
10
-11.262699718677869
20
243.46954846838622
30
1.7333369879121241e-32
11
-11.262699718677867
21
249.46954846838622
31
-1.2325951644078309e-30
0
LINE
5
107
100
AcDbEntity
8
0
100
AcDbLine
10
-11.262699718677867
20
249.46954846838622
30
-1.2325951644078309e-30
11
-18.762699718677865
21
249.46954846838622
31
1.7333369879121241e-32
0
LINE
5
108
100
AcDbEntity
8
0
100
AcDbLine
10
-18.762699718677865
20
249.46954846838622
30
1.7333369879121241e-32
11
-18.762699718677865
21
243.46954846838622
31
1.2325951644078309e-30
0
LINE
5
109
100
AcDbEntity
8
0
100
AcDbLine
10
-18.762699718677865
20
243.46954846838622
30
1.2325951644078309e-30
11
-27.316525280474512
21
243.46954846838622
31
1.9768882979213779e-32
0
LINE
5
110
100
AcDbEntity
8
0
100
AcDbLine
10
-27.316525280474512
20
243.46954846838622
30
1.9768882979213779e-32
11
-27.316525280475609
21
165.91572290658956
31
-9.8607613152626476e-31
0
LINE
5
111
100
AcDbEntity
8
0
100
AcDbLine
10
-27.316525280475609
20
165.91572290658956
30
-9.8607613152626476e-31
11
32.683474719524384
21
165.91572290658956
31
-1.3866695903296993e-31
0
SPLINE
5
112
100
AcDbEntity
8
0
100
AcDbSpline
70
4
71
5
72
21
73
15
74
0
42
0.000000001
43
0.0000000001
44
0.0000000001
40
-1
40
-1
40
-1
40
-1
40
-1
40
-1
40
-0.89999999999999991
40
-0.79999999999999993
40
-0.69999999999999996
40
-0.59999999999999998
40
-0.5
40
-0.40000000000000002
40
-0.30000000000000004
40
-0.20000000000000001
40
-0.10000000000000001
40
0
40
0
40
0
40
0
40
0
40
0
41
1
41
1
41
1
41
1
41
1
41
1
41
1
41
1
41
1
41
1
41
1
41
1
41
1
41
1
41
1
10
32.683474719524384
20
165.91572290658956
30
1.7763568394002505e-14
10
33.452838069308285
20
166.28152970118609
30
1.7763568394002505e-14
10
34.965515521408697
20
167.03359527140432
30
1.7763568394002505e-14
10
37.156386352078364
20
168.22304768948817
30
1.7763568394002505e-14
10
39.918664783930801
20
169.93372740785858
30
1.7763568394002505e-14
10
43.088736702677636
20
172.29409237008252
30
1.7763568394002505e-14
10
45.950761067612966
20
174.8963139438606
30
1.7763568394002505e-14
10
48.479598855424932
20
177.76012946819915
30
1.7763568394002505e-14
10
50.661526179972718
20
180.89631394378091
30
1.7763568394002505e-14
10
52.510266927396927
20
184.294092369943
30
1.7763568394002505e-14
10
54.050960121009354
20
187.93372740769772
30
0
10
55.057293779044315
20
191.02304768935599
30
0
10
55.692882015790055
20
193.43359527132509
30
0
10
56.064510608633135
20
195.08152970115742
30
0
10
56.237300281320998
20
195.91572290658976
30
0
0
LINE
5
113
100
AcDbEntity
8
0
100
AcDbLine
10
56.237300281320984
20
195.91572290658979
30
-1.0002756085053818e-30
11
56.237300281322113
21
198.46954846838625
31
2.3419308123748788e-30
0
LINE
5
114
100
AcDbEntity
8
0
100
AcDbLine
10
56.237300281322113
20
198.46954846838625
30
2.3419308123748788e-30
11
50.237300281322121
21
198.46954846838625
31
1.3866695903296985e-32
0
LINE
5
115
100
AcDbEntity
8
0
100
AcDbLine
10
50.237300281322121
20
198.46954846838625
30
1.3866695903296985e-32
11
50.237300281322121
21
205.96954846838625
31
1.7763568394002505e-14
0
LINE
5
116
100
AcDbEntity
8
0
100
AcDbLine
10
50.237300281322121
20
205.96954846838625
30
1.7763568394002505e-14
11
56.237300281322113
21
205.96954846838625
31
1.7763568394002505e-14
0
LINE
5
117
100
AcDbEntity
8
0
100
AcDbLine
10
56.237300281322113
20
205.96954846838625
30
1.7763568394002505e-14
11
56.237300281322121
21
213.46954846838625
31
-1.2325951644078309e-31
0
LINE
5
118
100
AcDbEntity
8
0
100
AcDbLine
10
56.237300281322121
20
213.46954846838625
30
-1.2325951644078309e-31
11
50.237300281322121
21
213.46954846838625
31
1.3866695903297005e-32
0
LINE
5
119
100
AcDbEntity
8
0
100
AcDbLine
10
50.237300281322121
20
213.46954846838625
30
1.3866695903297005e-32
11
50.237300281322121
21
220.96954846838625
31
1.7763568394002505e-14
0
LINE
5
120
100
AcDbEntity
8
0
100
AcDbLine
10
50.237300281322121
20
220.96954846838625
30
1.7763568394002505e-14
11
56.237300281322121
21
220.96954846838625
31
1.7763568394002505e-14
0
LINE
5
121
100
AcDbEntity
8
0
100
AcDbLine
10
56.237300281322121
20
220.96954846838625
30
1.7763568394002505e-14
11
56.237300281322121
21
228.46954846838625
31
-6.1629758220391547e-31
0
LINE
5
122
100
AcDbEntity
8
0
100
AcDbLine
10
56.237300281322121
20
228.46954846838625
30
-6.1629758220391547e-31
11
50.237300281322121
21
228.46954846838622
31
1.3866695903297005e-32
0
LINE
5
123
100
AcDbEntity
8
0
100
AcDbLine
10
50.237300281322121
20
228.46954846838622
30
1.3866695903297005e-32
11
50.237300281322121
21
235.96954846838622
31
1.7763568394002505e-14
0
LINE
5
124
100
AcDbEntity
8
0
100
AcDbLine
10
50.237300281322121
20
235.96954846838622
30
1.7763568394002505e-14
11
56.237300281322121
21
235.96954846838622
31
1.7763568394002505e-14
0
LINE
5
125
100
AcDbEntity
8
0
100
AcDbLine
10
56.237300281322121
20
235.96954846838622
30
1.7763568394002505e-14
11
56.237300281322121
21
243.46954846838622
31
-1.2325951644078309e-31
0
LINE
5
126
100
AcDbEntity
8
0
100
AcDbLine
10
56.237300281322121
20
243.46954846838622
30
-1.2325951644078309e-31
11
48.737300281322121
21
243.46954846838622
31
1.7333369879121241e-32
0
LINE
5
127
100
AcDbEntity
8
0
100
AcDbLine
10
48.737300281322121
20
243.46954846838622
30
1.7333369879121241e-32
11
48.737300281322121
21
249.46954846838622
31
1.7763568394002505e-14
0
LINE
5
128
100
AcDbEntity
8
0
100
AcDbLine
10
48.737300281322121
20
249.46954846838622
30
1.7763568394002505e-14
11
41.237300281322121
21
249.46954846838622
31
1.7763568394002505e-14
0
LINE
5
129
100
AcDbEntity
8
0
100
AcDbLine
10
41.237300281322121
20
249.46954846838622
30
1.7763568394002505e-14
11
41.237300281322135
21
243.46954846838622
31
1.7763568394002505e-14
0
LINE
5
130
100
AcDbEntity
8
0
100
AcDbLine
10
41.237300281322135
20
243.46954846838622
30
1.7763568394002505e-14
11
33.737300281322135
21
243.46954846838622
31
1.7763568394002505e-14
0
LINE
5
131
100
AcDbEntity
8
0
100
AcDbLine
10
33.737300281322135
20
243.46954846838622
30
1.7763568394002505e-14
11
33.737300281322128
21
249.46954846838622
31
1.7763568394002505e-14
0
LINE
5
132
100
AcDbEntity
8
0
100
AcDbLine
10
33.737300281322128
20
249.46954846838622
30
1.7763568394002505e-14
11
26.237300281322128
21
249.46954846838622
31
1.7763568394002505e-14
0
LINE
5
133
100
AcDbEntity
8
0
100
AcDbLine
10
26.237300281322128
20
249.46954846838622
30
1.7763568394002505e-14
11
26.237300281322128
21
243.46954846838622
31
0
0
LINE
5
134
100
AcDbEntity
8
0
100
AcDbLine
10
26.237300281322128
20
243.46954846838622
30
0
11
18.737300281322128
21
243.46954846838622
31
1.7333369879121241e-32
0
LINE
5
135
100
AcDbEntity
8
0
100
AcDbLine
10
18.737300281322128
20
243.46954846838622
30
1.7333369879121241e-32
11
18.737300281322128
21
249.46954846838622
31
0
0
LINE
5
136
100
AcDbEntity
8
0
100
AcDbLine
10
18.737300281322128
20
249.46954846838622
30
0
11
11.237300281322129
21
249.46954846838622
31
0
0
ENDSEC
0
SECTION
2
OBJECTS
0
DICTIONARY
5
C
100
AcDbDictionary
3
ACAD_GROUP
350
D
3
ACAD_MLINESTYLE
350
17
0
DICTIONARY
5
D
100
AcDbDictionary
0
DICTIONARY
5
1A
330
C
100
AcDbDictionary
0
DICTIONARY
5
17
100
AcDbDictionary
0
ENDSEC
0
EOF
