0
SECTION
2
HEADER
9
$INSUNITS
70
4
9
$ACADVER
1
AC1014
9
$HANDSEED
5
FFFF
0
ENDSEC
0
SECTION
2
TABLES
0
TABLE
2
VPORT
5
8
100
AcDbSymbolTable
0
ENDTAB
0
TABLE
2
LTYPE
5
5
100
AcDbSymbolTable
0
LTYPE
5
14
100
AcDbSymbolTableRecord
100
AcDbLinetypeTableRecord
2
BYBLOCK
70
0
0
LTYPE
5
15
100
AcDbSymbolTableRecord
100
AcDbLinetypeTableRecord
2
BYLAYER
70
0
0
ENDTAB
0
TABLE
2
LAYER
5
2
100
AcDbSymbolTable
70
2
0
LAYER
5
50
100
AcDbSymbolTableRecord
100
AcDbLayerTableRecord
2
0
70
0
6
CONTINUOUS
0
ENDTAB
0
TABLE
2
STYLE
5
3
100
AcDbSymbolTable
70
1
0
STYLE
5
11
100
AcDbSymbolTableRecord
100
AcDbTextStyleTableRecord
2
STANDARD
70
0
0
ENDTAB
0
TABLE
2
VIEW
5
6
100
AcDbSymbolTable
70
0
0
ENDTAB
0
TABLE
2
UCS
5
7
100
AcDbSymbolTable
70
0
0
ENDTAB
0
TABLE
2
APPID
5
9
100
AcDbSymbolTable
70
2
0
APPID
5
12
100
AcDbSymbolTableRecord
100
AcDbRegAppTableRecord
2
ACAD
70
0
0
ENDTAB
0
TABLE
2
DIMSTYLE
5
A
100
AcDbSymbolTable
70
1
0
ENDTAB
0
TABLE
2
BLOCK_RECORD
5
1
100
AcDbSymbolTable
70
1
0
BLOCK_RECORD
5
1F
100
AcDbSymbolTableRecord
100
AcDbBlockTableRecord
2
*MODEL_SPACE
0
BLOCK_RECORD
5
1B
100
AcDbSymbolTableRecord
100
AcDbBlockTableRecord
2
*PAPER_SPACE
0
ENDTAB
0
ENDSEC
0
SECTION
2
BLOCKS
0
BLOCK
5
20
100
AcDbEntity
100
AcDbBlockBegin
2
*MODEL_SPACE
0
ENDBLK
5
21
100
AcDbEntity
100
AcDbBlockEnd
0
BLOCK
5
1C
100
AcDbEntity
100
AcDbBlockBegin
2
*PAPER_SPACE
0
ENDBLK
5
1D
100
AcDbEntity
100
AcDbBlockEnd
0
ENDSEC
0
SECTION
2
ENTITIES
0
CIRCLE
5
100
100
AcDbEntity
8
0
100
AcDbCircle
10
26.253474719524377
20
-20.62131292343139
30
0
40
1.8749999999999998
210
-6.1629758220391547e-33
220
1.0263416486754028e-48
230
1
0
CIRCLE
5
101
100
AcDbEntity
8
0
100
AcDbCircle
10
-20.886525280475613
20
26.5186870765686
30
0
40
1.8749999999999998
210
-6.1629758220391547e-33
220
1.0263416486754028e-48
230
1
0
CIRCLE
5
102
100
AcDbEntity
8
0
100
AcDbCircle
10
26.253474719524384
20
26.518687076568604
30
0
40
1.8749999999999998
210
-6.1629758220391547e-33
220
1.0263416486754028e-48
230
1
0
CIRCLE
5
103
100
AcDbEntity
8
0
100
AcDbCircle
10
-20.886525280475613
20
-20.621312923431404
30
0
40
1.8749999999999998
210
-6.1629758220391547e-33
220
1.0263416486754028e-48
230
1
0
CIRCLE
5
104
100
AcDbEntity
8
0
100
AcDbCircle
10
2.6834747195243818
20
2.9486870765686044
30
0
40
20.249999999999993
210
6.1629758220391547e-33
220
-1.0263416486754028e-48
230
1
0
LWPOLYLINE
5
105
100
AcDbEntity
8
0
100
AcDbPolyline
90
28
70
1
43
0.0
10
-33.316525280475638
20
-4.5513129234313805
10
-27.316525280475638
20
-4.5513129234313805
10
-27.316525280475638
20
-12.051312923431375
10
-33.316525280475645
20
-12.051312923431377
10
-33.316525280475638
20
-19.551312923431375
10
-27.316525280475638
20
-19.551312923431372
10
-27.316525280475648
20
-27.051312923431365
10
32.683474719524376
20
-27.051312923431375
10
32.683474719524376
20
-19.551312923431375
10
38.683474719524376
20
-19.551312923431375
10
38.683474719524376
20
-12.051312923431379
10
32.683474719524376
20
-12.05131292343138
10
32.683474719524376
20
-4.5513129234313823
10
38.683474719524384
20
-4.5513129234313805
10
38.683474719524384
20
10.448687523603439
10
32.683474719524376
20
10.448687523603439
10
32.683474719524376
20
17.948687523603436
10
38.683474719524384
20
17.948687523603436
10
38.683474719524384
20
25.448687523603436
10
32.683474719524384
20
25.448687523603439
10
32.683474719524384
20
32.948687523603439
10
-27.316525280475624
20
32.948687523603432
10
-27.316525280475638
20
25.448687523603432
10
-33.316525280475638
20
25.448687523603432
10
-33.316525280475638
20
17.948687523603439
10
-27.316525280475638
20
17.948687523603436
10
-27.316525280475638
20
10.448687523603436
10
-33.316525280475645
20
10.448687523603438
0
ENDSEC
0
SECTION
2
OBJECTS
0
DICTIONARY
5
C
100
AcDbDictionary
3
ACAD_GROUP
350
D
3
ACAD_MLINESTYLE
350
17
0
DICTIONARY
5
D
100
AcDbDictionary
0
DICTIONARY
5
1A
330
C
100
AcDbDictionary
0
DICTIONARY
5
17
100
AcDbDictionary
0
ENDSEC
0
EOF
