0
SECTION
2
HEADER
9
$INSUNITS
70
4
9
$ACADVER
1
AC1014
9
$HANDSEED
5
FFFF
0
ENDSEC
0
SECTION
2
TABLES
0
TABLE
2
VPORT
5
8
100
AcDbSymbolTable
0
ENDTAB
0
TABLE
2
LTYPE
5
5
100
AcDbSymbolTable
0
LTYPE
5
14
100
AcDbSymbolTableRecord
100
AcDbLinetypeTableRecord
2
BYBLOCK
70
0
0
LTYPE
5
15
100
AcDbSymbolTableRecord
100
AcDbLinetypeTableRecord
2
BYLAYER
70
0
0
ENDTAB
0
TABLE
2
LAYER
5
2
100
AcDbSymbolTable
70
2
0
LAYER
5
50
100
AcDbSymbolTableRecord
100
AcDbLayerTableRecord
2
0
70
0
6
CONTINUOUS
0
ENDTAB
0
TABLE
2
STYLE
5
3
100
AcDbSymbolTable
70
1
0
STYLE
5
11
100
AcDbSymbolTableRecord
100
AcDbTextStyleTableRecord
2
STANDARD
70
0
0
ENDTAB
0
TABLE
2
VIEW
5
6
100
AcDbSymbolTable
70
0
0
ENDTAB
0
TABLE
2
UCS
5
7
100
AcDbSymbolTable
70
0
0
ENDTAB
0
TABLE
2
APPID
5
9
100
AcDbSymbolTable
70
2
0
APPID
5
12
100
AcDbSymbolTableRecord
100
AcDbRegAppTableRecord
2
ACAD
70
0
0
ENDTAB
0
TABLE
2
DIMSTYLE
5
A
100
AcDbSymbolTable
70
1
0
ENDTAB
0
TABLE
2
BLOCK_RECORD
5
1
100
AcDbSymbolTable
70
1
0
BLOCK_RECORD
5
1F
100
AcDbSymbolTableRecord
100
AcDbBlockTableRecord
2
*MODEL_SPACE
0
BLOCK_RECORD
5
1B
100
AcDbSymbolTableRecord
100
AcDbBlockTableRecord
2
*PAPER_SPACE
0
ENDTAB
0
ENDSEC
0
SECTION
2
BLOCKS
0
BLOCK
5
20
100
AcDbEntity
100
AcDbBlockBegin
2
*MODEL_SPACE
0
ENDBLK
5
21
100
AcDbEntity
100
AcDbBlockEnd
0
BLOCK
5
1C
100
AcDbEntity
100
AcDbBlockBegin
2
*PAPER_SPACE
0
ENDBLK
5
1D
100
AcDbEntity
100
AcDbBlockEnd
0
ENDSEC
0
SECTION
2
ENTITIES
0
LWPOLYLINE
5
100
100
AcDbEntity
8
0
100
AcDbPolyline
90
38
70
1
43
0.0
10
127.05131292343134
20
56.915722906589458
10
77.051312923431354
20
126.41572290658942
10
27.051312923431368
20
126.41572290658942
10
27.051312923431357
20
132.41572290658954
10
19.551312923431357
20
132.41572290658954
10
19.551312923431357
20
126.41572290658942
10
12.051312923431365
20
126.41572290658942
10
12.051312923431363
20
132.41572290658954
10
4.551312923431369
20
132.41572290658954
10
4.5513129234313645
20
126.41572290658942
10
-10.448687523603446
20
126.41572290658942
10
-10.448687523603448
20
132.41572290658954
10
-17.948687523603446
20
132.41572290658954
10
-17.94868752360345
20
126.41572290658942
10
-25.448687523603439
20
126.41572290658942
10
-25.448687523603439
20
132.41572290658954
10
-32.948687523603446
20
132.41572290658954
10
-32.948687523603461
20
126.41572290658942
10
-82.948687300086036
20
126.41572290658939
10
-132.94868707656858
20
56.915722906589458
10
-132.94868707656858
20
-12.584277093410501
10
-114.19868707656853
20
-12.584277093410494
10
-114.19868707656855
20
57.165722906589423
10
-107.69868707656856
20
57.165722906589416
10
-107.69868707656852
20
-12.584277093410483
10
-38.948687076568589
20
-12.58427709341049
10
-38.948687076568604
20
56.915722906589473
10
-32.948687076568596
20
56.915722906589473
10
-32.948687076568589
20
-12.584277093410492
10
27.0513129234314
20
-12.584277093410488
10
27.051312923431393
20
56.915722906589473
10
33.051312923431404
20
56.915722906589465
10
33.051312923431411
20
-12.584277093410492
10
101.80131292343148
20
-12.584277093410485
10
101.80131292343142
20
57.165722906589458
10
108.30131292343141
20
57.165722906589444
10
108.30131292343145
20
-12.584277093410483
10
127.05131292343138
20
-12.584277093410481
0
ENDSEC
0
SECTION
2
OBJECTS
0
DICTIONARY
5
C
100
AcDbDictionary
3
ACAD_GROUP
350
D
3
ACAD_MLINESTYLE
350
17
0
DICTIONARY
5
D
100
AcDbDictionary
0
DICTIONARY
5
1A
330
C
100
AcDbDictionary
0
DICTIONARY
5
17
100
AcDbDictionary
0
ENDSEC
0
EOF
