0
SECTION
2
HEADER
9
$INSUNITS
70
4
9
$ACADVER
1
AC1014
9
$HANDSEED
5
FFFF
0
ENDSEC
0
SECTION
2
TABLES
0
TABLE
2
VPORT
5
8
100
AcDbSymbolTable
0
ENDTAB
0
TABLE
2
LTYPE
5
5
100
AcDbSymbolTable
0
LTYPE
5
14
100
AcDbSymbolTableRecord
100
AcDbLinetypeTableRecord
2
BYBLOCK
70
0
0
LTYPE
5
15
100
AcDbSymbolTableRecord
100
AcDbLinetypeTableRecord
2
BYLAYER
70
0
0
ENDTAB
0
TABLE
2
LAYER
5
2
100
AcDbSymbolTable
70
2
0
LAYER
5
50
100
AcDbSymbolTableRecord
100
AcDbLayerTableRecord
2
0
70
0
6
CONTINUOUS
0
ENDTAB
0
TABLE
2
STYLE
5
3
100
AcDbSymbolTable
70
1
0
STYLE
5
11
100
AcDbSymbolTableRecord
100
AcDbTextStyleTableRecord
2
STANDARD
70
0
0
ENDTAB
0
TABLE
2
VIEW
5
6
100
AcDbSymbolTable
70
0
0
ENDTAB
0
TABLE
2
UCS
5
7
100
AcDbSymbolTable
70
0
0
ENDTAB
0
TABLE
2
APPID
5
9
100
AcDbSymbolTable
70
2
0
APPID
5
12
100
AcDbSymbolTableRecord
100
AcDbRegAppTableRecord
2
ACAD
70
0
0
ENDTAB
0
TABLE
2
DIMSTYLE
5
A
100
AcDbSymbolTable
70
1
0
ENDTAB
0
TABLE
2
BLOCK_RECORD
5
1
100
AcDbSymbolTable
70
1
0
BLOCK_RECORD
5
1F
100
AcDbSymbolTableRecord
100
AcDbBlockTableRecord
2
*MODEL_SPACE
0
BLOCK_RECORD
5
1B
100
AcDbSymbolTableRecord
100
AcDbBlockTableRecord
2
*PAPER_SPACE
0
ENDTAB
0
ENDSEC
0
SECTION
2
BLOCKS
0
BLOCK
5
20
100
AcDbEntity
100
AcDbBlockBegin
2
*MODEL_SPACE
0
ENDBLK
5
21
100
AcDbEntity
100
AcDbBlockEnd
0
BLOCK
5
1C
100
AcDbEntity
100
AcDbBlockBegin
2
*PAPER_SPACE
0
ENDBLK
5
1D
100
AcDbEntity
100
AcDbBlockEnd
0
ENDSEC
0
SECTION
2
ENTITIES
0
LINE
5
100
100
AcDbEntity
8
0
100
AcDbLine
10
-27.499999999964665
20
515.71701704326586
30
0
11
-21.499999999964601
21
515.71701704326586
31
5.5936325504273218e-29
0
LINE
5
101
100
AcDbEntity
8
0
100
AcDbLine
10
-21.499999999964601
20
515.71701704326586
30
5.5936325504273218e-29
11
-21.49999999996497
21
506.55035037659906
31
8.8817841970012492e-15
0
LINE
5
102
100
AcDbEntity
8
0
100
AcDbLine
10
-21.49999999996497
20
506.55035037659906
30
8.8817841970012492e-15
11
-27.499999999965034
21
506.55035037659906
31
8.8817841970011955e-15
0
LINE
5
103
100
AcDbEntity
8
0
100
AcDbLine
10
-27.499999999965034
20
506.55035037659906
30
8.8817841970011955e-15
11
-27.499999999965354
21
499.050350376599
31
0
0
LINE
5
104
100
AcDbEntity
8
0
100
AcDbLine
10
-27.499999999965354
20
499.050350376599
30
0
11
-21.49999999996529
21
499.05035037659906
31
-8.8817841970011955e-15
0
LINE
5
105
100
AcDbEntity
8
0
100
AcDbLine
10
-21.49999999996529
20
499.05035037659906
30
-8.8817841970011955e-15
11
-21.499999999965659
21
489.88368370993237
31
8.8817841970012492e-15
0
LINE
5
106
100
AcDbEntity
8
0
100
AcDbLine
10
-21.499999999965659
20
489.88368370993237
30
8.8817841970012492e-15
11
-27.49999999996572
21
489.88368370993237
31
8.8817841970011955e-15
0
LINE
5
107
100
AcDbEntity
8
0
100
AcDbLine
10
-27.49999999996572
20
489.88368370993237
30
8.8817841970011955e-15
11
-27.499999999991296
21
486.15938948169355
31
4.6740008634344949e-28
0
LINE
5
108
100
AcDbEntity
8
0
100
AcDbLine
10
27.500000000010129
20
486.15938948169372
30
5.1274965045621303e-28
11
27.500000000036273
21
489.88368370993237
31
2.3665827156630354e-29
0
LINE
5
109
100
AcDbEntity
8
0
100
AcDbLine
10
27.500000000036273
20
489.88368370993237
30
2.3665827156630354e-29
11
21.500000000036216
21
489.88368370993237
31
-5.593632550427046e-29
0
LINE
5
110
100
AcDbEntity
8
0
100
AcDbLine
10
21.500000000036216
20
489.88368370993237
30
-5.593632550427046e-29
11
21.500000000036586
21
499.05035037659906
31
8.8817841970012555e-15
0
LINE
5
111
100
AcDbEntity
8
0
100
AcDbLine
10
21.500000000036586
20
499.05035037659906
30
8.8817841970012555e-15
11
27.50000000003665
21
499.05035037659906
31
5.5936325504273218e-29
0
LINE
5
112
100
AcDbEntity
8
0
100
AcDbLine
10
27.50000000003665
20
499.05035037659906
30
5.5936325504273218e-29
11
27.500000000036966
21
506.55035037659911
31
0
0
LINE
5
113
100
AcDbEntity
8
0
100
AcDbLine
10
27.500000000036966
20
506.55035037659911
30
0
11
21.500000000036902
21
506.55035037659906
31
-5.593632550427046e-29
0
LINE
5
114
100
AcDbEntity
8
0
100
AcDbLine
10
21.500000000036902
20
506.55035037659906
30
-5.593632550427046e-29
11
21.500000000037275
21
515.71701704326586
31
8.8817841970012555e-15
0
LINE
5
115
100
AcDbEntity
8
0
100
AcDbLine
10
21.500000000037275
20
515.71701704326586
30
8.8817841970012555e-15
11
27.500000000037339
21
515.71701704326586
31
8.8817841970013075e-15
0
LINE
5
116
100
AcDbEntity
8
0
100
AcDbLine
10
27.500000000037339
20
515.71701704326586
30
8.8817841970013075e-15
11
27.500000000037659
21
523.21701704326597
31
1.1832913578315177e-29
0
LINE
5
117
100
AcDbEntity
8
0
100
AcDbLine
10
27.500000000037659
20
523.21701704326597
30
1.1832913578315177e-29
11
21.500000000037595
21
523.21701704326597
31
-5.593632550427046e-29
0
LINE
5
118
100
AcDbEntity
8
0
100
AcDbLine
10
21.500000000037595
20
523.21701704326597
30
-5.593632550427046e-29
11
21.500000000037968
21
532.3836837099326
31
8.8817841970012555e-15
0
LINE
5
119
100
AcDbEntity
8
0
100
AcDbLine
10
21.500000000037968
20
532.3836837099326
30
8.8817841970012555e-15
11
27.500000000038032
21
532.3836837099326
31
8.8817841970013075e-15
0
LINE
5
120
100
AcDbEntity
8
0
100
AcDbLine
10
27.500000000038032
20
532.3836837099326
30
8.8817841970013075e-15
11
27.500000000038348
21
539.8836837099326
31
3.944304526105059e-30
0
LINE
5
121
100
AcDbEntity
8
0
100
AcDbLine
10
27.500000000038348
20
539.8836837099326
30
3.944304526105059e-30
11
21.500000000038284
21
539.8836837099326
31
-8.8817841970013075e-15
0
LINE
5
122
100
AcDbEntity
8
0
100
AcDbLine
10
21.500000000038284
20
539.8836837099326
30
-8.8817841970013075e-15
11
21.500000000038657
21
549.05035037659934
31
0
0
LINE
5
123
100
AcDbEntity
8
0
100
AcDbLine
10
21.500000000038657
20
549.05035037659934
30
0
11
27.500000000038721
21
549.05035037659934
31
8.8817841970013075e-15
0
LINE
5
124
100
AcDbEntity
8
0
100
AcDbLine
10
27.500000000038721
20
549.05035037659934
30
8.8817841970013075e-15
11
27.500000000039037
21
556.55035037659945
31
0
0
LINE
5
125
100
AcDbEntity
8
0
100
AcDbLine
10
27.500000000039037
20
556.55035037659945
30
0
11
21.500000000038973
21
556.55035037659934
31
-5.5936325504271144e-29
0
LINE
5
126
100
AcDbEntity
8
0
100
AcDbLine
10
21.500000000038973
20
556.55035037659934
30
-5.5936325504271144e-29
11
21.500000000039346
21
565.7170170432662
31
3.944304526105059e-30
0
LINE
5
127
100
AcDbEntity
8
0
100
AcDbLine
10
21.500000000039346
20
565.7170170432662
30
3.944304526105059e-30
11
27.500000000039407
21
565.7170170432662
31
5.5936325504273218e-29
0
LINE
5
128
100
AcDbEntity
8
0
100
AcDbLine
10
27.500000000039407
20
565.7170170432662
30
5.5936325504273218e-29
11
27.500000000039723
21
573.2170170432662
31
-8.8817841970012523e-15
0
LINE
5
129
100
AcDbEntity
8
0
100
AcDbLine
10
27.500000000039723
20
573.2170170432662
30
-8.8817841970012523e-15
11
21.500000000039662
21
573.2170170432662
31
-5.593632550427046e-29
0
LINE
5
130
100
AcDbEntity
8
0
100
AcDbLine
10
21.500000000039662
20
573.2170170432662
30
-5.593632550427046e-29
11
21.500000000040039
21
582.38368370993294
31
8.8817841970012492e-15
0
LINE
5
131
100
AcDbEntity
8
0
100
AcDbLine
10
21.500000000040039
20
582.38368370993294
30
8.8817841970012492e-15
11
27.500000000040103
21
582.38368370993282
31
5.5936325504273218e-29
0
LINE
5
132
100
AcDbEntity
8
0
100
AcDbLine
10
27.500000000040103
20
582.38368370993282
30
5.5936325504273218e-29
11
27.500000000014147
21
589.88368370992953
31
-1.1832913578315177e-29
0
LINE
5
133
100
AcDbEntity
8
0
100
AcDbLine
10
27.500000000014147
20
589.88368370992953
30
-1.1832913578315177e-29
11
9.000000000049619
21
589.88368370992953
31
1.0842021725320518e-18
0
LINE
5
134
100
AcDbEntity
8
0
100
AcDbLine
10
9.000000000049619
20
589.88368370992953
30
1.0842021725320518e-18
11
9.00000000004699
21
498.65938948169901
31
9.4663308626521417e-29
0
LINE
5
135
100
AcDbEntity
8
0
100
AcDbLine
10
9.00000000004699
20
498.65938948169901
30
9.4663308626521417e-29
11
-8.9999999999728892
21
498.6593894817031
31
1.253521225249858e-26
0
LINE
5
136
100
AcDbEntity
8
0
100
AcDbLine
10
-8.9999999999728892
20
498.6593894817031
30
1.253521225249858e-26
11
-8.9999999999722462
21
589.88368370992941
31
-3.1554436208840472e-28
0
LINE
5
137
100
AcDbEntity
8
0
100
AcDbLine
10
-27.499999999987285
20
589.88368370992941
30
8.8817841970012997e-15
11
-27.499999999961901
21
582.38368370993282
31
-4.2598488881934637e-28
0
LINE
5
138
100
AcDbEntity
8
0
100
AcDbLine
10
-27.499999999961901
20
582.38368370993282
30
-4.2598488881934637e-28
11
-21.499999999961837
21
582.38368370993282
31
-8.8817841970011955e-15
0
LINE
5
139
100
AcDbEntity
8
0
100
AcDbLine
10
-21.499999999961837
20
582.38368370993282
30
-8.8817841970011955e-15
11
-21.499999999962213
21
573.2170170432662
31
8.8817841970012555e-15
0
LINE
5
140
100
AcDbEntity
8
0
100
AcDbLine
10
-21.499999999962213
20
573.2170170432662
30
8.8817841970012555e-15
11
-27.499999999962274
21
573.2170170432662
31
8.8817841970011955e-15
0
LINE
5
141
100
AcDbEntity
8
0
100
AcDbLine
10
-27.499999999962274
20
573.2170170432662
30
8.8817841970011955e-15
11
-27.499999999962593
21
565.7170170432662
31
-3.944304526105059e-30
0
LINE
5
142
100
AcDbEntity
8
0
100
AcDbLine
10
-27.499999999962593
20
565.7170170432662
30
-3.944304526105059e-30
11
-21.499999999962533
21
565.7170170432662
31
-8.8817841970011955e-15
0
LINE
5
143
100
AcDbEntity
8
0
100
AcDbLine
10
-21.499999999962533
20
565.7170170432662
30
-8.8817841970011955e-15
11
-21.499999999962899
21
556.55035037659934
31
-3.944304526105059e-30
0
LINE
5
144
100
AcDbEntity
8
0
100
AcDbLine
10
-21.499999999962899
20
556.55035037659934
30
-3.944304526105059e-30
11
-27.499999999962963
21
556.55035037659934
31
8.8817841970011955e-15
0
LINE
5
145
100
AcDbEntity
8
0
100
AcDbLine
10
-27.499999999962963
20
556.55035037659934
30
8.8817841970011955e-15
11
-27.499999999963283
21
549.05035037659923
31
-8.8817841970012523e-15
0
LINE
5
146
100
AcDbEntity
8
0
100
AcDbLine
10
-27.499999999963283
20
549.05035037659923
30
-8.8817841970012523e-15
11
-21.499999999963219
21
549.05035037659934
31
5.5936325504273218e-29
0
LINE
5
147
100
AcDbEntity
8
0
100
AcDbLine
10
-21.499999999963219
20
549.05035037659934
30
5.5936325504273218e-29
11
-21.499999999963588
21
539.8836837099326
31
8.8817841970012492e-15
0
LINE
5
148
100
AcDbEntity
8
0
100
AcDbLine
10
-21.499999999963588
20
539.8836837099326
30
8.8817841970012492e-15
11
-27.499999999963652
21
539.8836837099326
31
-5.5936325504275292e-29
0
LINE
5
149
100
AcDbEntity
8
0
100
AcDbLine
10
-27.499999999963652
20
539.8836837099326
30
-5.5936325504275292e-29
11
-27.499999999963972
21
532.3836837099326
31
-8.8817841970012523e-15
0
LINE
5
150
100
AcDbEntity
8
0
100
AcDbLine
10
-27.499999999963972
20
532.3836837099326
30
-8.8817841970012523e-15
11
-21.499999999963908
21
532.3836837099326
31
5.5936325504272523e-29
0
LINE
5
151
100
AcDbEntity
8
0
100
AcDbLine
10
-21.499999999963908
20
532.3836837099326
30
5.5936325504272523e-29
11
-21.499999999964277
21
523.21701704326586
31
8.8817841970012492e-15
0
LINE
5
152
100
AcDbEntity
8
0
100
AcDbLine
10
-21.499999999964277
20
523.21701704326586
30
8.8817841970012492e-15
11
-27.499999999964338
21
523.21701704326597
31
8.8817841970011955e-15
0
LINE
5
153
100
AcDbEntity
8
0
100
AcDbLine
10
-27.499999999964338
20
523.21701704326597
30
8.8817841970011955e-15
11
-27.499999999964665
21
515.71701704326586
31
0
0
LINE
5
154
100
AcDbEntity
8
0
100
AcDbLine
10
-8.9999999999724256
20
589.88368370993032
30
8.8817841970012523e-15
11
-8.9999999999621281
21
627.88368370991952
31
8.8817841970012523e-15
0
LINE
5
155
100
AcDbEntity
8
0
100
AcDbLine
10
-8.9999999999621281
20
627.88368370991952
30
8.8817841970012523e-15
11
9.0000000000385061
21
627.88368370991543
31
8.8817841969886006e-15
0
LINE
5
156
100
AcDbEntity
8
0
100
AcDbLine
10
9.0000000000385061
20
627.88368370991543
30
8.8817841969886006e-15
11
9.0000000000282085
21
589.88368370992634
31
8.8817841970012365e-15
0
LINE
5
157
100
AcDbEntity
8
0
100
AcDbLine
10
21.500000000028159
20
589.8836837099235
30
-5.4210109450884055e-19
11
21.500000000030965
21
599.3836837099235
31
5.1275958839365767e-29
0
LINE
5
158
100
AcDbEntity
8
0
100
AcDbLine
10
21.500000000030965
20
599.3836837099235
30
5.1275958839365767e-29
11
27.500000000031058
21
599.38368370992214
31
-4.2174024333841218e-27
0
LINE
5
159
100
AcDbEntity
8
0
100
AcDbLine
10
27.500000000031058
20
599.38368370992214
30
-4.2174024333841218e-27
11
27.500000000033094
21
606.88368370992202
31
0
0
LINE
5
160
100
AcDbEntity
8
0
100
AcDbLine
10
27.500000000033094
20
606.88368370992202
30
0
11
21.50000000003299
21
606.8836837099235
31
4.2174024333841218e-27
0
LINE
5
161
100
AcDbEntity
8
0
100
AcDbLine
10
21.50000000003299
20
606.8836837099235
30
4.2174024333841218e-27
11
21.500000000035019
21
614.3836837099235
31
0
0
LINE
5
162
100
AcDbEntity
8
0
100
AcDbLine
10
21.500000000035019
20
614.3836837099235
30
0
11
27.500000000035129
21
614.38368370992214
31
-8.881784197005468e-15
0
LINE
5
163
100
AcDbEntity
8
0
100
AcDbLine
10
27.500000000035129
20
614.38368370992214
30
-8.881784197005468e-15
11
27.500000000037158
21
621.88368370992214
31
0
0
LINE
5
164
100
AcDbEntity
8
0
100
AcDbLine
10
27.500000000037158
20
621.88368370992214
30
0
11
21.500000000037058
21
621.88368370992362
31
4.2174024333841218e-27
0
LINE
5
165
100
AcDbEntity
8
0
100
AcDbLine
10
21.500000000037058
20
621.88368370992362
30
4.2174024333841218e-27
11
21.500000000039083
21
629.38368370992362
31
8.8817841970012523e-15
0
LINE
5
166
100
AcDbEntity
8
0
100
AcDbLine
10
21.500000000039083
20
629.38368370992362
30
8.8817841970012523e-15
11
27.500000000039186
21
629.38368370992225
31
-4.2174024333841218e-27
0
LINE
5
167
100
AcDbEntity
8
0
100
AcDbLine
10
27.500000000039186
20
629.38368370992225
30
-4.2174024333841218e-27
11
27.500000000041226
21
636.88368370992225
31
-8.8817841970012492e-15
0
LINE
5
168
100
AcDbEntity
8
0
100
AcDbLine
10
27.500000000041226
20
636.88368370992225
30
-8.8817841970012492e-15
11
21.500000000041126
21
636.88368370992362
31
4.2174024333841218e-27
0
LINE
5
169
100
AcDbEntity
8
0
100
AcDbLine
10
21.500000000041126
20
636.88368370992362
30
4.2174024333841218e-27
11
21.500000000042057
21
640.38368370991304
31
0
0
LINE
5
170
100
AcDbEntity
8
0
100
AcDbLine
10
21.500000000042057
20
640.38368370991304
30
0
11
11.250000000042418
21
640.38368370992544
31
3.830522940736946e-26
0
LINE
5
171
100
AcDbEntity
8
0
100
AcDbLine
10
11.250000000042418
20
640.38368370992544
30
3.830522940736946e-26
11
11.250000000044045
21
646.38368370992544
31
0
0
LINE
5
172
100
AcDbEntity
8
0
100
AcDbLine
10
11.250000000044045
20
646.38368370992544
30
0
11
3.7500000000438782
21
646.38368370992703
31
5.2717530417301815e-27
0
LINE
5
173
100
AcDbEntity
8
0
100
AcDbLine
10
3.7500000000438782
20
646.38368370992703
30
5.2717530417301815e-27
11
3.7500000000422542
21
640.38368370992714
31
-8.8817841970012523e-15
0
LINE
5
174
100
AcDbEntity
8
0
100
AcDbLine
10
3.7500000000422542
20
640.38368370992714
30
-8.8817841970012523e-15
11
-3.7499999999579012
21
640.38368370992885
31
-8.8817841969959812e-15
0
LINE
5
175
100
AcDbEntity
8
0
100
AcDbLine
10
-3.7499999999579012
20
640.38368370992885
30
-8.8817841969959812e-15
11
-3.7499999999562754
21
646.38368370992885
31
-8.8817841970012555e-15
0
LINE
5
176
100
AcDbEntity
8
0
100
AcDbLine
10
-3.7499999999562754
20
646.38368370992885
30
-8.8817841970012555e-15
11
-11.249999999956442
21
646.38368370993044
31
5.3265074435793691e-27
0
LINE
5
177
100
AcDbEntity
8
0
100
AcDbLine
10
-11.249999999956442
20
646.38368370993044
30
5.3265074435793691e-27
11
-11.249999999958071
21
640.38368370993066
31
3.944304526105059e-30
0
LINE
5
178
100
AcDbEntity
8
0
100
AcDbLine
10
-11.249999999958071
20
640.38368370993066
30
3.944304526105059e-30
11
-21.499999999959059
21
640.38368370992271
31
8.8817841969773009e-15
0
LINE
5
179
100
AcDbEntity
8
0
100
AcDbLine
10
-21.499999999959059
20
640.38368370992271
30
8.8817841969773009e-15
11
-21.499999999959989
21
636.88368370993339
31
0
0
LINE
5
180
100
AcDbEntity
8
0
100
AcDbLine
10
-21.499999999959989
20
636.88368370993339
30
0
11
-27.499999999960096
21
636.88368370993476
31
8.881784197005468e-15
0
LINE
5
181
100
AcDbEntity
8
0
100
AcDbLine
10
-27.499999999960096
20
636.88368370993476
30
8.881784197005468e-15
11
-27.499999999962132
21
629.38368370993476
31
-8.8817841970012555e-15
0
LINE
5
182
100
AcDbEntity
8
0
100
AcDbLine
10
-27.499999999962132
20
629.38368370993476
30
-8.8817841970012555e-15
11
-21.499999999962036
21
629.38368370993339
31
-8.881784197005468e-15
0
LINE
5
183
100
AcDbEntity
8
0
100
AcDbLine
10
-21.499999999962036
20
629.38368370993339
30
-8.881784197005468e-15
11
-21.499999999964061
21
621.88368370993339
31
0
0
LINE
5
184
100
AcDbEntity
8
0
100
AcDbLine
10
-21.499999999964061
20
621.88368370993339
30
0
11
-27.49999999996416
21
621.88368370993476
31
8.881784197005468e-15
0
LINE
5
185
100
AcDbEntity
8
0
100
AcDbLine
10
-27.49999999996416
20
621.88368370993476
30
8.881784197005468e-15
11
-27.499999999966192
21
614.38368370993476
31
0
0
LINE
5
186
100
AcDbEntity
8
0
100
AcDbLine
10
-27.499999999966192
20
614.38368370993476
30
0
11
-21.499999999966093
21
614.38368370993339
31
-8.881784197005468e-15
0
LINE
5
187
100
AcDbEntity
8
0
100
AcDbLine
10
-21.499999999966093
20
614.38368370993339
30
-8.881784197005468e-15
11
-21.499999999968118
21
606.88368370993328
31
8.8817841970012523e-15
0
LINE
5
188
100
AcDbEntity
8
0
100
AcDbLine
10
-21.499999999968118
20
606.88368370993328
30
8.8817841970012523e-15
11
-27.499999999968221
21
606.88368370993464
31
8.881784197005468e-15
0
LINE
5
189
100
AcDbEntity
8
0
100
AcDbLine
10
-27.499999999968221
20
606.88368370993464
30
8.881784197005468e-15
11
-27.499999999970257
21
599.38368370993464
31
0
0
LINE
5
190
100
AcDbEntity
8
0
100
AcDbLine
10
-27.499999999970257
20
599.38368370993464
30
0
11
-21.49999999997015
21
599.38368370993328
31
-4.2174024333841218e-27
0
LINE
5
191
100
AcDbEntity
8
0
100
AcDbLine
10
-21.49999999997015
20
599.38368370993328
30
-4.2174024333841218e-27
11
-21.499999999972562
21
589.88368370993339
31
-1.5777218104420236e-29
0
LINE
5
192
100
AcDbEntity
8
0
100
AcDbLine
10
21.498095442001119
20
486.15938948169372
30
-2.7105054317718205e-19
11
21.49809544200064
21
480.15938948169668
31
8.8817841970012523e-15
0
LINE
5
193
100
AcDbEntity
8
0
100
AcDbLine
10
21.49809544200064
20
480.15938948169668
30
8.8817841970012523e-15
11
27.500000000029541
21
480.15938948169634
31
8.8817841970004319e-15
0
LINE
5
194
100
AcDbEntity
8
0
100
AcDbLine
10
27.500000000029541
20
480.15938948169634
30
8.8817841970004319e-15
11
27.500000000010139
21
486.15938948169372
31
0
0
LINE
5
195
100
AcDbEntity
8
0
100
AcDbLine
10
6.4980955931402038
20
486.15938948169372
30
8.8815131464580615e-15
11
6.4980955931397268
21
480.15938948169725
31
-3.944304526105059e-30
0
LINE
5
196
100
AcDbEntity
8
0
100
AcDbLine
10
6.4980955931397268
20
480.15938948169725
30
-3.944304526105059e-30
11
13.998095215051634
21
480.15938948169685
31
8.8817841970002268e-15
0
LINE
5
197
100
AcDbEntity
8
0
100
AcDbLine
10
13.998095215051634
20
480.15938948169685
30
8.8817841970002268e-15
11
13.998095215052114
21
486.15938948169372
31
8.8817841970012523e-15
0
LINE
5
198
100
AcDbEntity
8
0
100
AcDbLine
10
-13.998095214994088
20
486.15938948169367
30
8.8820552475443027e-15
11
-13.998095214994571
21
480.15938948169804
31
8.8817841970012523e-15
0
LINE
5
199
100
AcDbEntity
8
0
100
AcDbLine
10
-13.998095214994571
20
480.15938948169804
30
8.8817841970012523e-15
11
-6.4980955930826667
21
480.15938948169764
31
8.881513146457107e-15
0
LINE
5
200
100
AcDbEntity
8
0
100
AcDbLine
10
-6.4980955930826667
20
480.15938948169764
30
8.881513146457107e-15
11
-6.4980955930821835
21
486.15938948169367
31
8.8817841970012523e-15
0
LINE
5
201
100
AcDbEntity
8
0
100
AcDbLine
10
-27.499999999991292
20
486.15938948169355
30
8.1315162930802608e-19
11
-27.49999999997247
21
480.15938948169855
31
-2.6821270777514401e-28
0
LINE
5
202
100
AcDbEntity
8
0
100
AcDbLine
10
-27.49999999997247
20
480.15938948169855
30
-2.6821270777514401e-28
11
-21.498095441943576
21
480.15938948169827
31
-2.7105054372232668e-19
0
LINE
5
203
100
AcDbEntity
8
0
100
AcDbLine
10
-21.498095441943576
20
480.15938948169827
30
-2.7105054372232668e-19
11
-21.498095441943089
21
486.15938948169355
31
0
0
LINE
5
204
100
AcDbEntity
8
0
100
AcDbLine
10
-21.498095441943089
20
486.15938948169355
30
0
11
-13.998095214994088
21
486.15938948169367
31
8.8820552475443027e-15
0
LINE
5
205
100
AcDbEntity
8
0
100
AcDbLine
10
-6.4980955930821835
20
486.15938948169367
30
8.8817841970012523e-15
11
6.4980955931402038
21
486.15938948169372
31
8.8815131464580615e-15
0
LINE
5
206
100
AcDbEntity
8
0
100
AcDbLine
10
21.498095442001119
20
486.15938948169372
30
-2.7105054317718205e-19
11
13.998095215052114
21
486.15938948169372
31
8.8817841970012523e-15
0
LINE
5
207
100
AcDbEntity
8
0
100
AcDbLine
10
-21.499999999972562
20
589.88368370993339
30
-1.5777218104420236e-29
11
-27.499999999987285
21
589.88368370992941
31
8.8817841970012997e-15
0
ENDSEC
0
SECTION
2
OBJECTS
0
DICTIONARY
5
C
100
AcDbDictionary
3
ACAD_GROUP
350
D
3
ACAD_MLINESTYLE
350
17
0
DICTIONARY
5
D
100
AcDbDictionary
0
DICTIONARY
5
1A
330
C
100
AcDbDictionary
0
DICTIONARY
5
17
100
AcDbDictionary
0
ENDSEC
0
EOF
