0
SECTION
2
HEADER
9
$INSUNITS
70
4
9
$ACADVER
1
AC1014
9
$HANDSEED
5
FFFF
0
ENDSEC
0
SECTION
2
TABLES
0
TABLE
2
VPORT
5
8
100
AcDbSymbolTable
0
ENDTAB
0
TABLE
2
LTYPE
5
5
100
AcDbSymbolTable
0
LTYPE
5
14
100
AcDbSymbolTableRecord
100
AcDbLinetypeTableRecord
2
BYBLOCK
70
0
0
LTYPE
5
15
100
AcDbSymbolTableRecord
100
AcDbLinetypeTableRecord
2
BYLAYER
70
0
0
ENDTAB
0
TABLE
2
LAYER
5
2
100
AcDbSymbolTable
70
2
0
LAYER
5
50
100
AcDbSymbolTableRecord
100
AcDbLayerTableRecord
2
0
70
0
6
CONTINUOUS
0
ENDTAB
0
TABLE
2
STYLE
5
3
100
AcDbSymbolTable
70
1
0
STYLE
5
11
100
AcDbSymbolTableRecord
100
AcDbTextStyleTableRecord
2
STANDARD
70
0
0
ENDTAB
0
TABLE
2
VIEW
5
6
100
AcDbSymbolTable
70
0
0
ENDTAB
0
TABLE
2
UCS
5
7
100
AcDbSymbolTable
70
0
0
ENDTAB
0
TABLE
2
APPID
5
9
100
AcDbSymbolTable
70
2
0
APPID
5
12
100
AcDbSymbolTableRecord
100
AcDbRegAppTableRecord
2
ACAD
70
0
0
ENDTAB
0
TABLE
2
DIMSTYLE
5
A
100
AcDbSymbolTable
70
1
0
ENDTAB
0
TABLE
2
BLOCK_RECORD
5
1
100
AcDbSymbolTable
70
1
0
BLOCK_RECORD
5
1F
100
AcDbSymbolTableRecord
100
AcDbBlockTableRecord
2
*MODEL_SPACE
0
BLOCK_RECORD
5
1B
100
AcDbSymbolTableRecord
100
AcDbBlockTableRecord
2
*PAPER_SPACE
0
ENDTAB
0
ENDSEC
0
SECTION
2
BLOCKS
0
BLOCK
5
20
100
AcDbEntity
100
AcDbBlockBegin
2
*MODEL_SPACE
0
ENDBLK
5
21
100
AcDbEntity
100
AcDbBlockEnd
0
BLOCK
5
1C
100
AcDbEntity
100
AcDbBlockBegin
2
*PAPER_SPACE
0
ENDBLK
5
1D
100
AcDbEntity
100
AcDbBlockEnd
0
ENDSEC
0
SECTION
2
ENTITIES
0
LWPOLYLINE
5
100
100
AcDbEntity
8
0
100
AcDbPolyline
90
56
70
1
43
0.0
10
3.7336471607884754
20
51.50118813075175
10
3.7317419976611932
20
57.501187828281175
10
-3.7682576242505892
20
57.498806374372066
10
-3.7663524611233075
20
51.498806676842648
10
-11.2663520830351
20
51.496425222933553
10
-11.268257246162381
20
57.496424920462971
10
-27.518256426970645
20
57.491265103660211
10
-27.512501246690331
20
39.366266017333722
10
-21.512501549160923
20
39.36817118046099
10
-21.508929368297295
20
28.11817174759333
10
-27.508929065826699
20
28.116266584466057
10
-27.505356884963071
20
16.86626715159839
10
-21.50535718743367
20
16.868172314725662
10
-21.501785006570032
20
5.6181728818579941
10
-27.501784704099435
20
5.6162677187307235
10
-27.498212523235811
20
-5.6337317141369425
10
-21.49821282570641
20
-5.6318265510096719
10
-21.494640644842772
20
-16.881825983877338
10
-27.494640342372172
20
-16.88373114700461
10
-27.491068161508547
20
-28.133730579872278
10
-21.491068463979147
20
-28.131825416745009
10
-21.487496283115508
20
-39.381824849612677
10
-27.487495980644908
20
-39.383730012739953
10
-27.483645963491902
20
-51.508729401457941
10
-21.483646265962847
20
-51.506824238330886
10
-21.48174110283556
20
-57.506823935860311
10
-11.231741619556159
20
-57.503569282184529
10
-11.233646782683435
20
-51.503569584655096
10
-3.7336471607716346
20
-51.501188130746016
10
-3.7317419976443555
20
-57.501187828275434
10
3.7682576242674273
20
-57.498806374366325
10
3.7663524611401451
20
-51.498806676836907
10
11.266352083051935
20
-51.496425222927797
10
11.268257246179218
20
-57.496424920457216
10
21.518256729459097
20
-57.493170266781448
10
21.516351566331807
20
-51.493170569252023
10
27.516351263861335
20
-51.491265406124526
10
27.512501246708322
20
-39.366266017406645
10
21.512501549178914
20
-39.368171180533906
10
21.508929368315286
20
-28.118171747666239
10
27.508929065844686
20
-28.116266584538966
10
27.505356884981062
20
-16.866267151671298
10
21.505357187451661
20
-16.868172314798574
10
21.501785006588033
20
-5.6181728819309047
10
27.501784704117433
20
-5.6162677188036305
10
27.498212523253791
20
5.6337317140640355
10
21.498212825724391
20
5.6318265509367649
10
21.494640644860759
20
16.881825983804429
10
27.494640342390163
20
16.883731146931694
10
27.491068161526538
20
28.133730579799359
10
21.491068463997138
20
28.131825416672097
10
21.487496283133499
20
39.381824849539761
10
27.487495980662899
20
39.383730012667037
10
27.481740800382607
20
57.508729098993534
10
11.231741619572983
20
57.503569282190263
10
11.233646782700271
20
51.503569584660852
0
CIRCLE
5
101
100
AcDbEntity
8
0
100
AcDbCircle
10
0.0055567257970434115
20
-17.499999117791162
30
0
40
1.4999999999999929
210
-6.3108869236251685e-30
220
-2.0038782789086259e-33
230
1
0
CIRCLE
5
102
100
AcDbEntity
8
0
100
AcDbCircle
10
-17.499999117784945
20
-0.0055567257849148122
30
0
40
1.4999999999999942
210
3.1310598107947504e-35
220
-9.8607608181643258e-32
230
1
0
CIRCLE
5
103
100
AcDbEntity
8
0
100
AcDbCircle
10
17.499999117803227
20
0.0055567257908975681
30
0
40
1.4999999999999942
210
3.1310598107947504e-35
220
-9.8607608181643258e-32
230
1
0
CIRCLE
5
104
100
AcDbEntity
8
0
100
AcDbCircle
10
-0.0055567257787667848
20
17.499999117797135
30
0
40
1.4999999999999929
210
-6.3108869236251685e-30
220
-2.0038782789086259e-33
230
1
0
CIRCLE
5
105
100
AcDbEntity
8
0
100
AcDbCircle
10
9.1372411063212825e-12
20
2.9874921622808414e-12
30
0
40
12.749999999999941
210
-6.3108556130270611e-30
220
-1.006114864605519e-31
230
1
0
ENDSEC
0
SECTION
2
OBJECTS
0
DICTIONARY
5
C
100
AcDbDictionary
3
ACAD_GROUP
350
D
3
ACAD_MLINESTYLE
350
17
0
DICTIONARY
5
D
100
AcDbDictionary
0
DICTIONARY
5
1A
330
C
100
AcDbDictionary
0
DICTIONARY
5
17
100
AcDbDictionary
0
ENDSEC
0
EOF
