0
SECTION
2
HEADER
9
$INSUNITS
70
4
9
$ACADVER
1
AC1014
9
$HANDSEED
5
FFFF
0
ENDSEC
0
SECTION
2
TABLES
0
TABLE
2
VPORT
5
8
100
AcDbSymbolTable
0
ENDTAB
0
TABLE
2
LTYPE
5
5
100
AcDbSymbolTable
0
LTYPE
5
14
100
AcDbSymbolTableRecord
100
AcDbLinetypeTableRecord
2
BYBLOCK
70
0
0
LTYPE
5
15
100
AcDbSymbolTableRecord
100
AcDbLinetypeTableRecord
2
BYLAYER
70
0
0
ENDTAB
0
TABLE
2
LAYER
5
2
100
AcDbSymbolTable
70
2
0
LAYER
5
50
100
AcDbSymbolTableRecord
100
AcDbLayerTableRecord
2
0
70
0
6
CONTINUOUS
0
ENDTAB
0
TABLE
2
STYLE
5
3
100
AcDbSymbolTable
70
1
0
STYLE
5
11
100
AcDbSymbolTableRecord
100
AcDbTextStyleTableRecord
2
STANDARD
70
0
0
ENDTAB
0
TABLE
2
VIEW
5
6
100
AcDbSymbolTable
70
0
0
ENDTAB
0
TABLE
2
UCS
5
7
100
AcDbSymbolTable
70
0
0
ENDTAB
0
TABLE
2
APPID
5
9
100
AcDbSymbolTable
70
2
0
APPID
5
12
100
AcDbSymbolTableRecord
100
AcDbRegAppTableRecord
2
ACAD
70
0
0
ENDTAB
0
TABLE
2
DIMSTYLE
5
A
100
AcDbSymbolTable
70
1
0
ENDTAB
0
TABLE
2
BLOCK_RECORD
5
1
100
AcDbSymbolTable
70
1
0
BLOCK_RECORD
5
1F
100
AcDbSymbolTableRecord
100
AcDbBlockTableRecord
2
*MODEL_SPACE
0
BLOCK_RECORD
5
1B
100
AcDbSymbolTableRecord
100
AcDbBlockTableRecord
2
*PAPER_SPACE
0
ENDTAB
0
ENDSEC
0
SECTION
2
BLOCKS
0
BLOCK
5
20
100
AcDbEntity
100
AcDbBlockBegin
2
*MODEL_SPACE
0
ENDBLK
5
21
100
AcDbEntity
100
AcDbBlockEnd
0
BLOCK
5
1C
100
AcDbEntity
100
AcDbBlockBegin
2
*PAPER_SPACE
0
ENDBLK
5
1D
100
AcDbEntity
100
AcDbBlockEnd
0
ENDSEC
0
SECTION
2
ENTITIES
0
LINE
5
100
100
AcDbEntity
8
0
100
AcDbLine
10
-5.6249999997474003
20
640.3836822509802
30
-4.4408920985006262e-15
11
-5.6249999997473985
21
646.38368225098031
31
-4.4408920985006262e-15
0
LINE
5
101
100
AcDbEntity
8
0
100
AcDbLine
10
-5.6249999997473985
20
646.38368225098031
30
-4.4408920985006262e-15
11
-16.874999999747452
21
646.3836822509802
31
5.4606889942916786e-27
0
LINE
5
102
100
AcDbEntity
8
0
100
AcDbLine
10
-16.874999999747452
20
646.3836822509802
30
5.4606889942916786e-27
11
-16.874999999747448
21
640.38368225097997
31
-4.7331654313260708e-29
0
LINE
5
103
100
AcDbEntity
8
0
100
AcDbLine
10
-16.874999999747448
20
640.38368225097997
30
-4.7331654313260708e-29
11
-28.124999999747505
21
640.38368225097997
31
5.4210109150939119e-19
0
LINE
5
104
100
AcDbEntity
8
0
100
AcDbLine
10
-28.124999999747505
20
640.38368225097997
30
5.4210109150939119e-19
11
-28.124999999747494
21
646.38368225097997
31
3.1554436208840472e-29
0
LINE
5
105
100
AcDbEntity
8
0
100
AcDbLine
10
-28.124999999747494
20
646.38368225097997
30
3.1554436208840472e-29
11
-39.374999999747551
21
646.38368225097975
31
5.4606889942916771e-27
0
LINE
5
106
100
AcDbEntity
8
0
100
AcDbLine
10
-39.374999999747551
20
646.38368225097975
30
5.4606889942916771e-27
11
-39.374999999747551
21
640.38368225097975
31
-3.944304526105059e-29
0
LINE
5
107
100
AcDbEntity
8
0
100
AcDbLine
10
-39.374999999747551
20
640.38368225097975
30
-3.944304526105059e-29
11
-57.499999999787327
21
640.38368225097952
31
-4.4387236941470518e-15
0
LINE
5
108
100
AcDbEntity
8
0
100
AcDbLine
10
-57.499999999787327
20
640.38368225097952
30
-4.4387236941470518e-15
11
-57.499999999787327
21
636.88368225099009
31
3.1554436208840472e-29
0
LINE
5
109
100
AcDbEntity
8
0
100
AcDbLine
10
-57.499999999787327
20
636.88368225099009
30
3.1554436208840472e-29
11
-51.499999999787306
21
636.88368225099009
31
-8.1315163208244575e-19
0
LINE
5
110
100
AcDbEntity
8
0
100
AcDbLine
10
-51.499999999787306
20
636.88368225099009
30
-8.1315163208244575e-19
11
-51.499999999787292
21
629.38368225099009
31
-6.3108872417680944e-29
0
LINE
5
111
100
AcDbEntity
8
0
100
AcDbLine
10
-51.499999999787292
20
629.38368225099009
30
-6.3108872417680944e-29
11
-57.499999999787327
21
629.38368225098986
31
8.1315163208244575e-19
0
LINE
5
112
100
AcDbEntity
8
0
100
AcDbLine
10
-57.499999999787327
20
629.38368225098986
30
8.1315163208244575e-19
11
-57.499999999787335
21
621.88368225098975
31
-4.7331654313260708e-29
0
LINE
5
113
100
AcDbEntity
8
0
100
AcDbLine
10
-57.499999999787335
20
621.88368225098975
30
-4.7331654313260708e-29
11
-51.499999999787306
21
621.88368225098986
31
4.440349997411665e-15
0
LINE
5
114
100
AcDbEntity
8
0
100
AcDbLine
10
-51.499999999787306
20
621.88368225098986
30
4.440349997411665e-15
11
-51.499999999787292
21
614.38368225098975
31
4.4408920985005946e-15
0
LINE
5
115
100
AcDbEntity
8
0
100
AcDbLine
10
-51.499999999787292
20
614.38368225098975
30
4.4408920985005946e-15
11
-57.499999999787335
21
614.38368225098964
31
5.4210108896106964e-19
0
LINE
5
116
100
AcDbEntity
8
0
100
AcDbLine
10
-57.499999999787335
20
614.38368225098964
30
5.4210108896106964e-19
11
-57.499999999787342
21
606.88368225098941
31
-7.8886090522101181e-29
0
LINE
5
117
100
AcDbEntity
8
0
100
AcDbLine
10
-57.499999999787342
20
606.88368225098941
30
-7.8886090522101181e-29
11
-51.499999999787306
21
606.88368225098952
31
4.440349997411665e-15
0
LINE
5
118
100
AcDbEntity
8
0
100
AcDbLine
10
-51.499999999787306
20
606.88368225098952
30
4.440349997411665e-15
11
-51.499999999787292
21
599.3836822509893
31
4.4408920985005946e-15
0
LINE
5
119
100
AcDbEntity
8
0
100
AcDbLine
10
-51.499999999787292
20
599.3836822509893
30
4.4408920985005946e-15
11
-57.499999999787335
21
599.3836822509893
31
5.4210108896106964e-19
0
LINE
5
120
100
AcDbEntity
8
0
100
AcDbLine
10
-57.499999999787335
20
599.3836822509893
30
5.4210108896106964e-19
11
-57.499999999787043
21
589.88368225098907
31
-4.4408920985006577e-15
0
LINE
5
121
100
AcDbEntity
8
0
100
AcDbLine
10
57.500000000213475
20
589.88368225099055
30
-4.3368087457623939e-18
11
57.50000000021366
21
599.38368225099077
31
6.3108872417680944e-29
0
LINE
5
122
100
AcDbEntity
8
0
100
AcDbLine
10
57.50000000021366
20
599.38368225099077
30
6.3108872417680944e-29
11
51.500000000213618
21
599.38368225099066
31
-4.4403499974114709e-15
0
LINE
5
123
100
AcDbEntity
8
0
100
AcDbLine
10
51.500000000213618
20
599.38368225099066
30
-4.4403499974114709e-15
11
51.50000000021361
21
606.88368225099077
31
1.5777218104420236e-29
0
LINE
5
124
100
AcDbEntity
8
0
100
AcDbLine
10
51.50000000021361
20
606.88368225099077
30
1.5777218104420236e-29
11
57.500000000213653
21
606.88368225099089
31
-5.421010891551196e-19
0
LINE
5
125
100
AcDbEntity
8
0
100
AcDbLine
10
57.500000000213653
20
606.88368225099089
30
-5.421010891551196e-19
11
57.50000000021366
21
614.38368225099111
31
3.1554436208840472e-29
0
LINE
5
126
100
AcDbEntity
8
0
100
AcDbLine
10
57.50000000021366
20
614.38368225099111
30
3.1554436208840472e-29
11
51.500000000213632
21
614.383682250991
31
5.421010891551196e-19
0
LINE
5
127
100
AcDbEntity
8
0
100
AcDbLine
10
51.500000000213632
20
614.383682250991
30
5.421010891551196e-19
11
51.500000000213618
21
621.88368225099111
31
3.1554436208840472e-29
0
LINE
5
128
100
AcDbEntity
8
0
100
AcDbLine
10
51.500000000213618
20
621.88368225099111
30
3.1554436208840472e-29
11
57.50000000021366
21
621.88368225099123
31
-5.421010891551196e-19
0
LINE
5
129
100
AcDbEntity
8
0
100
AcDbLine
10
57.50000000021366
20
621.88368225099123
30
-5.421010891551196e-19
11
57.500000000213667
21
629.38368225099134
31
4.7331654313260708e-29
0
LINE
5
130
100
AcDbEntity
8
0
100
AcDbLine
10
57.500000000213667
20
629.38368225099134
30
4.7331654313260708e-29
11
51.500000000213646
21
629.38368225099134
31
8.1315163227649571e-19
0
LINE
5
131
100
AcDbEntity
8
0
100
AcDbLine
10
51.500000000213646
20
629.38368225099134
30
8.1315163227649571e-19
11
51.500000000213639
21
636.88368225099146
31
3.1554436208840472e-29
0
LINE
5
132
100
AcDbEntity
8
0
100
AcDbLine
10
51.500000000213639
20
636.88368225099146
30
3.1554436208840472e-29
11
57.500000000213667
21
636.88368225099157
31
-4.441705250132902e-15
0
LINE
5
133
100
AcDbEntity
8
0
100
AcDbLine
10
57.500000000213667
20
636.88368225099157
30
-4.441705250132902e-15
11
57.500000000213625
21
646.38368225098088
31
-4.4408920985005315e-15
0
LINE
5
134
100
AcDbEntity
8
0
100
AcDbLine
10
57.500000000213625
20
646.38368225098088
30
-4.4408920985005315e-15
11
51.500000000213639
21
646.38368225098066
31
5.4210108896106964e-19
0
LINE
5
135
100
AcDbEntity
8
0
100
AcDbLine
10
51.500000000213639
20
646.38368225098066
30
5.4210108896106964e-19
11
51.500000000213646
21
640.38368225098066
31
-2.3665827156630354e-29
0
LINE
5
136
100
AcDbEntity
8
0
100
AcDbLine
10
51.500000000213646
20
640.38368225098066
30
-2.3665827156630354e-29
11
39.375000000252811
21
640.38368225098088
31
1.0842021820578645e-18
0
LINE
5
137
100
AcDbEntity
8
0
100
AcDbLine
10
39.375000000252811
20
640.38368225098088
30
1.0842021820578645e-18
11
39.375000000252811
21
646.38368225098088
31
3.1554436208840472e-29
0
LINE
5
138
100
AcDbEntity
8
0
100
AcDbLine
10
39.375000000252811
20
646.38368225098088
30
3.1554436208840472e-29
11
28.125000000252758
21
646.38368225098077
31
5.2666389479856573e-27
0
LINE
5
139
100
AcDbEntity
8
0
100
AcDbLine
10
28.125000000252758
20
646.38368225098077
30
5.2666389479856573e-27
11
28.125000000252758
21
640.38368225098054
31
-3.1554436208840472e-29
0
LINE
5
140
100
AcDbEntity
8
0
100
AcDbLine
10
28.125000000252758
20
640.38368225098054
30
-3.1554436208840472e-29
11
16.875000000252712
21
640.38368225098054
31
-4.4403499974089229e-15
0
LINE
5
141
100
AcDbEntity
8
0
100
AcDbLine
10
16.875000000252712
20
640.38368225098054
30
-4.4403499974089229e-15
11
16.875000000252701
21
646.38368225098066
31
5.5220263365470826e-29
0
LINE
5
142
100
AcDbEntity
8
0
100
AcDbLine
10
16.875000000252701
20
646.38368225098066
30
5.5220263365470826e-29
11
5.6250000002526512
21
646.38368225098043
31
5.2666389479856573e-27
0
LINE
5
143
100
AcDbEntity
8
0
100
AcDbLine
10
5.6250000002526512
20
646.38368225098043
30
5.2666389479856573e-27
11
5.6250000002526512
21
640.3836822509802
31
-7.8886090522101181e-30
0
LINE
5
144
100
AcDbEntity
8
0
100
AcDbLine
10
5.6250000002526512
20
640.3836822509802
30
-7.8886090522101181e-30
11
-5.6249999997474003
21
640.3836822509802
31
-4.4408920985006262e-15
0
LINE
5
145
100
AcDbEntity
8
0
100
AcDbLine
10
-21.501897197716442
20
486.10129034589488
30
0
11
-21.501897197764308
21
589.88368225099691
31
4.2914033244023042e-27
0
LINE
5
146
100
AcDbEntity
8
0
100
AcDbLine
10
-51.499988707557868
20
589.88368225099532
30
2.1684043454788442e-18
11
-51.499988707557442
21
582.38368225099839
31
-3.1554436208840472e-29
0
LINE
5
147
100
AcDbEntity
8
0
100
AcDbLine
10
-51.499988707556916
20
573.21701558433176
30
-1.5777218104420236e-29
11
-51.499988707556483
21
565.71701558433165
31
3.1554436208840472e-29
0
LINE
5
148
100
AcDbEntity
8
0
100
AcDbLine
10
-51.499988707555957
20
556.55034891766491
30
-4.7331654313260708e-29
11
-51.499988707555524
21
549.05034891766479
31
6.3108872417680944e-29
0
LINE
5
149
100
AcDbEntity
8
0
100
AcDbLine
10
-51.499988707554998
20
539.88368225099816
30
-3.1554436208840472e-29
11
-51.499988707554564
21
532.38368225099805
31
6.3108872417680944e-29
0
LINE
5
150
100
AcDbEntity
8
0
100
AcDbLine
10
-51.499988707554031
20
523.21701558433142
30
1.5777218104420236e-29
11
-51.499988707553605
21
515.71701558433131
31
4.7331654313260708e-29
0
LINE
5
151
100
AcDbEntity
8
0
100
AcDbLine
10
-51.499988707553072
20
506.55034891766462
30
-4.7331654313260708e-29
11
-51.499988707552646
21
499.05034891766445
31
6.3108872417680944e-29
0
LINE
5
152
100
AcDbEntity
8
0
100
AcDbLine
10
-51.499988707552234
20
492.10129034589079
30
0
11
-43.999989085642824
21
492.10129034589124
31
-5.4210108675769581e-19
0
LINE
5
153
100
AcDbEntity
8
0
100
AcDbLine
10
-43.999989085642824
20
492.10129034589124
30
-5.4210108675769581e-19
11
-43.99998908564244
21
486.10129034589369
31
-4.0468564437837906e-27
0
LINE
5
154
100
AcDbEntity
8
0
100
AcDbLine
10
-43.99998908564244
20
486.10129034589369
30
-4.0468564437837906e-27
11
-36.499989463730515
21
486.10129034589409
31
-5.4210108598149568e-19
0
LINE
5
155
100
AcDbEntity
8
0
100
AcDbLine
10
-36.499989463730515
20
486.10129034589409
30
-5.4210108598149568e-19
11
-36.499989463730927
21
492.10129034589158
31
4.8593831761614327e-27
0
LINE
5
156
100
AcDbEntity
8
0
100
AcDbLine
10
-36.499989463730927
20
492.10129034589158
30
4.8593831761614327e-27
11
-29.001896819628744
21
492.10129034589204
31
-4.4414341995873848e-15
0
LINE
5
157
100
AcDbEntity
8
0
100
AcDbLine
10
-29.001896819628744
20
492.10129034589204
30
-4.4414341995873848e-15
11
-29.001896819628374
21
486.10129034589454
31
-4.4408920985006104e-15
0
LINE
5
158
100
AcDbEntity
8
0
100
AcDbLine
10
-29.001896819628374
20
486.10129034589454
30
-4.4408920985006104e-15
11
-21.501897197716442
21
486.10129034589488
31
0
0
LINE
5
159
100
AcDbEntity
8
0
100
AcDbLine
10
43.982557580669507
20
492.10129034589607
30
-4.4408920985006262e-15
11
51.482536308230216
21
492.10129034589926
31
-4.4408920984700933e-15
0
LINE
5
160
100
AcDbEntity
8
0
100
AcDbLine
10
51.482536308229861
20
499.05034891767036
30
1.5777218104420236e-29
11
51.482536308229427
21
506.55034891767031
31
0
0
LINE
5
161
100
AcDbEntity
8
0
100
AcDbLine
10
51.482536308228894
20
515.7170155843371
30
4.7331654313260708e-29
11
51.482536308228461
21
523.2170155843371
31
0
0
LINE
5
162
100
AcDbEntity
8
0
100
AcDbLine
10
51.482536308227921
20
532.38368225100385
30
9.4663308626521417e-29
11
51.482536308227495
21
539.88368225100385
31
0
0
LINE
5
163
100
AcDbEntity
8
0
100
AcDbLine
10
51.482536308226955
20
549.0503489176707
30
-4.7331654313260708e-29
11
51.482536308226507
21
556.55034891767059
31
0
0
LINE
5
164
100
AcDbEntity
8
0
100
AcDbLine
10
51.482536308225981
20
565.71701558433745
30
4.7331654313260708e-29
11
51.482536308225534
21
573.21701558433745
31
0
0
LINE
5
165
100
AcDbEntity
8
0
100
AcDbLine
10
51.482536308225015
20
582.38368225100419
30
4.7331654313260708e-29
11
51.482536308225662
21
589.88368225100101
31
-4.7331654313260708e-29
0
LINE
5
166
100
AcDbEntity
8
0
100
AcDbLine
10
21.498098466824537
20
589.8836822509993
30
2.1684043454821461e-18
11
21.498098466828743
21
486.10129034589761
31
3.7865323450608567e-28
0
LINE
5
167
100
AcDbEntity
8
0
100
AcDbLine
10
21.498098466828743
20
486.10129034589761
30
3.7865323450608567e-28
11
28.998098088740676
21
486.10129034589789
31
4.4406210479569904e-15
0
LINE
5
168
100
AcDbEntity
8
0
100
AcDbLine
10
28.998098088740676
20
486.10129034589789
30
4.4406210479569904e-15
11
28.998098088740303
21
492.10129034589522
31
3.944304526105059e-29
0
LINE
5
169
100
AcDbEntity
8
0
100
AcDbLine
10
28.998098088740303
20
492.10129034589522
30
3.944304526105059e-29
11
36.482557958757589
21
492.10129034589562
31
-5.1870147762085932e-28
0
LINE
5
170
100
AcDbEntity
8
0
100
AcDbLine
10
36.482557958757589
20
492.10129034589562
30
-5.1870147762085932e-28
11
36.482557958757958
21
486.10129034589846
31
-1.5777218104420236e-29
0
LINE
5
171
100
AcDbEntity
8
0
100
AcDbLine
10
36.482557958757958
20
486.10129034589846
30
-1.5777218104420236e-29
11
43.982557580669877
21
486.1012903458988
31
-5.4210108598149568e-19
0
LINE
5
172
100
AcDbEntity
8
0
100
AcDbLine
10
43.982557580669877
20
486.1012903458988
30
-5.4210108598149568e-19
11
43.982557580669507
21
492.10129034589607
31
-4.4408920985006262e-15
0
LINE
5
173
100
AcDbEntity
8
0
100
AcDbLine
10
-51.499994328903625
20
499.05034891766456
30
4.440892098499932e-15
11
-57.499994026433157
21
499.05034891766422
31
2.7105054322285095e-19
0
LINE
5
174
100
AcDbEntity
8
0
100
AcDbLine
10
-57.499994026433157
20
499.05034891766422
30
2.7105054322285095e-19
11
-57.499994026434962
21
486.10129034589278
31
-4.4408920984997742e-15
0
LINE
5
175
100
AcDbEntity
8
0
100
AcDbLine
10
-57.499994026434962
20
486.10129034589278
30
-4.4408920984997742e-15
11
-51.499994328905373
21
486.10129034589318
31
4.4408920985006262e-15
0
LINE
5
176
100
AcDbEntity
8
0
100
AcDbLine
10
-51.499994328904592
20
515.71701558433142
30
-3.1554436208840472e-29
11
-57.499994026434116
21
515.71701558433108
31
2.7105054322285095e-19
0
LINE
5
177
100
AcDbEntity
8
0
100
AcDbLine
10
-57.499994026434116
20
515.71701558433108
30
2.7105054322285095e-19
11
-57.499994026433605
21
506.55034891766428
31
-4.4408920985005946e-15
0
LINE
5
178
100
AcDbEntity
8
0
100
AcDbLine
10
-57.499994026433605
20
506.55034891766428
30
-4.4408920985005946e-15
11
-51.499994328904066
21
506.55034891766462
31
0
0
LINE
5
179
100
AcDbEntity
8
0
100
AcDbLine
10
-51.499994328905565
20
532.38368225099816
30
1.5777218104420236e-29
11
-57.49999402643509
21
532.38368225099771
31
2.7105054322285095e-19
0
LINE
5
180
100
AcDbEntity
8
0
100
AcDbLine
10
-57.49999402643509
20
532.38368225099771
30
2.7105054322285095e-19
11
-57.499994026434571
21
523.21701558433108
31
-4.4408920985006419e-15
0
LINE
5
181
100
AcDbEntity
8
0
100
AcDbLine
10
-57.499994026434571
20
523.21701558433108
30
-4.4408920985006419e-15
11
-51.499994328905039
21
523.21701558433142
31
0
0
LINE
5
182
100
AcDbEntity
8
0
100
AcDbLine
10
-51.499994328906531
20
549.05034891766491
30
3.1554436208840472e-29
11
-57.49999402643607
21
549.05034891766445
31
2.7105054322285095e-19
0
LINE
5
183
100
AcDbEntity
8
0
100
AcDbLine
10
-57.49999402643607
20
549.05034891766445
30
2.7105054322285095e-19
11
-57.499994026435544
21
539.88368225099771
31
-4.4408920985006577e-15
0
LINE
5
184
100
AcDbEntity
8
0
100
AcDbLine
10
-57.499994026435544
20
539.88368225099771
30
-4.4408920985006577e-15
11
-51.499994328905998
21
539.88368225099816
31
0
0
LINE
5
185
100
AcDbEntity
8
0
100
AcDbLine
10
-51.499994328907484
20
565.71701558433165
30
4.7331654313260708e-29
11
-57.499994026437022
21
565.71701558433131
31
2.7105054322285095e-19
0
LINE
5
186
100
AcDbEntity
8
0
100
AcDbLine
10
-57.499994026437022
20
565.71701558433131
30
2.7105054322285095e-19
11
-57.499994026436497
21
556.55034891766456
31
-4.4408920985006735e-15
0
LINE
5
187
100
AcDbEntity
8
0
100
AcDbLine
10
-57.499994026436497
20
556.55034891766456
30
-4.4408920985006735e-15
11
-51.499994328906951
21
556.55034891766491
31
0
0
LINE
5
188
100
AcDbEntity
8
0
100
AcDbLine
10
-51.49999432890845
20
582.38368225099839
30
3.1554436208840472e-29
11
-57.499994026437982
21
582.38368225099805
31
2.7105054322285095e-19
0
LINE
5
189
100
AcDbEntity
8
0
100
AcDbLine
10
-57.499994026437982
20
582.38368225099805
30
2.7105054322285095e-19
11
-57.499994026437449
21
573.21701558433131
31
-4.4408920985006577e-15
0
LINE
5
190
100
AcDbEntity
8
0
100
AcDbLine
10
-57.499994026437449
20
573.21701558433131
30
-4.4408920985006577e-15
11
-51.49999432890791
21
573.21701558433165
31
0
0
LINE
5
191
100
AcDbEntity
8
0
100
AcDbLine
10
57.482530384404065
20
573.21701558433779
30
0
11
57.48253038440356
21
582.38368225100442
31
3.1554436208840472e-29
0
LINE
5
192
100
AcDbEntity
8
0
100
AcDbLine
10
57.48253038440356
20
582.38368225100442
30
3.1554436208840472e-29
11
51.482530686874036
21
582.38368225100407
31
-4.440621047957403e-15
0
LINE
5
193
100
AcDbEntity
8
0
100
AcDbLine
10
51.482530686874533
20
573.21701558433733
30
-4.4408920985006577e-15
11
57.482530384404065
21
573.21701558433779
31
0
0
LINE
5
194
100
AcDbEntity
8
0
100
AcDbLine
10
57.482530384405024
20
556.55034891767093
30
0
11
57.482530384404527
21
565.71701558433779
31
6.3108872417680944e-29
0
LINE
5
195
100
AcDbEntity
8
0
100
AcDbLine
10
57.482530384404527
20
565.71701558433779
30
6.3108872417680944e-29
11
51.482530686874988
21
565.71701558433733
31
-4.440621047957403e-15
0
LINE
5
196
100
AcDbEntity
8
0
100
AcDbLine
10
51.482530686875478
20
556.55034891767059
30
-4.4408920985006893e-15
11
57.482530384405024
21
556.55034891767093
31
0
0
LINE
5
197
100
AcDbEntity
8
0
100
AcDbLine
10
57.482530384405976
20
539.88368225100419
30
0
11
57.482530384405479
21
549.05034891767093
31
4.7331654313260708e-29
0
LINE
5
198
100
AcDbEntity
8
0
100
AcDbLine
10
57.482530384405479
20
549.05034891767093
30
4.7331654313260708e-29
11
51.48253068687594
21
549.05034891767048
31
-4.440621047957403e-15
0
LINE
5
199
100
AcDbEntity
8
0
100
AcDbLine
10
51.48253068687643
20
539.88368225100385
30
-4.4408920985006735e-15
11
57.482530384405976
21
539.88368225100419
31
0
0
LINE
5
200
100
AcDbEntity
8
0
100
AcDbLine
10
57.482530384406935
20
523.21701558433745
30
0
11
57.482530384406445
21
532.38368225100419
31
3.1554436208840472e-29
0
LINE
5
201
100
AcDbEntity
8
0
100
AcDbLine
10
57.482530384406445
20
532.38368225100419
30
3.1554436208840472e-29
11
51.482530686876927
21
532.38368225100385
31
-4.440621047957403e-15
0
LINE
5
202
100
AcDbEntity
8
0
100
AcDbLine
10
51.482530686877404
20
523.2170155843371
30
-4.4408920985006577e-15
11
57.482530384406935
21
523.21701558433745
31
0
0
LINE
5
203
100
AcDbEntity
8
0
100
AcDbLine
10
57.482530384407895
20
506.55034891767065
30
0
11
57.482530384407404
21
515.71701558433745
31
4.7331654313260708e-29
0
LINE
5
204
100
AcDbEntity
8
0
100
AcDbLine
10
57.482530384407404
20
515.71701558433745
30
4.7331654313260708e-29
11
51.482530686877872
21
515.7170155843371
31
-4.440621047957403e-15
0
LINE
5
205
100
AcDbEntity
8
0
100
AcDbLine
10
51.482530686878356
20
506.55034891767031
30
-4.4408920985006735e-15
11
57.482530384407895
21
506.55034891767065
31
0
0
LINE
5
206
100
AcDbEntity
8
0
100
AcDbLine
10
57.482530384407646
20
486.10129034589966
30
0
11
57.482530384408363
21
499.05034891767059
31
1.735493991486226e-28
0
LINE
5
207
100
AcDbEntity
8
0
100
AcDbLine
10
57.482530384408363
20
499.05034891767059
30
1.735493991486226e-28
11
51.482530686878846
21
499.05034891767025
31
-4.440621047957403e-15
0
LINE
5
208
100
AcDbEntity
8
0
100
AcDbLine
10
51.482530686878064
20
486.10129034589926
30
-4.4408920984986225e-15
11
57.482530384407646
21
486.10129034589966
31
0
0
LINE
5
209
100
AcDbEntity
8
0
100
AcDbLine
10
-21.501897197764308
20
589.88368225099691
30
4.2914033244023042e-27
11
21.498098466824537
21
589.8836822509993
31
2.1684043454821461e-18
0
LINE
5
210
100
AcDbEntity
8
0
100
AcDbLine
10
51.482536308225662
20
589.88368225100101
30
-4.7331654313260708e-29
11
57.500000000213475
21
589.88368225099055
31
-4.3368087457623939e-18
0
LINE
5
211
100
AcDbEntity
8
0
100
AcDbLine
10
-51.499988707557868
20
589.88368225099532
30
2.1684043454788442e-18
11
-57.499999999787043
21
589.88368225098907
31
-4.4408920985006577e-15
0
LINE
5
212
100
AcDbEntity
8
0
100
AcDbLine
10
51.482536308230216
20
492.10129034589926
30
-4.4408920984700933e-15
11
51.482530686878064
21
486.10129034589926
31
-4.4408920984986225e-15
0
LINE
5
213
100
AcDbEntity
8
0
100
AcDbLine
10
-51.499994328905373
20
486.10129034589318
30
4.4408920985006262e-15
11
-51.499988707552234
21
492.10129034589079
31
0
0
ENDSEC
0
SECTION
2
OBJECTS
0
DICTIONARY
5
C
100
AcDbDictionary
3
ACAD_GROUP
350
D
3
ACAD_MLINESTYLE
350
17
0
DICTIONARY
5
D
100
AcDbDictionary
0
DICTIONARY
5
1A
330
C
100
AcDbDictionary
0
DICTIONARY
5
17
100
AcDbDictionary
0
ENDSEC
0
EOF
