0
SECTION
2
HEADER
9
$INSUNITS
70
4
9
$ACADVER
1
AC1014
9
$HANDSEED
5
FFFF
0
ENDSEC
0
SECTION
2
TABLES
0
TABLE
2
VPORT
5
8
100
AcDbSymbolTable
0
ENDTAB
0
TABLE
2
LTYPE
5
5
100
AcDbSymbolTable
0
LTYPE
5
14
100
AcDbSymbolTableRecord
100
AcDbLinetypeTableRecord
2
BYBLOCK
70
0
0
LTYPE
5
15
100
AcDbSymbolTableRecord
100
AcDbLinetypeTableRecord
2
BYLAYER
70
0
0
ENDTAB
0
TABLE
2
LAYER
5
2
100
AcDbSymbolTable
70
2
0
LAYER
5
50
100
AcDbSymbolTableRecord
100
AcDbLayerTableRecord
2
0
70
0
6
CONTINUOUS
0
ENDTAB
0
TABLE
2
STYLE
5
3
100
AcDbSymbolTable
70
1
0
STYLE
5
11
100
AcDbSymbolTableRecord
100
AcDbTextStyleTableRecord
2
STANDARD
70
0
0
ENDTAB
0
TABLE
2
VIEW
5
6
100
AcDbSymbolTable
70
0
0
ENDTAB
0
TABLE
2
UCS
5
7
100
AcDbSymbolTable
70
0
0
ENDTAB
0
TABLE
2
APPID
5
9
100
AcDbSymbolTable
70
2
0
APPID
5
12
100
AcDbSymbolTableRecord
100
AcDbRegAppTableRecord
2
ACAD
70
0
0
ENDTAB
0
TABLE
2
DIMSTYLE
5
A
100
AcDbSymbolTable
70
1
0
ENDTAB
0
TABLE
2
BLOCK_RECORD
5
1
100
AcDbSymbolTable
70
1
0
BLOCK_RECORD
5
1F
100
AcDbSymbolTableRecord
100
AcDbBlockTableRecord
2
*MODEL_SPACE
0
BLOCK_RECORD
5
1B
100
AcDbSymbolTableRecord
100
AcDbBlockTableRecord
2
*PAPER_SPACE
0
ENDTAB
0
ENDSEC
0
SECTION
2
BLOCKS
0
BLOCK
5
20
100
AcDbEntity
100
AcDbBlockBegin
2
*MODEL_SPACE
0
ENDBLK
5
21
100
AcDbEntity
100
AcDbBlockEnd
0
BLOCK
5
1C
100
AcDbEntity
100
AcDbBlockBegin
2
*PAPER_SPACE
0
ENDBLK
5
1D
100
AcDbEntity
100
AcDbBlockEnd
0
ENDSEC
0
SECTION
2
ENTITIES
0
LINE
5
100
100
AcDbEntity
8
0
100
AcDbLine
10
-51.499999999999851
20
385.49999618530126
30
0
11
-57.499999999999851
21
385.49999618530103
31
-3.1360911714469568e-30
0
LINE
5
101
100
AcDbEntity
8
0
100
AcDbLine
10
-57.499999999999851
20
385.49999618530103
30
-3.1360911714469568e-30
11
-57.499999999999609
21
377.99999618530103
31
-1.5777218104420236e-29
0
LINE
5
102
100
AcDbEntity
8
0
100
AcDbLine
10
-57.499999999999609
20
377.99999618530103
30
-1.5777218104420236e-29
11
-51.499999999999616
21
377.99999618530126
31
3.1360911714433695e-30
0
LINE
5
103
100
AcDbEntity
8
0
100
AcDbLine
10
-51.499999999999616
20
377.99999618530126
30
3.1360911714433695e-30
11
-51.499999999999389
21
370.49999618530126
31
-1.5777218104420236e-29
0
LINE
5
104
100
AcDbEntity
8
0
100
AcDbLine
10
-51.499999999999389
20
370.49999618530126
30
-1.5777218104420236e-29
11
-57.499999999999396
21
370.49999618530103
31
-3.1360911714388854e-30
0
LINE
5
105
100
AcDbEntity
8
0
100
AcDbLine
10
-57.499999999999396
20
370.49999618530103
30
-3.1360911714388854e-30
11
-57.499999999999154
21
362.99999618530103
31
-1.5777218104420236e-29
0
LINE
5
106
100
AcDbEntity
8
0
100
AcDbLine
10
-57.499999999999154
20
362.99999618530103
30
-1.5777218104420236e-29
11
-51.499999999999147
21
362.99999618530126
31
3.1360911714348496e-30
0
LINE
5
107
100
AcDbEntity
8
0
100
AcDbLine
10
-51.499999999999147
20
362.99999618530126
30
3.1360911714348496e-30
11
-51.499999999998927
21
355.49999618530114
31
-1.5777218104420236e-29
0
LINE
5
108
100
AcDbEntity
8
0
100
AcDbLine
10
-51.499999999998927
20
355.49999618530114
30
-1.5777218104420236e-29
11
-57.499999999998941
21
355.49999618530092
31
-3.1360911714397822e-30
0
LINE
5
109
100
AcDbEntity
8
0
100
AcDbLine
10
-57.499999999998941
20
355.49999618530092
30
-3.1360911714397822e-30
11
-57.499999999998373
21
345.99999618530103
31
0
0
LINE
5
110
100
AcDbEntity
8
0
100
AcDbLine
10
57.500000000001663
20
345.99999618530461
30
4.4408920985006672e-15
11
57.50000000000157
21
355.4999961853045
31
0
0
LINE
5
111
100
AcDbEntity
8
0
100
AcDbLine
10
57.50000000000157
20
355.4999961853045
30
0
11
51.500000000001556
21
355.49999618530427
31
-4.4408920985006293e-15
0
LINE
5
112
100
AcDbEntity
8
0
100
AcDbLine
10
51.500000000001556
20
355.49999618530427
30
-4.4408920985006293e-15
11
51.500000000001336
21
362.99999618530433
31
1.5777218104420236e-29
0
LINE
5
113
100
AcDbEntity
8
0
100
AcDbLine
10
51.500000000001336
20
362.99999618530433
30
1.5777218104420236e-29
11
57.50000000000135
21
362.9999961853045
31
2.8156160941113843e-30
0
LINE
5
114
100
AcDbEntity
8
0
100
AcDbLine
10
57.50000000000135
20
362.9999961853045
30
2.8156160941113843e-30
11
57.500000000001108
21
370.49999618530444
31
-4.4408920985006104e-15
0
LINE
5
115
100
AcDbEntity
8
0
100
AcDbLine
10
57.500000000001108
20
370.49999618530444
30
-4.4408920985006104e-15
11
51.500000000001116
21
370.49999618530427
31
-4.4408920985006293e-15
0
LINE
5
116
100
AcDbEntity
8
0
100
AcDbLine
10
51.500000000001116
20
370.49999618530427
30
-4.4408920985006293e-15
11
51.500000000000895
21
377.99999618530433
31
1.5777218104420236e-29
0
LINE
5
117
100
AcDbEntity
8
0
100
AcDbLine
10
51.500000000000895
20
377.99999618530433
30
1.5777218104420236e-29
11
57.500000000000895
21
377.9999961853045
31
2.8156160941104874e-30
0
LINE
5
118
100
AcDbEntity
8
0
100
AcDbLine
10
57.500000000000895
20
377.9999961853045
30
2.8156160941104874e-30
11
57.500000000000654
21
385.4999961853045
31
-4.4408920985006104e-15
0
LINE
5
119
100
AcDbEntity
8
0
100
AcDbLine
10
57.500000000000654
20
385.4999961853045
30
-4.4408920985006104e-15
11
51.500000000000668
21
385.49999618530433
31
-4.4408920985006293e-15
0
LINE
5
120
100
AcDbEntity
8
0
100
AcDbLine
10
51.500000000000668
20
385.49999618530433
30
-4.4408920985006293e-15
11
51.500000000000448
21
392.99999618530433
31
1.5777218104420236e-29
0
LINE
5
121
100
AcDbEntity
8
0
100
AcDbLine
10
51.500000000000448
20
392.99999618530433
30
1.5777218104420236e-29
11
57.500000000000455
21
392.99999618530455
31
2.8156160941190073e-30
0
LINE
5
122
100
AcDbEntity
8
0
100
AcDbLine
10
57.500000000000455
20
392.99999618530455
30
2.8156160941190073e-30
11
57.500000000000341
21
396.49999618529387
31
-4.4408920985006262e-15
0
LINE
5
123
100
AcDbEntity
8
0
100
AcDbLine
10
57.500000000000341
20
396.49999618529387
30
-4.4408920985006262e-15
11
39.374999999960629
21
396.49999618529336
31
-4.4408920985006151e-15
0
LINE
5
124
100
AcDbEntity
8
0
100
AcDbLine
10
39.374999999960629
20
396.49999618529336
30
-4.4408920985006151e-15
11
39.374999999960458
21
402.49999618529336
31
1.5777218104420236e-29
0
LINE
5
125
100
AcDbEntity
8
0
100
AcDbLine
10
39.374999999960458
20
402.49999618529336
30
1.5777218104420236e-29
11
28.124999999960455
21
402.49999618529301
31
4.4408920985006262e-15
0
LINE
5
126
100
AcDbEntity
8
0
100
AcDbLine
10
28.124999999960455
20
402.49999618529301
30
4.4408920985006262e-15
11
28.124999999960636
21
396.49999618529307
31
4.4408920985006104e-15
0
LINE
5
127
100
AcDbEntity
8
0
100
AcDbLine
10
28.124999999960636
20
396.49999618529307
30
4.4408920985006104e-15
11
16.874999999960629
21
396.49999618529273
31
3.5676092003168649e-31
0
LINE
5
128
100
AcDbEntity
8
0
100
AcDbLine
10
16.874999999960629
20
396.49999618529273
30
3.5676092003168649e-31
11
16.874999999960444
21
402.49999618529267
31
1.5777218104420236e-29
0
LINE
5
129
100
AcDbEntity
8
0
100
AcDbLine
10
16.874999999960444
20
402.49999618529267
30
1.5777218104420236e-29
11
5.6249999999604388
21
402.49999618529228
31
4.4408920985006262e-15
0
LINE
5
130
100
AcDbEntity
8
0
100
AcDbLine
10
5.6249999999604388
20
402.49999618529228
30
4.4408920985006262e-15
11
5.6249999999606226
21
396.49999618529239
31
-1.5777218104420236e-29
0
LINE
5
131
100
AcDbEntity
8
0
100
AcDbLine
10
5.6249999999606226
20
396.49999618529239
30
-1.5777218104420236e-29
11
-5.6250000000393827
21
396.49999618529199
31
3.6285842702391738e-32
0
LINE
5
132
100
AcDbEntity
8
0
100
AcDbLine
10
-5.6250000000393827
20
396.49999618529199
30
3.6285842702391738e-32
11
-5.625000000039563
21
402.49999618529205
31
1.5777218104420236e-29
0
LINE
5
133
100
AcDbEntity
8
0
100
AcDbLine
10
-5.625000000039563
20
402.49999618529205
30
1.5777218104420236e-29
11
-16.875000000039567
21
402.49999618529165
31
3.5676092002540867e-31
0
LINE
5
134
100
AcDbEntity
8
0
100
AcDbLine
10
-16.875000000039567
20
402.49999618529165
30
3.5676092002540867e-31
11
-16.875000000039392
21
396.49999618529165
31
-1.5777218104420236e-29
0
LINE
5
135
100
AcDbEntity
8
0
100
AcDbLine
10
-16.875000000039392
20
396.49999618529165
30
-1.5777218104420236e-29
11
-28.125000000039392
21
396.49999618529131
31
-4.4408920985006262e-15
0
LINE
5
136
100
AcDbEntity
8
0
100
AcDbLine
10
-28.125000000039392
20
396.49999618529131
30
-4.4408920985006262e-15
11
-28.125000000039563
21
402.49999618529137
31
-4.4408920985006104e-15
0
LINE
5
137
100
AcDbEntity
8
0
100
AcDbLine
10
-28.125000000039563
20
402.49999618529137
30
-4.4408920985006104e-15
11
-39.37500000003957
21
402.49999618529102
31
3.5676092002540867e-31
0
LINE
5
138
100
AcDbEntity
8
0
100
AcDbLine
10
-39.37500000003957
20
402.49999618529102
30
3.5676092002540867e-31
11
-39.375000000039385
21
396.49999618529102
31
-1.5777218104420236e-29
0
LINE
5
139
100
AcDbEntity
8
0
100
AcDbLine
10
-39.375000000039385
20
396.49999618529102
30
-1.5777218104420236e-29
11
-51.5
21
396.49999618529034
31
-4.4408920985006175e-15
0
LINE
5
140
100
AcDbEntity
8
0
100
AcDbLine
10
-51.5
20
396.49999618529034
30
-4.4408920985006175e-15
11
-51.500000000000185
21
402.49999618529046
31
1.5777218104420236e-29
0
LINE
5
141
100
AcDbEntity
8
0
100
AcDbLine
10
-51.500000000000185
20
402.49999618529046
30
1.5777218104420236e-29
11
-57.500000000000426
21
402.49999618529034
31
-2.8156160940163202e-30
0
LINE
5
142
100
AcDbEntity
8
0
100
AcDbLine
10
-57.500000000000426
20
402.49999618529034
30
-2.8156160940163202e-30
11
-57.500000000000071
21
392.99999618530103
31
4.4408920985006262e-15
0
LINE
5
143
100
AcDbEntity
8
0
100
AcDbLine
10
-57.500000000000071
20
392.99999618530103
30
4.4408920985006262e-15
11
-51.500000000000064
21
392.99999618530126
31
3.1360911714424727e-30
0
LINE
5
144
100
AcDbEntity
8
0
100
AcDbLine
10
-51.500000000000064
20
392.99999618530126
30
3.1360911714424727e-30
11
-51.499999999999851
21
385.49999618530126
31
0
0
LINE
5
145
100
AcDbEntity
8
0
100
AcDbLine
10
-51.500000000035939
20
345.99999618557808
30
0
11
-51.499999999993449
21
338.49999618557808
31
1.5777218104420236e-29
0
LINE
5
146
100
AcDbEntity
8
0
100
AcDbLine
10
-51.499999999993449
20
338.49999618557808
30
1.5777218104420236e-29
11
-57.499999999993506
21
338.49999618557405
31
1.0367122159955139e-30
0
LINE
5
147
100
AcDbEntity
8
0
100
AcDbLine
10
-57.499999999993506
20
338.49999618557405
30
1.0367122159955139e-30
11
-57.499999999988411
21
330.99999618557388
31
4.4408920985006262e-15
0
LINE
5
148
100
AcDbEntity
8
0
100
AcDbLine
10
-57.499999999988411
20
330.99999618557388
30
4.4408920985006262e-15
11
-51.499999999988361
21
330.99999618557797
31
4.4408920985006254e-15
0
LINE
5
149
100
AcDbEntity
8
0
100
AcDbLine
10
-51.499999999988361
20
330.99999618557797
30
4.4408920985006254e-15
11
-51.49999999998326
21
323.49999618557803
31
-1.5777218104420236e-29
0
LINE
5
150
100
AcDbEntity
8
0
100
AcDbLine
10
-51.49999999998326
20
323.49999618557803
30
-1.5777218104420236e-29
11
-57.499999999983316
21
323.49999618557399
31
1.0367122160744351e-30
0
LINE
5
151
100
AcDbEntity
8
0
100
AcDbLine
10
-57.499999999983316
20
323.49999618557399
30
1.0367122160744351e-30
11
-57.499999999978222
21
315.99999618557376
31
4.4408920985006262e-15
0
LINE
5
152
100
AcDbEntity
8
0
100
AcDbLine
10
-57.499999999978222
20
315.99999618557376
30
4.4408920985006262e-15
11
-51.499999999978165
21
315.99999618557786
31
-3.9576206142302023e-31
0
LINE
5
153
100
AcDbEntity
8
0
100
AcDbLine
10
-51.499999999978165
20
315.99999618557786
30
-3.9576206142302023e-31
11
-51.499999999973063
21
308.4999961855778
31
-4.4408920985006262e-15
0
LINE
5
154
100
AcDbEntity
8
0
100
AcDbLine
10
-51.499999999973063
20
308.4999961855778
30
-4.4408920985006262e-15
11
-57.499999999973134
21
308.49999618557371
31
-4.4408920985006254e-15
0
LINE
5
155
100
AcDbEntity
8
0
100
AcDbLine
10
-57.499999999973134
20
308.49999618557371
30
-4.4408920985006254e-15
11
-57.499999999968033
21
300.99999618557365
31
0
0
LINE
5
156
100
AcDbEntity
8
0
100
AcDbLine
10
-57.499999999968033
20
300.99999618557365
30
0
11
-51.499999999967983
21
300.99999618557774
31
-3.9576206142302023e-31
0
LINE
5
157
100
AcDbEntity
8
0
100
AcDbLine
10
-51.499999999967983
20
300.99999618557774
30
-3.9576206142302023e-31
11
-51.499999999962888
21
293.49999618557769
31
0
0
LINE
5
158
100
AcDbEntity
8
0
100
AcDbLine
10
-51.499999999962888
20
293.49999618557769
30
0
11
-57.499999999962945
21
293.49999618557365
31
3.9576206142302023e-31
0
LINE
5
159
100
AcDbEntity
8
0
100
AcDbLine
10
-57.499999999962945
20
293.49999618557365
30
3.9576206142302023e-31
11
-57.499999999957851
21
285.99999618557354
31
0
0
LINE
5
160
100
AcDbEntity
8
0
100
AcDbLine
10
-57.499999999957851
20
285.99999618557354
30
0
11
-51.499999999957794
21
285.99999618557763
31
-3.9576206142302023e-31
0
LINE
5
161
100
AcDbEntity
8
0
100
AcDbLine
10
-51.499999999957794
20
285.99999618557763
30
-3.9576206142302023e-31
11
-51.49999999995272
21
278.49999618557757
31
0
0
LINE
5
162
100
AcDbEntity
8
0
100
AcDbLine
10
-51.49999999995272
20
278.49999618557757
30
0
11
-57.499999999952763
21
278.49999618557348
31
3.957620613440991e-31
0
LINE
5
163
100
AcDbEntity
8
0
100
AcDbLine
10
-57.499999999952763
20
278.49999618557348
30
3.957620613440991e-31
11
-57.499999999947669
21
270.99999618557342
31
0
0
LINE
5
164
100
AcDbEntity
8
0
100
AcDbLine
10
-57.499999999947669
20
270.99999618557342
30
0
11
-51.499999999947619
21
270.99999618557752
31
-3.957620613440991e-31
0
LINE
5
165
100
AcDbEntity
8
0
100
AcDbLine
10
-51.499999999947619
20
270.99999618557752
30
-3.957620613440991e-31
11
-51.499999999942517
21
263.4999961855774
31
0
0
LINE
5
166
100
AcDbEntity
8
0
100
AcDbLine
10
-51.499999999942517
20
263.4999961855774
30
0
11
-57.499999999942581
21
263.49999618557337
31
3.957620613440991e-31
0
LINE
5
167
100
AcDbEntity
8
0
100
AcDbLine
10
-57.499999999942581
20
263.49999618557337
30
3.957620613440991e-31
11
-57.499999999937479
21
255.99999618557331
31
0
0
LINE
5
168
100
AcDbEntity
8
0
100
AcDbLine
10
-57.499999999937479
20
255.99999618557331
30
0
11
-51.49999999993743
21
255.9999961855774
31
-3.957620613440991e-31
0
LINE
5
169
100
AcDbEntity
8
0
100
AcDbLine
10
-51.49999999993743
20
255.9999961855774
30
-3.957620613440991e-31
11
-51.499999999970392
21
249.46954462067563
31
7.7308368711659157e-28
0
LINE
5
170
100
AcDbEntity
8
0
100
AcDbLine
10
-51.499999999970392
20
249.46954462067563
30
7.7308368711659157e-28
11
-43.99999999989128
21
249.46954462068078
31
-4.4408920985006309e-15
0
LINE
5
171
100
AcDbEntity
8
0
100
AcDbLine
10
-43.99999999989128
20
249.46954462068078
30
-4.4408920985006309e-15
11
-43.999999999887208
21
243.46954462068072
31
-1.5777218104420236e-29
0
LINE
5
172
100
AcDbEntity
8
0
100
AcDbLine
10
-43.999999999887208
20
243.46954462068072
30
-1.5777218104420236e-29
11
-36.49999999988713
21
243.46954462068581
31
-1.012347055314417e-28
0
LINE
5
173
100
AcDbEntity
8
0
100
AcDbLine
10
-36.49999999988713
20
243.46954462068581
30
-1.012347055314417e-28
11
-36.499999999891209
21
249.46954462068589
31
1.5777218104420236e-29
0
LINE
5
174
100
AcDbEntity
8
0
100
AcDbLine
10
-36.499999999891209
20
249.46954462068589
30
1.5777218104420236e-29
11
-28.999999999891138
21
249.46954462069095
31
2.4342089149340521e-29
0
LINE
5
175
100
AcDbEntity
8
0
100
AcDbLine
10
-28.999999999891138
20
249.46954462069095
30
2.4342089149340521e-29
11
-28.999999999887073
21
243.46954462069093
31
-1.5777218104420236e-29
0
LINE
5
176
100
AcDbEntity
8
0
100
AcDbLine
10
-28.999999999887073
20
243.46954462069093
30
-1.5777218104420236e-29
11
-21.499999999887009
21
243.46954462069601
31
-3.8125833113689009e-29
0
LINE
5
177
100
AcDbEntity
8
0
100
AcDbLine
10
-21.499999999887009
20
243.46954462069601
30
-3.8125833113689009e-29
11
-21.500000000036191
21
345.99999618559849
31
2.5243548967072378e-28
0
LINE
5
178
100
AcDbEntity
8
0
100
AcDbLine
10
51.500000000029395
20
249.46954462074555
30
0
11
51.500000000024798
21
255.99999618564732
31
-5.8375706986354874e-28
0
LINE
5
179
100
AcDbEntity
8
0
100
AcDbLine
10
51.500000000024798
20
255.99999618564732
30
-5.8375706986354874e-28
11
57.500000000024862
21
255.99999618565138
31
-3.957620613440991e-31
0
LINE
5
180
100
AcDbEntity
8
0
100
AcDbLine
10
57.500000000024862
20
255.99999618565138
30
-3.957620613440991e-31
11
57.50000000001976
21
263.49999618565153
31
-4.4408920985006262e-15
0
LINE
5
181
100
AcDbEntity
8
0
100
AcDbLine
10
57.50000000001976
20
263.49999618565153
30
-4.4408920985006262e-15
11
51.50000000001971
21
263.49999618564743
31
-4.4408920985006254e-15
0
LINE
5
182
100
AcDbEntity
8
0
100
AcDbLine
10
51.50000000001971
20
263.49999618564743
30
-4.4408920985006254e-15
11
51.500000000014616
21
270.99999618564743
31
0
0
LINE
5
183
100
AcDbEntity
8
0
100
AcDbLine
10
51.500000000014616
20
270.99999618564743
30
0
11
57.500000000014673
21
270.99999618565153
31
-3.957620613440991e-31
0
LINE
5
184
100
AcDbEntity
8
0
100
AcDbLine
10
57.500000000014673
20
270.99999618565153
30
-3.957620613440991e-31
11
57.500000000009578
21
278.49999618565158
31
-4.4408920985006262e-15
0
LINE
5
185
100
AcDbEntity
8
0
100
AcDbLine
10
57.500000000009578
20
278.49999618565158
30
-4.4408920985006262e-15
11
51.500000000009521
21
278.49999618564755
31
-4.4408920985006254e-15
0
LINE
5
186
100
AcDbEntity
8
0
100
AcDbLine
10
51.500000000009521
20
278.49999618564755
30
-4.4408920985006254e-15
11
51.500000000004427
21
285.99999618564755
31
0
0
LINE
5
187
100
AcDbEntity
8
0
100
AcDbLine
10
51.500000000004427
20
285.99999618564755
30
0
11
57.500000000004484
21
285.99999618565164
31
-3.9576206142302023e-31
0
LINE
5
188
100
AcDbEntity
8
0
100
AcDbLine
10
57.500000000004484
20
285.99999618565164
30
-3.9576206142302023e-31
11
57.499999999999389
21
293.49999618565175
31
-4.4408920985006262e-15
0
LINE
5
189
100
AcDbEntity
8
0
100
AcDbLine
10
57.499999999999389
20
293.49999618565175
30
-4.4408920985006262e-15
11
51.499999999999339
21
293.49999618564766
31
-4.4408920985006254e-15
0
LINE
5
190
100
AcDbEntity
8
0
100
AcDbLine
10
51.499999999999339
20
293.49999618564766
30
-4.4408920985006254e-15
11
51.499999999994237
21
300.99999618564772
31
0
0
LINE
5
191
100
AcDbEntity
8
0
100
AcDbLine
10
51.499999999994237
20
300.99999618564772
30
0
11
57.499999999994301
21
300.99999618565175
31
-3.9576206142302023e-31
0
LINE
5
192
100
AcDbEntity
8
0
100
AcDbLine
10
57.499999999994301
20
300.99999618565175
30
-3.9576206142302023e-31
11
57.4999999999892
21
308.49999618565187
31
-4.4408920985006262e-15
0
LINE
5
193
100
AcDbEntity
8
0
100
AcDbLine
10
57.4999999999892
20
308.49999618565187
30
-4.4408920985006262e-15
11
51.49999999998915
21
308.49999618564777
31
-4.4408920985006254e-15
0
LINE
5
194
100
AcDbEntity
8
0
100
AcDbLine
10
51.49999999998915
20
308.49999618564777
30
-4.4408920985006254e-15
11
51.499999999984055
21
315.99999618564777
31
1.5777218104420236e-29
0
LINE
5
195
100
AcDbEntity
8
0
100
AcDbLine
10
51.499999999984055
20
315.99999618564777
30
1.5777218104420236e-29
11
57.499999999984119
21
315.99999618565187
31
-3.9576206142302023e-31
0
LINE
5
196
100
AcDbEntity
8
0
100
AcDbLine
10
57.499999999984119
20
315.99999618565187
30
-3.9576206142302023e-31
11
57.499999999979025
21
323.49999618565192
31
-4.4408920985006262e-15
0
LINE
5
197
100
AcDbEntity
8
0
100
AcDbLine
10
57.499999999979025
20
323.49999618565192
30
-4.4408920985006262e-15
11
51.499999999978961
21
323.49999618564789
31
1.0367122160744351e-30
0
LINE
5
198
100
AcDbEntity
8
0
100
AcDbLine
10
51.499999999978961
20
323.49999618564789
30
1.0367122160744351e-30
11
51.49999999997388
21
330.999996185648
31
4.4408920985006262e-15
0
LINE
5
199
100
AcDbEntity
8
0
100
AcDbLine
10
51.49999999997388
20
330.999996185648
30
4.4408920985006262e-15
11
57.49999999997393
21
330.99999618565209
31
4.4408920985006254e-15
0
LINE
5
200
100
AcDbEntity
8
0
100
AcDbLine
10
57.49999999997393
20
330.99999618565209
30
4.4408920985006254e-15
11
57.499999999968836
21
338.49999618565209
31
0
0
LINE
5
201
100
AcDbEntity
8
0
100
AcDbLine
10
57.499999999968836
20
338.49999618565209
30
0
11
51.499999999968786
21
338.499996185648
31
1.0367122159955139e-30
0
LINE
5
202
100
AcDbEntity
8
0
100
AcDbLine
10
51.499999999968786
20
338.499996185648
30
1.0367122159955139e-30
11
51.499999999963848
21
345.99999618564811
31
0
0
LINE
5
203
100
AcDbEntity
8
0
100
AcDbLine
10
21.499999999963432
20
345.99999618562771
30
-5.268848589302833e-30
11
21.500000000034447
21
243.46954462072523
31
-2.5243548967072378e-28
0
LINE
5
204
100
AcDbEntity
8
0
100
AcDbLine
10
21.500000000034447
20
243.46954462072523
30
-2.5243548967072378e-28
11
29.000000000034511
21
243.46954462073029
31
2.4983039304085206e-29
0
LINE
5
205
100
AcDbEntity
8
0
100
AcDbLine
10
29.000000000034511
20
243.46954462073029
30
2.4983039304085206e-29
11
29.00000000003044
21
249.46954462073035
31
1.5777218104420236e-29
0
LINE
5
206
100
AcDbEntity
8
0
100
AcDbLine
10
29.00000000003044
20
249.46954462073035
30
1.5777218104420236e-29
11
36.500000000030504
21
249.46954462073541
31
-4.4408920985006009e-15
0
LINE
5
207
100
AcDbEntity
8
0
100
AcDbLine
10
36.500000000030504
20
249.46954462073541
30
-4.4408920985006009e-15
11
36.500000000034575
21
243.46954462073541
31
-4.4408920985006419e-15
0
LINE
5
208
100
AcDbEntity
8
0
100
AcDbLine
10
36.500000000034575
20
243.46954462073541
30
-4.4408920985006419e-15
11
44.000000000034632
21
243.46954462074049
31
-6.5713969047193929e-30
0
LINE
5
209
100
AcDbEntity
8
0
100
AcDbLine
10
44.000000000034632
20
243.46954462074049
30
-6.5713969047193929e-30
11
44.000000000030568
21
249.46954462074052
31
1.5777218104420236e-29
0
LINE
5
210
100
AcDbEntity
8
0
100
AcDbLine
10
44.000000000030568
20
249.46954462074052
30
1.5777218104420236e-29
11
51.500000000029395
21
249.46954462074555
31
0
0
LINE
5
211
100
AcDbEntity
8
0
100
AcDbLine
10
57.500000000001663
20
345.99999618530461
30
4.4408920985006672e-15
11
51.499999999963848
21
345.99999618564811
31
0
0
LINE
5
212
100
AcDbEntity
8
0
100
AcDbLine
10
-51.500000000035939
20
345.99999618557808
30
0
11
-57.499999999998373
21
345.99999618557774
31
0
0
LINE
5
213
100
AcDbEntity
8
0
100
AcDbLine
10
-21.500000000036191
20
345.99999618559849
30
2.5243548967072378e-28
11
21.499999999963432
21
345.99999618562771
31
-5.268848589302833e-30
0
ENDSEC
0
SECTION
2
OBJECTS
0
DICTIONARY
5
C
100
AcDbDictionary
3
ACAD_GROUP
350
D
3
ACAD_MLINESTYLE
350
17
0
DICTIONARY
5
D
100
AcDbDictionary
0
DICTIONARY
5
1A
330
C
100
AcDbDictionary
0
DICTIONARY
5
17
100
AcDbDictionary
0
ENDSEC
0
EOF
