0
SECTION
2
HEADER
9
$INSUNITS
70
4
9
$ACADVER
1
AC1014
9
$HANDSEED
5
FFFF
0
ENDSEC
0
SECTION
2
TABLES
0
TABLE
2
VPORT
5
8
100
AcDbSymbolTable
0
ENDTAB
0
TABLE
2
LTYPE
5
5
100
AcDbSymbolTable
0
LTYPE
5
14
100
AcDbSymbolTableRecord
100
AcDbLinetypeTableRecord
2
BYBLOCK
70
0
0
LTYPE
5
15
100
AcDbSymbolTableRecord
100
AcDbLinetypeTableRecord
2
BYLAYER
70
0
0
ENDTAB
0
TABLE
2
LAYER
5
2
100
AcDbSymbolTable
70
2
0
LAYER
5
50
100
AcDbSymbolTableRecord
100
AcDbLayerTableRecord
2
0
70
0
6
CONTINUOUS
0
ENDTAB
0
TABLE
2
STYLE
5
3
100
AcDbSymbolTable
70
1
0
STYLE
5
11
100
AcDbSymbolTableRecord
100
AcDbTextStyleTableRecord
2
STANDARD
70
0
0
ENDTAB
0
TABLE
2
VIEW
5
6
100
AcDbSymbolTable
70
0
0
ENDTAB
0
TABLE
2
UCS
5
7
100
AcDbSymbolTable
70
0
0
ENDTAB
0
TABLE
2
APPID
5
9
100
AcDbSymbolTable
70
2
0
APPID
5
12
100
AcDbSymbolTableRecord
100
AcDbRegAppTableRecord
2
ACAD
70
0
0
ENDTAB
0
TABLE
2
DIMSTYLE
5
A
100
AcDbSymbolTable
70
1
0
ENDTAB
0
TABLE
2
BLOCK_RECORD
5
1
100
AcDbSymbolTable
70
1
0
BLOCK_RECORD
5
1F
100
AcDbSymbolTableRecord
100
AcDbBlockTableRecord
2
*MODEL_SPACE
0
BLOCK_RECORD
5
1B
100
AcDbSymbolTableRecord
100
AcDbBlockTableRecord
2
*PAPER_SPACE
0
ENDTAB
0
ENDSEC
0
SECTION
2
BLOCKS
0
BLOCK
5
20
100
AcDbEntity
100
AcDbBlockBegin
2
*MODEL_SPACE
0
ENDBLK
5
21
100
AcDbEntity
100
AcDbBlockEnd
0
BLOCK
5
1C
100
AcDbEntity
100
AcDbBlockBegin
2
*PAPER_SPACE
0
ENDBLK
5
1D
100
AcDbEntity
100
AcDbBlockEnd
0
ENDSEC
0
SECTION
2
ENTITIES
0
LINE
5
100
100
AcDbEntity
8
0
100
AcDbLine
10
-8.9999999999956124
20
345.99999618530325
30
-1.7763568394002505e-14
11
-8.999999999994504
21
383.99999618529245
31
-1.7763568394002757e-14
0
LINE
5
101
100
AcDbEntity
8
0
100
AcDbLine
10
-8.999999999994504
20
383.99999618529245
30
-1.7763568394002757e-14
11
9.0000000000060467
21
383.99999618529273
31
-8.8817841970012492e-15
0
LINE
5
102
100
AcDbEntity
8
0
100
AcDbLine
10
9.0000000000060467
20
383.99999618529273
30
-8.8817841970012492e-15
11
9.00000000000494
21
345.99999618530353
31
2.5243548967072378e-28
0
LINE
5
103
100
AcDbEntity
8
0
100
AcDbLine
10
21.500000000004832
20
345.99999618530381
30
-8.8817841970012697e-15
11
21.500000000005336
21
355.4999961853037
31
-8.8817841970013154e-15
0
LINE
5
104
100
AcDbEntity
8
0
100
AcDbLine
10
21.500000000005336
20
355.4999961853037
30
-8.8817841970013154e-15
11
27.500000000005407
21
355.49999618530376
31
-8.8817841970012586e-15
0
LINE
5
105
100
AcDbEntity
8
0
100
AcDbLine
10
27.500000000005407
20
355.49999618530376
30
-8.8817841970012586e-15
11
27.500000000005631
21
362.99999618530376
31
-8.8817841970012523e-15
0
LINE
5
106
100
AcDbEntity
8
0
100
AcDbLine
10
27.500000000005631
20
362.99999618530376
30
-8.8817841970012523e-15
11
21.50000000000556
21
362.9999961853037
31
-8.881784197001246e-15
0
LINE
5
107
100
AcDbEntity
8
0
100
AcDbLine
10
21.50000000000556
20
362.9999961853037
30
-8.881784197001246e-15
11
21.500000000005773
21
370.4999961853037
31
-8.8817841970012523e-15
0
LINE
5
108
100
AcDbEntity
8
0
100
AcDbLine
10
21.500000000005773
20
370.4999961853037
30
-8.8817841970012523e-15
11
27.500000000005841
21
370.49999618530387
31
-8.8817841970012586e-15
0
LINE
5
109
100
AcDbEntity
8
0
100
AcDbLine
10
27.500000000005841
20
370.49999618530387
30
-8.8817841970012586e-15
11
27.500000000006061
21
377.99999618530387
31
-8.8817841970012523e-15
0
LINE
5
110
100
AcDbEntity
8
0
100
AcDbLine
10
27.500000000006061
20
377.99999618530387
30
-8.8817841970012523e-15
11
21.50000000000599
21
377.99999618530376
31
-8.881784197001246e-15
0
LINE
5
111
100
AcDbEntity
8
0
100
AcDbLine
10
21.50000000000599
20
377.99999618530376
30
-8.881784197001246e-15
11
21.500000000006203
21
385.4999961853037
31
-8.8817841970012523e-15
0
LINE
5
112
100
AcDbEntity
8
0
100
AcDbLine
10
21.500000000006203
20
385.4999961853037
30
-8.8817841970012523e-15
11
27.500000000006271
21
385.49999618530387
31
-8.8817841970012586e-15
0
LINE
5
113
100
AcDbEntity
8
0
100
AcDbLine
10
27.500000000006271
20
385.49999618530387
30
-8.8817841970012586e-15
11
27.500000000006501
21
392.99999618530387
31
-8.8817841970012523e-15
0
LINE
5
114
100
AcDbEntity
8
0
100
AcDbLine
10
27.500000000006501
20
392.99999618530387
30
-8.8817841970012523e-15
11
21.50000000000643
21
392.99999618530376
31
6.566674031752627e-30
0
LINE
5
115
100
AcDbEntity
8
0
100
AcDbLine
10
21.50000000000643
20
392.99999618530376
30
6.566674031752627e-30
11
21.500000000006519
21
396.49999618529307
31
-3.1554436208840472e-29
0
LINE
5
116
100
AcDbEntity
8
0
100
AcDbLine
10
21.500000000006519
20
396.49999618529307
30
-3.1554436208840472e-29
11
11.250000000006924
21
396.49999618530308
31
-8.8817841970012681e-15
0
LINE
5
117
100
AcDbEntity
8
0
100
AcDbLine
10
11.250000000006924
20
396.49999618530308
30
-8.8817841970012681e-15
11
11.250000000007107
21
402.49999618530308
31
-8.8817841970012523e-15
0
LINE
5
118
100
AcDbEntity
8
0
100
AcDbLine
10
11.250000000007107
20
402.49999618530308
30
-8.8817841970012523e-15
11
3.7500000000069758
21
402.49999618530308
31
-8.881784197001246e-15
0
LINE
5
119
100
AcDbEntity
8
0
100
AcDbLine
10
3.7500000000069758
20
402.49999618530308
30
-8.881784197001246e-15
11
3.7500000000067981
21
396.49999618530308
31
-1.7763568394002505e-14
0
LINE
5
120
100
AcDbEntity
8
0
100
AcDbLine
10
3.7500000000067981
20
396.49999618530308
30
-1.7763568394002505e-14
11
-3.7499999999933231
21
396.49999618530296
31
-8.8817841970012618e-15
0
LINE
5
121
100
AcDbEntity
8
0
100
AcDbLine
10
-3.7499999999933231
20
396.49999618530296
30
-8.8817841970012618e-15
11
-3.7499999999931481
21
402.49999618530296
31
-8.8817841970012523e-15
0
LINE
5
122
100
AcDbEntity
8
0
100
AcDbLine
10
-3.7499999999931481
20
402.49999618530296
30
-8.8817841970012523e-15
11
-11.249999999993282
21
402.4999961853029
31
-8.8817841970012507e-15
0
LINE
5
123
100
AcDbEntity
8
0
100
AcDbLine
10
-11.249999999993282
20
402.4999961853029
30
-8.8817841970012507e-15
11
-11.249999999993452
21
396.49999618530285
31
-8.8817841970012523e-15
0
LINE
5
124
100
AcDbEntity
8
0
100
AcDbLine
10
-11.249999999993452
20
396.49999618530285
30
-8.8817841970012523e-15
11
-21.499999999994394
21
396.49999618529262
31
-8.8817841970012649e-15
0
LINE
5
125
100
AcDbEntity
8
0
100
AcDbLine
10
-21.499999999994394
20
396.49999618529262
30
-8.8817841970012649e-15
11
-21.499999999994493
21
392.9999961853033
31
-8.8817841970012208e-15
0
LINE
5
126
100
AcDbEntity
8
0
100
AcDbLine
10
-21.499999999994493
20
392.9999961853033
30
-8.8817841970012208e-15
11
-27.499999999994564
21
392.99999618530313
31
-8.881784197001246e-15
0
LINE
5
127
100
AcDbEntity
8
0
100
AcDbLine
10
-27.499999999994564
20
392.99999618530313
30
-8.881784197001246e-15
11
-27.499999999994792
21
385.49999618530313
31
-8.8817841970012523e-15
0
LINE
5
128
100
AcDbEntity
8
0
100
AcDbLine
10
-27.499999999994792
20
385.49999618530313
30
-8.8817841970012523e-15
11
-21.499999999994721
21
385.4999961853033
31
-1.7763568394002511e-14
0
LINE
5
129
100
AcDbEntity
8
0
100
AcDbLine
10
-21.499999999994721
20
385.4999961853033
30
-1.7763568394002511e-14
11
-21.499999999994937
21
377.9999961853033
31
-1.7763568394002505e-14
0
LINE
5
130
100
AcDbEntity
8
0
100
AcDbLine
10
-21.499999999994937
20
377.9999961853033
30
-1.7763568394002505e-14
11
-27.499999999995005
21
377.99999618530313
31
-1.7763568394002498e-14
0
LINE
5
131
100
AcDbEntity
8
0
100
AcDbLine
10
-27.499999999995005
20
377.99999618530313
30
-1.7763568394002498e-14
11
-27.499999999995222
21
370.49999618530313
31
-1.7763568394002505e-14
0
LINE
5
132
100
AcDbEntity
8
0
100
AcDbLine
10
-27.499999999995222
20
370.49999618530313
30
-1.7763568394002505e-14
11
-21.499999999995151
21
370.49999618530319
31
-1.7763568394002511e-14
0
LINE
5
133
100
AcDbEntity
8
0
100
AcDbLine
10
-21.499999999995151
20
370.49999618530319
30
-1.7763568394002511e-14
11
-21.499999999995367
21
362.99999618530319
31
-1.7763568394002505e-14
0
LINE
5
134
100
AcDbEntity
8
0
100
AcDbLine
10
-21.499999999995367
20
362.99999618530319
30
-1.7763568394002505e-14
11
-27.499999999995435
21
362.99999618530313
31
-1.7763568394002498e-14
0
LINE
5
135
100
AcDbEntity
8
0
100
AcDbLine
10
-27.499999999995435
20
362.99999618530313
30
-1.7763568394002498e-14
11
-27.499999999995651
21
355.49999618530313
31
-1.7763568394002505e-14
0
LINE
5
136
100
AcDbEntity
8
0
100
AcDbLine
10
-27.499999999995651
20
355.49999618530313
30
-1.7763568394002505e-14
11
-21.49999999999558
21
355.49999618530319
31
-1.7763568394002511e-14
0
LINE
5
137
100
AcDbEntity
8
0
100
AcDbLine
10
-21.49999999999558
20
355.49999618530319
30
-1.7763568394002511e-14
11
-21.499999999995694
21
345.9999961853033
31
-8.8817841970011892e-15
0
LINE
5
138
100
AcDbEntity
8
0
100
AcDbLine
10
-9.000000000000675
20
261.96954462075092
30
-8.8817841970012523e-15
11
-8.9999999999983107
21
345.99999618565096
31
-8.881784196998728e-15
0
LINE
5
139
100
AcDbEntity
8
0
100
AcDbLine
10
-27.499999999979543
20
345.99999618564948
30
-1.7763568394002492e-14
11
-27.499999999979757
21
338.49999618564948
31
-1.7763568394002946e-14
0
LINE
5
140
100
AcDbEntity
8
0
100
AcDbLine
10
-27.499999999979757
20
338.49999618564948
30
-1.7763568394002946e-14
11
-21.499999999979714
21
338.49999618564959
31
-1.7763568394002501e-14
0
LINE
5
141
100
AcDbEntity
8
0
100
AcDbLine
10
-21.499999999979714
20
338.49999618564959
30
-1.7763568394002501e-14
11
-21.499999999979931
21
330.99999618564948
31
-1.7763568394002757e-14
0
LINE
5
142
100
AcDbEntity
8
0
100
AcDbLine
10
-21.499999999979931
20
330.99999618564948
30
-1.7763568394002757e-14
11
-27.49999999997997
21
330.99999618564948
31
-1.7763568394002508e-14
0
LINE
5
143
100
AcDbEntity
8
0
100
AcDbLine
10
-27.49999999997997
20
330.99999618564948
30
-1.7763568394002508e-14
11
-27.499999999980179
21
323.49999618564942
31
-1.7763568394002757e-14
0
LINE
5
144
100
AcDbEntity
8
0
100
AcDbLine
10
-27.499999999980179
20
323.49999618564942
30
-1.7763568394002757e-14
11
-21.49999999998014
21
323.49999618564948
31
-1.7763568394002501e-14
0
LINE
5
145
100
AcDbEntity
8
0
100
AcDbLine
10
-21.49999999998014
20
323.49999618564948
30
-1.7763568394002501e-14
11
-21.499999999980357
21
315.99999618564948
31
-1.7763568394002757e-14
0
LINE
5
146
100
AcDbEntity
8
0
100
AcDbLine
10
-21.499999999980357
20
315.99999618564948
30
-1.7763568394002757e-14
11
-27.499999999980396
21
315.99999618564937
31
-8.8817841970012413e-15
0
LINE
5
147
100
AcDbEntity
8
0
100
AcDbLine
10
-27.499999999980396
20
315.99999618564937
30
-8.8817841970012413e-15
11
-27.499999999980606
21
308.49999618564931
31
-1.7763568394002757e-14
0
LINE
5
148
100
AcDbEntity
8
0
100
AcDbLine
10
-27.499999999980606
20
308.49999618564931
30
-1.7763568394002757e-14
11
-21.499999999980567
21
308.49999618564942
31
-1.7763568394002517e-14
0
LINE
5
149
100
AcDbEntity
8
0
100
AcDbLine
10
-21.499999999980567
20
308.49999618564942
30
-1.7763568394002517e-14
11
-21.49999999998078
21
300.99999618564937
31
-8.8817841970015048e-15
0
LINE
5
150
100
AcDbEntity
8
0
100
AcDbLine
10
-21.49999999998078
20
300.99999618564937
30
-8.8817841970015048e-15
11
-27.499999999980815
21
300.99999618564931
31
-8.8817841970012413e-15
0
LINE
5
151
100
AcDbEntity
8
0
100
AcDbLine
10
-27.499999999980815
20
300.99999618564931
30
-8.8817841970012413e-15
11
-27.499999999981025
21
293.49999618564925
31
-1.7763568394002757e-14
0
LINE
5
152
100
AcDbEntity
8
0
100
AcDbLine
10
-27.499999999981025
20
293.49999618564925
30
-1.7763568394002757e-14
11
-21.499999999980986
21
293.49999618564931
31
-1.7763568394002517e-14
0
LINE
5
153
100
AcDbEntity
8
0
100
AcDbLine
10
-21.499999999980986
20
293.49999618564931
30
-1.7763568394002517e-14
11
-21.499999999981206
21
285.99999618564931
31
-8.8817841970015048e-15
0
LINE
5
154
100
AcDbEntity
8
0
100
AcDbLine
10
-21.499999999981206
20
285.99999618564931
30
-8.8817841970015048e-15
11
-27.499999999981242
21
285.99999618564925
31
-8.8817841970012413e-15
0
LINE
5
155
100
AcDbEntity
8
0
100
AcDbLine
10
-27.499999999981242
20
285.99999618564925
30
-8.8817841970012413e-15
11
-27.499999999981451
21
278.4999961856492
31
-8.8817841970015048e-15
0
LINE
5
156
100
AcDbEntity
8
0
100
AcDbLine
10
-27.499999999981451
20
278.4999961856492
30
-8.8817841970015048e-15
11
-21.499999999981409
21
278.49999618564925
31
-8.8817841970012618e-15
0
LINE
5
157
100
AcDbEntity
8
0
100
AcDbLine
10
-21.499999999981409
20
278.49999618564925
30
-8.8817841970012618e-15
11
-21.499999999981625
21
270.99999618564925
31
-8.8817841970015048e-15
0
LINE
5
158
100
AcDbEntity
8
0
100
AcDbLine
10
-21.499999999981625
20
270.99999618564925
30
-8.8817841970015048e-15
11
-27.499999999981664
21
270.99999618564914
31
-8.8817841970012413e-15
0
LINE
5
159
100
AcDbEntity
8
0
100
AcDbLine
10
-27.499999999981664
20
270.99999618564914
30
-8.8817841970012413e-15
11
-27.499999999981867
21
263.49999618564914
31
-8.8817841970015048e-15
0
LINE
5
160
100
AcDbEntity
8
0
100
AcDbLine
10
-27.499999999981867
20
263.49999618564914
30
-8.8817841970015048e-15
11
-21.499999999981828
21
263.4999961856492
31
-8.8817841970012618e-15
0
LINE
5
161
100
AcDbEntity
8
0
100
AcDbLine
10
-21.499999999981828
20
263.4999961856492
30
-8.8817841970012618e-15
11
-21.499999999982045
21
255.99999618564914
31
-8.8817841970015048e-15
0
LINE
5
162
100
AcDbEntity
8
0
100
AcDbLine
10
-21.499999999982045
20
255.99999618564914
30
-8.8817841970015048e-15
11
-27.499999999982087
21
255.99999618564908
31
-8.8817841970012413e-15
0
LINE
5
163
100
AcDbEntity
8
0
100
AcDbLine
10
-27.499999999982087
20
255.99999618564908
30
-8.8817841970012413e-15
11
-27.499999999971894
21
243.46954462074737
31
-8.8817841970064273e-15
0
LINE
5
164
100
AcDbEntity
8
0
100
AcDbLine
10
-27.499999999971894
20
243.46954462074737
30
-8.8817841970064273e-15
11
-21.49999999995444
21
243.46954462074785
31
-1.7763568394002555e-14
0
LINE
5
165
100
AcDbEntity
8
0
100
AcDbLine
10
-21.49999999995444
20
243.46954462074785
30
-1.7763568394002555e-14
11
-21.499999999954667
21
249.46954462074788
31
-8.8817841970014417e-15
0
LINE
5
166
100
AcDbEntity
8
0
100
AcDbLine
10
-21.499999999954667
20
249.46954462074788
30
-8.8817841970014417e-15
11
-13.999999999975309
21
249.46954462074845
31
-1.7763568394003729e-14
0
LINE
5
167
100
AcDbEntity
8
0
100
AcDbLine
10
-13.999999999975309
20
249.46954462074845
30
-1.7763568394003729e-14
11
-13.999999999975085
21
243.46954462074842
31
-8.881784197001063e-15
0
LINE
5
168
100
AcDbEntity
8
0
100
AcDbLine
10
-13.999999999975085
20
243.46954462074842
30
-8.881784197001063e-15
11
-6.4999999999750386
21
243.46954462074902
31
-8.8817841970012539e-15
0
LINE
5
169
100
AcDbEntity
8
0
100
AcDbLine
10
-6.4999999999750386
20
243.46954462074902
30
-8.8817841970012539e-15
11
-6.4999999999752598
21
249.46954462074902
31
-8.8817841970014417e-15
0
LINE
5
170
100
AcDbEntity
8
0
100
AcDbLine
10
-6.4999999999752598
20
249.46954462074902
30
-8.8817841970014417e-15
11
6.5000000000262323
21
249.46954462075007
31
-8.8817841970012586e-15
0
LINE
5
171
100
AcDbEntity
8
0
100
AcDbLine
10
6.5000000000262323
20
249.46954462075007
30
-8.8817841970012586e-15
11
6.5000000000264544
21
243.46954462075001
31
-1.7763568394002315e-14
0
LINE
5
172
100
AcDbEntity
8
0
100
AcDbLine
10
6.5000000000264544
20
243.46954462075001
30
-1.7763568394002315e-14
11
14.000000000026505
21
243.46954462075061
31
-1.7763568394002505e-14
0
LINE
5
173
100
AcDbEntity
8
0
100
AcDbLine
10
14.000000000026505
20
243.46954462075061
30
-1.7763568394002505e-14
11
14.000000000026279
21
249.46954462075064
31
-8.8817841970014417e-15
0
LINE
5
174
100
AcDbEntity
8
0
100
AcDbLine
10
14.000000000026279
20
249.46954462075064
30
-8.8817841970014417e-15
11
21.500000000005631
21
249.46954462075121
31
-1.7763568394003704e-14
0
LINE
5
175
100
AcDbEntity
8
0
100
AcDbLine
10
21.500000000005631
20
249.46954462075121
30
-1.7763568394003704e-14
11
21.500000000005855
21
243.46954462075115
31
-8.881784197001063e-15
0
LINE
5
176
100
AcDbEntity
8
0
100
AcDbLine
10
21.500000000005855
20
243.46954462075115
30
-8.881784197001063e-15
11
27.500000000023306
21
243.46954462075161
31
-8.8817841970012586e-15
0
LINE
5
177
100
AcDbEntity
8
0
100
AcDbLine
10
27.500000000023306
20
243.46954462075161
30
-8.8817841970012586e-15
11
27.500000000017604
21
255.99999618565332
31
-8.8817841969999901e-15
0
LINE
5
178
100
AcDbEntity
8
0
100
AcDbLine
10
27.500000000017604
20
255.99999618565332
30
-8.8817841969999901e-15
11
21.500000000017565
21
255.99999618565323
31
1.0737939025812126e-29
0
LINE
5
179
100
AcDbEntity
8
0
100
AcDbLine
10
21.500000000017565
20
255.99999618565323
30
1.0737939025812126e-29
11
21.500000000017778
21
263.49999618565329
31
-8.8817841970009999e-15
0
LINE
5
180
100
AcDbEntity
8
0
100
AcDbLine
10
21.500000000017778
20
263.49999618565329
30
-8.8817841970009999e-15
11
27.500000000017817
21
263.49999618565334
31
-8.8817841970012618e-15
0
LINE
5
181
100
AcDbEntity
8
0
100
AcDbLine
10
27.500000000017817
20
263.49999618565334
30
-8.8817841970012618e-15
11
27.500000000018026
21
270.9999961856534
31
2.5243548967072378e-28
0
LINE
5
182
100
AcDbEntity
8
0
100
AcDbLine
10
27.500000000018026
20
270.9999961856534
30
2.5243548967072378e-28
11
21.500000000017984
21
270.99999618565329
31
1.0737939025812126e-29
0
LINE
5
183
100
AcDbEntity
8
0
100
AcDbLine
10
21.500000000017984
20
270.99999618565329
30
1.0737939025812126e-29
11
21.500000000018197
21
278.49999618565334
31
-8.8817841970009999e-15
0
LINE
5
184
100
AcDbEntity
8
0
100
AcDbLine
10
21.500000000018197
20
278.49999618565334
30
-8.8817841970009999e-15
11
27.500000000018233
21
278.4999961856534
31
-8.8817841970012618e-15
0
LINE
5
185
100
AcDbEntity
8
0
100
AcDbLine
10
27.500000000018233
20
278.4999961856534
30
-8.8817841970012618e-15
11
27.500000000018446
21
285.99999618565346
31
2.5243548967072378e-28
0
LINE
5
186
100
AcDbEntity
8
0
100
AcDbLine
10
27.500000000018446
20
285.99999618565346
30
2.5243548967072378e-28
11
21.500000000018407
21
285.9999961856534
31
-8.8817841970012413e-15
0
LINE
5
187
100
AcDbEntity
8
0
100
AcDbLine
10
21.500000000018407
20
285.9999961856534
30
-8.8817841970012413e-15
11
21.50000000001862
21
293.4999961856534
31
-8.8817841970009999e-15
0
LINE
5
188
100
AcDbEntity
8
0
100
AcDbLine
10
21.50000000001862
20
293.4999961856534
30
-8.8817841970009999e-15
11
27.500000000018655
21
293.49999618565346
31
-8.8817841970012618e-15
0
LINE
5
189
100
AcDbEntity
8
0
100
AcDbLine
10
27.500000000018655
20
293.49999618565346
30
-8.8817841970012618e-15
11
27.500000000018868
21
300.99999618565352
31
-8.8817841970009999e-15
0
LINE
5
190
100
AcDbEntity
8
0
100
AcDbLine
10
27.500000000018868
20
300.99999618565352
30
-8.8817841970009999e-15
11
21.500000000018833
21
300.99999618565346
31
-8.8817841970012413e-15
0
LINE
5
191
100
AcDbEntity
8
0
100
AcDbLine
10
21.500000000018833
20
300.99999618565346
30
-8.8817841970012413e-15
11
21.500000000019043
21
308.49999618565346
31
-8.8817841970009999e-15
0
LINE
5
192
100
AcDbEntity
8
0
100
AcDbLine
10
21.500000000019043
20
308.49999618565346
30
-8.8817841970009999e-15
11
27.500000000019078
21
308.49999618565357
31
-8.8817841970012618e-15
0
LINE
5
193
100
AcDbEntity
8
0
100
AcDbLine
10
27.500000000019078
20
308.49999618565357
30
-8.8817841970012618e-15
11
27.500000000019291
21
315.99999618565357
31
-8.8817841970009999e-15
0
LINE
5
194
100
AcDbEntity
8
0
100
AcDbLine
10
27.500000000019291
20
315.99999618565357
30
-8.8817841970009999e-15
11
21.500000000019249
21
315.99999618565352
31
-8.8817841970012413e-15
0
LINE
5
195
100
AcDbEntity
8
0
100
AcDbLine
10
21.500000000019249
20
315.99999618565352
30
-8.8817841970012413e-15
11
21.500000000019462
21
323.49999618565357
31
-8.8817841970009368e-15
0
LINE
5
196
100
AcDbEntity
8
0
100
AcDbLine
10
21.500000000019462
20
323.49999618565357
30
-8.8817841970009368e-15
11
27.500000000019504
21
323.49999618565357
31
-8.8817841970012697e-15
0
LINE
5
197
100
AcDbEntity
8
0
100
AcDbLine
10
27.500000000019504
20
323.49999618565357
30
-8.8817841970012697e-15
11
27.500000000019718
21
330.99999618565369
31
-8.8817841970009999e-15
0
LINE
5
198
100
AcDbEntity
8
0
100
AcDbLine
10
27.500000000019718
20
330.99999618565369
30
-8.8817841970009999e-15
11
21.500000000019675
21
330.99999618565369
31
-8.8817841970012413e-15
0
LINE
5
199
100
AcDbEntity
8
0
100
AcDbLine
10
21.500000000019675
20
330.99999618565369
30
-8.8817841970012413e-15
11
21.500000000019888
21
338.49999618565369
31
-8.8817841970009999e-15
0
LINE
5
200
100
AcDbEntity
8
0
100
AcDbLine
10
21.500000000019888
20
338.49999618565369
30
-8.8817841970009999e-15
11
27.500000000019931
21
338.49999618565363
31
-8.8817841970012697e-15
0
LINE
5
201
100
AcDbEntity
8
0
100
AcDbLine
10
27.500000000019931
20
338.49999618565363
30
-8.8817841970012697e-15
11
27.500000000020137
21
345.9999961856538
31
-8.8817841970009368e-15
0
LINE
5
202
100
AcDbEntity
8
0
100
AcDbLine
10
9.0000000000200195
20
345.99999618565244
30
-8.8817841970012271e-15
11
9.0000000000176623
21
261.96954462075109
31
-8.8817841970037767e-15
0
LINE
5
203
100
AcDbEntity
8
0
100
AcDbLine
10
9.0000000000176623
20
261.96954462075109
30
-8.8817841970037767e-15
11
-9.000000000000675
21
261.96954462075092
31
-8.8817841970012523e-15
0
LINE
5
204
100
AcDbEntity
8
0
100
AcDbLine
10
-27.499999999979543
20
345.99999618564948
30
-1.7763568394002492e-14
11
-21.499999999995694
21
345.9999961853033
31
-8.8817841970011892e-15
0
LINE
5
205
100
AcDbEntity
8
0
100
AcDbLine
10
21.500000000004832
20
345.99999618530381
30
-8.8817841970012697e-15
11
27.500000000020137
21
345.9999961856538
31
-8.8817841970009368e-15
0
LINE
5
206
100
AcDbEntity
8
0
100
AcDbLine
10
-8.9999999999983107
20
345.99999618565096
30
-8.881784196998728e-15
11
9.0000000000200195
21
345.99999618565244
31
-8.8817841970012271e-15
0
ENDSEC
0
SECTION
2
OBJECTS
0
DICTIONARY
5
C
100
AcDbDictionary
3
ACAD_GROUP
350
D
3
ACAD_MLINESTYLE
350
17
0
DICTIONARY
5
D
100
AcDbDictionary
0
DICTIONARY
5
1A
330
C
100
AcDbDictionary
0
DICTIONARY
5
17
100
AcDbDictionary
0
ENDSEC
0
EOF
