0
SECTION
2
HEADER
9
$INSUNITS
70
4
9
$ACADVER
1
AC1014
9
$HANDSEED
5
FFFF
0
ENDSEC
0
SECTION
2
TABLES
0
TABLE
2
VPORT
5
8
100
AcDbSymbolTable
0
ENDTAB
0
TABLE
2
LTYPE
5
5
100
AcDbSymbolTable
0
LTYPE
5
14
100
AcDbSymbolTableRecord
100
AcDbLinetypeTableRecord
2
BYBLOCK
70
0
0
LTYPE
5
15
100
AcDbSymbolTableRecord
100
AcDbLinetypeTableRecord
2
BYLAYER
70
0
0
ENDTAB
0
TABLE
2
LAYER
5
2
100
AcDbSymbolTable
70
2
0
LAYER
5
50
100
AcDbSymbolTableRecord
100
AcDbLayerTableRecord
2
0
70
0
6
CONTINUOUS
0
ENDTAB
0
TABLE
2
STYLE
5
3
100
AcDbSymbolTable
70
1
0
STYLE
5
11
100
AcDbSymbolTableRecord
100
AcDbTextStyleTableRecord
2
STANDARD
70
0
0
ENDTAB
0
TABLE
2
VIEW
5
6
100
AcDbSymbolTable
70
0
0
ENDTAB
0
TABLE
2
UCS
5
7
100
AcDbSymbolTable
70
0
0
ENDTAB
0
TABLE
2
APPID
5
9
100
AcDbSymbolTable
70
2
0
APPID
5
12
100
AcDbSymbolTableRecord
100
AcDbRegAppTableRecord
2
ACAD
70
0
0
ENDTAB
0
TABLE
2
DIMSTYLE
5
A
100
AcDbSymbolTable
70
1
0
ENDTAB
0
TABLE
2
BLOCK_RECORD
5
1
100
AcDbSymbolTable
70
1
0
BLOCK_RECORD
5
1F
100
AcDbSymbolTableRecord
100
AcDbBlockTableRecord
2
*MODEL_SPACE
0
BLOCK_RECORD
5
1B
100
AcDbSymbolTableRecord
100
AcDbBlockTableRecord
2
*PAPER_SPACE
0
ENDTAB
0
ENDSEC
0
SECTION
2
BLOCKS
0
BLOCK
5
20
100
AcDbEntity
100
AcDbBlockBegin
2
*MODEL_SPACE
0
ENDBLK
5
21
100
AcDbEntity
100
AcDbBlockEnd
0
BLOCK
5
1C
100
AcDbEntity
100
AcDbBlockBegin
2
*PAPER_SPACE
0
ENDBLK
5
1D
100
AcDbEntity
100
AcDbBlockEnd
0
ENDSEC
0
SECTION
2
ENTITIES
0
LINE
5
100
100
AcDbEntity
8
0
100
AcDbLine
10
-9.0000000000048068
20
345.99999618530211
30
-8.8817841970012523e-15
11
-9.0000000000059153
21
383.99999618529114
31
-8.8817841970009999e-15
0
LINE
5
101
100
AcDbEntity
8
0
100
AcDbLine
10
-9.0000000000059153
20
383.99999618529114
30
-8.8817841970009999e-15
11
8.9999999999943761
21
383.99999618529171
31
-8.8817841970012539e-15
0
LINE
5
102
100
AcDbEntity
8
0
100
AcDbLine
10
8.9999999999943761
20
383.99999618529171
30
-8.8817841970012539e-15
11
8.9999999999954845
21
345.99999618530262
31
-1.7763568394002757e-14
0
LINE
5
103
100
AcDbEntity
8
0
100
AcDbLine
10
21.499999999995381
20
345.99999618530313
30
-1.7763568394002508e-14
11
21.499999999995026
21
355.49999618530302
31
-1.7763568394002505e-14
0
LINE
5
104
100
AcDbEntity
8
0
100
AcDbLine
10
21.499999999995026
20
355.49999618530302
30
-1.7763568394002505e-14
11
27.499999999995019
21
355.49999618530308
31
-1.7763568394002501e-14
0
LINE
5
105
100
AcDbEntity
8
0
100
AcDbLine
10
27.499999999995019
20
355.49999618530308
30
-1.7763568394002501e-14
11
27.499999999994795
21
362.99999618530313
31
-1.7763568394002473e-14
0
LINE
5
106
100
AcDbEntity
8
0
100
AcDbLine
10
27.499999999994795
20
362.99999618530313
30
-1.7763568394002473e-14
11
21.499999999994806
21
362.99999618530302
31
-1.7763568394002505e-14
0
LINE
5
107
100
AcDbEntity
8
0
100
AcDbLine
10
21.499999999994806
20
362.99999618530302
30
-1.7763568394002505e-14
11
21.499999999994603
21
370.49999618530296
31
-8.8817841970012208e-15
0
LINE
5
108
100
AcDbEntity
8
0
100
AcDbLine
10
21.499999999994603
20
370.49999618530296
30
-8.8817841970012208e-15
11
27.499999999994593
21
370.49999618530308
31
-8.8817841970012507e-15
0
LINE
5
109
100
AcDbEntity
8
0
100
AcDbLine
10
27.499999999994593
20
370.49999618530308
30
-8.8817841970012507e-15
11
27.499999999994358
21
377.99999618530313
31
-8.8817841970012208e-15
0
LINE
5
110
100
AcDbEntity
8
0
100
AcDbLine
10
27.499999999994358
20
377.99999618530313
30
-8.8817841970012208e-15
11
21.499999999994376
21
377.99999618530302
31
-8.8817841970012539e-15
0
LINE
5
111
100
AcDbEntity
8
0
100
AcDbLine
10
21.499999999994376
20
377.99999618530302
30
-8.8817841970012539e-15
11
21.499999999994163
21
385.49999618530302
31
-8.8817841970012208e-15
0
LINE
5
112
100
AcDbEntity
8
0
100
AcDbLine
10
21.499999999994163
20
385.49999618530302
30
-8.8817841970012208e-15
11
27.499999999994152
21
385.49999618530308
31
-8.8817841970012507e-15
0
LINE
5
113
100
AcDbEntity
8
0
100
AcDbLine
10
27.499999999994152
20
385.49999618530308
30
-8.8817841970012507e-15
11
27.499999999993939
21
392.99999618530313
31
-8.8817841970012208e-15
0
LINE
5
114
100
AcDbEntity
8
0
100
AcDbLine
10
27.499999999993939
20
392.99999618530313
30
-8.8817841970012208e-15
11
21.499999999993953
21
392.99999618530302
31
-1.7763568394002505e-14
0
LINE
5
115
100
AcDbEntity
8
0
100
AcDbLine
10
21.499999999993953
20
392.99999618530302
30
-1.7763568394002505e-14
11
21.499999999993857
21
396.49999618529245
31
-8.8817841970012523e-15
0
LINE
5
116
100
AcDbEntity
8
0
100
AcDbLine
10
21.499999999993857
20
396.49999618529245
30
-8.8817841970012523e-15
11
11.249999999993454
21
396.49999618530251
31
-8.8817841970012586e-15
0
LINE
5
117
100
AcDbEntity
8
0
100
AcDbLine
10
11.249999999993454
20
396.49999618530251
30
-8.8817841970012586e-15
11
11.249999999993282
21
402.49999618530245
31
-8.8817841970012208e-15
0
LINE
5
118
100
AcDbEntity
8
0
100
AcDbLine
10
11.249999999993282
20
402.49999618530245
30
-8.8817841970012208e-15
11
3.7499999999932978
21
402.49999618530228
31
-1.7763568394002505e-14
0
LINE
5
119
100
AcDbEntity
8
0
100
AcDbLine
10
3.7499999999932978
20
402.49999618530228
30
-1.7763568394002505e-14
11
3.7499999999934714
21
396.49999618530222
31
-8.8817841970012839e-15
0
LINE
5
120
100
AcDbEntity
8
0
100
AcDbLine
10
3.7499999999934714
20
396.49999618530222
30
-8.8817841970012839e-15
11
-3.7500000000065103
21
396.49999618530205
31
9.7619880801088225e-31
0
LINE
5
121
100
AcDbEntity
8
0
100
AcDbLine
10
-3.7500000000065103
20
396.49999618530205
30
9.7619880801088225e-31
11
-3.7500000000066858
21
402.49999618530211
31
-8.8817841970012208e-15
0
LINE
5
122
100
AcDbEntity
8
0
100
AcDbLine
10
-3.7500000000066858
20
402.49999618530211
30
-8.8817841970012208e-15
11
-11.250000000006668
21
402.49999618530182
31
-8.8817841970012476e-15
0
LINE
5
123
100
AcDbEntity
8
0
100
AcDbLine
10
-11.250000000006668
20
402.49999618530182
30
-8.8817841970012476e-15
11
-11.250000000006491
21
396.49999618530182
31
-8.8817841970012839e-15
0
LINE
5
124
100
AcDbEntity
8
0
100
AcDbLine
10
-11.250000000006491
20
396.49999618530182
30
-8.8817841970012839e-15
11
-21.500000000006438
21
396.49999618529125
31
-3.4961196729308004e-31
0
LINE
5
125
100
AcDbEntity
8
0
100
AcDbLine
10
-21.500000000006438
20
396.49999618529125
30
-3.4961196729308004e-31
11
-21.500000000006342
21
392.99999618530182
31
0
0
LINE
5
126
100
AcDbEntity
8
0
100
AcDbLine
10
-21.500000000006342
20
392.99999618530182
30
0
11
-27.500000000006327
21
392.99999618530165
31
-8.8817841970012539e-15
0
LINE
5
127
100
AcDbEntity
8
0
100
AcDbLine
10
-27.500000000006327
20
392.99999618530165
30
-8.8817841970012539e-15
11
-27.500000000006096
21
385.4999961853016
31
-8.8817841970012839e-15
0
LINE
5
128
100
AcDbEntity
8
0
100
AcDbLine
10
-27.500000000006096
20
385.4999961853016
30
-8.8817841970012839e-15
11
-21.500000000006114
21
385.49999618530182
31
1.1911932166432856e-30
0
LINE
5
129
100
AcDbEntity
8
0
100
AcDbLine
10
-21.500000000006114
20
385.49999618530182
30
1.1911932166432856e-30
11
-21.500000000005901
21
377.99999618530182
31
-3.1554436208840472e-29
0
LINE
5
130
100
AcDbEntity
8
0
100
AcDbLine
10
-21.500000000005901
20
377.99999618530182
30
-3.1554436208840472e-29
11
-27.50000000000589
21
377.99999618530165
31
-8.8817841970012539e-15
0
LINE
5
131
100
AcDbEntity
8
0
100
AcDbLine
10
-27.50000000000589
20
377.99999618530165
30
-8.8817841970012539e-15
11
-27.500000000005677
21
370.4999961853016
31
-3.1554436208840472e-29
0
LINE
5
132
100
AcDbEntity
8
0
100
AcDbLine
10
-27.500000000005677
20
370.4999961853016
30
-3.1554436208840472e-29
11
-21.500000000005691
21
370.49999618530182
31
-8.8817841970012507e-15
0
LINE
5
133
100
AcDbEntity
8
0
100
AcDbLine
10
-21.500000000005691
20
370.49999618530182
30
-8.8817841970012507e-15
11
-21.500000000005471
21
362.99999618530182
31
-8.8817841970012839e-15
0
LINE
5
134
100
AcDbEntity
8
0
100
AcDbLine
10
-21.500000000005471
20
362.99999618530182
30
-8.8817841970012839e-15
11
-27.500000000005457
21
362.99999618530165
31
-8.8817841970012539e-15
0
LINE
5
135
100
AcDbEntity
8
0
100
AcDbLine
10
-27.500000000005457
20
362.99999618530165
30
-8.8817841970012539e-15
11
-27.500000000005237
21
355.4999961853016
31
-8.8817841970012839e-15
0
LINE
5
136
100
AcDbEntity
8
0
100
AcDbLine
10
-27.500000000005237
20
355.4999961853016
30
-8.8817841970012839e-15
11
-21.500000000005247
21
355.49999618530171
31
-8.8817841970012507e-15
0
LINE
5
137
100
AcDbEntity
8
0
100
AcDbLine
10
-21.500000000005247
20
355.49999618530171
30
-8.8817841970012507e-15
11
-21.500000000004519
21
345.99999618530194
31
-8.8817841970012523e-15
0
LINE
5
138
100
AcDbEntity
8
0
100
AcDbLine
10
8.9999999999958042
20
345.99999618557706
30
-1.7763568394002505e-14
11
8.9999999999992699
21
261.96954462067674
31
-1.7763568393998971e-14
0
LINE
5
139
100
AcDbEntity
8
0
100
AcDbLine
10
8.9999999999992699
20
261.96954462067674
30
-1.7763568393998971e-14
11
-9.0000000000191491
21
261.96954462067674
31
-8.8817841970012492e-15
0
LINE
5
140
100
AcDbEntity
8
0
100
AcDbLine
10
-9.0000000000191491
20
261.96954462067674
30
-8.8817841970012492e-15
11
-9.0000000000226112
21
345.99999618557831
31
-8.8817841969992328e-15
0
LINE
5
141
100
AcDbEntity
8
0
100
AcDbLine
10
-27.500000000021618
20
345.99999618557939
30
-8.8817841970012744e-15
11
-27.500000000022503
21
338.49999618557939
31
-8.8817841970014417e-15
0
LINE
5
142
100
AcDbEntity
8
0
100
AcDbLine
10
-27.500000000022503
20
338.49999618557939
30
-8.8817841970014417e-15
11
-21.500000000022435
21
338.49999618557945
31
2.2437126518198979e-30
0
LINE
5
143
100
AcDbEntity
8
0
100
AcDbLine
10
-21.500000000022435
20
338.49999618557945
30
2.2437126518198979e-30
11
-21.500000000022126
21
330.99999618557939
31
-8.8817841970013154e-15
0
LINE
5
144
100
AcDbEntity
8
0
100
AcDbLine
10
-21.500000000022126
20
330.99999618557939
30
-8.8817841970013154e-15
11
-27.500000000022201
21
330.99999618557933
31
-8.8817841970012539e-15
0
LINE
5
145
100
AcDbEntity
8
0
100
AcDbLine
10
-27.500000000022201
20
330.99999618557933
30
-8.8817841970012539e-15
11
-27.500000000021885
21
323.49999618557922
31
-8.8817841970013154e-15
0
LINE
5
146
100
AcDbEntity
8
0
100
AcDbLine
10
-27.500000000021885
20
323.49999618557922
30
-8.8817841970013154e-15
11
-21.500000000021814
21
323.49999618557933
31
-8.8817841970012507e-15
0
LINE
5
147
100
AcDbEntity
8
0
100
AcDbLine
10
-21.500000000021814
20
323.49999618557933
30
-8.8817841970012507e-15
11
-21.500000000021508
21
315.99999618557922
31
-8.8817841970013154e-15
0
LINE
5
148
100
AcDbEntity
8
0
100
AcDbLine
10
-21.500000000021508
20
315.99999618557922
30
-8.8817841970013154e-15
11
-27.500000000021572
21
315.99999618557922
31
-8.8817841970012539e-15
0
LINE
5
149
100
AcDbEntity
8
0
100
AcDbLine
10
-27.500000000021572
20
315.99999618557922
30
-8.8817841970012539e-15
11
-27.500000000021259
21
308.49999618557911
31
-8.8817841970013154e-15
0
LINE
5
150
100
AcDbEntity
8
0
100
AcDbLine
10
-27.500000000021259
20
308.49999618557911
30
-8.8817841970013154e-15
11
-21.500000000021195
21
308.49999618557911
31
1.721769937037297e-29
0
LINE
5
151
100
AcDbEntity
8
0
100
AcDbLine
10
-21.500000000021195
20
308.49999618557911
30
1.721769937037297e-29
11
-21.500000000020894
21
300.99999618557905
31
-6.3108872417680944e-29
0
LINE
5
152
100
AcDbEntity
8
0
100
AcDbLine
10
-21.500000000020894
20
300.99999618557905
30
-6.3108872417680944e-29
11
-27.500000000020961
21
300.99999618557905
31
-8.8817841970012539e-15
0
LINE
5
153
100
AcDbEntity
8
0
100
AcDbLine
10
-27.500000000020961
20
300.99999618557905
30
-8.8817841970012539e-15
11
-27.500000000020645
21
293.49999618557899
31
-8.8817841970013154e-15
0
LINE
5
154
100
AcDbEntity
8
0
100
AcDbLine
10
-27.500000000020645
20
293.49999618557899
30
-8.8817841970013154e-15
11
-21.500000000020574
21
293.49999618557899
31
-8.881784197001235e-15
0
LINE
5
155
100
AcDbEntity
8
0
100
AcDbLine
10
-21.500000000020574
20
293.49999618557899
30
-8.881784197001235e-15
11
-21.500000000020268
21
285.99999618557894
31
-8.8817841970013154e-15
0
LINE
5
156
100
AcDbEntity
8
0
100
AcDbLine
10
-21.500000000020268
20
285.99999618557894
30
-8.8817841970013154e-15
11
-27.500000000020339
21
285.99999618557894
31
-8.8817841970012539e-15
0
LINE
5
157
100
AcDbEntity
8
0
100
AcDbLine
10
-27.500000000020339
20
285.99999618557894
30
-8.8817841970012539e-15
11
-27.500000000020023
21
278.49999618557888
31
-8.8817841970013154e-15
0
LINE
5
158
100
AcDbEntity
8
0
100
AcDbLine
10
-27.500000000020023
20
278.49999618557888
30
-8.8817841970013154e-15
11
-21.500000000019956
21
278.49999618557888
31
1.721769937037297e-29
0
LINE
5
159
100
AcDbEntity
8
0
100
AcDbLine
10
-21.500000000019956
20
278.49999618557888
30
1.721769937037297e-29
11
-21.50000000001965
21
270.99999618557882
31
-6.3108872417680944e-29
0
LINE
5
160
100
AcDbEntity
8
0
100
AcDbLine
10
-21.50000000001965
20
270.99999618557882
30
-6.3108872417680944e-29
11
-27.500000000019721
21
270.99999618557882
31
-8.8817841970012539e-15
0
LINE
5
161
100
AcDbEntity
8
0
100
AcDbLine
10
-27.500000000019721
20
270.99999618557882
30
-8.8817841970012539e-15
11
-27.500000000019412
21
263.49999618557877
31
-6.3108872417680944e-29
0
LINE
5
162
100
AcDbEntity
8
0
100
AcDbLine
10
-27.500000000019412
20
263.49999618557877
30
-6.3108872417680944e-29
11
-21.500000000019345
21
263.49999618557877
31
-8.881784197001235e-15
0
LINE
5
163
100
AcDbEntity
8
0
100
AcDbLine
10
-21.500000000019345
20
263.49999618557877
30
-8.881784197001235e-15
11
-21.500000000019035
21
255.99999618557865
31
-8.8817841970013154e-15
0
LINE
5
164
100
AcDbEntity
8
0
100
AcDbLine
10
-21.500000000019035
20
255.99999618557865
30
-8.8817841970013154e-15
11
-27.500000000019099
21
255.99999618557865
31
-8.8817841970012539e-15
0
LINE
5
165
100
AcDbEntity
8
0
100
AcDbLine
10
-27.500000000019099
20
255.99999618557865
30
-8.8817841970012539e-15
11
-27.500000000026962
21
243.46954462067691
31
-8.8817841970013154e-15
0
LINE
5
166
100
AcDbEntity
8
0
100
AcDbLine
10
-27.500000000026962
20
243.46954462067691
30
-8.8817841970013154e-15
11
-21.500000000009486
21
243.46954462067654
31
-8.8817841970012618e-15
0
LINE
5
167
100
AcDbEntity
8
0
100
AcDbLine
10
-21.500000000009486
20
243.46954462067654
30
-8.8817841970012618e-15
11
-21.500000000009347
21
249.46954462067657
31
-8.8817841970013785e-15
0
LINE
5
168
100
AcDbEntity
8
0
100
AcDbLine
10
-21.500000000009347
20
249.46954462067657
30
-8.8817841970013785e-15
11
-14.00000000002996
21
249.46954462067617
31
-8.8817841969982215e-15
0
LINE
5
169
100
AcDbEntity
8
0
100
AcDbLine
10
-14.00000000002996
20
249.46954462067617
30
-8.8817841969982215e-15
11
-14.000000000030099
21
243.46954462067606
31
-8.8817841970011261e-15
0
LINE
5
170
100
AcDbEntity
8
0
100
AcDbLine
10
-14.000000000030099
20
243.46954462067606
30
-8.8817841970011261e-15
11
-6.5000000000300133
21
243.46954462067558
31
-1.7763568394002508e-14
0
LINE
5
171
100
AcDbEntity
8
0
100
AcDbLine
10
-6.5000000000300133
20
243.46954462067558
30
-1.7763568394002508e-14
11
-6.500000000029873
21
249.46954462067566
31
-8.8817841970013785e-15
0
LINE
5
172
100
AcDbEntity
8
0
100
AcDbLine
10
-6.500000000029873
20
249.46954462067566
30
-8.8817841970013785e-15
11
6.4999999999819513
21
249.46954462067481
31
-8.8817841970011987e-15
0
LINE
5
173
100
AcDbEntity
8
0
100
AcDbLine
10
6.4999999999819513
20
249.46954462067481
30
-8.8817841970011987e-15
11
6.4999999999818083
21
243.46954462067472
31
-8.8817841970011261e-15
0
LINE
5
174
100
AcDbEntity
8
0
100
AcDbLine
10
6.4999999999818083
20
243.46954462067472
30
-8.8817841970011261e-15
11
13.999999999981894
21
243.46954462067424
31
-8.8817841970012602e-15
0
LINE
5
175
100
AcDbEntity
8
0
100
AcDbLine
10
13.999999999981894
20
243.46954462067424
30
-8.8817841970012602e-15
11
13.999999999982037
21
249.4695446206743
31
-8.8817841970013785e-15
0
LINE
5
176
100
AcDbEntity
8
0
100
AcDbLine
10
13.999999999982037
20
249.4695446206743
30
-8.8817841970013785e-15
11
21.499999999961421
21
249.46954462067384
31
-9.9689049733152809e-28
0
LINE
5
177
100
AcDbEntity
8
0
100
AcDbLine
10
21.499999999961421
20
249.46954462067384
30
-9.9689049733152809e-28
11
21.499999999961279
21
243.46954462067379
31
-8.8817841970011261e-15
0
LINE
5
178
100
AcDbEntity
8
0
100
AcDbLine
10
21.499999999961279
20
243.46954462067379
30
-8.8817841970011261e-15
11
27.499999999978758
21
243.46954462067339
31
-8.8817841970012302e-15
0
LINE
5
179
100
AcDbEntity
8
0
100
AcDbLine
10
27.499999999978758
20
243.46954462067339
30
-8.8817841970012302e-15
11
27.499999999980837
21
255.99999618557513
31
-8.8817841970011261e-15
0
LINE
5
180
100
AcDbEntity
8
0
100
AcDbLine
10
27.499999999980837
20
255.99999618557513
30
-8.8817841970011261e-15
11
21.499999999980773
21
255.99999618557513
31
-1.7763568394002508e-14
0
LINE
5
181
100
AcDbEntity
8
0
100
AcDbLine
10
21.499999999980773
20
255.99999618557513
30
-1.7763568394002508e-14
11
21.499999999980467
21
263.49999618557518
31
-8.8817841970011892e-15
0
LINE
5
182
100
AcDbEntity
8
0
100
AcDbLine
10
21.499999999980467
20
263.49999618557518
30
-8.8817841970011892e-15
11
27.499999999980531
21
263.49999618557518
31
-8.8817841970012476e-15
0
LINE
5
183
100
AcDbEntity
8
0
100
AcDbLine
10
27.499999999980531
20
263.49999618557518
30
-8.8817841970012476e-15
11
27.499999999980218
21
270.99999618557524
31
-8.8817841970011892e-15
0
LINE
5
184
100
AcDbEntity
8
0
100
AcDbLine
10
27.499999999980218
20
270.99999618557524
30
-8.8817841970011892e-15
11
21.499999999980155
21
270.99999618557524
31
-8.8817841970012586e-15
0
LINE
5
185
100
AcDbEntity
8
0
100
AcDbLine
10
21.499999999980155
20
270.99999618557524
30
-8.8817841970012586e-15
11
21.499999999979845
21
278.49999618557536
31
-8.8817841970011892e-15
0
LINE
5
186
100
AcDbEntity
8
0
100
AcDbLine
10
21.499999999979845
20
278.49999618557536
30
-8.8817841970011892e-15
11
27.49999999997992
21
278.49999618557536
31
-8.8817841970012476e-15
0
LINE
5
187
100
AcDbEntity
8
0
100
AcDbLine
10
27.49999999997992
20
278.49999618557536
30
-8.8817841970012476e-15
11
27.499999999979604
21
285.99999618557541
31
-8.8817841970011892e-15
0
LINE
5
188
100
AcDbEntity
8
0
100
AcDbLine
10
27.499999999979604
20
285.99999618557541
30
-8.8817841970011892e-15
11
21.499999999979536
21
285.99999618557541
31
-1.7763568394002508e-14
0
LINE
5
189
100
AcDbEntity
8
0
100
AcDbLine
10
21.499999999979536
20
285.99999618557541
30
-1.7763568394002508e-14
11
21.499999999979231
21
293.49999618557547
31
-1.7763568394002442e-14
0
LINE
5
190
100
AcDbEntity
8
0
100
AcDbLine
10
21.499999999979231
20
293.49999618557547
30
-1.7763568394002442e-14
11
27.499999999979302
21
293.49999618557547
31
-8.8817841970012476e-15
0
LINE
5
191
100
AcDbEntity
8
0
100
AcDbLine
10
27.499999999979302
20
293.49999618557547
30
-8.8817841970012476e-15
11
27.499999999978986
21
300.99999618557553
31
-8.8817841970011892e-15
0
LINE
5
192
100
AcDbEntity
8
0
100
AcDbLine
10
27.499999999978986
20
300.99999618557553
30
-8.8817841970011892e-15
11
21.499999999978915
21
300.99999618557553
31
-8.8817841970012586e-15
0
LINE
5
193
100
AcDbEntity
8
0
100
AcDbLine
10
21.499999999978915
20
300.99999618557553
30
-8.8817841970012586e-15
11
21.499999999978613
21
308.49999618557558
31
-8.8817841970011892e-15
0
LINE
5
194
100
AcDbEntity
8
0
100
AcDbLine
10
21.499999999978613
20
308.49999618557558
30
-8.8817841970011892e-15
11
27.49999999997868
21
308.49999618557558
31
-8.8817841970012476e-15
0
LINE
5
195
100
AcDbEntity
8
0
100
AcDbLine
10
27.49999999997868
20
308.49999618557558
30
-8.8817841970012476e-15
11
27.499999999978364
21
315.99999618557564
31
-8.8817841970011892e-15
0
LINE
5
196
100
AcDbEntity
8
0
100
AcDbLine
10
27.499999999978364
20
315.99999618557564
30
-8.8817841970011892e-15
11
21.4999999999783
21
315.99999618557564
31
-1.7763568394002505e-14
0
LINE
5
197
100
AcDbEntity
8
0
100
AcDbLine
10
21.4999999999783
20
315.99999618557564
30
-1.7763568394002505e-14
11
21.499999999977994
21
323.49999618557575
31
-1.7763568394002662e-14
0
LINE
5
198
100
AcDbEntity
8
0
100
AcDbLine
10
21.499999999977994
20
323.49999618557575
30
-1.7763568394002662e-14
11
27.499999999978062
21
323.49999618557575
31
-8.8817841970012507e-15
0
LINE
5
199
100
AcDbEntity
8
0
100
AcDbLine
10
27.499999999978062
20
323.49999618557575
30
-8.8817841970012507e-15
11
27.499999999977746
21
330.99999618557575
31
-8.8817841970011892e-15
0
LINE
5
200
100
AcDbEntity
8
0
100
AcDbLine
10
27.499999999977746
20
330.99999618557575
30
-8.8817841970011892e-15
11
21.499999999977675
21
330.99999618557575
31
-8.8817841970012523e-15
0
LINE
5
201
100
AcDbEntity
8
0
100
AcDbLine
10
21.499999999977675
20
330.99999618557575
30
-8.8817841970012523e-15
11
21.499999999977369
21
338.49999618557592
31
-8.8817841970011892e-15
0
LINE
5
202
100
AcDbEntity
8
0
100
AcDbLine
10
21.499999999977369
20
338.49999618557592
30
-8.8817841970011892e-15
11
27.49999999997744
21
338.49999618557592
31
-8.8817841970012507e-15
0
LINE
5
203
100
AcDbEntity
8
0
100
AcDbLine
10
27.49999999997744
20
338.49999618557592
30
-8.8817841970012507e-15
11
27.499999999978279
21
345.99999618557575
31
-8.8817841970065535e-15
0
LINE
5
204
100
AcDbEntity
8
0
100
AcDbLine
10
-21.500000000004519
20
345.99999618530194
30
-8.8817841970012523e-15
11
-27.500000000021618
21
345.99999618557939
31
-8.8817841970012744e-15
0
LINE
5
205
100
AcDbEntity
8
0
100
AcDbLine
10
21.499999999995381
20
345.99999618530313
30
-1.7763568394002508e-14
11
27.499999999978279
21
345.99999618557575
31
-8.8817841970065535e-15
0
ENDSEC
0
SECTION
2
OBJECTS
0
DICTIONARY
5
C
100
AcDbDictionary
3
ACAD_GROUP
350
D
3
ACAD_MLINESTYLE
350
17
0
DICTIONARY
5
D
100
AcDbDictionary
0
DICTIONARY
5
1A
330
C
100
AcDbDictionary
0
DICTIONARY
5
17
100
AcDbDictionary
0
ENDSEC
0
EOF
