0
SECTION
2
HEADER
9
$INSUNITS
70
4
9
$ACADVER
1
AC1014
9
$HANDSEED
5
FFFF
0
ENDSEC
0
SECTION
2
TABLES
0
TABLE
2
VPORT
5
8
100
AcDbSymbolTable
0
ENDTAB
0
TABLE
2
LTYPE
5
5
100
AcDbSymbolTable
0
LTYPE
5
14
100
AcDbSymbolTableRecord
100
AcDbLinetypeTableRecord
2
BYBLOCK
70
0
0
LTYPE
5
15
100
AcDbSymbolTableRecord
100
AcDbLinetypeTableRecord
2
BYLAYER
70
0
0
ENDTAB
0
TABLE
2
LAYER
5
2
100
AcDbSymbolTable
70
2
0
LAYER
5
50
100
AcDbSymbolTableRecord
100
AcDbLayerTableRecord
2
0
70
0
6
CONTINUOUS
0
ENDTAB
0
TABLE
2
STYLE
5
3
100
AcDbSymbolTable
70
1
0
STYLE
5
11
100
AcDbSymbolTableRecord
100
AcDbTextStyleTableRecord
2
STANDARD
70
0
0
ENDTAB
0
TABLE
2
VIEW
5
6
100
AcDbSymbolTable
70
0
0
ENDTAB
0
TABLE
2
UCS
5
7
100
AcDbSymbolTable
70
0
0
ENDTAB
0
TABLE
2
APPID
5
9
100
AcDbSymbolTable
70
2
0
APPID
5
12
100
AcDbSymbolTableRecord
100
AcDbRegAppTableRecord
2
ACAD
70
0
0
ENDTAB
0
TABLE
2
DIMSTYLE
5
A
100
AcDbSymbolTable
70
1
0
ENDTAB
0
TABLE
2
BLOCK_RECORD
5
1
100
AcDbSymbolTable
70
1
0
BLOCK_RECORD
5
1F
100
AcDbSymbolTableRecord
100
AcDbBlockTableRecord
2
*MODEL_SPACE
0
BLOCK_RECORD
5
1B
100
AcDbSymbolTableRecord
100
AcDbBlockTableRecord
2
*PAPER_SPACE
0
ENDTAB
0
ENDSEC
0
SECTION
2
BLOCKS
0
BLOCK
5
20
100
AcDbEntity
100
AcDbBlockBegin
2
*MODEL_SPACE
0
ENDBLK
5
21
100
AcDbEntity
100
AcDbBlockEnd
0
BLOCK
5
1C
100
AcDbEntity
100
AcDbBlockBegin
2
*PAPER_SPACE
0
ENDBLK
5
1D
100
AcDbEntity
100
AcDbBlockEnd
0
ENDSEC
0
SECTION
2
ENTITIES
0
LINE
5
100
100
AcDbEntity
8
0
100
AcDbLine
10
-5.6249999999607416
20
396.49999618529148
30
0
11
-5.6249999999605613
21
402.49999618529154
31
9.8607613152626476e-31
0
LINE
5
101
100
AcDbEntity
8
0
100
AcDbLine
10
-5.6249999999605613
20
402.49999618529154
30
9.8607613152626476e-31
11
-16.874999999960586
21
402.49999618529188
31
-5.2229348098367901e-30
0
LINE
5
102
100
AcDbEntity
8
0
100
AcDbLine
10
-16.874999999960586
20
402.49999618529188
30
-5.2229348098367901e-30
11
-16.874999999960764
21
396.49999618529188
31
-4.4408920985006348e-15
0
LINE
5
103
100
AcDbEntity
8
0
100
AcDbLine
10
-16.874999999960764
20
396.49999618529188
30
-4.4408920985006348e-15
11
-28.124999999960785
21
396.49999618529222
31
-4.4408920985006246e-15
0
LINE
5
104
100
AcDbEntity
8
0
100
AcDbLine
10
-28.124999999960785
20
396.49999618529222
30
-4.4408920985006246e-15
11
-28.124999999960608
21
402.49999618529222
31
-4.4408920985006183e-15
0
LINE
5
105
100
AcDbEntity
8
0
100
AcDbLine
10
-28.124999999960608
20
402.49999618529222
30
-4.4408920985006183e-15
11
-39.374999999960636
21
402.49999618529262
31
-5.2229348098361735e-30
0
LINE
5
106
100
AcDbEntity
8
0
100
AcDbLine
10
-39.374999999960636
20
402.49999618529262
30
-5.2229348098361735e-30
11
-39.374999999960814
21
396.49999618529262
31
0
0
LINE
5
107
100
AcDbEntity
8
0
100
AcDbLine
10
-39.374999999960814
20
396.49999618529262
30
0
11
-57.500000000000554
21
396.49999618529318
31
2.5206385208050701e-30
0
LINE
5
108
100
AcDbEntity
8
0
100
AcDbLine
10
-57.500000000000554
20
396.49999618529318
30
2.5206385208050701e-30
11
-57.500000000000675
21
392.99999618530387
31
-4.4408920985006277e-15
0
LINE
5
109
100
AcDbEntity
8
0
100
AcDbLine
10
-57.500000000000675
20
392.99999618530387
30
-4.4408920985006277e-15
11
-51.500000000000661
21
392.99999618530364
31
-4.440892098500623e-15
0
LINE
5
110
100
AcDbEntity
8
0
100
AcDbLine
10
-51.500000000000661
20
392.99999618530364
30
-4.440892098500623e-15
11
-51.500000000000881
21
385.4999961853037
31
-1.1832913578315177e-29
0
LINE
5
111
100
AcDbEntity
8
0
100
AcDbLine
10
-51.500000000000881
20
385.4999961853037
30
-1.1832913578315177e-29
11
-57.500000000000888
21
385.49999618530393
31
-2.8942510812006518e-30
0
LINE
5
112
100
AcDbEntity
8
0
100
AcDbLine
10
-57.500000000000888
20
385.49999618530393
30
-2.8942510812006518e-30
11
-57.50000000000113
21
377.99999618530387
31
-7.8886090522101181e-30
0
LINE
5
113
100
AcDbEntity
8
0
100
AcDbLine
10
-57.50000000000113
20
377.99999618530387
30
-7.8886090522101181e-30
11
-51.500000000001108
21
377.9999961853037
31
-1.0500534449053881e-30
0
LINE
5
114
100
AcDbEntity
8
0
100
AcDbLine
10
-51.500000000001108
20
377.9999961853037
30
-1.0500534449053881e-30
11
-51.500000000001322
21
370.49999618530376
31
4.4408920985006143e-15
0
LINE
5
115
100
AcDbEntity
8
0
100
AcDbLine
10
-51.500000000001322
20
370.49999618530376
30
4.4408920985006143e-15
11
-57.500000000001336
21
370.49999618530393
31
1.0500534449053881e-30
0
LINE
5
116
100
AcDbEntity
8
0
100
AcDbLine
10
-57.500000000001336
20
370.49999618530393
30
1.0500534449053881e-30
11
-57.500000000001577
21
362.99999618530387
31
-4.4408920985006325e-15
0
LINE
5
117
100
AcDbEntity
8
0
100
AcDbLine
10
-57.500000000001577
20
362.99999618530387
30
-4.4408920985006325e-15
11
-51.500000000001549
21
362.99999618530364
31
6.8385556073049261e-30
0
LINE
5
118
100
AcDbEntity
8
0
100
AcDbLine
10
-51.500000000001549
20
362.99999618530364
30
6.8385556073049261e-30
11
-51.500000000001769
21
355.4999961853037
31
-1.1832913578315177e-29
0
LINE
5
119
100
AcDbEntity
8
0
100
AcDbLine
10
-51.500000000001769
20
355.4999961853037
30
-1.1832913578315177e-29
11
-57.500000000001791
21
355.49999618530393
31
4.4408920985006191e-15
0
LINE
5
120
100
AcDbEntity
8
0
100
AcDbLine
10
-57.500000000001791
20
355.49999618530393
30
4.4408920985006191e-15
11
-57.500000000001776
21
345.99999618530404
31
-1.9721522630525295e-30
0
LINE
5
121
100
AcDbEntity
8
0
100
AcDbLine
10
57.499999999998479
20
345.99999618530012
30
2.1835564069500452e-29
11
57.499999999998941
21
355.49999618530001
31
4.4408920985006341e-15
0
LINE
5
122
100
AcDbEntity
8
0
100
AcDbLine
10
57.499999999998941
20
355.49999618530001
30
4.4408920985006341e-15
11
51.49999999999892
21
355.49999618530023
31
4.4408920985006199e-15
0
LINE
5
123
100
AcDbEntity
8
0
100
AcDbLine
10
51.49999999999892
20
355.49999618530023
30
4.4408920985006199e-15
11
51.49999999999914
21
362.99999618530023
31
1.1832913578315177e-29
0
LINE
5
124
100
AcDbEntity
8
0
100
AcDbLine
10
51.49999999999914
20
362.99999618530023
30
1.1832913578315177e-29
11
57.499999999999162
21
362.99999618530001
31
5.941008852795795e-30
0
LINE
5
125
100
AcDbEntity
8
0
100
AcDbLine
10
57.499999999999162
20
362.99999618530001
30
5.941008852795795e-30
11
57.499999999999403
21
370.49999618530001
31
5.9164567891575885e-30
0
LINE
5
126
100
AcDbEntity
8
0
100
AcDbLine
10
57.499999999999403
20
370.49999618530001
30
5.9164567891575885e-30
11
51.499999999999382
21
370.49999618530023
31
1.9476001994139307e-30
0
LINE
5
127
100
AcDbEntity
8
0
100
AcDbLine
10
51.499999999999382
20
370.49999618530023
30
1.9476001994139307e-30
11
51.499999999999602
21
377.99999618530018
31
-4.4408920985006143e-15
0
LINE
5
128
100
AcDbEntity
8
0
100
AcDbLine
10
51.499999999999602
20
377.99999618530018
30
-4.4408920985006143e-15
11
57.499999999999631
21
377.99999618530001
31
-1.9476001994133702e-30
0
LINE
5
129
100
AcDbEntity
8
0
100
AcDbLine
10
57.499999999999631
20
377.99999618530001
30
-1.9476001994133702e-30
11
57.499999999999865
21
385.49999618530012
31
4.4408920985006341e-15
0
LINE
5
130
100
AcDbEntity
8
0
100
AcDbLine
10
57.499999999999865
20
385.49999618530012
30
4.4408920985006341e-15
11
51.499999999999844
21
385.49999618530029
31
-1.9967043266920812e-30
0
LINE
5
131
100
AcDbEntity
8
0
100
AcDbLine
10
51.499999999999844
20
385.49999618530029
30
-1.9967043266920812e-30
11
51.500000000000064
21
392.99999618530023
31
1.1832913578315177e-29
0
LINE
5
132
100
AcDbEntity
8
0
100
AcDbLine
10
51.500000000000064
20
392.99999618530023
30
1.1832913578315177e-29
11
57.500000000000071
21
392.99999618530001
31
-4.4408920985006246e-15
0
LINE
5
133
100
AcDbEntity
8
0
100
AcDbLine
10
57.500000000000071
20
392.99999618530001
30
-4.4408920985006246e-15
11
57.500000000000298
21
402.49999618528909
31
1.3805065841367707e-29
0
LINE
5
134
100
AcDbEntity
8
0
100
AcDbLine
10
57.500000000000298
20
402.49999618528909
30
1.3805065841367707e-29
11
51.500000000000341
21
402.49999618528932
31
1.0500534449034263e-30
0
LINE
5
135
100
AcDbEntity
8
0
100
AcDbLine
10
51.500000000000341
20
402.49999618528932
30
1.0500534449034263e-30
11
51.500000000000163
21
396.49999618528921
31
-4.4408920985006293e-15
0
LINE
5
136
100
AcDbEntity
8
0
100
AcDbLine
10
51.500000000000163
20
396.49999618528921
30
-4.4408920985006293e-15
11
39.375000000039357
21
396.49999618529012
31
-4.440892098500623e-15
0
LINE
5
137
100
AcDbEntity
8
0
100
AcDbLine
10
39.375000000039357
20
396.49999618529012
30
-4.440892098500623e-15
11
39.375000000039535
21
402.49999618529
31
-4.4408920985006183e-15
0
LINE
5
138
100
AcDbEntity
8
0
100
AcDbLine
10
39.375000000039535
20
402.49999618529
30
-4.4408920985006183e-15
11
28.125000000039513
21
402.4999961852904
31
-4.4408920985006246e-15
0
LINE
5
139
100
AcDbEntity
8
0
100
AcDbLine
10
28.125000000039513
20
402.4999961852904
30
-4.4408920985006246e-15
11
28.125000000039332
21
396.49999618529034
31
-7.8886090522101181e-30
0
LINE
5
140
100
AcDbEntity
8
0
100
AcDbLine
10
28.125000000039332
20
396.49999618529034
30
-7.8886090522101181e-30
11
16.875000000039311
21
396.49999618529074
31
2.6656742423732719e-30
0
LINE
5
141
100
AcDbEntity
8
0
100
AcDbLine
10
16.875000000039311
20
396.49999618529074
30
2.6656742423732719e-30
11
16.875000000039492
21
402.4999961852908
31
9.8607613152626476e-31
0
LINE
5
142
100
AcDbEntity
8
0
100
AcDbLine
10
16.875000000039492
20
402.4999961852908
30
9.8607613152626476e-31
11
5.6250000000394662
21
402.49999618529108
31
1.7681274878647573e-30
0
LINE
5
143
100
AcDbEntity
8
0
100
AcDbLine
10
5.6250000000394662
20
402.49999618529108
30
1.7681274878647573e-30
11
5.6250000000392841
21
396.49999618529108
31
-4.440892098500623e-15
0
LINE
5
144
100
AcDbEntity
8
0
100
AcDbLine
10
5.6250000000392841
20
396.49999618529108
30
-4.440892098500623e-15
11
-5.6249999999607416
21
396.49999618529148
31
0
0
LINE
5
145
100
AcDbEntity
8
0
100
AcDbLine
10
51.499999999971344
20
249.4695446206795
30
0
11
51.499999999938161
21
255.99999618558127
31
-7.8097229616880169e-28
0
LINE
5
146
100
AcDbEntity
8
0
100
AcDbLine
10
51.499999999938161
20
255.99999618558127
30
-7.8097229616880169e-28
11
57.49999999993824
21
255.99999618557715
31
9.0291528699080078e-31
0
LINE
5
147
100
AcDbEntity
8
0
100
AcDbLine
10
57.49999999993824
20
255.99999618557715
30
9.0291528699080078e-31
11
57.49999999994337
21
263.49999618557717
31
4.4408920985006246e-15
0
LINE
5
148
100
AcDbEntity
8
0
100
AcDbLine
10
57.49999999994337
20
263.49999618557717
30
4.4408920985006246e-15
11
51.499999999943299
21
263.49999618558127
31
-9.0291528699080078e-31
0
LINE
5
149
100
AcDbEntity
8
0
100
AcDbLine
10
51.499999999943299
20
263.49999618558127
30
-9.0291528699080078e-31
11
51.499999999948436
21
270.99999618558138
31
-1.9721522630525295e-30
0
LINE
5
150
100
AcDbEntity
8
0
100
AcDbLine
10
51.499999999948436
20
270.99999618558138
30
-1.9721522630525295e-30
11
57.499999999948493
21
270.99999618557729
31
-4.4408920985006254e-15
0
LINE
5
151
100
AcDbEntity
8
0
100
AcDbLine
10
57.499999999948493
20
270.99999618557729
30
-4.4408920985006254e-15
11
57.49999999995363
21
278.49999618557734
31
-1.9721522630525295e-30
0
LINE
5
152
100
AcDbEntity
8
0
100
AcDbLine
10
57.49999999995363
20
278.49999618557734
30
-1.9721522630525295e-30
11
51.499999999953559
21
278.49999618558149
31
4.4408920985006254e-15
0
LINE
5
153
100
AcDbEntity
8
0
100
AcDbLine
10
51.499999999953559
20
278.49999618558149
30
4.4408920985006254e-15
11
51.499999999958675
21
285.99999618558161
31
-1.9721522630525295e-30
0
LINE
5
154
100
AcDbEntity
8
0
100
AcDbLine
10
51.499999999958675
20
285.99999618558161
30
-1.9721522630525295e-30
11
57.49999999995876
21
285.99999618557746
31
4.8472198130877883e-30
0
LINE
5
155
100
AcDbEntity
8
0
100
AcDbLine
10
57.49999999995876
20
285.99999618557746
30
4.8472198130877883e-30
11
57.499999999963897
21
293.49999618557752
31
-1.9721522630525295e-30
0
LINE
5
156
100
AcDbEntity
8
0
100
AcDbLine
10
57.499999999963897
20
293.49999618557752
30
-1.9721522630525295e-30
11
51.499999999963819
21
293.49999618558161
31
-4.8472198130877883e-30
0
LINE
5
157
100
AcDbEntity
8
0
100
AcDbLine
10
51.499999999963819
20
293.49999618558161
30
-4.8472198130877883e-30
11
51.499999999968949
21
300.99999618558172
31
-4.4408920985006277e-15
0
LINE
5
158
100
AcDbEntity
8
0
100
AcDbLine
10
51.499999999968949
20
300.99999618558172
30
-4.4408920985006277e-15
11
57.499999999969027
21
300.99999618557763
31
4.8472198130877883e-30
0
LINE
5
159
100
AcDbEntity
8
0
100
AcDbLine
10
57.499999999969027
20
300.99999618557763
30
4.8472198130877883e-30
11
57.499999999974165
21
308.49999618557763
31
4.4408920985006246e-15
0
LINE
5
160
100
AcDbEntity
8
0
100
AcDbLine
10
57.499999999974165
20
308.49999618557763
30
4.4408920985006246e-15
11
51.499999999974079
21
308.49999618558178
31
-4.8472198130877883e-30
0
LINE
5
161
100
AcDbEntity
8
0
100
AcDbLine
10
51.499999999974079
20
308.49999618558178
30
-4.8472198130877883e-30
11
51.49999999997921
21
315.99999618558195
31
0
0
LINE
5
162
100
AcDbEntity
8
0
100
AcDbLine
10
51.49999999997921
20
315.99999618558195
30
0
11
57.499999999979288
21
315.9999961855778
31
-4.4408920985006214e-15
0
LINE
5
163
100
AcDbEntity
8
0
100
AcDbLine
10
57.499999999979288
20
315.9999961855778
30
-4.4408920985006214e-15
11
57.499999999984425
21
323.49999618557786
31
-1.9721522630525295e-30
0
LINE
5
164
100
AcDbEntity
8
0
100
AcDbLine
10
57.499999999984425
20
323.49999618557786
30
-1.9721522630525295e-30
11
51.499999999984347
21
323.49999618558206
31
4.440892098500623e-15
0
LINE
5
165
100
AcDbEntity
8
0
100
AcDbLine
10
51.499999999984347
20
323.49999618558206
30
4.440892098500623e-15
11
51.499999999989477
21
330.99999618558206
31
-1.9721522630525295e-30
0
LINE
5
166
100
AcDbEntity
8
0
100
AcDbLine
10
51.499999999989477
20
330.99999618558206
30
-1.9721522630525295e-30
11
57.499999999989555
21
330.99999618557803
31
-1.2462957300965565e-30
0
LINE
5
167
100
AcDbEntity
8
0
100
AcDbLine
10
57.499999999989555
20
330.99999618557803
30
-1.2462957300965565e-30
11
57.499999999994685
21
338.49999618557808
31
-1.9721522630525295e-30
0
LINE
5
168
100
AcDbEntity
8
0
100
AcDbLine
10
57.499999999994685
20
338.49999618557808
30
-1.9721522630525295e-30
11
51.499999999994614
21
338.49999618558218
31
1.2462957300965565e-30
0
LINE
5
169
100
AcDbEntity
8
0
100
AcDbLine
10
51.499999999994614
20
338.49999618558218
30
1.2462957300965565e-30
11
51.500000000037389
21
345.99999618558206
31
-4.4408920985006356e-15
0
LINE
5
170
100
AcDbEntity
8
0
100
AcDbLine
10
21.500000000037332
20
345.99999618560264
30
-4.5752715205256369e-29
11
21.499999999888992
21
243.46954462070002
31
4.2598488881934637e-28
0
LINE
5
171
100
AcDbEntity
8
0
100
AcDbLine
10
21.499999999888992
20
243.46954462070002
30
4.2598488881934637e-28
11
28.999999999889077
21
243.4695446206949
31
-1.6171952881466163e-29
0
LINE
5
172
100
AcDbEntity
8
0
100
AcDbLine
10
28.999999999889077
20
243.4695446206949
30
-1.6171952881466163e-29
11
28.999999999893177
21
249.46954462069499
31
4.440892098500649e-15
0
LINE
5
173
100
AcDbEntity
8
0
100
AcDbLine
10
28.999999999893177
20
249.46954462069499
30
4.440892098500649e-15
11
36.499999999893269
21
249.46954462068982
31
4.4408920985006096e-15
0
LINE
5
174
100
AcDbEntity
8
0
100
AcDbLine
10
36.499999999893269
20
249.46954462068982
30
4.4408920985006096e-15
11
36.49999999988917
21
243.46954462068976
31
-2.2679751025104089e-29
0
LINE
5
175
100
AcDbEntity
8
0
100
AcDbLine
10
36.49999999988917
20
243.46954462068976
30
-2.2679751025104089e-29
11
43.999999999889255
21
243.46954462068464
31
-3.9473477705041059e-31
0
LINE
5
176
100
AcDbEntity
8
0
100
AcDbLine
10
43.999999999889255
20
243.46954462068464
30
-3.9473477705041059e-31
11
43.999999999893348
21
249.46954462068473
31
2.2679751025104089e-29
0
LINE
5
177
100
AcDbEntity
8
0
100
AcDbLine
10
43.999999999893348
20
249.46954462068473
30
2.2679751025104089e-29
11
51.499999999971344
21
249.4695446206795
31
0
0
LINE
5
178
100
AcDbEntity
8
0
100
AcDbLine
10
-51.499999999969887
20
345.99999618565266
30
4.4408920985006262e-15
11
-51.499999999967933
21
338.49999618565266
31
4.4408920985006404e-15
0
LINE
5
179
100
AcDbEntity
8
0
100
AcDbLine
10
-51.499999999967933
20
338.49999618565266
30
4.4408920985006404e-15
11
-57.499999999967997
21
338.4999961856567
31
1.2462957300965565e-30
0
LINE
5
180
100
AcDbEntity
8
0
100
AcDbLine
10
-57.499999999967997
20
338.4999961856567
30
1.2462957300965565e-30
11
-57.499999999973134
21
330.9999961856567
31
-4.4408920985006246e-15
0
LINE
5
181
100
AcDbEntity
8
0
100
AcDbLine
10
-57.499999999973134
20
330.9999961856567
30
-4.4408920985006246e-15
11
-51.499999999973056
21
330.99999618565266
31
-1.2462957300965565e-30
0
LINE
5
182
100
AcDbEntity
8
0
100
AcDbLine
10
-51.499999999973056
20
330.99999618565266
30
-1.2462957300965565e-30
11
-51.499999999978172
21
323.49999618565249
31
1.9721522630525295e-30
0
LINE
5
183
100
AcDbEntity
8
0
100
AcDbLine
10
-51.499999999978172
20
323.49999618565249
30
1.9721522630525295e-30
11
-57.499999999978257
21
323.49999618565653
31
4.4408920985006238e-15
0
LINE
5
184
100
AcDbEntity
8
0
100
AcDbLine
10
-57.499999999978257
20
323.49999618565653
30
4.4408920985006238e-15
11
-57.499999999983388
21
315.99999618565653
31
1.9721522630525295e-30
0
LINE
5
185
100
AcDbEntity
8
0
100
AcDbLine
10
-57.499999999983388
20
315.99999618565653
30
1.9721522630525295e-30
11
-51.499999999983316
21
315.99999618565232
31
-4.4408920985006214e-15
0
LINE
5
186
100
AcDbEntity
8
0
100
AcDbLine
10
-51.499999999983316
20
315.99999618565232
30
-4.4408920985006214e-15
11
-51.499999999988447
21
308.49999618565226
31
1.9721522630525295e-30
0
LINE
5
187
100
AcDbEntity
8
0
100
AcDbLine
10
-51.499999999988447
20
308.49999618565226
30
1.9721522630525295e-30
11
-57.499999999988525
21
308.49999618565641
31
-4.8472198130877883e-30
0
LINE
5
188
100
AcDbEntity
8
0
100
AcDbLine
10
-57.499999999988525
20
308.49999618565641
30
-4.8472198130877883e-30
11
-57.499999999993662
21
300.9999961856563
31
1.9721522630525295e-30
0
LINE
5
189
100
AcDbEntity
8
0
100
AcDbLine
10
-57.499999999993662
20
300.9999961856563
30
1.9721522630525295e-30
11
-51.499999999993577
21
300.99999618565215
31
4.8472198130877883e-30
0
LINE
5
190
100
AcDbEntity
8
0
100
AcDbLine
10
-51.499999999993577
20
300.99999618565215
30
4.8472198130877883e-30
11
-51.499999999998707
21
293.49999618565209
31
4.4408920985006277e-15
0
LINE
5
191
100
AcDbEntity
8
0
100
AcDbLine
10
-51.499999999998707
20
293.49999618565209
30
4.4408920985006277e-15
11
-57.499999999998785
21
293.49999618565624
31
-4.8472198130877883e-30
0
LINE
5
192
100
AcDbEntity
8
0
100
AcDbLine
10
-57.499999999998785
20
293.49999618565624
30
-4.8472198130877883e-30
11
-57.500000000003915
21
285.99999618565613
31
-4.4408920985006246e-15
0
LINE
5
193
100
AcDbEntity
8
0
100
AcDbLine
10
-57.500000000003915
20
285.99999618565613
30
-4.4408920985006246e-15
11
-51.500000000003837
21
285.99999618565204
31
4.8472198130877883e-30
0
LINE
5
194
100
AcDbEntity
8
0
100
AcDbLine
10
-51.500000000003837
20
285.99999618565204
30
4.8472198130877883e-30
11
-51.500000000008974
21
278.49999618565198
31
1.9721522630525295e-30
0
LINE
5
195
100
AcDbEntity
8
0
100
AcDbLine
10
-51.500000000008974
20
278.49999618565198
30
1.9721522630525295e-30
11
-57.500000000009052
21
278.49999618565607
31
4.4408920985006254e-15
0
LINE
5
196
100
AcDbEntity
8
0
100
AcDbLine
10
-57.500000000009052
20
278.49999618565607
30
4.4408920985006254e-15
11
-57.500000000014182
21
270.99999618565602
31
1.9721522630525295e-30
0
LINE
5
197
100
AcDbEntity
8
0
100
AcDbLine
10
-57.500000000014182
20
270.99999618565602
30
1.9721522630525295e-30
11
-51.500000000014118
21
270.99999618565187
31
-4.4408920985006254e-15
0
LINE
5
198
100
AcDbEntity
8
0
100
AcDbLine
10
-51.500000000014118
20
270.99999618565187
30
-4.4408920985006254e-15
11
-51.500000000019249
21
263.49999618565181
31
1.9721522630525295e-30
0
LINE
5
199
100
AcDbEntity
8
0
100
AcDbLine
10
-51.500000000019249
20
263.49999618565181
30
1.9721522630525295e-30
11
-57.500000000019313
21
263.4999961856559
31
-9.0291528699080078e-31
0
LINE
5
200
100
AcDbEntity
8
0
100
AcDbLine
10
-57.500000000019313
20
263.4999961856559
30
-9.0291528699080078e-31
11
-57.500000000024443
21
255.99999618565585
31
1.9721522630525295e-30
0
LINE
5
201
100
AcDbEntity
8
0
100
AcDbLine
10
-57.500000000024443
20
255.99999618565585
30
1.9721522630525295e-30
11
-51.500000000024372
21
255.9999961856517
31
9.0291528699080078e-31
0
LINE
5
202
100
AcDbEntity
8
0
100
AcDbLine
10
-51.500000000024372
20
255.9999961856517
30
9.0291528699080078e-31
11
-51.500000000035925
21
249.46954462074996
31
4.4408920985012431e-15
0
LINE
5
203
100
AcDbEntity
8
0
100
AcDbLine
10
-51.500000000035925
20
249.46954462074996
30
4.4408920985012431e-15
11
-44.000000000028749
21
249.46954462074487
31
4.4408920985006175e-15
0
LINE
5
204
100
AcDbEntity
8
0
100
AcDbLine
10
-44.000000000028749
20
249.46954462074487
30
4.4408920985006175e-15
11
-44.000000000032848
21
243.46954462074481
31
-2.2679751025104089e-29
0
LINE
5
205
100
AcDbEntity
8
0
100
AcDbLine
10
-44.000000000032848
20
243.46954462074481
30
-2.2679751025104089e-29
11
-36.50000000003277
21
243.4695446207397
31
-3.9473477705579158e-31
0
LINE
5
206
100
AcDbEntity
8
0
100
AcDbLine
10
-36.50000000003277
20
243.4695446207397
30
-3.9473477705579158e-31
11
-36.500000000028663
21
249.46954462073978
31
2.2679751025104089e-29
0
LINE
5
207
100
AcDbEntity
8
0
100
AcDbLine
10
-36.500000000028663
20
249.46954462073978
30
2.2679751025104089e-29
11
-29.000000000028567
21
249.46954462073464
31
1.4003587319583228e-30
0
LINE
5
208
100
AcDbEntity
8
0
100
AcDbLine
10
-29.000000000028567
20
249.46954462073464
30
1.4003587319583228e-30
11
-29.000000000032671
21
243.46954462073455
31
-2.2679751025104089e-29
0
LINE
5
209
100
AcDbEntity
8
0
100
AcDbLine
10
-29.000000000032671
20
243.46954462073455
30
-2.2679751025104089e-29
11
-21.500000000032593
21
243.46954462072944
31
-3.947347770593789e-31
0
LINE
5
210
100
AcDbEntity
8
0
100
AcDbLine
10
-21.500000000032593
20
243.46954462072944
30
-3.947347770593789e-31
11
-21.499999999962437
21
345.99999618563203
31
-9.624103043696344e-28
0
LINE
5
211
100
AcDbEntity
8
0
100
AcDbLine
10
-51.499999999969887
20
345.99999618565266
30
4.4408920985006262e-15
11
-57.500000000001776
21
345.99999618530404
31
-1.9721522630525295e-30
0
LINE
5
212
100
AcDbEntity
8
0
100
AcDbLine
10
51.500000000001137
20
385.49999618530188
30
-4.4408920985006262e-15
11
57.500000000001151
21
385.49999618530165
31
-4.4408920985006214e-15
0
LINE
5
213
100
AcDbEntity
8
0
100
AcDbLine
10
57.500000000001151
20
385.49999618530165
30
-4.4408920985006214e-15
11
57.500000000000881
21
377.99999618530165
31
-3.944304526105059e-30
0
LINE
5
214
100
AcDbEntity
8
0
100
AcDbLine
10
57.500000000000881
20
377.99999618530165
30
-3.944304526105059e-30
11
51.500000000000853
21
377.99999618530188
31
4.4408920985006254e-15
0
LINE
5
215
100
AcDbEntity
8
0
100
AcDbLine
10
51.500000000000853
20
377.99999618530188
30
4.4408920985006254e-15
11
51.500000000000597
21
370.49999618530188
31
5.9164567891575885e-30
0
LINE
5
216
100
AcDbEntity
8
0
100
AcDbLine
10
51.500000000000597
20
370.49999618530188
30
5.9164567891575885e-30
11
57.500000000000625
21
370.4999961853016
31
5.8963856410536681e-31
0
LINE
5
217
100
AcDbEntity
8
0
100
AcDbLine
10
57.500000000000625
20
370.4999961853016
30
5.8963856410536681e-31
11
57.500000000000348
21
362.9999961853016
31
-4.4408920985006277e-15
0
LINE
5
218
100
AcDbEntity
8
0
100
AcDbLine
10
57.500000000000348
20
362.9999961853016
30
-4.4408920985006277e-15
11
51.500000000000313
21
362.99999618530182
31
-5.896385641049184e-31
0
LINE
5
219
100
AcDbEntity
8
0
100
AcDbLine
10
51.500000000000313
20
362.99999618530182
30
-5.896385641049184e-31
11
51.500000000000057
21
355.49999618530171
31
-4.4408920985006199e-15
0
LINE
5
220
100
AcDbEntity
8
0
100
AcDbLine
10
51.500000000000057
20
355.49999618530171
30
-4.4408920985006199e-15
11
57.500000000000085
21
355.49999618530148
31
5.8963856410531076e-31
0
LINE
5
221
100
AcDbEntity
8
0
100
AcDbLine
10
57.500000000000085
20
355.49999618530148
30
5.8963856410531076e-31
11
57.499999999999467
21
345.9999961853016
31
4.4408920985006183e-15
0
LINE
5
222
100
AcDbEntity
8
0
100
AcDbLine
10
-57.500000000000909
20
345.9999961853058
30
4.4408920985006057e-15
11
-57.500000000000767
21
355.49999618530563
31
-4.4408920985006246e-15
0
LINE
5
223
100
AcDbEntity
8
0
100
AcDbLine
10
-57.500000000000767
20
355.49999618530563
30
-4.4408920985006246e-15
11
-51.500000000000732
21
355.49999618530535
31
4.4408920985006277e-15
0
LINE
5
224
100
AcDbEntity
8
0
100
AcDbLine
10
-51.500000000000732
20
355.49999618530535
30
4.4408920985006277e-15
11
-51.500000000000476
21
362.99999618530541
31
8.881784197001246e-15
0
LINE
5
225
100
AcDbEntity
8
0
100
AcDbLine
10
-51.500000000000476
20
362.99999618530541
30
8.881784197001246e-15
11
-57.500000000000504
21
362.99999618530563
31
-4.4408920985006277e-15
0
LINE
5
226
100
AcDbEntity
8
0
100
AcDbLine
10
-57.500000000000504
20
362.99999618530563
30
-4.4408920985006277e-15
11
-57.500000000000227
21
370.49999618530558
31
-8.8817841970012507e-15
0
LINE
5
227
100
AcDbEntity
8
0
100
AcDbLine
10
-57.500000000000227
20
370.49999618530558
30
-8.8817841970012507e-15
11
-51.500000000000206
21
370.49999618530535
31
-1.332267629550188e-14
0
LINE
5
228
100
AcDbEntity
8
0
100
AcDbLine
10
-51.500000000000206
20
370.49999618530535
30
-1.332267629550188e-14
11
-51.49999999999995
21
377.99999618530541
31
-5.9164567891575885e-30
0
LINE
5
229
100
AcDbEntity
8
0
100
AcDbLine
10
-51.49999999999995
20
377.99999618530541
30
-5.9164567891575885e-30
11
-57.499999999999972
21
377.99999618530569
31
2.4571192074910655e-30
0
LINE
5
230
100
AcDbEntity
8
0
100
AcDbLine
10
-57.499999999999972
20
377.99999618530569
30
2.4571192074910655e-30
11
-57.499999999999702
21
385.49999618530569
31
-4.4408920985006222e-15
0
LINE
5
231
100
AcDbEntity
8
0
100
AcDbLine
10
-57.499999999999702
20
385.49999618530569
30
-4.4408920985006222e-15
11
-51.499999999999687
21
385.49999618530546
31
1.4871853186148343e-30
0
LINE
5
232
100
AcDbEntity
8
0
100
AcDbLine
10
-51.499999999999687
20
385.49999618530546
30
1.4871853186148343e-30
11
-51.499999999999424
21
392.99999618530546
31
4.4408920985006199e-15
0
LINE
5
233
100
AcDbEntity
8
0
100
AcDbLine
10
-51.499999999999424
20
392.99999618530546
30
4.4408920985006199e-15
11
-57.499999999999446
21
392.9999961853058
31
-1.4871853186148343e-30
0
LINE
5
234
100
AcDbEntity
8
0
100
AcDbLine
10
-57.499999999999446
20
392.9999961853058
30
-1.4871853186148343e-30
11
-57.499999999999318
21
396.49999618529506
31
-4.4408920985006309e-15
0
LINE
5
235
100
AcDbEntity
8
0
100
AcDbLine
10
-57.499999999999318
20
396.49999618529506
30
-4.4408920985006309e-15
11
-39.374999999959556
21
396.49999618529444
31
-1.3322676295501891e-14
0
LINE
5
236
100
AcDbEntity
8
0
100
AcDbLine
10
-39.374999999959556
20
396.49999618529444
30
-1.3322676295501891e-14
11
-39.374999999959343
21
402.49999618529449
31
-3.944304526105059e-30
0
LINE
5
237
100
AcDbEntity
8
0
100
AcDbLine
10
-39.374999999959343
20
402.49999618529449
30
-3.944304526105059e-30
11
-28.124999999959307
21
402.49999618529409
31
-4.4408920985006222e-15
0
LINE
5
238
100
AcDbEntity
8
0
100
AcDbLine
10
-28.124999999959307
20
402.49999618529409
30
-4.4408920985006222e-15
11
-28.12499999995952
21
396.49999618529409
31
-1.3322676295501875e-14
0
LINE
5
239
100
AcDbEntity
8
0
100
AcDbLine
10
-28.12499999995952
20
396.49999618529409
30
-1.3322676295501875e-14
11
-16.874999999959481
21
396.4999961852937
31
-8.8817841970012476e-15
0
LINE
5
240
100
AcDbEntity
8
0
100
AcDbLine
10
-16.874999999959481
20
396.4999961852937
30
-8.8817841970012476e-15
11
-16.874999999959272
21
402.49999618529364
31
-8.8817841970012555e-15
0
LINE
5
241
100
AcDbEntity
8
0
100
AcDbLine
10
-16.874999999959272
20
402.49999618529364
30
-8.8817841970012555e-15
11
-5.6249999999592326
21
402.49999618529324
31
-1.3322676295501875e-14
0
LINE
5
242
100
AcDbEntity
8
0
100
AcDbLine
10
-5.6249999999592326
20
402.49999618529324
30
-1.3322676295501875e-14
11
-5.6249999999594449
21
396.4999961852933
31
-4.9303806576313238e-30
0
LINE
5
243
100
AcDbEntity
8
0
100
AcDbLine
10
-5.6249999999594449
20
396.4999961852933
30
-4.9303806576313238e-30
11
5.6250000000405915
21
396.49999618529284
31
-4.4408920985006222e-15
0
LINE
5
244
100
AcDbEntity
8
0
100
AcDbLine
10
5.6250000000405915
20
396.49999618529284
30
-4.4408920985006222e-15
11
5.6250000000408038
21
402.49999618529284
31
-4.4408920985006254e-15
0
LINE
5
245
100
AcDbEntity
8
0
100
AcDbLine
10
5.6250000000408038
20
402.49999618529284
30
-4.4408920985006254e-15
11
16.875000000040838
21
402.4999961852925
31
1.2849956508996286e-29
0
LINE
5
246
100
AcDbEntity
8
0
100
AcDbLine
10
16.875000000040838
20
402.4999961852925
30
1.2849956508996286e-29
11
16.875000000040636
21
396.4999961852925
31
-4.440892098500623e-15
0
LINE
5
247
100
AcDbEntity
8
0
100
AcDbLine
10
16.875000000040636
20
396.4999961852925
30
-4.440892098500623e-15
11
28.125000000040661
21
396.49999618529205
31
4.0638007022777093e-30
0
LINE
5
248
100
AcDbEntity
8
0
100
AcDbLine
10
28.125000000040661
20
396.49999618529205
30
4.0638007022777093e-30
11
28.12500000004087
21
402.49999618529216
31
-3.944304526105059e-30
0
LINE
5
249
100
AcDbEntity
8
0
100
AcDbLine
10
28.12500000004087
20
402.49999618529216
30
-3.944304526105059e-30
11
39.375000000040906
21
402.49999618529182
31
-4.4408920985006135e-15
0
LINE
5
250
100
AcDbEntity
8
0
100
AcDbLine
10
39.375000000040906
20
402.49999618529182
30
-4.4408920985006135e-15
11
39.375000000040693
21
396.49999618529171
31
-4.4408920985006222e-15
0
LINE
5
251
100
AcDbEntity
8
0
100
AcDbLine
10
39.375000000040693
20
396.49999618529171
30
-4.4408920985006222e-15
11
51.500000000001343
21
396.49999618529102
31
-8.881784197001246e-15
0
LINE
5
252
100
AcDbEntity
8
0
100
AcDbLine
10
51.500000000001343
20
396.49999618529102
30
-8.881784197001246e-15
11
51.500000000001556
21
402.49999618529108
31
-1.9721522630525295e-30
0
LINE
5
253
100
AcDbEntity
8
0
100
AcDbLine
10
51.500000000001556
20
402.49999618529108
30
-1.9721522630525295e-30
11
57.500000000001819
21
402.49999618529091
31
-4.4408920985006246e-15
0
LINE
5
254
100
AcDbEntity
8
0
100
AcDbLine
10
57.500000000001819
20
402.49999618529091
30
-4.4408920985006246e-15
11
57.500000000001414
21
392.99999618530165
31
1.7749370367472766e-29
0
LINE
5
255
100
AcDbEntity
8
0
100
AcDbLine
10
57.500000000001414
20
392.99999618530165
30
1.7749370367472766e-29
11
51.500000000001393
21
392.99999618530188
31
4.4408920985006214e-15
0
LINE
5
256
100
AcDbEntity
8
0
100
AcDbLine
10
51.500000000001393
20
392.99999618530188
30
4.4408920985006214e-15
11
51.500000000001137
21
385.49999618530188
31
-4.4408920985006262e-15
0
LINE
5
257
100
AcDbEntity
8
0
100
AcDbLine
10
51.500000000037389
20
345.99999618558206
30
-4.4408920985006356e-15
11
57.499999999999467
21
345.9999961853016
31
4.4408920985006183e-15
0
LINE
5
258
100
AcDbEntity
8
0
100
AcDbLine
10
57.500000000000085
20
355.49999618530148
30
5.8963856410531076e-31
11
57.499999999998479
21
345.99999618530012
31
2.1835564069500452e-29
0
LINE
5
259
100
AcDbEntity
8
0
100
AcDbLine
10
57.499999999999403
20
370.49999618530001
30
5.9164567891575885e-30
11
57.500000000000348
21
362.9999961853016
31
-4.4408920985006277e-15
0
LINE
5
260
100
AcDbEntity
8
0
100
AcDbLine
10
57.499999999999865
20
385.49999618530012
30
4.4408920985006341e-15
11
57.499999999999631
21
377.99999618530001
31
-1.9476001994133702e-30
0
LINE
5
261
100
AcDbEntity
8
0
100
AcDbLine
10
-21.499999999962437
20
345.99999618563203
30
-9.624103043696344e-28
11
21.500000000037332
21
345.99999618560264
31
-4.5752715205256369e-29
0
ENDSEC
0
SECTION
2
OBJECTS
0
DICTIONARY
5
C
100
AcDbDictionary
3
ACAD_GROUP
350
D
3
ACAD_MLINESTYLE
350
17
0
DICTIONARY
5
D
100
AcDbDictionary
0
DICTIONARY
5
1A
330
C
100
AcDbDictionary
0
DICTIONARY
5
17
100
AcDbDictionary
0
ENDSEC
0
EOF
