0
SECTION
2
HEADER
9
$INSUNITS
70
4
9
$ACADVER
1
AC1014
9
$HANDSEED
5
FFFF
0
ENDSEC
0
SECTION
2
TABLES
0
TABLE
2
VPORT
5
8
100
AcDbSymbolTable
0
ENDTAB
0
TABLE
2
LTYPE
5
5
100
AcDbSymbolTable
0
LTYPE
5
14
100
AcDbSymbolTableRecord
100
AcDbLinetypeTableRecord
2
BYBLOCK
70
0
0
LTYPE
5
15
100
AcDbSymbolTableRecord
100
AcDbLinetypeTableRecord
2
BYLAYER
70
0
0
ENDTAB
0
TABLE
2
LAYER
5
2
100
AcDbSymbolTable
70
2
0
LAYER
5
50
100
AcDbSymbolTableRecord
100
AcDbLayerTableRecord
2
0
70
0
6
CONTINUOUS
0
ENDTAB
0
TABLE
2
STYLE
5
3
100
AcDbSymbolTable
70
1
0
STYLE
5
11
100
AcDbSymbolTableRecord
100
AcDbTextStyleTableRecord
2
STANDARD
70
0
0
ENDTAB
0
TABLE
2
VIEW
5
6
100
AcDbSymbolTable
70
0
0
ENDTAB
0
TABLE
2
UCS
5
7
100
AcDbSymbolTable
70
0
0
ENDTAB
0
TABLE
2
APPID
5
9
100
AcDbSymbolTable
70
2
0
APPID
5
12
100
AcDbSymbolTableRecord
100
AcDbRegAppTableRecord
2
ACAD
70
0
0
ENDTAB
0
TABLE
2
DIMSTYLE
5
A
100
AcDbSymbolTable
70
1
0
ENDTAB
0
TABLE
2
BLOCK_RECORD
5
1
100
AcDbSymbolTable
70
1
0
BLOCK_RECORD
5
1F
100
AcDbSymbolTableRecord
100
AcDbBlockTableRecord
2
*MODEL_SPACE
0
BLOCK_RECORD
5
1B
100
AcDbSymbolTableRecord
100
AcDbBlockTableRecord
2
*PAPER_SPACE
0
ENDTAB
0
ENDSEC
0
SECTION
2
BLOCKS
0
BLOCK
5
20
100
AcDbEntity
100
AcDbBlockBegin
2
*MODEL_SPACE
0
ENDBLK
5
21
100
AcDbEntity
100
AcDbBlockEnd
0
BLOCK
5
1C
100
AcDbEntity
100
AcDbBlockBegin
2
*PAPER_SPACE
0
ENDBLK
5
1D
100
AcDbEntity
100
AcDbBlockEnd
0
ENDSEC
0
SECTION
2
ENTITIES
0
LWPOLYLINE
5
100
100
AcDbEntity
8
0
100
AcDbPolyline
90
56
70
1
43
0.0
10
3.7500000000049982
20
51.500000000011795
10
3.7500000000050342
20
57.500000000011759
10
-3.7499999999949889
20
57.500000000011823
10
-3.7499999999950262
20
51.500000000011852
10
-11.249999999995062
20
51.500000000011916
10
-11.249999999995024
20
57.500000000011873
10
-27.499999999994476
20
57.500000000012299
10
-27.499999999994614
20
39.374999999972722
10
-21.499999999994618
20
39.374999999972658
10
-21.499999999994714
20
28.124999999972729
10
-27.49999999999471
20
28.124999999972786
10
-27.499999999994799
20
16.874999999972864
10
-21.499999999994802
20
16.874999999972808
10
-21.499999999994891
20
5.6249999999728768
10
-27.499999999994888
20
5.6249999999729354
10
-27.499999999994976
20
-5.6250000000269953
10
-21.499999999994984
20
-5.6250000000270539
10
-21.499999999995076
20
-16.875000000026983
10
-27.499999999995069
20
-16.875000000026922
10
-27.499999999995161
20
-28.125000000026855
10
-21.499999999995161
20
-28.125000000026912
10
-21.499999999995254
20
-39.375000000026844
10
-27.499999999995246
20
-39.37500000002678
10
-27.499999999995339
20
-51.499999999987324
10
-21.499999999995694
20
-51.499999999987587
10
-21.499999999995737
20
-57.499999999987558
10
-11.249999999995728
20
-57.499999999987629
10
-11.249999999995691
20
-51.499999999987658
10
-3.7499999999956488
20
-51.499999999987729
10
-3.7499999999956852
20
-57.499999999987693
10
3.7500000000043383
20
-57.49999999998775
10
3.7500000000043752
20
-51.499999999987779
10
11.250000000004405
20
-51.499999999987828
10
11.25000000000437
20
-57.499999999987793
10
21.500000000004846
20
-57.499999999987878
10
21.500000000004885
20
-51.499999999987907
10
27.500000000004995
20
-51.499999999987736
10
27.500000000005084
20
-39.375000000027306
10
21.500000000005095
20
-39.375000000027256
10
21.500000000005191
20
-28.125000000027324
10
27.500000000005187
20
-28.125000000027384
10
27.500000000005276
20
-16.875000000027459
10
21.500000000005279
20
-16.875000000027399
10
21.500000000005379
20
-5.6250000000274696
10
27.500000000005372
20
-5.6250000000275282
10
27.500000000005443
20
5.6249999999724025
10
21.500000000005453
20
5.6249999999724611
10
21.500000000005549
20
16.874999999972388
10
27.500000000005546
20
16.874999999972328
10
27.500000000005635
20
28.124999999972253
10
21.500000000005638
20
28.12499999997231
10
21.500000000005727
20
39.374999999972246
10
27.500000000005723
20
39.374999999972189
10
27.500000000005869
20
57.500000000011759
10
11.250000000005063
20
57.500000000011696
10
11.250000000005034
20
51.500000000011738
0
CIRCLE
5
101
100
AcDbEntity
8
0
100
AcDbCircle
10
5.2876990635849811e-12
20
-17.499999999987743
30
-7.1054273576010019e-14
40
1.499999999999998
210
0
220
-0
230
1
0
CIRCLE
5
102
100
AcDbEntity
8
0
100
AcDbCircle
10
-17.499999999994593
20
1.2285086764396422e-11
30
-7.1054273576010019e-14
40
1.4999999999999989
210
-6.3108872417679557e-30
220
6.3108872417680622e-30
230
1
0
CIRCLE
5
103
100
AcDbEntity
8
0
100
AcDbCircle
10
17.500000000005382
20
1.2014460017269551e-11
30
-7.1054273576010019e-14
40
1.4999999999999989
210
-6.3108872417679557e-30
220
6.3108872417680622e-30
230
1
0
CIRCLE
5
104
100
AcDbEntity
8
0
100
AcDbCircle
10
5.4994417434200267e-12
20
17.500000000012037
30
-7.1054273576010019e-14
40
1.499999999999998
210
0
220
-0
230
1
0
CIRCLE
5
105
100
AcDbEntity
8
0
100
AcDbCircle
10
5.3924988375532518e-12
20
1.2145887610246801e-11
30
-7.1054273576010019e-14
40
12.749999999999988
210
-6.3108872417680034e-30
220
3.7793117512944208e-44
230
1
0
ENDSEC
0
SECTION
2
OBJECTS
0
DICTIONARY
5
C
100
AcDbDictionary
3
ACAD_GROUP
350
D
3
ACAD_MLINESTYLE
350
17
0
DICTIONARY
5
D
100
AcDbDictionary
0
DICTIONARY
5
1A
330
C
100
AcDbDictionary
0
DICTIONARY
5
17
100
AcDbDictionary
0
ENDSEC
0
EOF
