0
SECTION
2
HEADER
9
$INSUNITS
70
4
9
$ACADVER
1
AC1014
9
$HANDSEED
5
FFFF
0
ENDSEC
0
SECTION
2
TABLES
0
TABLE
2
VPORT
5
8
100
AcDbSymbolTable
0
ENDTAB
0
TABLE
2
LTYPE
5
5
100
AcDbSymbolTable
0
LTYPE
5
14
100
AcDbSymbolTableRecord
100
AcDbLinetypeTableRecord
2
BYBLOCK
70
0
0
LTYPE
5
15
100
AcDbSymbolTableRecord
100
AcDbLinetypeTableRecord
2
BYLAYER
70
0
0
ENDTAB
0
TABLE
2
LAYER
5
2
100
AcDbSymbolTable
70
2
0
LAYER
5
50
100
AcDbSymbolTableRecord
100
AcDbLayerTableRecord
2
0
70
0
6
CONTINUOUS
0
ENDTAB
0
TABLE
2
STYLE
5
3
100
AcDbSymbolTable
70
1
0
STYLE
5
11
100
AcDbSymbolTableRecord
100
AcDbTextStyleTableRecord
2
STANDARD
70
0
0
ENDTAB
0
TABLE
2
VIEW
5
6
100
AcDbSymbolTable
70
0
0
ENDTAB
0
TABLE
2
UCS
5
7
100
AcDbSymbolTable
70
0
0
ENDTAB
0
TABLE
2
APPID
5
9
100
AcDbSymbolTable
70
2
0
APPID
5
12
100
AcDbSymbolTableRecord
100
AcDbRegAppTableRecord
2
ACAD
70
0
0
ENDTAB
0
TABLE
2
DIMSTYLE
5
A
100
AcDbSymbolTable
70
1
0
ENDTAB
0
TABLE
2
BLOCK_RECORD
5
1
100
AcDbSymbolTable
70
1
0
BLOCK_RECORD
5
1F
100
AcDbSymbolTableRecord
100
AcDbBlockTableRecord
2
*MODEL_SPACE
0
BLOCK_RECORD
5
1B
100
AcDbSymbolTableRecord
100
AcDbBlockTableRecord
2
*PAPER_SPACE
0
ENDTAB
0
ENDSEC
0
SECTION
2
BLOCKS
0
BLOCK
5
20
100
AcDbEntity
100
AcDbBlockBegin
2
*MODEL_SPACE
0
ENDBLK
5
21
100
AcDbEntity
100
AcDbBlockEnd
0
BLOCK
5
1C
100
AcDbEntity
100
AcDbBlockBegin
2
*PAPER_SPACE
0
ENDBLK
5
1D
100
AcDbEntity
100
AcDbBlockEnd
0
ENDSEC
0
SECTION
2
ENTITIES
0
CIRCLE
5
100
100
AcDbEntity
8
0
100
AcDbCircle
10
-13.316525280479713
20
198.91572287678699
30
1.7763568394002505e-14
40
1.7500000000000007
210
1.1073198832690609e-32
220
2.2757162717510737e-46
230
1
0
CIRCLE
5
101
100
AcDbEntity
8
0
100
AcDbCircle
10
2.6834747195199693
20
214.9157228767873
30
0
40
1.7500000000000004
210
-8.7534414319958287e-32
220
-1.7989696926423383e-45
230
1
0
CIRCLE
5
102
100
AcDbEntity
8
0
100
AcDbCircle
10
2.6834747195206261
20
182.91572287678733
30
0
40
1.7500000000000004
210
-8.7534414319958287e-32
220
-1.7989696926423383e-45
230
1
0
CIRCLE
5
103
100
AcDbEntity
8
0
100
AcDbCircle
10
18.683474719520294
20
198.9157228767877
30
0
40
1.7500000000000007
210
1.1073198832690609e-32
220
2.2757162717510737e-46
230
1
0
LINE
5
104
100
AcDbEntity
8
0
100
AcDbLine
10
14.23730028131699
20
255.46954843858407
30
0
11
14.237300281317113
21
249.46954843858407
31
0
0
LINE
5
105
100
AcDbEntity
8
0
100
AcDbLine
10
14.237300281317113
20
249.46954843858407
30
0
11
6.7373002813171166
21
249.46954843858393
31
-5.392008099887303e-32
0
LINE
5
106
100
AcDbEntity
8
0
100
AcDbLine
10
6.7373002813171166
20
249.46954843858393
30
-5.392008099887303e-32
11
6.7373002813169922
21
255.46954843858396
31
0
0
LINE
5
107
100
AcDbEntity
8
0
100
AcDbLine
10
6.7373002813169922
20
255.46954843858396
30
0
11
-0.7626997186830109
21
255.46954843858379
31
-5.3920080998424614e-32
0
LINE
5
108
100
AcDbEntity
8
0
100
AcDbLine
10
-0.7626997186830109
20
255.46954843858379
30
-5.3920080998424614e-32
11
-0.76269971868288777
21
249.46954843858379
31
1.7763568394002505e-14
0
LINE
5
109
100
AcDbEntity
8
0
100
AcDbLine
10
-0.76269971868288777
20
249.46954843858379
30
1.7763568394002505e-14
11
-8.262699718682887
21
249.46954843858364
31
-5.3920080998648822e-32
0
LINE
5
110
100
AcDbEntity
8
0
100
AcDbLine
10
-8.262699718682887
20
249.46954843858364
30
-5.3920080998648822e-32
11
-8.2626997186830096
21
255.46954843858367
31
0
0
LINE
5
111
100
AcDbEntity
8
0
100
AcDbLine
10
-8.2626997186830096
20
255.46954843858367
30
0
11
-15.762699718683015
21
255.4695484385835
31
1.7763568394002505e-14
0
LINE
5
112
100
AcDbEntity
8
0
100
AcDbLine
10
-15.762699718683015
20
255.4695484385835
30
1.7763568394002505e-14
11
-15.762699718682896
21
249.4695484385835
31
1.7763568394002505e-14
0
LINE
5
113
100
AcDbEntity
8
0
100
AcDbLine
10
-15.762699718682896
20
249.4695484385835
30
1.7763568394002505e-14
11
-27.316525280479542
21
249.46954843858325
31
-1.317635706655045e-31
0
LINE
5
114
100
AcDbEntity
8
0
100
AcDbLine
10
-27.316525280479542
20
249.46954843858325
30
-1.317635706655045e-31
11
-27.316525280479077
21
168.91572287678684
31
0
0
LINE
5
115
100
AcDbEntity
8
0
100
AcDbLine
10
-27.316525280479077
20
168.91572287678684
30
0
11
32.683474719520937
21
168.9157228767881
31
-1.7763568394002508e-14
0
SPLINE
5
116
100
AcDbEntity
8
0
100
AcDbSpline
70
4
71
5
72
21
73
15
74
0
42
0.000000001
43
0.0000000001
44
0.0000000001
40
-1
40
-1
40
-1
40
-1
40
-1
40
-1
40
-0.89999999999999991
40
-0.79999999999999993
40
-0.69999999999999996
40
-0.59999999999999998
40
-0.5
40
-0.40000000000000002
40
-0.30000000000000004
40
-0.20000000000000001
40
-0.10000000000000001
40
0
40
0
40
0
40
0
40
0
40
0
41
1
41
1
41
1
41
1
41
1
41
1
41
1
41
1
41
1
41
1
41
1
41
1
41
1
41
1
41
1
10
32.68347471952093
20
168.91572287678804
30
0
10
33.498527038102416
20
169.26436807506326
30
0
10
35.103832203333567
20
169.98360916666755
30
0
10
37.437393815403965
20
171.12832087112798
30
0
10
40.397549402400436
20
172.78848743994686
30
0
10
43.828534632165528
20
175.10198016994678
30
0
10
46.966251633202361
20
177.67505267955514
30
0
10
49.78676748753162
20
180.52888865308859
30
-1.7763568394002505e-14
10
52.27701674558017
20
183.67505267951429
30
0
10
54.450064856916292
20
187.10198016987511
30
0
10
56.329844739514641
20
190.78848743986322
30
0
10
57.618301242398793
20
193.9283208710591
30
0
10
58.471198697731843
20
196.38360916662629
30
0
10
58.990199577433046
20
198.06436807504866
30
0
10
59.237300281316934
20
198.91572287678883
30
0
0
LINE
5
117
100
AcDbEntity
8
0
100
AcDbLine
10
59.237300281316941
20
198.91572287678886
30
0
11
59.237300281318056
21
204.46954843858506
31
-1.5777218104420236e-29
0
LINE
5
118
100
AcDbEntity
8
0
100
AcDbLine
10
59.237300281318056
20
204.46954843858506
30
-1.5777218104420236e-29
11
53.237300281318049
21
204.46954843858495
31
-1.7763568394002505e-14
0
LINE
5
119
100
AcDbEntity
8
0
100
AcDbLine
10
53.237300281318049
20
204.46954843858495
30
-1.7763568394002505e-14
11
53.2373002813179
21
211.96954843858492
31
0
0
LINE
5
120
100
AcDbEntity
8
0
100
AcDbLine
10
53.2373002813179
20
211.96954843858492
30
0
11
59.237300281317893
21
211.96954843858504
31
4.3136064797999806e-32
0
LINE
5
121
100
AcDbEntity
8
0
100
AcDbLine
10
59.237300281317893
20
211.96954843858504
30
4.3136064797999806e-32
11
59.237300281317729
21
219.46954843858506
31
0
0
LINE
5
122
100
AcDbEntity
8
0
100
AcDbLine
10
59.237300281317729
20
219.46954843858506
30
0
11
53.237300281317737
21
219.46954843858495
31
-4.3136064799345052e-32
0
LINE
5
123
100
AcDbEntity
8
0
100
AcDbLine
10
53.237300281317737
20
219.46954843858495
30
-4.3136064799345052e-32
11
53.237300281317587
21
226.96954843858492
31
-7.8886090522101181e-30
0
LINE
5
124
100
AcDbEntity
8
0
100
AcDbLine
10
53.237300281317587
20
226.96954843858492
30
-7.8886090522101181e-30
11
59.23730028131758
21
226.96954843858504
31
4.3136064799345052e-32
0
LINE
5
125
100
AcDbEntity
8
0
100
AcDbLine
10
59.23730028131758
20
226.96954843858504
30
4.3136064799345052e-32
11
59.237300281317431
21
234.46954843858498
31
-7.8886090522101181e-30
0
LINE
5
126
100
AcDbEntity
8
0
100
AcDbLine
10
59.237300281317431
20
234.46954843858498
30
-7.8886090522101181e-30
11
53.237300281317431
21
234.46954843858489
31
-1.7763568394002505e-14
0
LINE
5
127
100
AcDbEntity
8
0
100
AcDbLine
10
53.237300281317431
20
234.46954843858489
30
-1.7763568394002505e-14
11
53.237300281317282
21
241.96954843858492
31
-1.7763568394002505e-14
0
LINE
5
128
100
AcDbEntity
8
0
100
AcDbLine
10
53.237300281317282
20
241.96954843858492
30
-1.7763568394002505e-14
11
59.237300281317275
21
241.96954843858504
31
-1.7763568394002505e-14
0
LINE
5
129
100
AcDbEntity
8
0
100
AcDbLine
10
59.237300281317275
20
241.96954843858504
30
-1.7763568394002505e-14
11
59.237300281317118
21
249.46954843858498
31
-1.7763568394002505e-14
0
LINE
5
130
100
AcDbEntity
8
0
100
AcDbLine
10
59.237300281317118
20
249.46954843858498
30
-1.7763568394002505e-14
11
51.737300281317118
21
249.46954843858487
31
-1.7763568394002505e-14
0
LINE
5
131
100
AcDbEntity
8
0
100
AcDbLine
10
51.737300281317118
20
249.46954843858487
30
-1.7763568394002505e-14
11
51.737300281316998
21
255.46954843858487
31
0
0
LINE
5
132
100
AcDbEntity
8
0
100
AcDbLine
10
51.737300281316998
20
255.46954843858487
30
0
11
44.237300281316998
21
255.46954843858472
31
-5.3920080998648822e-32
0
LINE
5
133
100
AcDbEntity
8
0
100
AcDbLine
10
44.237300281316998
20
255.46954843858472
30
-5.3920080998648822e-32
11
44.237300281317118
21
249.4695484385847
31
0
0
LINE
5
134
100
AcDbEntity
8
0
100
AcDbLine
10
44.237300281317118
20
249.4695484385847
30
0
11
36.737300281317125
21
249.46954843858458
31
-5.3920080999321445e-32
0
LINE
5
135
100
AcDbEntity
8
0
100
AcDbLine
10
36.737300281317125
20
249.46954843858458
30
-5.3920080999321445e-32
11
36.737300281317005
21
255.46954843858458
31
0
0
LINE
5
136
100
AcDbEntity
8
0
100
AcDbLine
10
36.737300281317005
20
255.46954843858458
30
0
11
29.237300281317005
21
255.46954843858444
31
1.7763568394002505e-14
0
LINE
5
137
100
AcDbEntity
8
0
100
AcDbLine
10
29.237300281317005
20
255.46954843858444
30
1.7763568394002505e-14
11
29.237300281317125
21
249.46954843858441
31
1.7763568394002505e-14
0
LINE
5
138
100
AcDbEntity
8
0
100
AcDbLine
10
29.237300281317125
20
249.46954843858441
30
1.7763568394002505e-14
11
21.737300281317118
21
249.4695484385843
31
-5.3920080998200406e-32
0
LINE
5
139
100
AcDbEntity
8
0
100
AcDbLine
10
21.737300281317118
20
249.4695484385843
30
-5.3920080998200406e-32
11
21.737300281316998
21
255.46954843858424
31
0
0
LINE
5
140
100
AcDbEntity
8
0
100
AcDbLine
10
21.737300281316998
20
255.46954843858424
30
0
11
14.23730028131699
21
255.46954843858407
31
0
0
ENDSEC
0
SECTION
2
OBJECTS
0
DICTIONARY
5
C
100
AcDbDictionary
3
ACAD_GROUP
350
D
3
ACAD_MLINESTYLE
350
17
0
DICTIONARY
5
D
100
AcDbDictionary
0
DICTIONARY
5
1A
330
C
100
AcDbDictionary
0
DICTIONARY
5
17
100
AcDbDictionary
0
ENDSEC
0
EOF
