0
SECTION
2
HEADER
9
$INSUNITS
70
4
9
$ACADVER
1
AC1014
9
$HANDSEED
5
FFFF
0
ENDSEC
0
SECTION
2
TABLES
0
TABLE
2
VPORT
5
8
100
AcDbSymbolTable
0
ENDTAB
0
TABLE
2
LTYPE
5
5
100
AcDbSymbolTable
0
LTYPE
5
14
100
AcDbSymbolTableRecord
100
AcDbLinetypeTableRecord
2
BYBLOCK
70
0
0
LTYPE
5
15
100
AcDbSymbolTableRecord
100
AcDbLinetypeTableRecord
2
BYLAYER
70
0
0
ENDTAB
0
TABLE
2
LAYER
5
2
100
AcDbSymbolTable
70
2
0
LAYER
5
50
100
AcDbSymbolTableRecord
100
AcDbLayerTableRecord
2
0
70
0
6
CONTINUOUS
0
ENDTAB
0
TABLE
2
STYLE
5
3
100
AcDbSymbolTable
70
1
0
STYLE
5
11
100
AcDbSymbolTableRecord
100
AcDbTextStyleTableRecord
2
STANDARD
70
0
0
ENDTAB
0
TABLE
2
VIEW
5
6
100
AcDbSymbolTable
70
0
0
ENDTAB
0
TABLE
2
UCS
5
7
100
AcDbSymbolTable
70
0
0
ENDTAB
0
TABLE
2
APPID
5
9
100
AcDbSymbolTable
70
2
0
APPID
5
12
100
AcDbSymbolTableRecord
100
AcDbRegAppTableRecord
2
ACAD
70
0
0
ENDTAB
0
TABLE
2
DIMSTYLE
5
A
100
AcDbSymbolTable
70
1
0
ENDTAB
0
TABLE
2
BLOCK_RECORD
5
1
100
AcDbSymbolTable
70
1
0
BLOCK_RECORD
5
1F
100
AcDbSymbolTableRecord
100
AcDbBlockTableRecord
2
*MODEL_SPACE
0
BLOCK_RECORD
5
1B
100
AcDbSymbolTableRecord
100
AcDbBlockTableRecord
2
*PAPER_SPACE
0
ENDTAB
0
ENDSEC
0
SECTION
2
BLOCKS
0
BLOCK
5
20
100
AcDbEntity
100
AcDbBlockBegin
2
*MODEL_SPACE
0
ENDBLK
5
21
100
AcDbEntity
100
AcDbBlockEnd
0
BLOCK
5
1C
100
AcDbEntity
100
AcDbBlockBegin
2
*PAPER_SPACE
0
ENDBLK
5
1D
100
AcDbEntity
100
AcDbBlockEnd
0
ENDSEC
0
SECTION
2
ENTITIES
0
LWPOLYLINE
5
100
100
AcDbEntity
8
0
100
AcDbPolyline
90
52
70
1
43
0.0
10
-69.631836496867706
20
480.15938566698736
10
-69.631836496867834
20
469.35876999866588
10
-75.631836496867692
20
469.35876999866582
10
-75.631836496867763
20
461.85876999866588
10
-69.631836496867919
20
461.85876999866582
10
-69.631836496868061
20
451.85876999866571
10
-75.631836496867905
20
451.85876999866571
10
-75.631836496867962
20
445.05815433034451
10
78.368163503128386
20
445.05815433034411
10
78.368163503128429
20
451.85876999866531
10
72.368163503128585
20
451.85876999866531
10
72.368163503128727
20
461.85876999866537
10
78.368163503128571
20
461.85876999866537
10
78.368163503128642
20
469.35876999866537
10
72.368163503128798
20
469.35876999866537
10
72.36816350312894
20
480.15938566698696
10
65.118163503128969
20
480.15938566698674
10
65.11816350312904
20
486.15938566698674
10
57.618163503129225
20
486.15938566698674
10
57.618163503129153
20
480.15938566698674
10
50.118163503129338
20
480.15938566698674
10
50.118163503129409
20
486.15938566698679
10
42.618163503129594
20
486.15938566698674
10
42.618163503129523
20
480.15938566698674
10
35.118163503129715
20
480.15938566698679
10
35.118163503129793
20
486.15938566698679
10
27.618163503129978
20
486.15938566698674
10
27.61816350312991
20
480.15938566698679
10
20.118163503130098
20
480.15938566698679
10
20.11816350313017
20
486.15938566698679
10
12.618163503130354
20
486.15938566698679
10
12.618163503130281
20
480.15938566698685
10
5.1181635031304715
20
480.15938566698685
10
5.1181635031305426
20
486.15938566698685
10
-2.3818364968692696
20
486.15938566698685
10
-2.3818364968693428
20
480.15938566698685
10
-9.8818364968691554
20
480.15938566698696
10
-9.8818364968690826
20
486.15938566698696
10
-17.381836496868896
20
486.15938566698696
10
-17.381836496868971
20
480.15938566698685
10
-24.881836496868782
20
480.15938566698696
10
-24.881836496868708
20
486.15938566698696
10
-32.381836496868523
20
486.15938566698696
10
-32.381836496868594
20
480.15938566698696
10
-39.881836496868409
20
480.15938566698696
10
-39.881836496868338
20
486.15938566698702
10
-47.381836496868146
20
486.15938566698702
10
-47.381836496868232
20
480.15938566698702
10
-54.88183649686804
20
480.15938566698702
10
-54.881836496867962
20
486.15938566698708
10
-62.381836496867777
20
486.15938566698702
10
-62.381836496867855
20
480.15938566698702
0
ENDSEC
0
SECTION
2
OBJECTS
0
DICTIONARY
5
C
100
AcDbDictionary
3
ACAD_GROUP
350
D
3
ACAD_MLINESTYLE
350
17
0
DICTIONARY
5
D
100
AcDbDictionary
0
DICTIONARY
5
1A
330
C
100
AcDbDictionary
0
DICTIONARY
5
17
100
AcDbDictionary
0
ENDSEC
0
EOF
