0
SECTION
2
HEADER
9
$INSUNITS
70
4
9
$ACADVER
1
AC1014
9
$HANDSEED
5
FFFF
0
ENDSEC
0
SECTION
2
TABLES
0
TABLE
2
VPORT
5
8
100
AcDbSymbolTable
0
ENDTAB
0
TABLE
2
LTYPE
5
5
100
AcDbSymbolTable
0
LTYPE
5
14
100
AcDbSymbolTableRecord
100
AcDbLinetypeTableRecord
2
BYBLOCK
70
0
0
LTYPE
5
15
100
AcDbSymbolTableRecord
100
AcDbLinetypeTableRecord
2
BYLAYER
70
0
0
ENDTAB
0
TABLE
2
LAYER
5
2
100
AcDbSymbolTable
70
2
0
LAYER
5
50
100
AcDbSymbolTableRecord
100
AcDbLayerTableRecord
2
0
70
0
6
CONTINUOUS
0
ENDTAB
0
TABLE
2
STYLE
5
3
100
AcDbSymbolTable
70
1
0
STYLE
5
11
100
AcDbSymbolTableRecord
100
AcDbTextStyleTableRecord
2
STANDARD
70
0
0
ENDTAB
0
TABLE
2
VIEW
5
6
100
AcDbSymbolTable
70
0
0
ENDTAB
0
TABLE
2
UCS
5
7
100
AcDbSymbolTable
70
0
0
ENDTAB
0
TABLE
2
APPID
5
9
100
AcDbSymbolTable
70
2
0
APPID
5
12
100
AcDbSymbolTableRecord
100
AcDbRegAppTableRecord
2
ACAD
70
0
0
ENDTAB
0
TABLE
2
DIMSTYLE
5
A
100
AcDbSymbolTable
70
1
0
ENDTAB
0
TABLE
2
BLOCK_RECORD
5
1
100
AcDbSymbolTable
70
1
0
BLOCK_RECORD
5
1F
100
AcDbSymbolTableRecord
100
AcDbBlockTableRecord
2
*MODEL_SPACE
0
BLOCK_RECORD
5
1B
100
AcDbSymbolTableRecord
100
AcDbBlockTableRecord
2
*PAPER_SPACE
0
ENDTAB
0
ENDSEC
0
SECTION
2
BLOCKS
0
BLOCK
5
20
100
AcDbEntity
100
AcDbBlockBegin
2
*MODEL_SPACE
0
ENDBLK
5
21
100
AcDbEntity
100
AcDbBlockEnd
0
BLOCK
5
1C
100
AcDbEntity
100
AcDbBlockBegin
2
*PAPER_SPACE
0
ENDBLK
5
1D
100
AcDbEntity
100
AcDbBlockEnd
0
ENDSEC
0
SECTION
2
ENTITIES
0
LINE
5
100
100
AcDbEntity
8
0
100
AcDbLine
10
-38.03209081358608
20
489.15944613514461
30
8.8817841970012523e-15
11
-38.032090813586017
21
483.15944613514574
31
8.8817841970012208e-15
0
LINE
5
101
100
AcDbEntity
8
0
100
AcDbLine
10
-38.032090813586017
20
483.15944613514574
30
8.8817841970012208e-15
11
-44.032090813585953
21
483.15944613514608
31
8.8817841970012397e-15
0
LINE
5
102
100
AcDbEntity
8
0
100
AcDbLine
10
-44.032090813585953
20
483.15944613514608
30
8.8817841970012397e-15
11
-44.032090813585981
21
470.8588002327395
31
-1.2621774483536189e-28
0
LINE
5
103
100
AcDbEntity
8
0
100
AcDbLine
10
-44.032090813585981
20
470.8588002327395
30
-1.2621774483536189e-28
11
-38.032090813586052
21
470.85880023273916
31
1.1994635557675653e-29
0
LINE
5
104
100
AcDbEntity
8
0
100
AcDbLine
10
-38.032090813586052
20
470.85880023273916
30
1.1994635557675653e-29
11
-38.032090813586066
21
463.35880023273938
31
8.8817841970011892e-15
0
LINE
5
105
100
AcDbEntity
8
0
100
AcDbLine
10
-38.032090813586066
20
463.35880023273938
30
8.8817841970011892e-15
11
-44.032090813586002
21
463.35880023273972
31
-1.1994635557675653e-29
0
LINE
5
106
100
AcDbEntity
8
0
100
AcDbLine
10
-44.032090813586002
20
463.35880023273972
30
-1.1994635557675653e-29
11
-44.032090813586031
21
453.35880023274001
31
-6.3108872417680944e-29
0
LINE
5
107
100
AcDbEntity
8
0
100
AcDbLine
10
-44.032090813586031
20
453.35880023274001
30
-6.3108872417680944e-29
11
-38.032090813586095
21
453.35880023273955
31
1.1994635557675653e-29
0
LINE
5
108
100
AcDbEntity
8
0
100
AcDbLine
10
-38.032090813586095
20
453.35880023273955
30
1.1994635557675653e-29
11
-38.032090813586116
21
445.05815433033274
31
-6.3108872417680944e-29
0
LINE
5
109
100
AcDbEntity
8
0
100
AcDbLine
10
-38.032090813586116
20
445.05815433033274
30
-6.3108872417680944e-29
11
-44.032090813586045
21
445.05815433033325
31
-1.9844380448425503e-29
0
SPLINE
5
110
100
AcDbEntity
8
0
100
AcDbSpline
70
4
71
5
72
21
73
15
74
0
42
0.000000001
43
0.0000000001
44
0.0000000001
40
0
40
0
40
0
40
0
40
0
40
0
40
0.10000000000000001
40
0.20000000000000001
40
0.30000000000000004
40
0.40000000000000002
40
0.5
40
0.59999999999999998
40
0.69999999999999996
40
0.79999999999999993
40
0.89999999999999991
40
1
40
1
40
1
40
1
40
1
40
1
41
1
41
1
41
1
41
1
41
1
41
1
41
1
41
1
41
1
41
1
41
1
41
1
41
1
41
1
41
1
10
-44.032090813586052
20
445.05815433033331
30
0
10
-43.672706514763078
20
444.43534999558375
30
0
10
-42.945150198712092
20
443.20710451446257
30
0
10
-41.827454072509063
20
441.41682288804196
30
0
10
-40.283588870050465
20
439.13569343911951
30
8.8817841970012523e-15
10
-38.258201056814379
20
436.47308629120113
30
-8.8817841970012523e-15
10
-36.128149260911925
20
434.01727917528484
30
0
10
-33.883961327799625
20
431.78698762093808
30
8.8817841970012523e-15
10
-31.518887920380081
20
429.79554728663038
30
0
10
-29.035402830151298
20
428.03807033846402
30
8.8817841970012523e-15
10
-26.441503311563611
20
426.49875542399792
30
0
10
-24.284817947925351
20
425.42846494473042
30
0
10
-22.624269265221081
20
424.71077699556963
30
0
10
-21.498419469699044
20
424.26949855117834
30
8.8817841970012523e-15
10
-20.930790259994652
20
424.05815433033132
30
8.8817841970012523e-15
0
LINE
5
111
100
AcDbEntity
8
0
100
AcDbLine
10
-20.930790259994652
20
424.05815433033126
30
8.8817841970012539e-15
11
21.069209740004894
21
424.05815433032876
31
8.8817841970014069e-15
0
LINE
5
112
100
AcDbEntity
8
0
100
AcDbLine
10
21.069209740004894
20
424.05815433032876
30
8.8817841970014069e-15
11
21.069209740005064
21
489.15944613514199
31
0
0
LINE
5
113
100
AcDbEntity
8
0
100
AcDbLine
10
21.069209740005064
20
489.15944613514199
30
0
11
7.2685594632093187
21
489.15944613514279
31
-8.3199627855464292e-29
0
LINE
5
114
100
AcDbEntity
8
0
100
AcDbLine
10
7.2685594632093187
20
489.15944613514279
30
-8.3199627855464292e-29
11
7.2685594632093009
21
483.15944613514296
31
-3.1554436208840472e-29
0
LINE
5
115
100
AcDbEntity
8
0
100
AcDbLine
10
7.2685594632093009
20
483.15944613514296
30
-3.1554436208840472e-29
11
-0.23144053679059584
21
483.15944613514341
31
-2.9291398354275628e-29
0
LINE
5
116
100
AcDbEntity
8
0
100
AcDbLine
10
-0.23144053679059584
20
483.15944613514341
30
-2.9291398354275628e-29
11
-0.23144053679058033
21
489.1594461351433
31
3.1554436208840472e-29
0
LINE
5
117
100
AcDbEntity
8
0
100
AcDbLine
10
-0.23144053679058033
20
489.1594461351433
30
3.1554436208840472e-29
11
-7.7314405367904762
21
489.1594461351437
31
-2.7319246091223098e-29
0
LINE
5
118
100
AcDbEntity
8
0
100
AcDbLine
10
-7.7314405367904762
20
489.1594461351437
30
-2.7319246091223098e-29
11
-7.7314405367904921
21
483.15944613514398
31
-3.1554436208840472e-29
0
LINE
5
119
100
AcDbEntity
8
0
100
AcDbLine
10
-7.7314405367904921
20
483.15944613514398
30
-3.1554436208840472e-29
11
-15.231440536790387
21
483.15944613514438
31
-2.9291398354275628e-29
0
LINE
5
120
100
AcDbEntity
8
0
100
AcDbLine
10
-15.231440536790387
20
483.15944613514438
30
-2.9291398354275628e-29
11
-15.231440536790375
21
489.15944613514421
31
3.1554436208840472e-29
0
LINE
5
121
100
AcDbEntity
8
0
100
AcDbLine
10
-15.231440536790375
20
489.15944613514421
30
3.1554436208840472e-29
11
-22.731440536790274
21
489.15944613514461
31
-2.9291398354275628e-29
0
LINE
5
122
100
AcDbEntity
8
0
100
AcDbLine
10
-22.731440536790274
20
489.15944613514461
30
-2.9291398354275628e-29
11
-22.731440536790291
21
483.15944613514483
31
-3.1554436208840472e-29
0
LINE
5
123
100
AcDbEntity
8
0
100
AcDbLine
10
-22.731440536790291
20
483.15944613514483
30
-3.1554436208840472e-29
11
-30.231440536790185
21
483.15944613514523
31
-1.9430637039020155e-29
0
LINE
5
124
100
AcDbEntity
8
0
100
AcDbLine
10
-30.231440536790185
20
483.15944613514523
30
-1.9430637039020155e-29
11
-30.23144053679016
21
489.15944613514506
31
3.1554436208840472e-29
0
LINE
5
125
100
AcDbEntity
8
0
100
AcDbLine
10
-30.23144053679016
20
489.15944613514506
30
3.1554436208840472e-29
11
-38.03209081358608
21
489.15944613514461
31
8.8817841970012523e-15
0
CIRCLE
5
126
100
AcDbEntity
8
0
100
AcDbCircle
10
0.069209740004170087
20
433.05815433032996
30
0
40
1.7499999999999962
210
-5.000793242198054e-30
220
-6.3108872417680804e-30
230
1
0
CIRCLE
5
127
100
AcDbEntity
8
0
100
AcDbCircle
10
12.069209740004174
20
445.05815433032893
30
0
40
1.7499999999999951
210
-3.8175018843665363e-30
220
-6.3108872417680839e-30
230
1
0
CIRCLE
5
128
100
AcDbEntity
8
0
100
AcDbCircle
10
-11.930790259995767
20
445.05815433033041
30
0
40
1.7499999999999962
210
-5.000793242198054e-30
220
-6.3108872417680804e-30
230
1
0
CIRCLE
5
129
100
AcDbEntity
8
0
100
AcDbCircle
10
0.069209740004240045
20
457.05815433032933
30
0
40
1.7499999999999962
210
-5.000793242198054e-30
220
-6.3108872417680804e-30
230
1
0
ENDSEC
0
SECTION
2
OBJECTS
0
DICTIONARY
5
C
100
AcDbDictionary
3
ACAD_GROUP
350
D
3
ACAD_MLINESTYLE
350
17
0
DICTIONARY
5
D
100
AcDbDictionary
0
DICTIONARY
5
1A
330
C
100
AcDbDictionary
0
DICTIONARY
5
17
100
AcDbDictionary
0
ENDSEC
0
EOF
