0
SECTION
2
HEADER
9
$INSUNITS
70
4
9
$ACADVER
1
AC1014
9
$HANDSEED
5
FFFF
0
ENDSEC
0
SECTION
2
TABLES
0
TABLE
2
VPORT
5
8
100
AcDbSymbolTable
0
ENDTAB
0
TABLE
2
LTYPE
5
5
100
AcDbSymbolTable
0
LTYPE
5
14
100
AcDbSymbolTableRecord
100
AcDbLinetypeTableRecord
2
BYBLOCK
70
0
0
LTYPE
5
15
100
AcDbSymbolTableRecord
100
AcDbLinetypeTableRecord
2
BYLAYER
70
0
0
ENDTAB
0
TABLE
2
LAYER
5
2
100
AcDbSymbolTable
70
2
0
LAYER
5
50
100
AcDbSymbolTableRecord
100
AcDbLayerTableRecord
2
0
70
0
6
CONTINUOUS
0
ENDTAB
0
TABLE
2
STYLE
5
3
100
AcDbSymbolTable
70
1
0
STYLE
5
11
100
AcDbSymbolTableRecord
100
AcDbTextStyleTableRecord
2
STANDARD
70
0
0
ENDTAB
0
TABLE
2
VIEW
5
6
100
AcDbSymbolTable
70
0
0
ENDTAB
0
TABLE
2
UCS
5
7
100
AcDbSymbolTable
70
0
0
ENDTAB
0
TABLE
2
APPID
5
9
100
AcDbSymbolTable
70
2
0
APPID
5
12
100
AcDbSymbolTableRecord
100
AcDbRegAppTableRecord
2
ACAD
70
0
0
ENDTAB
0
TABLE
2
DIMSTYLE
5
A
100
AcDbSymbolTable
70
1
0
ENDTAB
0
TABLE
2
BLOCK_RECORD
5
1
100
AcDbSymbolTable
70
1
0
BLOCK_RECORD
5
1F
100
AcDbSymbolTableRecord
100
AcDbBlockTableRecord
2
*MODEL_SPACE
0
BLOCK_RECORD
5
1B
100
AcDbSymbolTableRecord
100
AcDbBlockTableRecord
2
*PAPER_SPACE
0
ENDTAB
0
ENDSEC
0
SECTION
2
BLOCKS
0
BLOCK
5
20
100
AcDbEntity
100
AcDbBlockBegin
2
*MODEL_SPACE
0
ENDBLK
5
21
100
AcDbEntity
100
AcDbBlockEnd
0
BLOCK
5
1C
100
AcDbEntity
100
AcDbBlockBegin
2
*PAPER_SPACE
0
ENDBLK
5
1D
100
AcDbEntity
100
AcDbBlockEnd
0
ENDSEC
0
SECTION
2
ENTITIES
0
LWPOLYLINE
5
100
100
AcDbEntity
8
0
100
AcDbPolyline
90
96
70
1
43
0.0
10
-27.499999999566871
20
-19.756825838695622
10
-21.493727754339162
20
-19.756825838695622
10
-21.491346300365592
20
-27.256825838695701
10
-27.499999999566818
20
-27.256825838695704
10
-27.499999999566764
20
-34.741286086017809
10
-21.488969780686112
20
-34.741286086017809
10
-21.488969780686173
20
-42.24128608601788
10
-27.499999999566715
20
-42.241286086017865
10
-27.500000000369486
20
-49.741265191664048
10
-21.500000000373134
20
-49.741265191708344
10
-21.500000000417536
20
-55.74126519170845
10
-27.500000000413884
20
-55.741265191664155
10
-27.49999999956648
20
-75.631836496861567
10
-21.49999999956648
20
-75.631836496861524
10
-21.499999999566523
20
-69.631836496861524
10
-7.2685594631868504
20
-69.631836496861482
10
-7.2685594631867971
20
-75.631836496861482
10
0.2314405368132455
20
-75.631836496861411
10
0.23144053681319432
20
-69.631836496861411
10
7.7314405368132233
20
-69.631836496861354
10
7.7314405368132757
20
-75.631836496861354
10
15.231440536813317
20
-75.631836496861297
10
15.231440536813267
20
-69.631836496861283
10
22.731440536813299
20
-69.631836496861212
10
22.731440536813349
20
-75.631836496861226
10
30.231440536813384
20
-75.631836496861141
10
30.231440536813331
20
-69.631836496861141
10
38.032090813609322
20
-69.631836496861069
10
38.032090813609379
20
-75.631836496861069
10
44.0320908136094
20
-75.631836496861013
10
44.032090813609187
20
-62.381836496860984
10
38.032090813608953
20
-62.381836496861013
10
38.03209081360891
20
-54.881836496861013
10
44.032090813609116
20
-54.881836496860984
10
44.032090813609052
20
-47.381836496860984
10
38.032090813608875
20
-47.381836496861013
10
38.032090813608825
20
-39.881836496861006
10
44.032090813608988
20
-39.881836496860984
10
44.032090813608917
20
-32.381836496860991
10
38.032090813608804
20
-32.38183649686102
10
38.032090813608754
20
-24.88183649686102
10
44.032090813608846
20
-24.881836496860995
10
44.032090813608782
20
-17.381836496860984
10
38.032090813608718
20
-17.38183649686102
10
38.032090813608676
20
-9.8818364968610179
10
44.032090813608718
20
-9.881836496860986
10
44.032090813608669
20
-2.3818364968609886
10
38.032090813608647
20
-2.3818364968610179
10
38.032090813608605
20
5.1181635031389821
10
44.032090813608598
20
5.1181635031390114
10
44.032090813608534
20
12.618163503139016
10
38.032090813608569
20
12.618163503138982
10
38.032090813608527
20
20.118163503138984
10
44.032090813608477
20
20.118163503139016
10
44.032090813608413
20
27.618163503139005
10
38.032090813608491
20
27.61816350313898
10
38.032090813608455
20
35.11816350313898
10
44.032090813608349
20
35.118163503139009
10
44.032090813608278
20
42.618163503139016
10
38.03209081360842
20
42.618163503138987
10
38.032090813608377
20
50.118163503138987
10
44.032090813608207
20
50.118163503139016
10
44.03209081360815
20
57.618163503139016
10
38.032090813608342
20
57.618163503138987
10
38.032090813608299
20
65.118163503138987
10
44.032090813608079
20
65.118163503139016
10
44.032090813608093
20
78.368163503139172
10
38.03209081360805
20
78.368163503139129
10
38.0320908136081
20
72.368163503139144
10
30.231440536812109
20
72.368163503139087
10
30.231440536812055
20
78.368163503139087
10
22.73144053681202
20
78.368163503139016
10
22.731440536812073
20
72.36816350313903
10
15.231440536812045
20
72.368163503138959
10
15.231440536811995
20
78.368163503138973
10
7.7314405368119505
20
78.368163503138931
10
7.7314405368120021
20
72.368163503138916
10
0.23144053681197208
20
72.368163503138859
10
0.23144053681192048
20
78.368163503138859
10
-7.2685594631881214
20
78.368163503138803
10
-7.2685594631880699
20
72.368163503138817
10
-21.069209739983641
20
72.36816350313849
10
-21.069209739983688
20
78.368163503138419
10
-27.499999999567557
20
78.368163503138376
10
-27.499999999563084
20
59.241265015649638
10
-21.499999999566736
20
59.241265015605407
10
-21.499999999611134
20
53.241265015605308
10
-27.499999999607475
20
53.241265015649518
10
-27.499999999567329
20
45.741265015649333
10
-21.514525179504524
20
45.741265015649333
10
-21.512143725530649
20
38.241265015649255
10
-27.499999999567276
20
38.24126501564924
10
-27.499999999567223
20
30.74317199355503
10
-21.50976287707412
20
30.743171993555034
10
-21.507381423100249
20
23.243171993554959
10
-27.499999999567169
20
23.243171993554952
0
LWPOLYLINE
5
101
100
AcDbEntity
8
0
100
AcDbPolyline
90
4
70
1
43
0.0
10
21.499999999629186
20
-49.741265192025715
10
27.515795590823732
20
-49.741265192070088
10
27.517700754002771
20
-55.741265192070237
10
21.499999999584787
20
-55.741265192025821
0
LWPOLYLINE
5
102
100
AcDbEntity
8
0
100
AcDbPolyline
90
4
70
1
43
0.0
10
6.5000000004354401
20
59.241265015343714
10
14.000000000435522
20
59.241265015343714
10
14.000000000435463
20
53.241265015398895
10
6.5000000004353868
20
53.241265015398895
0
LWPOLYLINE
5
103
100
AcDbEntity
8
0
100
AcDbPolyline
90
4
70
1
43
0.0
10
27.492616106723816
20
23.258730825400733
10
21.492615804253262
20
23.258730825400733
10
21.490234350279533
20
30.758730825400804
10
27.490234652750093
20
30.758730825400804
0
LWPOLYLINE
5
104
100
AcDbEntity
8
0
100
AcDbPolyline
90
4
70
1
43
0.0
10
-6.4999999995665689
20
59.24126501555012
10
-6.499999999566624
20
53.241265015494726
10
-13.9999999995667
20
53.241265015494726
10
-13.999999999566645
20
59.241265015550113
0
LWPOLYLINE
5
105
100
AcDbEntity
8
0
100
AcDbPolyline
90
4
70
1
43
0.0
10
6.4999999995846389
20
-55.74126519197047
10
6.4999999995846931
20
-49.741265191914998
10
13.999999999584771
20
-49.741265191914998
10
13.999999999584718
20
-55.74126519197047
0
LWPOLYLINE
5
106
100
AcDbEntity
8
0
100
AcDbPolyline
90
4
70
1
43
0.0
10
27.513414140638879
20
-42.241277188024782
10
21.513413838168315
20
-42.241277188024767
10
21.511032384194586
20
-34.741277188024704
10
27.51103268666515
20
-34.741277188024711
0
LWPOLYLINE
5
107
100
AcDbEntity
8
0
100
AcDbPolyline
90
4
70
1
43
0.0
10
21.500000000391193
20
53.241265015288306
10
21.500000000435588
20
59.24126501528842
10
27.481190673538826
20
59.241265015244338
10
27.483095836717865
20
53.24126501524421
0
LWPOLYLINE
5
108
100
AcDbEntity
8
0
100
AcDbPolyline
90
4
70
1
43
0.0
10
21.487858442055547
20
45.741265393332291
10
27.485477290552318
20
45.741265393332299
10
27.487858744545406
20
38.241265393332213
10
21.487858442055479
20
38.241265393332206
0
LWPOLYLINE
5
109
100
AcDbEntity
8
0
100
AcDbPolyline
90
4
70
1
43
0.0
10
27.508651229478595
20
-27.24126700689407
10
21.508650926988075
20
-27.241267006894073
10
21.508650926988139
20
-19.743171413992723
10
27.506269775484903
20
-19.741267006893992
0
LWPOLYLINE
5
110
100
AcDbEntity
8
0
100
AcDbPolyline
90
4
70
1
43
0.0
10
-6.5000000004173693
20
-55.741265191763787
10
-14.000000000417447
20
-55.741265191763802
10
-14.000000000417391
20
-49.741265191819039
10
-6.5000000004173142
20
-49.741265191819039
0
ENDSEC
0
SECTION
2
OBJECTS
0
DICTIONARY
5
C
100
AcDbDictionary
3
ACAD_GROUP
350
D
3
ACAD_MLINESTYLE
350
17
0
DICTIONARY
5
D
100
AcDbDictionary
0
DICTIONARY
5
1A
330
C
100
AcDbDictionary
0
DICTIONARY
5
17
100
AcDbDictionary
0
ENDSEC
0
EOF
