0
SECTION
2
HEADER
9
$INSUNITS
70
4
9
$ACADVER
1
AC1014
9
$HANDSEED
5
FFFF
0
ENDSEC
0
SECTION
2
TABLES
0
TABLE
2
VPORT
5
8
100
AcDbSymbolTable
0
ENDTAB
0
TABLE
2
LTYPE
5
5
100
AcDbSymbolTable
0
LTYPE
5
14
100
AcDbSymbolTableRecord
100
AcDbLinetypeTableRecord
2
BYBLOCK
70
0
0
LTYPE
5
15
100
AcDbSymbolTableRecord
100
AcDbLinetypeTableRecord
2
BYLAYER
70
0
0
ENDTAB
0
TABLE
2
LAYER
5
2
100
AcDbSymbolTable
70
2
0
LAYER
5
50
100
AcDbSymbolTableRecord
100
AcDbLayerTableRecord
2
0
70
0
6
CONTINUOUS
0
ENDTAB
0
TABLE
2
STYLE
5
3
100
AcDbSymbolTable
70
1
0
STYLE
5
11
100
AcDbSymbolTableRecord
100
AcDbTextStyleTableRecord
2
STANDARD
70
0
0
ENDTAB
0
TABLE
2
VIEW
5
6
100
AcDbSymbolTable
70
0
0
ENDTAB
0
TABLE
2
UCS
5
7
100
AcDbSymbolTable
70
0
0
ENDTAB
0
TABLE
2
APPID
5
9
100
AcDbSymbolTable
70
2
0
APPID
5
12
100
AcDbSymbolTableRecord
100
AcDbRegAppTableRecord
2
ACAD
70
0
0
ENDTAB
0
TABLE
2
DIMSTYLE
5
A
100
AcDbSymbolTable
70
1
0
ENDTAB
0
TABLE
2
BLOCK_RECORD
5
1
100
AcDbSymbolTable
70
1
0
BLOCK_RECORD
5
1F
100
AcDbSymbolTableRecord
100
AcDbBlockTableRecord
2
*MODEL_SPACE
0
BLOCK_RECORD
5
1B
100
AcDbSymbolTableRecord
100
AcDbBlockTableRecord
2
*PAPER_SPACE
0
ENDTAB
0
ENDSEC
0
SECTION
2
BLOCKS
0
BLOCK
5
20
100
AcDbEntity
100
AcDbBlockBegin
2
*MODEL_SPACE
0
ENDBLK
5
21
100
AcDbEntity
100
AcDbBlockEnd
0
BLOCK
5
1C
100
AcDbEntity
100
AcDbBlockBegin
2
*PAPER_SPACE
0
ENDBLK
5
1D
100
AcDbEntity
100
AcDbBlockEnd
0
ENDSEC
0
SECTION
2
ENTITIES
0
CIRCLE
5
100
100
AcDbEntity
8
0
100
AcDbCircle
10
-0.069209739997451877
20
445.05815433033479
30
0
40
11.24999999999986
210
-7.2406047614737565e-30
220
4.7331654313260589e-30
230
1
0
LINE
5
101
100
AcDbEntity
8
0
100
AcDbLine
10
44.032090813593953
20
463.35880023274393
30
0
11
38.032090813593975
21
463.35880023274353
31
-4.8176794000182105e-29
0
LINE
5
102
100
AcDbEntity
8
0
100
AcDbLine
10
38.032090813593975
20
463.35880023274353
30
-4.8176794000182105e-29
11
38.032090813593967
21
470.85880023274348
31
-8.8817841970012681e-15
0
LINE
5
103
100
AcDbEntity
8
0
100
AcDbLine
10
38.032090813593967
20
470.85880023274348
30
-8.8817841970012681e-15
11
44.032090813593939
21
470.85880023274387
31
6.3954012104605928e-29
0
LINE
5
104
100
AcDbEntity
8
0
100
AcDbLine
10
44.032090813593939
20
470.85880023274387
30
6.3954012104605928e-29
11
44.032090813593882
21
483.15944613515086
31
8.8817841970012208e-15
0
LINE
5
105
100
AcDbEntity
8
0
100
AcDbLine
10
44.032090813593882
20
483.15944613515086
30
8.8817841970012208e-15
11
38.032090813593925
21
483.15944613515046
31
8.8817841970011955e-15
0
LINE
5
106
100
AcDbEntity
8
0
100
AcDbLine
10
38.032090813593925
20
483.15944613515046
30
8.8817841970011955e-15
11
38.032090813593918
21
489.15944613515012
31
-3.1554436208840472e-29
0
LINE
5
107
100
AcDbEntity
8
0
100
AcDbLine
10
38.032090813593918
20
489.15944613515012
30
-3.1554436208840472e-29
11
30.231440536798033
21
489.15944613514961
31
-8.881784197001317e-15
0
LINE
5
108
100
AcDbEntity
8
0
100
AcDbLine
10
30.231440536798033
20
489.15944613514961
30
-8.881784197001317e-15
11
30.231440536798036
21
483.15944613514978
31
3.1554436208840472e-29
0
LINE
5
109
100
AcDbEntity
8
0
100
AcDbLine
10
30.231440536798036
20
483.15944613514978
30
3.1554436208840472e-29
11
22.731440536798093
21
483.15944613514938
31
-5.0360231184989198e-29
0
LINE
5
110
100
AcDbEntity
8
0
100
AcDbLine
10
22.731440536798093
20
483.15944613514938
30
-5.0360231184989198e-29
11
22.731440536798083
21
489.15944613514921
31
-3.1554436208840472e-29
0
LINE
5
111
100
AcDbEntity
8
0
100
AcDbLine
10
22.731440536798083
20
489.15944613514921
30
-3.1554436208840472e-29
11
15.231440536798146
21
489.15944613514881
31
-8.8817841970013028e-15
0
LINE
5
112
100
AcDbEntity
8
0
100
AcDbLine
10
15.231440536798146
20
489.15944613514881
30
-8.8817841970013028e-15
11
15.231440536798157
21
483.15944613514898
31
1.5777218104420236e-29
0
LINE
5
113
100
AcDbEntity
8
0
100
AcDbLine
10
15.231440536798157
20
483.15944613514898
30
1.5777218104420236e-29
11
7.7314405367982069
21
483.15944613514858
31
-4.2471622132772802e-29
0
LINE
5
114
100
AcDbEntity
8
0
100
AcDbLine
10
7.7314405367982069
20
483.15944613514858
30
-4.2471622132772802e-29
11
7.7314405367981944
21
489.15944613514847
31
8.8817841970012365e-15
0
LINE
5
115
100
AcDbEntity
8
0
100
AcDbLine
10
7.7314405367981944
20
489.15944613514847
30
8.8817841970012365e-15
11
0.2314405367982586
21
489.15944613514802
31
-5.0360231184994578e-29
0
LINE
5
116
100
AcDbEntity
8
0
100
AcDbLine
10
0.2314405367982586
20
489.15944613514802
30
-5.0360231184994578e-29
11
0.23144053679827153
21
483.15944613514819
31
-8.8817841970012365e-15
0
LINE
5
117
100
AcDbEntity
8
0
100
AcDbLine
10
0.23144053679827153
20
483.15944613514819
30
-8.8817841970012365e-15
11
-7.2685594632016794
21
483.15944613514773
31
-5.8248840237193038e-29
0
LINE
5
118
100
AcDbEntity
8
0
100
AcDbLine
10
-7.2685594632016794
20
483.15944613514773
30
-5.8248840237193038e-29
11
-7.2685594632016901
21
489.15944613514762
31
-3.1554436208840472e-29
0
LINE
5
119
100
AcDbEntity
8
0
100
AcDbLine
10
-7.2685594632016901
20
489.15944613514762
30
-3.1554436208840472e-29
11
-21.069209739997319
21
489.15944613514716
31
-1.2038696242759699e-28
0
LINE
5
120
100
AcDbEntity
8
0
100
AcDbLine
10
-21.069209739997319
20
489.15944613514716
30
-1.2038696242759699e-28
11
-21.069209739997209
21
424.05815433033325
31
2.5243548967072378e-28
0
LINE
5
121
100
AcDbEntity
8
0
100
AcDbLine
10
-21.069209739997209
20
424.05815433033325
30
2.5243548967072378e-28
11
20.930790260002382
21
424.05815433033558
31
1.5579954980065008e-28
0
SPLINE
5
122
100
AcDbEntity
8
0
100
AcDbSpline
70
4
71
5
72
21
73
15
74
0
42
0.000000001
43
0.0000000001
44
0.0000000001
40
0
40
0
40
0
40
0
40
0
40
0
40
0.10000000000000001
40
0.20000000000000001
40
0.30000000000000004
40
0.40000000000000002
40
0.5
40
0.59999999999999998
40
0.69999999999999996
40
0.79999999999999993
40
0.89999999999999991
40
1
40
1
40
1
40
1
40
1
40
1
41
1
41
1
41
1
41
1
41
1
41
1
41
1
41
1
41
1
41
1
41
1
41
1
41
1
41
1
41
1
10
44.032090813593825
20
445.05815433033774
30
8.8817841970012523e-15
10
43.672706514770859
20
444.43534999558813
30
0
10
42.945150198719872
20
443.20710451446701
30
0
10
41.827454072516829
20
441.4168228880464
30
8.8817841970012523e-15
10
40.283588870058232
20
439.13569343912394
30
0
10
38.258201056822145
20
436.4730862912055
30
8.8817841970012523e-15
10
36.128149260919685
20
434.01727917528922
30
0
10
33.883961327807384
20
431.78698762094251
30
0
10
31.51888792038784
20
429.79554728663481
30
0
10
29.03540283015905
20
428.0380703384684
30
0
10
26.441503311571356
20
426.49875542400224
30
0
10
24.284817947933085
20
425.42846494473474
30
0
10
22.624269265228818
20
424.71077699557407
30
0
10
21.498419469706782
20
424.26949855118266
30
0
10
20.930790260002382
20
424.0581543303357
30
0
0
LINE
5
123
100
AcDbEntity
8
0
100
AcDbLine
10
44.03209081359384
20
445.05815433033769
30
8.8817841970012523e-15
11
38.032090813594031
21
445.05815433033712
31
8.8817841970012208e-15
0
LINE
5
124
100
AcDbEntity
8
0
100
AcDbLine
10
38.032090813594031
20
445.05815433033712
30
8.8817841970012208e-15
11
38.032090813594017
21
453.35880023274387
31
-3.1554436208840472e-29
0
LINE
5
125
100
AcDbEntity
8
0
100
AcDbLine
10
38.032090813594017
20
453.35880023274387
30
-3.1554436208840472e-29
11
44.032090813593982
21
453.35880023274422
31
4.0288184947985439e-29
0
LINE
5
126
100
AcDbEntity
8
0
100
AcDbLine
10
44.032090813593982
20
453.35880023274422
30
4.0288184947985439e-29
11
44.032090813593953
21
463.35880023274393
31
0
0
CIRCLE
5
127
100
AcDbEntity
8
0
100
AcDbCircle
10
16.055790260002208
20
445.05815433033558
30
8.8817841970012523e-15
40
1.4999999999999671
210
-7.5220385255211319e-30
220
3.1554436208838356e-30
230
1
0
CIRCLE
5
128
100
AcDbEntity
8
0
100
AcDbCircle
10
-0.06920973999762077
20
428.93315433033501
30
0
40
1.4999999999999671
210
-7.5220385255211319e-30
220
3.1554436208838356e-30
230
1
0
CIRCLE
5
129
100
AcDbEntity
8
0
100
AcDbCircle
10
-0.069209739997604131
20
461.1831543303345
30
0
40
1.4999999999999671
210
-7.5220385255211319e-30
220
3.1554436208838356e-30
230
1
0
CIRCLE
5
130
100
AcDbEntity
8
0
100
AcDbCircle
10
-16.194209739997451
20
445.05815433033388
30
0
40
1.4999999999999671
210
-7.5220385255211319e-30
220
3.1554436208838356e-30
230
1
0
ENDSEC
0
SECTION
2
OBJECTS
0
DICTIONARY
5
C
100
AcDbDictionary
3
ACAD_GROUP
350
D
3
ACAD_MLINESTYLE
350
17
0
DICTIONARY
5
D
100
AcDbDictionary
0
DICTIONARY
5
1A
330
C
100
AcDbDictionary
0
DICTIONARY
5
17
100
AcDbDictionary
0
ENDSEC
0
EOF
