0
SECTION
2
HEADER
9
$INSUNITS
70
4
9
$ACADVER
1
AC1014
9
$HANDSEED
5
FFFF
0
ENDSEC
0
SECTION
2
TABLES
0
TABLE
2
VPORT
5
8
100
AcDbSymbolTable
0
ENDTAB
0
TABLE
2
LTYPE
5
5
100
AcDbSymbolTable
0
LTYPE
5
14
100
AcDbSymbolTableRecord
100
AcDbLinetypeTableRecord
2
BYBLOCK
70
0
0
LTYPE
5
15
100
AcDbSymbolTableRecord
100
AcDbLinetypeTableRecord
2
BYLAYER
70
0
0
ENDTAB
0
TABLE
2
LAYER
5
2
100
AcDbSymbolTable
70
2
0
LAYER
5
50
100
AcDbSymbolTableRecord
100
AcDbLayerTableRecord
2
0
70
0
6
CONTINUOUS
0
ENDTAB
0
TABLE
2
STYLE
5
3
100
AcDbSymbolTable
70
1
0
STYLE
5
11
100
AcDbSymbolTableRecord
100
AcDbTextStyleTableRecord
2
STANDARD
70
0
0
ENDTAB
0
TABLE
2
VIEW
5
6
100
AcDbSymbolTable
70
0
0
ENDTAB
0
TABLE
2
UCS
5
7
100
AcDbSymbolTable
70
0
0
ENDTAB
0
TABLE
2
APPID
5
9
100
AcDbSymbolTable
70
2
0
APPID
5
12
100
AcDbSymbolTableRecord
100
AcDbRegAppTableRecord
2
ACAD
70
0
0
ENDTAB
0
TABLE
2
DIMSTYLE
5
A
100
AcDbSymbolTable
70
1
0
ENDTAB
0
TABLE
2
BLOCK_RECORD
5
1
100
AcDbSymbolTable
70
1
0
BLOCK_RECORD
5
1F
100
AcDbSymbolTableRecord
100
AcDbBlockTableRecord
2
*MODEL_SPACE
0
BLOCK_RECORD
5
1B
100
AcDbSymbolTableRecord
100
AcDbBlockTableRecord
2
*PAPER_SPACE
0
ENDTAB
0
ENDSEC
0
SECTION
2
BLOCKS
0
BLOCK
5
20
100
AcDbEntity
100
AcDbBlockBegin
2
*MODEL_SPACE
0
ENDBLK
5
21
100
AcDbEntity
100
AcDbBlockEnd
0
BLOCK
5
1C
100
AcDbEntity
100
AcDbBlockBegin
2
*PAPER_SPACE
0
ENDBLK
5
1D
100
AcDbEntity
100
AcDbBlockEnd
0
ENDSEC
0
SECTION
2
ENTITIES
0
LWPOLYLINE
5
100
100
AcDbEntity
8
0
100
AcDbPolyline
90
52
70
1
43
0.0
10
-69.631836496864963
20
483.15944613515478
10
-69.631836496864864
20
470.85880023274763
10
-75.631836496864665
20
470.85880023274746
10
-75.631836496864565
20
463.3588002327474
10
-69.631836496864764
20
463.35880023274746
10
-69.631836496864693
20
453.35880023274763
10
-75.63183649686448
20
453.35880023274746
10
-75.631836496864395
20
445.05815433034053
10
78.368163503130489
20
445.05815433034309
10
78.368163503130376
20
453.35880023275001
10
72.368163503130589
20
453.3588002327499
10
72.368163503130518
20
463.35880023274973
10
78.368163503130305
20
463.3588002327499
10
78.368163503130219
20
470.85880023274996
10
72.368163503130432
20
470.8588002327499
10
72.368163503130319
20
483.15944613515694
10
65.118163503130418
20
483.15944613515654
10
65.118163503130361
20
489.1594461351566
10
57.61816350313061
20
489.15944613515643
10
57.61816350313066
20
483.15944613515637
10
50.11816350313093
20
483.15944613515637
10
50.118163503130873
20
489.15944613515643
10
42.618163503131122
20
489.15944613515626
10
42.618163503131179
20
483.1594461351562
10
35.118163503131434
20
483.15944613515603
10
35.118163503131377
20
489.15944613515614
10
27.61816350313164
20
489.15944613515597
10
27.618163503131697
20
483.15944613515597
10
20.11816350313196
20
483.15944613515592
10
20.118163503131903
20
489.15944613515592
10
12.618163503132166
20
489.15944613515569
10
12.618163503132216
20
483.15944613515569
10
5.1181635031324753
20
483.15944613515563
10
5.1181635031324166
20
489.15944613515563
10
-2.3818364968673245
20
489.15944613515541
10
-2.3818364968672672
20
483.15944613515546
10
-9.8818364968670043
20
483.15944613515535
10
-9.8818364968670629
20
489.15944613515535
10
-17.381836496866807
20
489.15944613515524
10
-17.381836496866747
20
483.15944613515524
10
-24.881836496866498
20
483.15944613515512
10
-24.881836496866548
20
489.15944613515524
10
-32.381836496866285
20
489.15944613515501
10
-32.381836496866235
20
483.15944613515501
10
-39.881836496865965
20
483.15944613515489
10
-39.881836496866022
20
489.15944613515489
10
-47.381836496865759
20
489.15944613515472
10
-47.381836496865716
20
483.15944613515467
10
-54.881836496865446
20
483.15944613515461
10
-54.881836496865489
20
489.15944613515467
10
-62.381836496865247
20
489.1594461351545
10
-62.381836496865198
20
483.15944613515444
0
ENDSEC
0
SECTION
2
OBJECTS
0
DICTIONARY
5
C
100
AcDbDictionary
3
ACAD_GROUP
350
D
3
ACAD_MLINESTYLE
350
17
0
DICTIONARY
5
D
100
AcDbDictionary
0
DICTIONARY
5
1A
330
C
100
AcDbDictionary
0
DICTIONARY
5
17
100
AcDbDictionary
0
ENDSEC
0
EOF
