0
SECTION
2
HEADER
9
$INSUNITS
70
4
9
$ACADVER
1
AC1014
9
$HANDSEED
5
FFFF
0
ENDSEC
0
SECTION
2
TABLES
0
TABLE
2
VPORT
5
8
100
AcDbSymbolTable
0
ENDTAB
0
TABLE
2
LTYPE
5
5
100
AcDbSymbolTable
0
LTYPE
5
14
100
AcDbSymbolTableRecord
100
AcDbLinetypeTableRecord
2
BYBLOCK
70
0
0
LTYPE
5
15
100
AcDbSymbolTableRecord
100
AcDbLinetypeTableRecord
2
BYLAYER
70
0
0
ENDTAB
0
TABLE
2
LAYER
5
2
100
AcDbSymbolTable
70
2
0
LAYER
5
50
100
AcDbSymbolTableRecord
100
AcDbLayerTableRecord
2
0
70
0
6
CONTINUOUS
0
ENDTAB
0
TABLE
2
STYLE
5
3
100
AcDbSymbolTable
70
1
0
STYLE
5
11
100
AcDbSymbolTableRecord
100
AcDbTextStyleTableRecord
2
STANDARD
70
0
0
ENDTAB
0
TABLE
2
VIEW
5
6
100
AcDbSymbolTable
70
0
0
ENDTAB
0
TABLE
2
UCS
5
7
100
AcDbSymbolTable
70
0
0
ENDTAB
0
TABLE
2
APPID
5
9
100
AcDbSymbolTable
70
2
0
APPID
5
12
100
AcDbSymbolTableRecord
100
AcDbRegAppTableRecord
2
ACAD
70
0
0
ENDTAB
0
TABLE
2
DIMSTYLE
5
A
100
AcDbSymbolTable
70
1
0
ENDTAB
0
TABLE
2
BLOCK_RECORD
5
1
100
AcDbSymbolTable
70
1
0
BLOCK_RECORD
5
1F
100
AcDbSymbolTableRecord
100
AcDbBlockTableRecord
2
*MODEL_SPACE
0
BLOCK_RECORD
5
1B
100
AcDbSymbolTableRecord
100
AcDbBlockTableRecord
2
*PAPER_SPACE
0
ENDTAB
0
ENDSEC
0
SECTION
2
BLOCKS
0
BLOCK
5
20
100
AcDbEntity
100
AcDbBlockBegin
2
*MODEL_SPACE
0
ENDBLK
5
21
100
AcDbEntity
100
AcDbBlockEnd
0
BLOCK
5
1C
100
AcDbEntity
100
AcDbBlockBegin
2
*PAPER_SPACE
0
ENDBLK
5
1D
100
AcDbEntity
100
AcDbBlockEnd
0
ENDSEC
0
SECTION
2
ENTITIES
0
LINE
5
100
100
AcDbEntity
8
0
100
AcDbLine
10
-51.499999999782069
20
629.38368225097827
30
-4.4408920985006262e-15
11
-57.499999999782041
21
629.38368225097827
31
-4.4406210479575143e-15
0
LINE
5
101
100
AcDbEntity
8
0
100
AcDbLine
10
-57.499999999782041
20
629.38368225097827
30
-4.4406210479575143e-15
11
-57.499999999782034
21
621.88368225097827
31
-1.5777218104420236e-29
0
LINE
5
102
100
AcDbEntity
8
0
100
AcDbLine
10
-57.499999999782034
20
621.88368225097827
30
-1.5777218104420236e-29
11
-51.499999999782048
21
621.88368225097827
31
4.4408920985006348e-15
0
LINE
5
103
100
AcDbEntity
8
0
100
AcDbLine
10
-51.499999999782048
20
621.88368225097827
30
4.4408920985006348e-15
11
-51.499999999782055
21
614.38368225097827
31
0
0
LINE
5
104
100
AcDbEntity
8
0
100
AcDbLine
10
-51.499999999782055
20
614.38368225097827
30
0
11
-57.499999999782034
21
614.38368225097815
31
-9.2540083147308739e-30
0
LINE
5
105
100
AcDbEntity
8
0
100
AcDbLine
10
-57.499999999782034
20
614.38368225097815
30
-9.2540083147308739e-30
11
-57.49999999978202
21
606.88368225097815
31
-7.8886090522101181e-29
0
LINE
5
106
100
AcDbEntity
8
0
100
AcDbLine
10
-57.49999999978202
20
606.88368225097815
30
-7.8886090522101181e-29
11
-51.499999999782034
21
606.88368225097815
31
4.4408920985006348e-15
0
LINE
5
107
100
AcDbEntity
8
0
100
AcDbLine
10
-51.499999999782034
20
606.88368225097815
30
4.4408920985006348e-15
11
-51.499999999782048
21
599.38368225097815
31
-3.1554436208840472e-29
0
LINE
5
108
100
AcDbEntity
8
0
100
AcDbLine
10
-51.499999999782048
20
599.38368225097815
30
-3.1554436208840472e-29
11
-57.49999999978202
21
599.38368225097815
31
-9.2540083147308879e-30
0
LINE
5
109
100
AcDbEntity
8
0
100
AcDbLine
10
-57.49999999978202
20
599.38368225097815
30
-9.2540083147308879e-30
11
-57.499999999781728
21
589.88368225097827
31
-1.5777218104420236e-29
0
LINE
5
110
100
AcDbEntity
8
0
100
AcDbLine
10
57.500000000217753
20
589.88368225097827
30
4.4452289071907457e-15
11
57.500000000217931
21
599.38368225097815
31
1.5777218104420236e-29
0
LINE
5
111
100
AcDbEntity
8
0
100
AcDbLine
10
57.500000000217931
20
599.38368225097815
30
1.5777218104420236e-29
11
51.500000000217945
21
599.38368225097815
31
-4.4408920985008084e-15
0
LINE
5
112
100
AcDbEntity
8
0
100
AcDbLine
10
51.500000000217945
20
599.38368225097815
30
-4.4408920985008084e-15
11
51.500000000217952
21
606.88368225097815
31
0
0
LINE
5
113
100
AcDbEntity
8
0
100
AcDbLine
10
51.500000000217952
20
606.88368225097815
30
0
11
57.500000000217931
21
606.88368225097815
31
1.8205535925269107e-28
0
LINE
5
114
100
AcDbEntity
8
0
100
AcDbLine
10
57.500000000217931
20
606.88368225097815
30
1.8205535925269107e-28
11
57.500000000217923
21
614.38368225097815
31
4.7331654313260708e-29
0
LINE
5
115
100
AcDbEntity
8
0
100
AcDbLine
10
57.500000000217923
20
614.38368225097815
30
4.7331654313260708e-29
11
51.500000000217945
21
614.38368225097815
31
-4.4408920985008084e-15
0
LINE
5
116
100
AcDbEntity
8
0
100
AcDbLine
10
51.500000000217945
20
614.38368225097815
30
-4.4408920985008084e-15
11
51.500000000217952
21
621.88368225097815
31
0
0
LINE
5
117
100
AcDbEntity
8
0
100
AcDbLine
10
51.500000000217952
20
621.88368225097815
30
0
11
57.500000000217931
21
621.88368225097827
31
1.8205535925269102e-28
0
LINE
5
118
100
AcDbEntity
8
0
100
AcDbLine
10
57.500000000217931
20
621.88368225097827
30
1.8205535925269102e-28
11
57.500000000217923
21
629.38368225097815
31
1.5777218104420236e-29
0
LINE
5
119
100
AcDbEntity
8
0
100
AcDbLine
10
57.500000000217923
20
629.38368225097815
30
1.5777218104420236e-29
11
51.500000000217945
21
629.38368225097827
31
-4.440621047957687e-15
0
LINE
5
120
100
AcDbEntity
8
0
100
AcDbLine
10
51.500000000217945
20
629.38368225097827
30
-4.440621047957687e-15
11
51.500000000217952
21
636.88368225097827
31
4.7331654313260708e-29
0
LINE
5
121
100
AcDbEntity
8
0
100
AcDbLine
10
51.500000000217952
20
636.88368225097827
30
4.7331654313260708e-29
11
57.500000000217923
21
636.88368225097838
31
-2.7105054293932074e-19
0
LINE
5
122
100
AcDbEntity
8
0
100
AcDbLine
10
57.500000000217923
20
636.88368225097838
30
-2.7105054293932074e-19
11
57.500000000217916
21
640.38368225096758
31
1.9721522630525295e-29
0
LINE
5
123
100
AcDbEntity
8
0
100
AcDbLine
10
57.500000000217916
20
640.38368225096758
30
1.9721522630525295e-29
11
39.375000000178289
21
640.38368225096758
31
-4.4408920985008273e-15
0
LINE
5
124
100
AcDbEntity
8
0
100
AcDbLine
10
39.375000000178289
20
640.38368225096758
30
-4.4408920985008273e-15
11
39.375000000178304
21
646.38368225096758
31
1.5777218104420236e-29
0
LINE
5
125
100
AcDbEntity
8
0
100
AcDbLine
10
39.375000000178304
20
646.38368225096758
30
1.5777218104420236e-29
11
28.125000000178353
21
646.38368225096769
31
-5.421010862601035e-19
0
LINE
5
126
100
AcDbEntity
8
0
100
AcDbLine
10
28.125000000178353
20
646.38368225096769
30
-5.421010862601035e-19
11
28.125000000178364
21
640.38368225096769
31
7.8886090522101181e-30
0
LINE
5
127
100
AcDbEntity
8
0
100
AcDbLine
10
28.125000000178364
20
640.38368225096769
30
7.8886090522101181e-30
11
16.87500000017841
21
640.38368225096758
31
-5.4210108643290487e-19
0
LINE
5
128
100
AcDbEntity
8
0
100
AcDbLine
10
16.87500000017841
20
640.38368225096758
30
-5.4210108643290487e-19
11
16.875000000178403
21
646.38368225096769
31
-7.8886090522101181e-30
0
LINE
5
129
100
AcDbEntity
8
0
100
AcDbLine
10
16.875000000178403
20
646.38368225096769
30
-7.8886090522101181e-30
11
5.625000000178451
21
646.38368225096769
31
-5.421010862601035e-19
0
LINE
5
130
100
AcDbEntity
8
0
100
AcDbLine
10
5.625000000178451
20
646.38368225096769
30
-5.421010862601035e-19
11
5.6250000001784519
21
640.38368225096769
31
-7.8886090522101181e-30
0
LINE
5
131
100
AcDbEntity
8
0
100
AcDbLine
10
5.6250000001784519
20
640.38368225096769
30
-7.8886090522101181e-30
11
-5.6249999998214975
21
640.38368225096769
31
-5.421010862601035e-19
0
LINE
5
132
100
AcDbEntity
8
0
100
AcDbLine
10
-5.6249999998214975
20
640.38368225096769
30
-5.421010862601035e-19
11
-5.6249999998214983
21
646.38368225096769
31
-4.4408920985006419e-15
0
LINE
5
133
100
AcDbEntity
8
0
100
AcDbLine
10
-5.6249999998214983
20
646.38368225096769
30
-4.4408920985006419e-15
11
-16.874999999821448
21
646.38368225096769
31
-4.441434199587059e-15
0
LINE
5
134
100
AcDbEntity
8
0
100
AcDbLine
10
-16.874999999821448
20
646.38368225096769
30
-4.441434199587059e-15
11
-16.874999999821455
21
640.38368225096769
31
-1.5777218104420236e-29
0
LINE
5
135
100
AcDbEntity
8
0
100
AcDbLine
10
-16.874999999821455
20
640.38368225096769
30
-1.5777218104420236e-29
11
-28.124999999821398
21
640.38368225096769
31
-5.421010862601035e-19
0
LINE
5
136
100
AcDbEntity
8
0
100
AcDbLine
10
-28.124999999821398
20
640.38368225096769
30
-5.421010862601035e-19
11
-28.124999999821398
21
646.38368225096769
31
-7.8886090522101181e-30
0
LINE
5
137
100
AcDbEntity
8
0
100
AcDbLine
10
-28.124999999821398
20
646.38368225096769
30
-7.8886090522101181e-30
11
-39.374999999821341
21
646.38368225096769
31
-5.4210108643290487e-19
0
LINE
5
138
100
AcDbEntity
8
0
100
AcDbLine
10
-39.374999999821341
20
646.38368225096769
30
-5.4210108643290487e-19
11
-39.374999999821341
21
640.38368225096769
31
7.8886090522101181e-30
0
LINE
5
139
100
AcDbEntity
8
0
100
AcDbLine
10
-39.374999999821341
20
640.38368225096769
30
7.8886090522101181e-30
11
-51.499999999781906
21
640.38368225096747
31
2.5733194556001108e-27
0
LINE
5
140
100
AcDbEntity
8
0
100
AcDbLine
10
-51.499999999781906
20
640.38368225096747
30
2.5733194556001108e-27
11
-51.499999999781892
21
646.38368225096747
31
3.1554436208840472e-29
0
LINE
5
141
100
AcDbEntity
8
0
100
AcDbLine
10
-51.499999999781892
20
646.38368225096747
30
3.1554436208840472e-29
11
-57.499999999782112
21
646.38368225096758
31
-1.820553592526914e-28
0
LINE
5
142
100
AcDbEntity
8
0
100
AcDbLine
10
-57.499999999782112
20
646.38368225096758
30
-1.820553592526914e-28
11
-57.499999999782034
21
636.88368225097838
31
4.7331654313260708e-29
0
LINE
5
143
100
AcDbEntity
8
0
100
AcDbLine
10
-57.499999999782034
20
636.88368225097838
30
4.7331654313260708e-29
11
-51.499999999782062
21
636.88368225097838
31
-2.7105054311212211e-19
0
LINE
5
144
100
AcDbEntity
8
0
100
AcDbLine
10
-51.499999999782062
20
636.88368225097838
30
-2.7105054311212211e-19
11
-51.499999999782069
21
629.38368225097827
31
-4.4408920985006262e-15
0
LINE
5
145
100
AcDbEntity
8
0
100
AcDbLine
10
-51.499999999776762
20
589.88368225097906
30
4.4408920985006262e-15
11
-51.499999999776605
21
582.38368225098247
31
4.4408920985043338e-15
0
LINE
5
146
100
AcDbEntity
8
0
100
AcDbLine
10
-51.499999999776605
20
582.38368225098247
30
4.4408920985043338e-15
11
-57.499999999776676
21
582.38368225098247
31
9.0216762245433402e-29
0
LINE
5
147
100
AcDbEntity
8
0
100
AcDbLine
10
-57.499999999776676
20
582.38368225098247
30
9.0216762245433402e-29
11
-57.499999999776634
21
573.21701558431573
31
-4.7331654313260708e-29
0
LINE
5
148
100
AcDbEntity
8
0
100
AcDbLine
10
-57.499999999776634
20
573.21701558431573
30
-4.7331654313260708e-29
11
-51.499999999776577
21
573.21701558431585
31
-9.0216762245433402e-29
0
LINE
5
149
100
AcDbEntity
8
0
100
AcDbLine
10
-51.499999999776577
20
573.21701558431585
30
-9.0216762245433402e-29
11
-51.499999999776598
21
565.71701558431573
31
-3.1554436208840472e-29
0
LINE
5
150
100
AcDbEntity
8
0
100
AcDbLine
10
-51.499999999776598
20
565.71701558431573
30
-3.1554436208840472e-29
11
-57.499999999776662
21
565.71701558431573
31
4.4408920985007161e-15
0
LINE
5
151
100
AcDbEntity
8
0
100
AcDbLine
10
-57.499999999776662
20
565.71701558431573
30
4.4408920985007161e-15
11
-57.499999999776612
21
556.55034891764899
31
-7.8886090522101181e-29
0
LINE
5
152
100
AcDbEntity
8
0
100
AcDbLine
10
-57.499999999776612
20
556.55034891764899
30
-7.8886090522101181e-29
11
-51.499999999776556
21
556.55034891764899
31
-9.0216762245433402e-29
0
LINE
5
153
100
AcDbEntity
8
0
100
AcDbLine
10
-51.499999999776556
20
556.55034891764899
30
-9.0216762245433402e-29
11
-51.499999999776584
21
549.05034891764888
31
4.4408920985005946e-15
0
LINE
5
154
100
AcDbEntity
8
0
100
AcDbLine
10
-51.499999999776584
20
549.05034891764888
30
4.4408920985005946e-15
11
-57.499999999776641
21
549.05034891764899
31
9.0216762245431418e-29
0
LINE
5
155
100
AcDbEntity
8
0
100
AcDbLine
10
-57.499999999776641
20
549.05034891764899
30
9.0216762245431418e-29
11
-57.499999999776605
21
539.88368225098225
31
-7.8886090522101181e-29
0
LINE
5
156
100
AcDbEntity
8
0
100
AcDbLine
10
-57.499999999776605
20
539.88368225098225
30
-7.8886090522101181e-29
11
-51.499999999776556
21
539.88368225098225
31
-9.0216762245431418e-29
0
LINE
5
157
100
AcDbEntity
8
0
100
AcDbLine
10
-51.499999999776556
20
539.88368225098225
30
-9.0216762245431418e-29
11
-51.499999999776584
21
532.38368225098225
31
-4.7331654313260708e-29
0
LINE
5
158
100
AcDbEntity
8
0
100
AcDbLine
10
-51.499999999776584
20
532.38368225098225
30
-4.7331654313260708e-29
11
-57.499999999776641
21
532.38368225098225
31
4.4408920985007161e-15
0
LINE
5
159
100
AcDbEntity
8
0
100
AcDbLine
10
-57.499999999776641
20
532.38368225098225
30
4.4408920985007161e-15
11
-57.499999999776598
21
523.2170155843155
31
-7.8886090522101181e-29
0
LINE
5
160
100
AcDbEntity
8
0
100
AcDbLine
10
-57.499999999776598
20
523.2170155843155
30
-7.8886090522101181e-29
11
-51.499999999776534
21
523.2170155843155
31
-9.0216762245431418e-29
0
LINE
5
161
100
AcDbEntity
8
0
100
AcDbLine
10
-51.499999999776534
20
523.2170155843155
30
-9.0216762245431418e-29
11
-51.499999999776584
21
515.7170155843155
31
4.4408920985005788e-15
0
LINE
5
162
100
AcDbEntity
8
0
100
AcDbLine
10
-51.499999999776584
20
515.7170155843155
30
4.4408920985005788e-15
11
-57.499999999776641
21
515.7170155843155
31
9.0216762245433402e-29
0
LINE
5
163
100
AcDbEntity
8
0
100
AcDbLine
10
-57.499999999776641
20
515.7170155843155
30
9.0216762245433402e-29
11
-57.499999999776591
21
506.55034891764871
31
-7.8886090522101181e-29
0
LINE
5
164
100
AcDbEntity
8
0
100
AcDbLine
10
-57.499999999776591
20
506.55034891764871
30
-7.8886090522101181e-29
11
-51.499999999776534
21
506.55034891764871
31
-9.0216762245433402e-29
0
LINE
5
165
100
AcDbEntity
8
0
100
AcDbLine
10
-51.499999999776534
20
506.55034891764871
30
-9.0216762245433402e-29
11
-51.499999999776556
21
499.05034891764865
31
-3.1554436208840472e-29
0
LINE
5
166
100
AcDbEntity
8
0
100
AcDbLine
10
-51.499999999776556
20
499.05034891764865
30
-3.1554436208840472e-29
11
-57.49999999977662
21
499.05034891764871
31
4.4408920985007161e-15
0
LINE
5
167
100
AcDbEntity
8
0
100
AcDbLine
10
-57.49999999977662
20
499.05034891764871
30
4.4408920985007161e-15
11
-57.499999999776577
21
489.88368225098202
31
-7.8886090522101181e-29
0
LINE
5
168
100
AcDbEntity
8
0
100
AcDbLine
10
-57.499999999776577
20
489.88368225098202
30
-7.8886090522101181e-29
11
-51.49999999977652
21
489.88368225098202
31
-9.0216762245431418e-29
0
LINE
5
169
100
AcDbEntity
8
0
100
AcDbLine
10
-51.49999999977652
20
489.88368225098202
30
-9.0216762245431418e-29
11
-51.499999999776698
21
486.15938802274331
31
-1.5303901561287629e-27
0
LINE
5
170
100
AcDbEntity
8
0
100
AcDbLine
10
-21.499999999776747
20
486.15938802274337
30
1.0842021720344206e-18
11
-21.499999999776804
21
589.88368225097918
31
-4.4408920985007524e-15
0
LINE
5
171
100
AcDbEntity
8
0
100
AcDbLine
10
57.500000000218648
20
573.21701558431619
30
0
11
57.50000000021862
21
582.38368225098293
31
4.7331654313260708e-29
0
LINE
5
172
100
AcDbEntity
8
0
100
AcDbLine
10
57.50000000021862
20
582.38368225098293
30
4.7331654313260708e-29
11
51.500000000218549
21
582.38368225098282
31
9.0216762245431687e-29
0
LINE
5
173
100
AcDbEntity
8
0
100
AcDbLine
10
51.500000000218549
20
582.38368225098282
30
9.0216762245431687e-29
11
51.500000000218023
21
589.8836822509794
31
-2.2876966251409342e-27
0
LINE
5
174
100
AcDbEntity
8
0
100
AcDbLine
10
21.500000000223029
20
589.88368225097929
30
1.1422892149801637e-27
11
21.500000000223093
21
486.15938802274343
31
1.2621774483536189e-28
0
LINE
5
175
100
AcDbEntity
8
0
100
AcDbLine
10
51.500000000218087
20
486.15938802274354
30
4.4408920985001749e-15
11
51.500000000218634
21
489.88368225098236
31
2.469134633341767e-27
0
LINE
5
176
100
AcDbEntity
8
0
100
AcDbLine
10
51.500000000218634
20
489.88368225098236
30
2.469134633341767e-27
11
57.500000000218691
21
489.88368225098236
31
-9.0216762245433672e-29
0
LINE
5
177
100
AcDbEntity
8
0
100
AcDbLine
10
57.500000000218691
20
489.88368225098236
30
-9.0216762245433672e-29
11
57.500000000218662
21
499.05034891764905
31
7.8886090522101181e-29
0
LINE
5
178
100
AcDbEntity
8
0
100
AcDbLine
10
57.500000000218662
20
499.05034891764905
30
7.8886090522101181e-29
11
51.50000000021862
21
499.05034891764905
31
4.4408920985007161e-15
0
LINE
5
179
100
AcDbEntity
8
0
100
AcDbLine
10
51.50000000021862
20
499.05034891764905
30
4.4408920985007161e-15
11
51.500000000218627
21
506.5503489176491
31
3.1554436208840472e-29
0
LINE
5
180
100
AcDbEntity
8
0
100
AcDbLine
10
51.500000000218627
20
506.5503489176491
30
3.1554436208840472e-29
11
57.500000000218691
21
506.55034891764905
31
-9.0216762245431687e-29
0
LINE
5
181
100
AcDbEntity
8
0
100
AcDbLine
10
57.500000000218691
20
506.55034891764905
30
-9.0216762245431687e-29
11
57.500000000218648
21
515.71701558431585
31
7.8886090522101181e-29
0
LINE
5
182
100
AcDbEntity
8
0
100
AcDbLine
10
57.500000000218648
20
515.71701558431585
30
7.8886090522101181e-29
11
51.500000000218584
21
515.71701558431585
31
9.0216762245431687e-29
0
LINE
5
183
100
AcDbEntity
8
0
100
AcDbLine
10
51.500000000218584
20
515.71701558431585
30
9.0216762245431687e-29
11
51.50000000021862
21
523.21701558431596
31
3.1554436208840472e-29
0
LINE
5
184
100
AcDbEntity
8
0
100
AcDbLine
10
51.50000000021862
20
523.21701558431596
30
3.1554436208840472e-29
11
57.500000000218691
21
523.21701558431596
31
-9.0216762245431687e-29
0
LINE
5
185
100
AcDbEntity
8
0
100
AcDbLine
10
57.500000000218691
20
523.21701558431596
30
-9.0216762245431687e-29
11
57.500000000218641
21
532.38368225098259
31
4.440892098500705e-15
0
LINE
5
186
100
AcDbEntity
8
0
100
AcDbLine
10
57.500000000218641
20
532.38368225098259
30
4.440892098500705e-15
11
51.500000000218584
21
532.38368225098259
31
4.4408920985007161e-15
0
LINE
5
187
100
AcDbEntity
8
0
100
AcDbLine
10
51.500000000218584
20
532.38368225098259
30
4.4408920985007161e-15
11
51.500000000218606
21
539.88368225098259
31
4.7331654313260708e-29
0
LINE
5
188
100
AcDbEntity
8
0
100
AcDbLine
10
51.500000000218606
20
539.88368225098259
30
4.7331654313260708e-29
11
57.50000000021867
21
539.88368225098259
31
-9.0216762245431687e-29
0
LINE
5
189
100
AcDbEntity
8
0
100
AcDbLine
10
57.50000000021867
20
539.88368225098259
30
-9.0216762245431687e-29
11
57.500000000218634
21
549.05034891764933
31
7.8886090522101181e-29
0
LINE
5
190
100
AcDbEntity
8
0
100
AcDbLine
10
57.500000000218634
20
549.05034891764933
30
7.8886090522101181e-29
11
51.500000000218584
21
549.05034891764933
31
9.0216762245431687e-29
0
LINE
5
191
100
AcDbEntity
8
0
100
AcDbLine
10
51.500000000218584
20
549.05034891764933
30
9.0216762245431687e-29
11
51.500000000218606
21
556.55034891764944
31
4.7331654313260708e-29
0
LINE
5
192
100
AcDbEntity
8
0
100
AcDbLine
10
51.500000000218606
20
556.55034891764944
30
4.7331654313260708e-29
11
57.50000000021867
21
556.55034891764933
31
-9.0216762245431687e-29
0
LINE
5
193
100
AcDbEntity
8
0
100
AcDbLine
10
57.50000000021867
20
556.55034891764933
30
-9.0216762245431687e-29
11
57.500000000218634
21
565.71701558431619
31
4.440892098500705e-15
0
LINE
5
194
100
AcDbEntity
8
0
100
AcDbLine
10
57.500000000218634
20
565.71701558431619
30
4.440892098500705e-15
11
51.500000000218563
21
565.71701558431619
31
4.4408920985007161e-15
0
LINE
5
195
100
AcDbEntity
8
0
100
AcDbLine
10
51.500000000218563
20
565.71701558431619
30
4.4408920985007161e-15
11
51.500000000218584
21
573.21701558431619
31
3.1554436208840472e-29
0
LINE
5
196
100
AcDbEntity
8
0
100
AcDbLine
10
51.500000000218584
20
573.21701558431619
30
3.1554436208840472e-29
11
57.500000000218648
21
573.21701558431619
31
0
0
LINE
5
197
100
AcDbEntity
8
0
100
AcDbLine
10
36.499999244046684
20
486.15938802274349
30
-2.7105054266315765e-19
11
36.499999244046684
21
480.15938802274854
31
-3.1554436208840472e-29
0
LINE
5
198
100
AcDbEntity
8
0
100
AcDbLine
10
36.499999244046684
20
480.15938802274854
30
-3.1554436208840472e-29
11
43.999998865958567
21
480.15938802274843
31
2.3298696030804265e-28
0
LINE
5
199
100
AcDbEntity
8
0
100
AcDbLine
10
43.999998865958567
20
480.15938802274843
30
2.3298696030804265e-28
11
43.999998865958567
21
486.15938802274354
31
0
0
LINE
5
200
100
AcDbEntity
8
0
100
AcDbLine
10
21.500000000223096
20
486.15938802274349
30
-4.4408920985008589e-15
11
21.500000000222915
21
480.15938802274854
31
4.4408920985011153e-15
0
LINE
5
201
100
AcDbEntity
8
0
100
AcDbLine
10
21.500000000222915
20
480.15938802274854
30
4.4408920985011153e-15
11
28.999999622134798
21
480.15938802274843
31
-4.4406210479572713e-15
0
LINE
5
202
100
AcDbEntity
8
0
100
AcDbLine
10
28.999999622134798
20
480.15938802274843
30
-4.4406210479572713e-15
11
28.999999622134812
21
486.15938802274349
31
-4.4408920985006262e-15
0
LINE
5
203
100
AcDbEntity
8
0
100
AcDbLine
10
-44.017449450022291
20
486.1593880227432
30
-4.4398078963276815e-15
11
-44.017449450022312
21
480.15938802274854
31
-2.3665827156630354e-29
0
LINE
5
204
100
AcDbEntity
8
0
100
AcDbLine
10
-44.017449450022312
20
480.15938802274854
30
-2.3665827156630354e-29
11
-36.517452852815488
21
480.15938802274854
31
-1.0842021729443447e-18
0
LINE
5
205
100
AcDbEntity
8
0
100
AcDbLine
10
-36.517452852815488
20
480.15938802274854
30
-1.0842021729443447e-18
11
-36.517452852815467
21
486.15938802274331
31
-4.4408920985006262e-15
0
LINE
5
206
100
AcDbEntity
8
0
100
AcDbLine
10
36.499999244046684
20
486.15938802274349
30
-2.7105054266315765e-19
11
28.999999622134812
21
486.15938802274349
31
-4.4408920985006262e-15
0
LINE
5
207
100
AcDbEntity
8
0
100
AcDbLine
10
51.500000000218087
20
486.15938802274354
30
4.4408920985001749e-15
11
43.999998865958567
21
486.15938802274354
31
0
0
LINE
5
208
100
AcDbEntity
8
0
100
AcDbLine
10
-29.017456255608664
20
486.15938802274337
30
2.7105054288901098e-19
11
-29.017456255608675
21
480.15938802274854
31
4.4408920985005394e-15
0
LINE
5
209
100
AcDbEntity
8
0
100
AcDbLine
10
-29.017456255608675
20
480.15938802274854
30
4.4408920985005394e-15
11
-21.517459658401876
21
480.15938802274843
31
-2.7105054288901098e-19
0
LINE
5
210
100
AcDbEntity
8
0
100
AcDbLine
10
-21.517459658401876
20
480.15938802274843
30
-2.7105054288901098e-19
11
-21.517459658401862
21
486.15938802274337
31
0
0
LINE
5
211
100
AcDbEntity
8
0
100
AcDbLine
10
-29.017456255608664
20
486.15938802274337
30
2.7105054288901098e-19
11
-36.517452852815467
21
486.15938802274331
31
-4.4408920985006262e-15
0
LINE
5
212
100
AcDbEntity
8
0
100
AcDbLine
10
-44.017449450022291
20
486.1593880227432
30
-4.4398078963276815e-15
11
-51.499999999776698
21
486.15938802274331
31
-1.5303901561287629e-27
0
LINE
5
213
100
AcDbEntity
8
0
100
AcDbLine
10
-21.499999999776747
20
486.15938802274337
30
1.0842021720344206e-18
11
-21.517459658401876
21
480.15938802274843
31
-2.7105054288901098e-19
0
LINE
5
214
100
AcDbEntity
8
0
100
AcDbLine
10
57.500000000217753
20
589.88368225097827
30
4.4452289071907457e-15
11
51.500000000218023
21
589.8836822509794
31
-2.2876966251409342e-27
0
LINE
5
215
100
AcDbEntity
8
0
100
AcDbLine
10
21.500000000223029
20
589.88368225097929
30
1.1422892149801637e-27
11
-21.499999999776804
21
589.88368225097918
31
-4.4408920985007524e-15
0
LINE
5
216
100
AcDbEntity
8
0
100
AcDbLine
10
-51.499999999776762
20
589.88368225097906
30
4.4408920985006262e-15
11
-57.499999999781728
21
589.88368225097827
31
-1.5777218104420236e-29
0
ENDSEC
0
SECTION
2
OBJECTS
0
DICTIONARY
5
C
100
AcDbDictionary
3
ACAD_GROUP
350
D
3
ACAD_MLINESTYLE
350
17
0
DICTIONARY
5
D
100
AcDbDictionary
0
DICTIONARY
5
1A
330
C
100
AcDbDictionary
0
DICTIONARY
5
17
100
AcDbDictionary
0
ENDSEC
0
EOF
