0
SECTION
2
HEADER
9
$INSUNITS
70
4
9
$ACADVER
1
AC1014
9
$HANDSEED
5
FFFF
0
ENDSEC
0
SECTION
2
TABLES
0
TABLE
2
VPORT
5
8
100
AcDbSymbolTable
0
ENDTAB
0
TABLE
2
LTYPE
5
5
100
AcDbSymbolTable
0
LTYPE
5
14
100
AcDbSymbolTableRecord
100
AcDbLinetypeTableRecord
2
BYBLOCK
70
0
0
LTYPE
5
15
100
AcDbSymbolTableRecord
100
AcDbLinetypeTableRecord
2
BYLAYER
70
0
0
ENDTAB
0
TABLE
2
LAYER
5
2
100
AcDbSymbolTable
70
2
0
LAYER
5
50
100
AcDbSymbolTableRecord
100
AcDbLayerTableRecord
2
0
70
0
6
CONTINUOUS
0
ENDTAB
0
TABLE
2
STYLE
5
3
100
AcDbSymbolTable
70
1
0
STYLE
5
11
100
AcDbSymbolTableRecord
100
AcDbTextStyleTableRecord
2
STANDARD
70
0
0
ENDTAB
0
TABLE
2
VIEW
5
6
100
AcDbSymbolTable
70
0
0
ENDTAB
0
TABLE
2
UCS
5
7
100
AcDbSymbolTable
70
0
0
ENDTAB
0
TABLE
2
APPID
5
9
100
AcDbSymbolTable
70
2
0
APPID
5
12
100
AcDbSymbolTableRecord
100
AcDbRegAppTableRecord
2
ACAD
70
0
0
ENDTAB
0
TABLE
2
DIMSTYLE
5
A
100
AcDbSymbolTable
70
1
0
ENDTAB
0
TABLE
2
BLOCK_RECORD
5
1
100
AcDbSymbolTable
70
1
0
BLOCK_RECORD
5
1F
100
AcDbSymbolTableRecord
100
AcDbBlockTableRecord
2
*MODEL_SPACE
0
BLOCK_RECORD
5
1B
100
AcDbSymbolTableRecord
100
AcDbBlockTableRecord
2
*PAPER_SPACE
0
ENDTAB
0
ENDSEC
0
SECTION
2
BLOCKS
0
BLOCK
5
20
100
AcDbEntity
100
AcDbBlockBegin
2
*MODEL_SPACE
0
ENDBLK
5
21
100
AcDbEntity
100
AcDbBlockEnd
0
BLOCK
5
1C
100
AcDbEntity
100
AcDbBlockBegin
2
*PAPER_SPACE
0
ENDBLK
5
1D
100
AcDbEntity
100
AcDbBlockEnd
0
ENDSEC
0
SECTION
2
ENTITIES
0
LINE
5
100
100
AcDbEntity
8
0
100
AcDbLine
10
-8.9811860603803915
20
586.9418418549659
30
0
11
-8.9811860603700922
21
624.9418418549551
31
4.8909376123702732e-28
0
LINE
5
101
100
AcDbEntity
8
0
100
AcDbLine
10
-8.9811860603700922
20
624.9418418549551
30
4.8909376123702732e-28
11
9.0188130322188833
21
624.94184185495101
31
8.8817597368260665e-15
0
LINE
5
102
100
AcDbEntity
8
0
100
AcDbLine
10
9.0188130322188833
20
624.94184185495101
30
8.8817597368260665e-15
11
9.0188130322085858
21
586.94184185496181
31
-3.4709879829724519e-28
0
LINE
5
103
100
AcDbEntity
8
0
100
AcDbLine
10
21.518812402061549
20
586.94184185495919
30
-2.2779969767053772e-19
11
21.518812402064359
21
596.44184185495897
31
1.2227344030925683e-28
0
LINE
5
104
100
AcDbEntity
8
0
100
AcDbLine
10
21.518812402064359
20
596.44184185495897
30
1.2227344030925683e-28
11
27.518812099593902
21
596.44184185495772
31
-9.8502754204730484e-20
0
LINE
5
105
100
AcDbEntity
8
0
100
AcDbLine
10
27.518812099593902
20
596.44184185495772
30
-9.8502754204730484e-20
11
27.518812099595934
21
603.94184185495772
31
1.0846837446788912e-28
0
LINE
5
106
100
AcDbEntity
8
0
100
AcDbLine
10
27.518812099595934
20
603.94184185495772
30
1.0846837446788912e-28
11
21.518812402066384
21
603.94184185495897
31
9.8502754204730484e-20
0
LINE
5
107
100
AcDbEntity
8
0
100
AcDbLine
10
21.518812402066384
20
603.94184185495897
30
9.8502754204730484e-20
11
21.518812402068413
21
611.44184185495897
31
1.0649622220483659e-28
0
LINE
5
108
100
AcDbEntity
8
0
100
AcDbLine
10
21.518812402068413
20
611.44184185495897
30
1.0649622220483659e-28
11
27.518812099597966
21
611.44184185495772
31
-9.8502754204730484e-20
0
LINE
5
109
100
AcDbEntity
8
0
100
AcDbLine
10
27.518812099597966
20
611.44184185495772
30
-9.8502754204730484e-20
11
27.518812099599998
21
618.94184185495772
31
1.0846837446788912e-28
0
LINE
5
110
100
AcDbEntity
8
0
100
AcDbLine
10
27.518812099599998
20
618.94184185495772
30
1.0846837446788912e-28
11
21.518812402070449
21
618.94184185495908
31
9.8502754204730484e-20
0
LINE
5
111
100
AcDbEntity
8
0
100
AcDbLine
10
21.518812402070449
20
618.94184185495908
30
9.8502754204730484e-20
11
21.518812402072477
21
626.44184185495908
31
-8.8817841970011655e-15
0
LINE
5
112
100
AcDbEntity
8
0
100
AcDbLine
10
21.518812402072477
20
626.44184185495908
30
-8.8817841970011655e-15
11
27.518812099602027
21
626.44184185495783
31
-9.8502754204730484e-20
0
LINE
5
113
100
AcDbEntity
8
0
100
AcDbLine
10
27.518812099602027
20
626.44184185495783
30
-9.8502754204730484e-20
11
27.518812099604062
21
633.94184185495772
31
5.9164567891575885e-29
0
LINE
5
114
100
AcDbEntity
8
0
100
AcDbLine
10
27.518812099604062
20
633.94184185495772
30
5.9164567891575885e-29
11
21.518812402074516
21
633.94184185495908
31
9.8502754204730484e-20
0
LINE
5
115
100
AcDbEntity
8
0
100
AcDbLine
10
21.518812402074516
20
633.94184185495908
30
9.8502754204730484e-20
11
21.518812402075454
21
637.44184185494851
31
3.1554436208840472e-29
0
LINE
5
116
100
AcDbEntity
8
0
100
AcDbLine
10
21.518812402075454
20
637.44184185494851
30
3.1554436208840472e-29
11
11.268812918796341
21
637.44184185496101
31
-8.8819660323098196e-15
0
LINE
5
117
100
AcDbEntity
8
0
100
AcDbLine
10
11.268812918796341
20
637.44184185496101
30
-8.8819660323098196e-15
11
11.268812918797968
21
643.4418418549609
31
-8.881784197001164e-15
0
LINE
5
118
100
AcDbEntity
8
0
100
AcDbLine
10
11.268812918797968
20
643.4418418549609
30
-8.881784197001164e-15
11
3.768813296885992
21
643.4418418549626
31
-8.0159161662531366e-20
0
LINE
5
119
100
AcDbEntity
8
0
100
AcDbLine
10
3.768813296885992
20
643.4418418549626
30
-8.0159161662531366e-20
11
3.7688132968843662
21
637.4418418549626
31
-6.9025329206838533e-29
0
LINE
5
120
100
AcDbEntity
8
0
100
AcDbLine
10
3.7688132968843662
20
637.4418418549626
30
-6.9025329206838533e-29
11
-3.7311863250275983
21
637.44184185496442
31
-8.015924244188806e-20
0
LINE
5
121
100
AcDbEntity
8
0
100
AcDbLine
10
-3.7311863250275983
20
637.44184185496442
30
-8.015924244188806e-20
11
-3.7311863250259725
21
643.44184185496431
31
4.141519752410312e-29
0
LINE
5
122
100
AcDbEntity
8
0
100
AcDbLine
10
-3.7311863250259725
20
643.44184185496431
30
4.141519752410312e-29
11
-11.231185946937948
21
643.44184185496613
31
-8.0159161626772359e-20
0
LINE
5
123
100
AcDbEntity
8
0
100
AcDbLine
10
-11.231185946937948
20
643.44184185496613
30
-8.0159161626772359e-20
11
-11.231185946939576
21
637.44184185496613
31
-4.141519752410312e-29
0
LINE
5
124
100
AcDbEntity
8
0
100
AcDbLine
10
-11.231185946939576
20
637.44184185496613
30
-4.141519752410312e-29
11
-21.481185430220037
21
637.44184185495828
31
-8.8819660223984608e-15
0
LINE
5
125
100
AcDbEntity
8
0
100
AcDbLine
10
-21.481185430220037
20
637.44184185495828
30
-8.8819660223984608e-15
11
-21.481185430220975
21
633.94184185496897
31
-8.8817841970013281e-15
0
LINE
5
126
100
AcDbEntity
8
0
100
AcDbLine
10
-21.481185430220975
20
633.94184185496897
30
-8.8817841970013281e-15
11
-27.481185127750525
21
633.94184185497033
31
9.8502754204730484e-20
0
LINE
5
127
100
AcDbEntity
8
0
100
AcDbLine
10
-27.481185127750525
20
633.94184185497033
30
9.8502754204730484e-20
11
-27.481185127752564
21
626.44184185497033
31
8.8817841970011924e-15
0
LINE
5
128
100
AcDbEntity
8
0
100
AcDbLine
10
-27.481185127752564
20
626.44184185497033
30
8.8817841970011924e-15
11
-21.481185430223015
21
626.44184185496897
31
-9.8502754204730484e-20
0
LINE
5
129
100
AcDbEntity
8
0
100
AcDbLine
10
-21.481185430223015
20
626.44184185496897
30
-9.8502754204730484e-20
11
-21.481185430225047
21
618.94184185496897
31
-8.6774699574311299e-29
0
LINE
5
130
100
AcDbEntity
8
0
100
AcDbLine
10
-21.481185430225047
20
618.94184185496897
30
-8.6774699574311299e-29
11
-27.481185127754593
21
618.94184185497022
31
-8.8816856942470474e-15
0
LINE
5
131
100
AcDbEntity
8
0
100
AcDbLine
10
-27.481185127754593
20
618.94184185497022
30
-8.8816856942470474e-15
11
-27.481185127756621
21
611.44184185497022
31
-1.0846837446788912e-28
0
LINE
5
132
100
AcDbEntity
8
0
100
AcDbLine
10
-27.481185127756621
20
611.44184185497022
30
-1.0846837446788912e-28
11
-21.481185430227075
21
611.44184185496886
31
8.8816856942470474e-15
0
LINE
5
133
100
AcDbEntity
8
0
100
AcDbLine
10
-21.481185430227075
20
611.44184185496886
30
8.8816856942470474e-15
11
-21.481185430229104
21
603.94184185496886
31
-1.0649622220483659e-28
0
LINE
5
134
100
AcDbEntity
8
0
100
AcDbLine
10
-21.481185430229104
20
603.94184185496886
30
-1.0649622220483659e-28
11
-27.481185127758657
21
603.94184185497022
31
9.8502754204730484e-20
0
LINE
5
135
100
AcDbEntity
8
0
100
AcDbLine
10
-27.481185127758657
20
603.94184185497022
30
9.8502754204730484e-20
11
-27.481185127760686
21
596.44184185497022
31
8.8817841970011435e-15
0
LINE
5
136
100
AcDbEntity
8
0
100
AcDbLine
10
-27.481185127760686
20
596.44184185497022
30
8.8817841970011435e-15
11
-21.481185430231136
21
596.44184185496886
31
-9.8502754204730484e-20
0
LINE
5
137
100
AcDbEntity
8
0
100
AcDbLine
10
-21.481185430231136
20
596.44184185496886
30
-9.8502754204730484e-20
11
-21.481185430233548
21
586.94184185496897
31
-8.8817841970013186e-15
0
LINE
5
138
100
AcDbEntity
8
0
100
AcDbLine
10
14.000000000027095
20
489.15944994986518
30
0
11
21.50000000000724
21
489.15944994986808
31
-2.1678996979246719e-27
0
LINE
5
139
100
AcDbEntity
8
0
100
AcDbLine
10
21.50000000000724
20
489.15944994986808
30
-2.1678996979246719e-27
11
21.500000000007535
21
496.10850852163907
31
8.8746851837363828e-29
0
LINE
5
140
100
AcDbEntity
8
0
100
AcDbLine
10
21.500000000007535
20
496.10850852163907
30
8.8746851837363828e-29
11
27.482296472962574
21
496.10850852163901
31
3.6338459367223809e-29
0
LINE
5
141
100
AcDbEntity
8
0
100
AcDbLine
10
27.482296472962574
20
496.10850852163901
30
3.6338459367223809e-29
11
27.482296472962865
21
503.60850852163907
31
9.4663308626521417e-29
0
LINE
5
142
100
AcDbEntity
8
0
100
AcDbLine
10
27.482296472962865
20
503.60850852163907
30
9.4663308626521417e-29
11
21.500000000007844
21
503.60850852163912
31
1.066976010214806e-28
0
LINE
5
143
100
AcDbEntity
8
0
100
AcDbLine
10
21.500000000007844
20
503.60850852163912
30
1.066976010214806e-28
11
21.500000000008225
21
512.77517518830587
31
1.1832913578315177e-28
0
LINE
5
144
100
AcDbEntity
8
0
100
AcDbLine
10
21.500000000008225
20
512.77517518830587
30
1.1832913578315177e-28
11
27.482296472963217
21
512.77517518830587
31
3.633845936722354e-29
0
LINE
5
145
100
AcDbEntity
8
0
100
AcDbLine
10
27.482296472963217
20
512.77517518830587
30
3.633845936722354e-29
11
27.482296472963512
21
520.27517518830587
31
9.4663308626521417e-29
0
LINE
5
146
100
AcDbEntity
8
0
100
AcDbLine
10
27.482296472963512
20
520.27517518830587
30
9.4663308626521417e-29
11
21.500000000008541
21
520.27517518830587
31
8.8817841970013596e-15
0
LINE
5
147
100
AcDbEntity
8
0
100
AcDbLine
10
21.500000000008541
20
520.27517518830587
30
8.8817841970013596e-15
11
21.500000000008917
21
529.44184185497261
31
1.1438483125704671e-28
0
LINE
5
148
100
AcDbEntity
8
0
100
AcDbLine
10
21.500000000008917
20
529.44184185497261
30
1.1438483125704671e-28
11
27.48229647296386
21
529.44184185497261
31
3.6338459367223237e-29
0
LINE
5
149
100
AcDbEntity
8
0
100
AcDbLine
10
27.48229647296386
20
529.44184185497261
30
3.6338459367223237e-29
11
27.482296472964155
21
536.94184185497261
31
9.4663308626521417e-29
0
LINE
5
150
100
AcDbEntity
8
0
100
AcDbLine
10
27.482296472964155
20
536.94184185497261
30
9.4663308626521417e-29
11
21.500000000009226
21
536.94184185497272
31
8.8817841970013596e-15
0
LINE
5
151
100
AcDbEntity
8
0
100
AcDbLine
10
21.500000000009226
20
536.94184185497272
30
8.8817841970013596e-15
11
21.500000000009607
21
546.10850852163935
31
1.1438483125704671e-28
0
LINE
5
152
100
AcDbEntity
8
0
100
AcDbLine
10
21.500000000009607
20
546.10850852163935
30
1.1438483125704671e-28
11
27.48229647296451
21
546.10850852163924
31
3.6338459367222962e-29
0
LINE
5
153
100
AcDbEntity
8
0
100
AcDbLine
10
27.48229647296451
20
546.10850852163924
30
3.6338459367222962e-29
11
27.482296472964801
21
553.60850852163935
31
8.881784197001347e-15
0
LINE
5
154
100
AcDbEntity
8
0
100
AcDbLine
10
27.482296472964801
20
553.60850852163935
30
8.881784197001347e-15
11
21.500000000009916
21
553.60850852163946
31
1.0669760102148143e-28
0
LINE
5
155
100
AcDbEntity
8
0
100
AcDbLine
10
21.500000000009916
20
553.60850852163946
30
1.0669760102148143e-28
11
21.500000000010292
21
562.77517518830609
31
1.1832913578315177e-28
0
LINE
5
156
100
AcDbEntity
8
0
100
AcDbLine
10
21.500000000010292
20
562.77517518830609
30
1.1832913578315177e-28
11
27.482296472965153
21
562.77517518830609
31
8.881784197001287e-15
0
LINE
5
157
100
AcDbEntity
8
0
100
AcDbLine
10
27.482296472965153
20
562.77517518830609
30
8.881784197001287e-15
11
27.482296472965444
21
570.27517518830621
31
8.881784197001347e-15
0
LINE
5
158
100
AcDbEntity
8
0
100
AcDbLine
10
27.482296472965444
20
570.27517518830621
30
8.881784197001347e-15
11
21.500000000010605
21
570.27517518830621
31
1.0669760102148169e-28
0
LINE
5
159
100
AcDbEntity
8
0
100
AcDbLine
10
21.500000000010605
20
570.27517518830621
30
1.0669760102148169e-28
11
21.500000000010985
21
579.44184185497284
31
1.1438483125704671e-28
0
LINE
5
160
100
AcDbEntity
8
0
100
AcDbLine
10
21.500000000010985
20
579.44184185497284
30
1.1438483125704671e-28
11
27.4822964729658
21
579.44184185497284
31
3.6338459367222424e-29
0
LINE
5
161
100
AcDbEntity
8
0
100
AcDbLine
10
27.4822964729658
20
579.44184185497284
30
3.6338459367222424e-29
11
27.482296472966091
21
586.94184185496977
31
9.4663308626521417e-29
0
LINE
5
162
100
AcDbEntity
8
0
100
AcDbLine
10
9.000000000510056
20
586.94184185497306
30
6.7534632799574984e-27
11
9.0000000005064003
21
498.65938802274673
31
-1.1044052673094165e-27
0
LINE
5
163
100
AcDbEntity
8
0
100
AcDbLine
10
9.0000000005064003
20
498.65938802274673
30
-1.1044052673094165e-27
11
-8.9999999994890789
21
498.65938802274673
31
3.3698070944874968e-29
0
LINE
5
164
100
AcDbEntity
8
0
100
AcDbLine
10
-8.9999999994890789
20
498.65938802274673
30
3.3698070944874968e-29
11
-8.999999999485425
21
586.94184185497306
31
1.1044052673094165e-27
0
LINE
5
165
100
AcDbEntity
8
0
100
AcDbLine
10
-27.481190673074849
20
586.94184185496954
30
-7.1210278607563626e-27
11
-27.48119067307514
21
579.44184185497272
31
-9.4663308626521417e-29
0
LINE
5
166
100
AcDbEntity
8
0
100
AcDbLine
10
-27.48119067307514
20
579.44184185497272
30
-9.4663308626521417e-29
11
-21.499999999990884
21
579.44184185497272
31
3.6331742370857685e-29
0
LINE
5
167
100
AcDbEntity
8
0
100
AcDbLine
10
-21.499999999990884
20
579.44184185497272
30
3.6331742370857685e-29
11
-21.499999999991264
21
570.27517518830609
31
-1.1438483125704671e-28
0
LINE
5
168
100
AcDbEntity
8
0
100
AcDbLine
10
-21.499999999991264
20
570.27517518830609
30
-1.1438483125704671e-28
11
-27.481190673075492
21
570.27517518830609
31
-3.6331742370857495e-29
0
LINE
5
169
100
AcDbEntity
8
0
100
AcDbLine
10
-27.481190673075492
20
570.27517518830609
30
-3.6331742370857495e-29
11
-27.481190673075787
21
562.77517518830587
31
-9.4663308626521417e-29
0
LINE
5
170
100
AcDbEntity
8
0
100
AcDbLine
10
-27.481190673075787
20
562.77517518830587
30
-9.4663308626521417e-29
11
-21.499999999991573
21
562.77517518830598
31
8.881784197001287e-15
0
LINE
5
171
100
AcDbEntity
8
0
100
AcDbLine
10
-21.499999999991573
20
562.77517518830598
30
8.881784197001287e-15
11
-21.499999999991953
21
553.60850852163924
31
-1.1832913578315177e-28
0
LINE
5
172
100
AcDbEntity
8
0
100
AcDbLine
10
-21.499999999991953
20
553.60850852163924
30
-1.1832913578315177e-28
11
-27.481190673076142
21
553.60850852163924
31
-8.881784197001287e-15
0
LINE
5
173
100
AcDbEntity
8
0
100
AcDbLine
10
-27.481190673076142
20
553.60850852163924
30
-8.881784197001287e-15
11
-27.48119067307643
21
546.10850852163912
31
-9.4663308626521417e-29
0
LINE
5
174
100
AcDbEntity
8
0
100
AcDbLine
10
-27.48119067307643
20
546.10850852163912
30
-9.4663308626521417e-29
11
-21.499999999992262
21
546.10850852163912
31
8.881784197001287e-15
0
LINE
5
175
100
AcDbEntity
8
0
100
AcDbLine
10
-21.499999999992262
20
546.10850852163912
30
8.881784197001287e-15
11
-21.499999999992639
21
536.94184185497249
31
-1.1438483125704671e-28
0
LINE
5
176
100
AcDbEntity
8
0
100
AcDbLine
10
-21.499999999992639
20
536.94184185497249
30
-1.1438483125704671e-28
11
-27.481190673076785
21
536.94184185497261
31
-3.6331742370856547e-29
0
LINE
5
177
100
AcDbEntity
8
0
100
AcDbLine
10
-27.481190673076785
20
536.94184185497261
30
-3.6331742370856547e-29
11
-27.481190673077073
21
529.44184185497238
31
8.8817841970011577e-15
0
LINE
5
178
100
AcDbEntity
8
0
100
AcDbLine
10
-27.481190673077073
20
529.44184185497238
30
8.8817841970011577e-15
11
-21.499999999992955
21
529.44184185497238
31
3.633174237085685e-29
0
LINE
5
179
100
AcDbEntity
8
0
100
AcDbLine
10
-21.499999999992955
20
529.44184185497238
30
3.633174237085685e-29
11
-21.499999999993335
21
520.27517518830575
31
-1.1438483125704671e-28
0
LINE
5
180
100
AcDbEntity
8
0
100
AcDbLine
10
-21.499999999993335
20
520.27517518830575
30
-1.1438483125704671e-28
11
-27.481190673077428
21
520.27517518830575
31
-3.6331742370856716e-29
0
LINE
5
181
100
AcDbEntity
8
0
100
AcDbLine
10
-27.481190673077428
20
520.27517518830575
30
-3.6331742370856716e-29
11
-27.48119067307772
21
512.77517518830564
31
8.8817841970011577e-15
0
LINE
5
182
100
AcDbEntity
8
0
100
AcDbLine
10
-27.48119067307772
20
512.77517518830564
30
8.8817841970011577e-15
11
-21.499999999993648
21
512.77517518830575
31
3.6331742370856547e-29
0
LINE
5
183
100
AcDbEntity
8
0
100
AcDbLine
10
-21.499999999993648
20
512.77517518830575
30
3.6331742370856547e-29
11
-21.499999999994024
21
503.60850852163901
31
-1.1832913578315177e-28
0
LINE
5
184
100
AcDbEntity
8
0
100
AcDbLine
10
-21.499999999994024
20
503.60850852163901
30
-1.1832913578315177e-28
11
-27.481190673078075
21
503.60850852163901
31
-3.6331742370856413e-29
0
LINE
5
185
100
AcDbEntity
8
0
100
AcDbLine
10
-27.481190673078075
20
503.60850852163901
30
-3.6331742370856413e-29
11
-27.481190673078363
21
496.10850852163884
31
-9.4663308626521417e-29
0
LINE
5
186
100
AcDbEntity
8
0
100
AcDbLine
10
-27.481190673078363
20
496.10850852163884
30
-9.4663308626521417e-29
11
-21.499999999994337
21
496.10850852163884
31
3.6331742370856284e-29
0
LINE
5
187
100
AcDbEntity
8
0
100
AcDbLine
10
-21.499999999994337
20
496.10850852163884
30
3.6331742370856284e-29
11
-21.499999999994625
21
489.15944994986796
31
-8.8746851837363828e-29
0
LINE
5
188
100
AcDbEntity
8
0
100
AcDbLine
10
-21.499999999994625
20
489.15944994986796
30
-8.8746851837363828e-29
11
-13.999999999975072
21
489.15944994986518
31
2.4020507495165956e-27
0
LINE
5
189
100
AcDbEntity
8
0
100
AcDbLine
10
-13.999999999975072
20
489.15944994986518
30
2.4020507495165956e-27
11
-13.999999999975552
21
483.15944994986927
31
-7.6913938259048651e-29
0
LINE
5
190
100
AcDbEntity
8
0
100
AcDbLine
10
-13.999999999975552
20
483.15944994986927
30
-7.6913938259048651e-29
11
-6.4999999999754721
21
483.15944994986893
31
-5.2658674595051794e-28
0
LINE
5
191
100
AcDbEntity
8
0
100
AcDbLine
10
-6.4999999999754721
20
483.15944994986893
30
-5.2658674595051794e-28
11
-6.4999999999749924
21
489.15944994986512
31
8.8817841970013312e-15
0
LINE
5
192
100
AcDbEntity
8
0
100
AcDbLine
10
-6.4999999999749924
20
489.15944994986512
30
8.8817841970013312e-15
11
6.5000000000270148
21
489.15944994986523
31
7.8966325704093738e-29
0
LINE
5
193
100
AcDbEntity
8
0
100
AcDbLine
10
6.5000000000270148
20
489.15944994986523
30
7.8966325704093738e-29
11
6.5000000000265343
21
483.15944994986853
31
-7.2969633732943592e-29
0
LINE
5
194
100
AcDbEntity
8
0
100
AcDbLine
10
6.5000000000265343
20
483.15944994986853
30
-7.2969633732943592e-29
11
14.000000000026613
21
483.15944994986813
31
-5.2658674595051794e-28
0
LINE
5
195
100
AcDbEntity
8
0
100
AcDbLine
10
14.000000000026613
20
483.15944994986813
30
-5.2658674595051794e-28
11
14.000000000027095
21
489.15944994986518
31
0
0
LINE
5
196
100
AcDbEntity
8
0
100
AcDbLine
10
-21.481185430233548
20
586.94184185496897
30
-8.8817841970013186e-15
11
-27.481190673074849
21
586.94184185496954
31
-7.1210278607563626e-27
0
LINE
5
197
100
AcDbEntity
8
0
100
AcDbLine
10
21.518812402061549
20
586.94184185495919
30
-2.2779969767053772e-19
11
27.482296472966091
21
586.94184185496977
31
9.4663308626521417e-29
0
LWPOLYLINE
5
198
100
AcDbEntity
8
0
100
AcDbPolyline
90
4
70
1
43
0.0
10
-8.9811860603700922
20
624.9418418549551
10
9.0000000005064003
20
624.9418418549551
10
9.0000000005064003
20
498.65938802274673
10
-8.9811860603700922
20
498.65938802274673
0
ENDSEC
0
SECTION
2
OBJECTS
0
DICTIONARY
5
C
100
AcDbDictionary
3
ACAD_GROUP
350
D
3
ACAD_MLINESTYLE
350
17
0
DICTIONARY
5
D
100
AcDbDictionary
0
DICTIONARY
5
1A
330
C
100
AcDbDictionary
0
DICTIONARY
5
17
100
AcDbDictionary
0
ENDSEC
0
EOF
