0
SECTION
2
HEADER
9
$INSUNITS
70
4
9
$ACADVER
1
AC1014
9
$HANDSEED
5
FFFF
0
ENDSEC
0
SECTION
2
TABLES
0
TABLE
2
VPORT
5
8
100
AcDbSymbolTable
0
ENDTAB
0
TABLE
2
LTYPE
5
5
100
AcDbSymbolTable
0
LTYPE
5
14
100
AcDbSymbolTableRecord
100
AcDbLinetypeTableRecord
2
BYBLOCK
70
0
0
LTYPE
5
15
100
AcDbSymbolTableRecord
100
AcDbLinetypeTableRecord
2
BYLAYER
70
0
0
ENDTAB
0
TABLE
2
LAYER
5
2
100
AcDbSymbolTable
70
2
0
LAYER
5
50
100
AcDbSymbolTableRecord
100
AcDbLayerTableRecord
2
0
70
0
6
CONTINUOUS
0
ENDTAB
0
TABLE
2
STYLE
5
3
100
AcDbSymbolTable
70
1
0
STYLE
5
11
100
AcDbSymbolTableRecord
100
AcDbTextStyleTableRecord
2
STANDARD
70
0
0
ENDTAB
0
TABLE
2
VIEW
5
6
100
AcDbSymbolTable
70
0
0
ENDTAB
0
TABLE
2
UCS
5
7
100
AcDbSymbolTable
70
0
0
ENDTAB
0
TABLE
2
APPID
5
9
100
AcDbSymbolTable
70
2
0
APPID
5
12
100
AcDbSymbolTableRecord
100
AcDbRegAppTableRecord
2
ACAD
70
0
0
ENDTAB
0
TABLE
2
DIMSTYLE
5
A
100
AcDbSymbolTable
70
1
0
ENDTAB
0
TABLE
2
BLOCK_RECORD
5
1
100
AcDbSymbolTable
70
1
0
BLOCK_RECORD
5
1F
100
AcDbSymbolTableRecord
100
AcDbBlockTableRecord
2
*MODEL_SPACE
0
BLOCK_RECORD
5
1B
100
AcDbSymbolTableRecord
100
AcDbBlockTableRecord
2
*PAPER_SPACE
0
ENDTAB
0
ENDSEC
0
SECTION
2
BLOCKS
0
BLOCK
5
20
100
AcDbEntity
100
AcDbBlockBegin
2
*MODEL_SPACE
0
ENDBLK
5
21
100
AcDbEntity
100
AcDbBlockEnd
0
BLOCK
5
1C
100
AcDbEntity
100
AcDbBlockBegin
2
*PAPER_SPACE
0
ENDBLK
5
1D
100
AcDbEntity
100
AcDbBlockEnd
0
ENDSEC
0
SECTION
2
ENTITIES
0
LWPOLYLINE
5
100
100
AcDbEntity
8
0
100
AcDbPolyline
90
68
70
1
43
0.0
10
38.039989555911248
20
-24.869759019682604
10
44.039989253440794
20
-24.867853856555332
10
44.037607799531656
20
-17.367854234643612
10
38.037608102002132
20
-17.369759397770885
10
38.035226648093058
20
-9.8697597758591709
10
44.035226345622547
20
-9.8678546127318949
10
44.032844891713417
20
-2.3678549908201854
10
38.032845194183949
20
-2.3697601539474595
10
38.030463740274868
20
5.1302394679642527
10
44.030463437804315
20
5.1321446310915286
10
44.028081983895177
20
12.632144253003244
10
38.028082286365759
20
12.630239089875968
10
38.025700832456685
20
20.130238711787676
10
44.025700529986082
20
20.132143874914959
10
44.023319076076945
20
27.632143496826664
10
38.023319378547569
20
27.630238333699388
10
38.020937924638496
20
35.130237955611101
10
44.02093762216785
20
35.132143118738377
10
44.018556168258705
20
42.632142740650103
10
38.018556470729393
20
42.63023757752282
10
38.016175016820313
20
50.130237199434532
10
44.016174714349603
20
50.132142362561815
10
44.013793260440465
20
57.632141984473513
10
38.013793562911204
20
57.630236821346237
10
38.01141210900213
20
65.130236443257957
10
44.011411806531356
20
65.132141606385247
10
44.007204571292021
20
78.382140938429416
10
38.007204873762525
20
78.380235775302125
10
38.009110036889837
20
72.380236077772764
10
30.208460153338336
20
72.377759159226741
10
30.206554990211039
20
78.377758856756103
10
22.706555368299178
20
78.375377402846993
10
22.708460531426475
20
72.375377705317618
10
15.208460909514622
20
72.372996251408509
10
15.20655574638732
20
78.37299594893787
10
7.7065561244754557
20
78.370614495028775
10
7.7084612876027494
20
72.370614797499385
10
0.20846166569089553
20
72.36823334359029
10
0.20655650256359998
20
78.368233041119666
10
-7.2934431193482663
20
78.365851587210543
10
-7.2915379562209708
20
72.365851889681181
10
-21.092187537301513
20
72.361469808007627
10
-21.047098676622408
20
-69.638523033520812
10
-7.2464490955416423
20
-69.634140951847542
10
-7.2445439324143486
20
-75.634140649376917
10
0.25545568949751574
20
-75.631759195467779
10
0.25355052637022168
20
-69.631759497938404
10
7.7535501482820752
20
-69.629378044029295
10
7.7554553114093707
20
-75.629377741558685
10
15.255454933321237
20
-75.626996287649561
10
15.253549770193944
20
-69.626996590120186
10
22.753549392105796
20
-69.624615136211062
10
22.755454555233094
20
-75.624614833740424
10
30.255454177144962
20
-75.6222333798313
10
30.253549014017658
20
-69.622233682301925
10
38.054198897569165
20
-69.619756763755873
10
38.056104060696462
20
-75.619756461285235
10
44.056103758225944
20
-75.617851298157944
10
44.051896522986375
20
-62.367851966113889
10
38.051896825456687
20
-62.369757129241165
10
38.049515371547614
20
-54.869757507329453
10
44.04951506907728
20
-54.867852344202177
10
44.047133615168129
20
-47.367852722290465
10
38.047133917638497
20
-47.369757885417734
10
38.044752463729424
20
-39.869758263506021
10
44.044752161259034
20
-39.867853100378746
10
44.042370707349889
20
-32.367853478467048
10
38.042371009820314
20
-32.369758641594316
0
ENDSEC
0
SECTION
2
OBJECTS
0
DICTIONARY
5
C
100
AcDbDictionary
3
ACAD_GROUP
350
D
3
ACAD_MLINESTYLE
350
17
0
DICTIONARY
5
D
100
AcDbDictionary
0
DICTIONARY
5
1A
330
C
100
AcDbDictionary
0
DICTIONARY
5
17
100
AcDbDictionary
0
ENDSEC
0
EOF
