0
SECTION
2
HEADER
9
$INSUNITS
70
4
9
$ACADVER
1
AC1014
9
$HANDSEED
5
FFFF
0
ENDSEC
0
SECTION
2
TABLES
0
TABLE
2
VPORT
5
8
100
AcDbSymbolTable
0
ENDTAB
0
TABLE
2
LTYPE
5
5
100
AcDbSymbolTable
0
LTYPE
5
14
100
AcDbSymbolTableRecord
100
AcDbLinetypeTableRecord
2
BYBLOCK
70
0
0
LTYPE
5
15
100
AcDbSymbolTableRecord
100
AcDbLinetypeTableRecord
2
BYLAYER
70
0
0
ENDTAB
0
TABLE
2
LAYER
5
2
100
AcDbSymbolTable
70
2
0
LAYER
5
50
100
AcDbSymbolTableRecord
100
AcDbLayerTableRecord
2
0
70
0
6
CONTINUOUS
0
ENDTAB
0
TABLE
2
STYLE
5
3
100
AcDbSymbolTable
70
1
0
STYLE
5
11
100
AcDbSymbolTableRecord
100
AcDbTextStyleTableRecord
2
STANDARD
70
0
0
ENDTAB
0
TABLE
2
VIEW
5
6
100
AcDbSymbolTable
70
0
0
ENDTAB
0
TABLE
2
UCS
5
7
100
AcDbSymbolTable
70
0
0
ENDTAB
0
TABLE
2
APPID
5
9
100
AcDbSymbolTable
70
2
0
APPID
5
12
100
AcDbSymbolTableRecord
100
AcDbRegAppTableRecord
2
ACAD
70
0
0
ENDTAB
0
TABLE
2
DIMSTYLE
5
A
100
AcDbSymbolTable
70
1
0
ENDTAB
0
TABLE
2
BLOCK_RECORD
5
1
100
AcDbSymbolTable
70
1
0
BLOCK_RECORD
5
1F
100
AcDbSymbolTableRecord
100
AcDbBlockTableRecord
2
*MODEL_SPACE
0
BLOCK_RECORD
5
1B
100
AcDbSymbolTableRecord
100
AcDbBlockTableRecord
2
*PAPER_SPACE
0
ENDTAB
0
ENDSEC
0
SECTION
2
BLOCKS
0
BLOCK
5
20
100
AcDbEntity
100
AcDbBlockBegin
2
*MODEL_SPACE
0
ENDBLK
5
21
100
AcDbEntity
100
AcDbBlockEnd
0
BLOCK
5
1C
100
AcDbEntity
100
AcDbBlockBegin
2
*PAPER_SPACE
0
ENDBLK
5
1D
100
AcDbEntity
100
AcDbBlockEnd
0
ENDSEC
0
SECTION
2
ENTITIES
0
CIRCLE
5
100
100
AcDbEntity
8
0
100
AcDbCircle
10
-0.069209739421347116
20
688.94184039601146
30
-8.8817841970012523e-15
40
11.250000000000027
210
9.1148397170410278e-29
220
3.5014091923522441e-42
230
1
0
LINE
5
101
100
AcDbEntity
8
0
100
AcDbLine
10
44.03209081417009
20
707.24248629841907
30
1.7763568394002505e-14
11
38.032090814170012
21
707.24248629841918
31
1.7763297343452889e-14
0
LINE
5
102
100
AcDbEntity
8
0
100
AcDbLine
10
38.032090814170012
20
707.24248629841918
30
1.7763297343452889e-14
11
38.03209081416972
21
714.74248629841918
31
8.8817841970013154e-15
0
LINE
5
103
100
AcDbEntity
8
0
100
AcDbLine
10
38.03209081416972
20
714.74248629841918
30
8.8817841970013154e-15
11
44.032090814169791
21
714.74248629841895
31
8.882055247550866e-15
0
LINE
5
104
100
AcDbEntity
8
0
100
AcDbLine
10
44.032090814169791
20
714.74248629841895
30
8.882055247550866e-15
11
44.03209081416928
21
727.04313220082622
31
8.8817841970012523e-15
0
LINE
5
105
100
AcDbEntity
8
0
100
AcDbLine
10
44.03209081416928
20
727.04313220082622
30
8.8817841970012523e-15
11
38.032090814169223
21
727.04313220082656
31
1.7763297343452889e-14
0
LINE
5
106
100
AcDbEntity
8
0
100
AcDbLine
10
38.032090814169223
20
727.04313220082656
30
1.7763297343452889e-14
11
38.032090814168996
21
733.04313220082599
31
8.8817841970011892e-15
0
LINE
5
107
100
AcDbEntity
8
0
100
AcDbLine
10
38.032090814168996
20
733.04313220082599
30
8.8817841970011892e-15
11
30.23144053737299
21
733.04313220082622
31
8.8812420959040192e-15
0
LINE
5
108
100
AcDbEntity
8
0
100
AcDbLine
10
30.23144053737299
20
733.04313220082622
30
8.8812420959040192e-15
11
30.231440537373224
21
727.04313220082622
31
8.8817841970013154e-15
0
LINE
5
109
100
AcDbEntity
8
0
100
AcDbLine
10
30.231440537373224
20
727.04313220082622
30
8.8817841970013154e-15
11
22.731440537373157
21
727.04313220082645
31
8.8812420959068953e-15
0
LINE
5
110
100
AcDbEntity
8
0
100
AcDbLine
10
22.731440537373157
20
727.04313220082645
30
8.8812420959068953e-15
11
22.731440537372926
21
733.04313220082634
31
8.8817841970012523e-15
0
LINE
5
111
100
AcDbEntity
8
0
100
AcDbLine
10
22.731440537372926
20
733.04313220082634
30
8.8817841970012523e-15
11
15.231440537372873
21
733.04313220082645
31
8.8812420959068953e-15
0
LINE
5
112
100
AcDbEntity
8
0
100
AcDbLine
10
15.231440537372873
20
733.04313220082645
30
8.8812420959068953e-15
11
15.231440537373107
21
727.04313220082656
31
8.8817841970012523e-15
0
LINE
5
113
100
AcDbEntity
8
0
100
AcDbLine
10
15.231440537373107
20
727.04313220082656
30
8.8817841970012523e-15
11
7.7314405373730359
21
727.04313220082668
31
8.8812420959068953e-15
0
LINE
5
114
100
AcDbEntity
8
0
100
AcDbLine
10
7.7314405373730359
20
727.04313220082668
30
8.8812420959068953e-15
11
7.7314405373727988
21
733.04313220082668
31
8.8817841970012523e-15
0
LINE
5
115
100
AcDbEntity
8
0
100
AcDbLine
10
7.7314405373727988
20
733.04313220082668
30
8.8817841970012523e-15
11
0.23144053737274239
21
733.04313220082679
31
8.8812420959068953e-15
0
LINE
5
116
100
AcDbEntity
8
0
100
AcDbLine
10
0.23144053737274239
20
733.04313220082679
30
8.8812420959068953e-15
11
0.23144053737297893
21
727.04313220082668
31
0
0
LINE
5
117
100
AcDbEntity
8
0
100
AcDbLine
10
0.23144053737297893
20
727.04313220082668
30
0
11
-7.268559462627092
21
727.04313220082679
31
-5.4210109435758572e-19
0
LINE
5
118
100
AcDbEntity
8
0
100
AcDbLine
10
-7.268559462627092
20
727.04313220082679
30
-5.4210109435758572e-19
11
-7.2685594626273229
21
733.04313220082679
31
8.8817841970012523e-15
0
LINE
5
119
100
AcDbEntity
8
0
100
AcDbLine
10
-7.2685594626273229
20
733.04313220082679
30
8.8817841970012523e-15
11
-21.069209739423165
21
733.04313220082702
31
1.0842021369033944e-18
0
LINE
5
120
100
AcDbEntity
8
0
100
AcDbLine
10
-21.069209739423165
20
733.04313220082702
30
1.0842021369033944e-18
11
-21.06920973942065
21
667.94184039601123
31
-8.8817841970011892e-15
0
LINE
5
121
100
AcDbEntity
8
0
100
AcDbLine
10
-21.06920973942065
20
667.94184039601123
30
-8.8817841970011892e-15
11
20.930790260579567
21
667.94184039601066
31
-8.8796157926601089e-15
0
SPLINE
5
122
100
AcDbEntity
8
0
100
AcDbSpline
70
4
71
5
72
21
73
15
74
0
42
0.000000001
43
0.0000000001
44
0.0000000001
40
0
40
0
40
0
40
0
40
0
40
0
40
0.10000000000000001
40
0.20000000000000001
40
0.30000000000000004
40
0.40000000000000002
40
0.5
40
0.59999999999999998
40
0.69999999999999996
40
0.79999999999999993
40
0.89999999999999991
40
1
40
1
40
1
40
1
40
1
40
1
41
1
41
1
41
1
41
1
41
1
41
1
41
1
41
1
41
1
41
1
41
1
41
1
41
1
41
1
41
1
10
44.032090814170644
20
688.94184039601282
30
0
10
43.672706515347699
20
688.31903606126332
30
0
10
42.945150199296748
20
687.09079058014231
30
0
10
41.827454073093762
20
685.30050895372165
30
0
10
40.283588870635214
20
683.01937950479919
30
0
10
38.258201057399184
20
680.35677235688104
30
0
10
36.128149261496773
20
677.90096524096487
30
0
10
33.883961328384515
20
675.6706736866181
30
0
10
31.518887920965003
20
673.67923335231058
30
0
10
29.035402830736242
20
671.92175640414439
30
0
10
26.441503312148566
20
670.38244148967829
30
0
10
24.284817948510302
20
669.31215101041107
30
-8.8817841970012523e-15
10
22.624269265806028
20
668.59446306125039
30
0
10
21.498419470283988
20
668.15318461685911
30
8.8817841970012523e-15
10
20.930790260579592
20
667.94184039601214
30
0
0
LINE
5
123
100
AcDbEntity
8
0
100
AcDbLine
10
44.032090814170637
20
688.94184039601271
30
1.7763568394002505e-14
11
38.032090814170736
21
688.94184039601259
31
1.7763297343469462e-14
0
LINE
5
124
100
AcDbEntity
8
0
100
AcDbLine
10
38.032090814170736
20
688.94184039601259
30
1.7763297343469462e-14
11
38.032090814170417
21
697.24248629841941
31
8.8817841970012523e-15
0
LINE
5
125
100
AcDbEntity
8
0
100
AcDbLine
10
38.032090814170417
20
697.24248629841941
30
8.8817841970012523e-15
11
44.032090814170466
21
697.24248629841918
31
8.882055247550866e-15
0
LINE
5
126
100
AcDbEntity
8
0
100
AcDbLine
10
44.032090814170466
20
697.24248629841918
30
8.882055247550866e-15
11
44.03209081417009
21
707.24248629841907
31
1.7763568394002505e-14
0
CIRCLE
5
127
100
AcDbEntity
8
0
100
AcDbCircle
10
16.055790260578572
20
688.94184039601282
30
-8.8817841970012523e-15
40
1.4999999999999916
210
1.0842021754059092e-19
220
-9.4592916278615622e-30
230
1
0
CIRCLE
5
128
100
AcDbEntity
8
0
100
AcDbCircle
10
-0.069209739420922775
20
672.81684039601316
30
-8.8817841970012523e-15
40
1.4999999999999916
210
1.0842021754059092e-19
220
-9.4592916278615622e-30
230
1
0
CIRCLE
5
129
100
AcDbEntity
8
0
100
AcDbCircle
10
-0.069209739422092811
20
705.06684039601294
30
-8.8817841970012523e-15
40
1.4999999999999916
210
1.0842021754059092e-19
220
-9.4592916278615622e-30
230
1
0
CIRCLE
5
130
100
AcDbEntity
8
0
100
AcDbCircle
10
-16.194209739421606
20
688.94184039601339
30
-8.8817841970012523e-15
40
1.4999999999999916
210
1.0842021754059092e-19
220
-9.4592916278615622e-30
230
1
0
ENDSEC
0
SECTION
2
OBJECTS
0
DICTIONARY
5
C
100
AcDbDictionary
3
ACAD_GROUP
350
D
3
ACAD_MLINESTYLE
350
17
0
DICTIONARY
5
D
100
AcDbDictionary
0
DICTIONARY
5
1A
330
C
100
AcDbDictionary
0
DICTIONARY
5
17
100
AcDbDictionary
0
ENDSEC
0
EOF
