0
SECTION
2
HEADER
9
$INSUNITS
70
4
9
$ACADVER
1
AC1014
9
$HANDSEED
5
FFFF
0
ENDSEC
0
SECTION
2
TABLES
0
TABLE
2
VPORT
5
8
100
AcDbSymbolTable
0
ENDTAB
0
TABLE
2
LTYPE
5
5
100
AcDbSymbolTable
0
LTYPE
5
14
100
AcDbSymbolTableRecord
100
AcDbLinetypeTableRecord
2
BYBLOCK
70
0
0
LTYPE
5
15
100
AcDbSymbolTableRecord
100
AcDbLinetypeTableRecord
2
BYLAYER
70
0
0
ENDTAB
0
TABLE
2
LAYER
5
2
100
AcDbSymbolTable
70
2
0
LAYER
5
50
100
AcDbSymbolTableRecord
100
AcDbLayerTableRecord
2
0
70
0
6
CONTINUOUS
0
ENDTAB
0
TABLE
2
STYLE
5
3
100
AcDbSymbolTable
70
1
0
STYLE
5
11
100
AcDbSymbolTableRecord
100
AcDbTextStyleTableRecord
2
STANDARD
70
0
0
ENDTAB
0
TABLE
2
VIEW
5
6
100
AcDbSymbolTable
70
0
0
ENDTAB
0
TABLE
2
UCS
5
7
100
AcDbSymbolTable
70
0
0
ENDTAB
0
TABLE
2
APPID
5
9
100
AcDbSymbolTable
70
2
0
APPID
5
12
100
AcDbSymbolTableRecord
100
AcDbRegAppTableRecord
2
ACAD
70
0
0
ENDTAB
0
TABLE
2
DIMSTYLE
5
A
100
AcDbSymbolTable
70
1
0
ENDTAB
0
TABLE
2
BLOCK_RECORD
5
1
100
AcDbSymbolTable
70
1
0
BLOCK_RECORD
5
1F
100
AcDbSymbolTableRecord
100
AcDbBlockTableRecord
2
*MODEL_SPACE
0
BLOCK_RECORD
5
1B
100
AcDbSymbolTableRecord
100
AcDbBlockTableRecord
2
*PAPER_SPACE
0
ENDTAB
0
ENDSEC
0
SECTION
2
BLOCKS
0
BLOCK
5
20
100
AcDbEntity
100
AcDbBlockBegin
2
*MODEL_SPACE
0
ENDBLK
5
21
100
AcDbEntity
100
AcDbBlockEnd
0
BLOCK
5
1C
100
AcDbEntity
100
AcDbBlockBegin
2
*PAPER_SPACE
0
ENDBLK
5
1D
100
AcDbEntity
100
AcDbBlockEnd
0
ENDSEC
0
SECTION
2
ENTITIES
0
LINE
5
100
100
AcDbEntity
8
0
100
AcDbLine
10
-5.6249999997473967
20
640.38368225098009
30
0
11
-5.624999999747395
21
646.3836822509802
31
-1.5777218104420236e-29
0
LINE
5
101
100
AcDbEntity
8
0
100
AcDbLine
10
-5.624999999747395
20
646.3836822509802
30
-1.5777218104420236e-29
11
-16.874999999747441
21
646.38368225098009
31
-1.0842021740441742e-18
0
LINE
5
102
100
AcDbEntity
8
0
100
AcDbLine
10
-16.874999999747441
20
646.38368225098009
30
-1.0842021740441742e-18
11
-16.874999999747434
21
640.38368225097997
31
3.944304526105059e-29
0
LINE
5
103
100
AcDbEntity
8
0
100
AcDbLine
10
-16.874999999747434
20
640.38368225097997
30
3.944304526105059e-29
11
-28.12499999974748
21
640.38368225097986
31
-5.4210108799579393e-19
0
LINE
5
104
100
AcDbEntity
8
0
100
AcDbLine
10
-28.12499999974748
20
640.38368225097986
30
-5.4210108799579393e-19
11
-28.12499999974748
21
646.38368225097997
31
-4.4408920985006341e-15
0
LINE
5
105
100
AcDbEntity
8
0
100
AcDbLine
10
-28.12499999974748
20
646.38368225097997
30
-4.4408920985006341e-15
11
-39.37499999974753
21
646.38368225097975
31
-4.4419763006746705e-15
0
LINE
5
106
100
AcDbEntity
8
0
100
AcDbLine
10
-39.37499999974753
20
646.38368225097975
30
-4.4419763006746705e-15
11
-39.37499999974753
21
640.38368225097975
31
0
0
LINE
5
107
100
AcDbEntity
8
0
100
AcDbLine
10
-39.37499999974753
20
640.38368225097975
30
0
11
-57.499999999787292
21
640.3836822509794
31
-2.7055621232756657e-27
0
LINE
5
108
100
AcDbEntity
8
0
100
AcDbLine
10
-57.499999999787292
20
640.3836822509794
30
-2.7055621232756657e-27
11
-57.499999999787292
21
636.88368225098998
31
7.8886090522101181e-30
0
LINE
5
109
100
AcDbEntity
8
0
100
AcDbLine
10
-57.499999999787292
20
636.88368225098998
30
7.8886090522101181e-30
11
-51.499999999787285
21
636.88368225099009
31
1.0256625827286653e-27
0
LINE
5
110
100
AcDbEntity
8
0
100
AcDbLine
10
-51.499999999787285
20
636.88368225099009
30
1.0256625827286653e-27
11
-51.499999999787278
21
629.38368225098986
31
-4.4408920985006104e-15
0
LINE
5
111
100
AcDbEntity
8
0
100
AcDbLine
10
-51.499999999787278
20
629.38368225098986
30
-4.4408920985006104e-15
11
-57.499999999787299
21
629.38368225098986
31
-1.0256625827286653e-27
0
LINE
5
112
100
AcDbEntity
8
0
100
AcDbLine
10
-57.499999999787299
20
629.38368225098986
30
-1.0256625827286653e-27
11
-57.499999999787299
21
621.88368225098975
31
0
0
LINE
5
113
100
AcDbEntity
8
0
100
AcDbLine
10
-57.499999999787299
20
621.88368225098975
30
0
11
-51.499999999787285
21
621.88368225098975
31
1.0256625827286663e-27
0
LINE
5
114
100
AcDbEntity
8
0
100
AcDbLine
10
-51.499999999787285
20
621.88368225098975
30
1.0256625827286663e-27
11
-51.499999999787278
21
614.38368225098952
31
-4.4408920985005946e-15
0
LINE
5
115
100
AcDbEntity
8
0
100
AcDbLine
10
-51.499999999787278
20
614.38368225098952
30
-4.4408920985005946e-15
11
-57.499999999787299
21
614.38368225098952
31
-1.0256625827286663e-27
0
LINE
5
116
100
AcDbEntity
8
0
100
AcDbLine
10
-57.499999999787299
20
614.38368225098952
30
-1.0256625827286663e-27
11
-57.499999999787306
21
606.8836822509893
31
3.1554436208840472e-29
0
LINE
5
117
100
AcDbEntity
8
0
100
AcDbLine
10
-57.499999999787306
20
606.8836822509893
30
3.1554436208840472e-29
11
-51.499999999787264
21
606.8836822509893
31
2.7105054414703872e-19
0
LINE
5
118
100
AcDbEntity
8
0
100
AcDbLine
10
-51.499999999787264
20
606.8836822509893
30
2.7105054414703872e-19
11
-51.499999999787264
21
599.3836822509893
31
-4.4408920985005946e-15
0
LINE
5
119
100
AcDbEntity
8
0
100
AcDbLine
10
-51.499999999787264
20
599.3836822509893
30
-4.4408920985005946e-15
11
-57.49999999978732
21
599.38368225098907
31
-2.7105054414703872e-19
0
LINE
5
120
100
AcDbEntity
8
0
100
AcDbLine
10
-57.49999999978732
20
599.38368225098907
30
-2.7105054414703872e-19
11
-57.499999999787015
21
589.88368225098907
31
2.2088105346188331e-28
0
LINE
5
121
100
AcDbEntity
8
0
100
AcDbLine
10
57.500000000213433
20
589.88368225099055
30
8.6736173958171029e-18
11
57.500000000213603
21
599.38368225099066
31
-4.4408920985008155e-15
0
LINE
5
122
100
AcDbEntity
8
0
100
AcDbLine
10
57.500000000213603
20
599.38368225099066
30
-4.4408920985008155e-15
11
51.500000000213575
21
599.38368225099055
31
-2.710505439526666e-19
0
LINE
5
123
100
AcDbEntity
8
0
100
AcDbLine
10
51.500000000213575
20
599.38368225099055
30
-2.710505439526666e-19
11
51.500000000213568
21
606.88368225099066
31
-1.5777218104420236e-29
0
LINE
5
124
100
AcDbEntity
8
0
100
AcDbLine
10
51.500000000213568
20
606.88368225099066
30
-1.5777218104420236e-29
11
57.500000000213603
21
606.88368225099077
31
2.710505439526666e-19
0
LINE
5
125
100
AcDbEntity
8
0
100
AcDbLine
10
57.500000000213603
20
606.88368225099077
30
2.710505439526666e-19
11
57.500000000213618
21
614.383682250991
31
-4.4408920985006419e-15
0
LINE
5
126
100
AcDbEntity
8
0
100
AcDbLine
10
57.500000000213618
20
614.383682250991
30
-4.4408920985006419e-15
11
51.500000000213589
21
614.38368225099089
31
-8.3129049428857808e-28
0
LINE
5
127
100
AcDbEntity
8
0
100
AcDbLine
10
51.500000000213589
20
614.38368225099089
30
-8.3129049428857808e-28
11
51.500000000213582
21
621.883682250991
31
-3.1554436208840472e-29
0
LINE
5
128
100
AcDbEntity
8
0
100
AcDbLine
10
51.500000000213582
20
621.883682250991
30
-3.1554436208840472e-29
11
57.500000000213603
21
621.88368225099111
31
8.3129049428857826e-28
0
LINE
5
129
100
AcDbEntity
8
0
100
AcDbLine
10
57.500000000213603
20
621.88368225099111
30
8.3129049428857826e-28
11
57.500000000213618
21
629.38368225099123
31
-4.4408920985006262e-15
0
LINE
5
130
100
AcDbEntity
8
0
100
AcDbLine
10
57.500000000213618
20
629.38368225099123
30
-4.4408920985006262e-15
11
51.50000000021361
21
629.38368225099123
31
-8.3129049428857718e-28
0
LINE
5
131
100
AcDbEntity
8
0
100
AcDbLine
10
51.50000000021361
20
629.38368225099123
30
-8.3129049428857718e-28
11
51.500000000213603
21
636.88368225099134
31
-3.1554436208840472e-29
0
LINE
5
132
100
AcDbEntity
8
0
100
AcDbLine
10
51.500000000213603
20
636.88368225099134
30
-3.1554436208840472e-29
11
57.500000000213625
21
636.88368225099146
31
8.3129049428857682e-28
0
LINE
5
133
100
AcDbEntity
8
0
100
AcDbLine
10
57.500000000213625
20
636.88368225099146
30
8.3129049428857682e-28
11
57.500000000213575
21
646.38368225098077
31
-4.4408920985007366e-15
0
LINE
5
134
100
AcDbEntity
8
0
100
AcDbLine
10
57.500000000213575
20
646.38368225098077
30
-4.4408920985007366e-15
11
51.500000000213589
21
646.38368225098066
31
-1.0256625827286602e-27
0
LINE
5
135
100
AcDbEntity
8
0
100
AcDbLine
10
51.500000000213589
20
646.38368225098066
30
-1.0256625827286602e-27
11
51.500000000213603
21
640.38368225098054
31
2.3665827156630354e-29
0
LINE
5
136
100
AcDbEntity
8
0
100
AcDbLine
10
51.500000000213603
20
640.38368225098054
30
2.3665827156630354e-29
11
39.375000000252783
21
640.38368225098066
31
-1.0842021704723343e-18
0
LINE
5
137
100
AcDbEntity
8
0
100
AcDbLine
10
39.375000000252783
20
640.38368225098066
30
-1.0842021704723343e-18
11
39.375000000252783
21
646.38368225098077
31
-7.8886090522101181e-30
0
LINE
5
138
100
AcDbEntity
8
0
100
AcDbLine
10
39.375000000252783
20
646.38368225098077
30
-7.8886090522101181e-30
11
28.125000000252736
21
646.38368225098077
31
-1.0842021742385463e-18
0
LINE
5
139
100
AcDbEntity
8
0
100
AcDbLine
10
28.125000000252736
20
646.38368225098077
30
-1.0842021742385463e-18
11
28.12500000025274
21
640.38368225098066
31
-4.4408920985006183e-15
0
LINE
5
140
100
AcDbEntity
8
0
100
AcDbLine
10
28.12500000025274
20
640.38368225098066
30
-4.4408920985006183e-15
11
16.875000000252697
21
640.38368225098043
31
-4.4414341995884277e-15
0
LINE
5
141
100
AcDbEntity
8
0
100
AcDbLine
10
16.875000000252697
20
640.38368225098043
30
-4.4414341995884277e-15
11
16.875000000252694
21
646.38368225098043
31
3.1554436208840472e-29
0
LINE
5
142
100
AcDbEntity
8
0
100
AcDbLine
10
16.875000000252694
20
646.38368225098043
30
3.1554436208840472e-29
11
5.6250000002526512
21
646.38368225098031
31
-1.0842021742385463e-18
0
LINE
5
143
100
AcDbEntity
8
0
100
AcDbLine
10
5.6250000002526512
20
646.38368225098031
30
-1.0842021742385463e-18
11
5.6250000002526495
21
640.3836822509802
31
-7.8886090522101181e-30
0
LINE
5
144
100
AcDbEntity
8
0
100
AcDbLine
10
5.6250000002526495
20
640.3836822509802
30
-7.8886090522101181e-30
11
-5.6249999997473967
21
640.38368225098009
31
0
0
LINE
5
145
100
AcDbEntity
8
0
100
AcDbLine
10
-51.499999999787363
20
589.8836822509902
30
-4.4408920985006262e-15
11
-51.499999999787406
21
582.3836822509935
31
-4.4408920985037974e-15
0
LINE
5
146
100
AcDbEntity
8
0
100
AcDbLine
10
-51.499999999787406
20
582.3836822509935
30
-4.4408920985037974e-15
11
-57.499999999787477
21
582.3836822509935
31
1.014784918905673e-28
0
LINE
5
147
100
AcDbEntity
8
0
100
AcDbLine
10
-57.499999999787477
20
582.3836822509935
30
1.014784918905673e-28
11
-57.499999999787519
21
573.21701558432676
31
1.1044052673094165e-28
0
LINE
5
148
100
AcDbEntity
8
0
100
AcDbLine
10
-57.499999999787519
20
573.21701558432676
30
1.1044052673094165e-28
11
-51.499999999787455
21
573.21701558432687
31
-1.014784918905673e-28
0
LINE
5
149
100
AcDbEntity
8
0
100
AcDbLine
10
-51.499999999787455
20
573.21701558432687
30
-1.014784918905673e-28
11
-51.499999999787427
21
565.71701558432676
31
-4.4408920985005946e-15
0
LINE
5
150
100
AcDbEntity
8
0
100
AcDbLine
10
-51.499999999787427
20
565.71701558432676
30
-4.4408920985005946e-15
11
-57.499999999787491
21
565.71701558432676
31
1.014784918905673e-28
0
LINE
5
151
100
AcDbEntity
8
0
100
AcDbLine
10
-57.499999999787491
20
565.71701558432676
30
1.014784918905673e-28
11
-57.499999999787534
21
556.55034891766002
31
3.1554436208840472e-29
0
LINE
5
152
100
AcDbEntity
8
0
100
AcDbLine
10
-57.499999999787534
20
556.55034891766002
30
3.1554436208840472e-29
11
-51.499999999787462
21
556.55034891766002
31
-1.014784918905673e-28
0
LINE
5
153
100
AcDbEntity
8
0
100
AcDbLine
10
-51.499999999787462
20
556.55034891766002
30
-1.014784918905673e-28
11
-51.499999999787434
21
549.0503489176599
31
-4.4408920985005946e-15
0
LINE
5
154
100
AcDbEntity
8
0
100
AcDbLine
10
-51.499999999787434
20
549.0503489176599
30
-4.4408920985005946e-15
11
-57.499999999787505
21
549.05034891766002
31
1.014784918905673e-28
0
LINE
5
155
100
AcDbEntity
8
0
100
AcDbLine
10
-57.499999999787505
20
549.05034891766002
30
1.014784918905673e-28
11
-57.499999999787541
21
539.88368225099327
31
-1.5777218104420236e-29
0
LINE
5
156
100
AcDbEntity
8
0
100
AcDbLine
10
-57.499999999787541
20
539.88368225099327
30
-1.5777218104420236e-29
11
-51.499999999787462
21
539.88368225099327
31
-1.014784918905673e-28
0
LINE
5
157
100
AcDbEntity
8
0
100
AcDbLine
10
-51.499999999787462
20
539.88368225099327
30
-1.014784918905673e-28
11
-51.499999999787448
21
532.38368225099316
31
-4.4408920985004842e-15
0
LINE
5
158
100
AcDbEntity
8
0
100
AcDbLine
10
-51.499999999787448
20
532.38368225099316
30
-4.4408920985004842e-15
11
-57.499999999787512
21
532.38368225099316
31
1.014784918905673e-28
0
LINE
5
159
100
AcDbEntity
8
0
100
AcDbLine
10
-57.499999999787512
20
532.38368225099316
30
1.014784918905673e-28
11
-57.499999999787548
21
523.21701558432653
31
-1.5777218104420236e-29
0
LINE
5
160
100
AcDbEntity
8
0
100
AcDbLine
10
-57.499999999787548
20
523.21701558432653
30
-1.5777218104420236e-29
11
-51.499999999787477
21
523.21701558432653
31
-1.014784918905673e-28
0
LINE
5
161
100
AcDbEntity
8
0
100
AcDbLine
10
-51.499999999787477
20
523.21701558432653
30
-1.014784918905673e-28
11
-51.499999999787455
21
515.71701558432653
31
-4.4408920985005473e-15
0
LINE
5
162
100
AcDbEntity
8
0
100
AcDbLine
10
-51.499999999787455
20
515.71701558432653
30
-4.4408920985005473e-15
11
-57.499999999787512
21
515.71701558432653
31
1.0147849189056954e-28
0
LINE
5
163
100
AcDbEntity
8
0
100
AcDbLine
10
-57.499999999787512
20
515.71701558432653
30
1.0147849189056954e-28
11
-57.499999999787555
21
506.55034891765973
31
1.5777218104420236e-29
0
LINE
5
164
100
AcDbEntity
8
0
100
AcDbLine
10
-57.499999999787555
20
506.55034891765973
30
1.5777218104420236e-29
11
-51.499999999787498
21
506.55034891765973
31
-1.0147849189056954e-28
0
LINE
5
165
100
AcDbEntity
8
0
100
AcDbLine
10
-51.499999999787498
20
506.55034891765973
30
-1.0147849189056954e-28
11
-51.49999999978747
21
499.05034891765968
31
-4.4408920985005946e-15
0
LINE
5
166
100
AcDbEntity
8
0
100
AcDbLine
10
-51.49999999978747
20
499.05034891765968
30
-4.4408920985005946e-15
11
-57.499999999787534
21
499.05034891765973
31
1.0147849189056954e-28
0
LINE
5
167
100
AcDbEntity
8
0
100
AcDbLine
10
-57.499999999787534
20
499.05034891765973
30
1.0147849189056954e-28
11
-57.499999999787576
21
489.88368225099299
31
3.1554436208840472e-29
0
LINE
5
168
100
AcDbEntity
8
0
100
AcDbLine
10
-57.499999999787576
20
489.88368225099299
30
3.1554436208840472e-29
11
-51.499999999787505
21
489.88368225099299
31
-1.0147849189056954e-28
0
LINE
5
169
100
AcDbEntity
8
0
100
AcDbLine
10
-51.499999999787505
20
489.88368225099299
30
-1.0147849189056954e-28
11
-51.499999999787434
21
486.15938802275434
31
1.2464002302491987e-27
0
LINE
5
170
100
AcDbEntity
8
0
100
AcDbLine
10
-21.499999999791338
20
486.15938802275429
30
1.084202171978112e-18
11
-21.499999999791285
21
589.88368225099009
31
-4.4408920985013835e-15
0
LINE
5
171
100
AcDbEntity
8
0
100
AcDbLine
10
21.500000000208562
20
589.88368225098998
30
-4.4408920985006262e-15
11
21.500000000207486
21
480.15938802275696
31
-4.4408920985028981e-15
0
LINE
5
172
100
AcDbEntity
8
0
100
AcDbLine
10
21.500000000207486
20
480.15938802275696
30
-4.4408920985028981e-15
11
28.982536382528821
21
480.15938802275696
31
2.7105054337904165e-19
0
LINE
5
173
100
AcDbEntity
8
0
100
AcDbLine
10
28.982536382528821
20
480.15938802275696
30
2.7105054337904165e-19
11
28.982536382528806
21
486.15938802275411
31
-4.4408920985006419e-15
0
LINE
5
174
100
AcDbEntity
8
0
100
AcDbLine
10
28.982536382528806
20
486.15938802275411
30
-4.4408920985006419e-15
11
36.482536760617073
21
486.15938802275411
31
2.7105054260578391e-19
0
LINE
5
175
100
AcDbEntity
8
0
100
AcDbLine
10
36.482536760617073
20
486.15938802275411
30
2.7105054260578391e-19
11
36.48253676061708
21
480.15938802275707
31
1.5777218104420236e-29
0
LINE
5
176
100
AcDbEntity
8
0
100
AcDbLine
10
36.48253676061708
20
480.15938802275707
30
1.5777218104420236e-29
11
43.982537138705347
21
480.15938802275696
31
2.7105054338327225e-19
0
LINE
5
177
100
AcDbEntity
8
0
100
AcDbLine
10
43.982537138705347
20
480.15938802275696
30
2.7105054338327225e-19
11
43.982537138705354
21
486.159388022754
31
-4.4408920985006735e-15
0
LINE
5
178
100
AcDbEntity
8
0
100
AcDbLine
10
43.982537138705354
20
486.159388022754
30
-4.4408920985006735e-15
11
51.500000000208466
21
486.15938802275411
31
-4.4406210479572382e-15
0
LINE
5
179
100
AcDbEntity
8
0
100
AcDbLine
10
51.500000000208466
20
486.15938802275411
30
-4.4406210479572382e-15
11
51.500000000207706
21
489.88368225099265
31
-4.4408920985018962e-15
0
LINE
5
180
100
AcDbEntity
8
0
100
AcDbLine
10
51.500000000207706
20
489.88368225099265
30
-4.4408920985018962e-15
11
57.500000000207763
21
489.88368225099265
31
-4.4408920985007279e-15
0
LINE
5
181
100
AcDbEntity
8
0
100
AcDbLine
10
57.500000000207763
20
489.88368225099265
30
-4.4408920985007279e-15
11
57.500000000207798
21
499.05034891765933
31
-3.1554436208840472e-29
0
LINE
5
182
100
AcDbEntity
8
0
100
AcDbLine
10
57.500000000207798
20
499.05034891765933
30
-3.1554436208840472e-29
11
51.500000000207734
21
499.05034891765933
31
1.0147849189056918e-28
0
LINE
5
183
100
AcDbEntity
8
0
100
AcDbLine
10
51.500000000207734
20
499.05034891765933
30
1.0147849189056918e-28
11
51.500000000207713
21
506.55034891765945
31
-3.1554436208840472e-29
0
LINE
5
184
100
AcDbEntity
8
0
100
AcDbLine
10
51.500000000207713
20
506.55034891765945
30
-3.1554436208840472e-29
11
57.50000000020777
21
506.55034891765933
31
-4.4408920985007279e-15
0
LINE
5
185
100
AcDbEntity
8
0
100
AcDbLine
10
57.50000000020777
20
506.55034891765933
30
-4.4408920985007279e-15
11
57.500000000207805
21
515.71701558432619
31
-1.5777218104420236e-29
0
LINE
5
186
100
AcDbEntity
8
0
100
AcDbLine
10
57.500000000207805
20
515.71701558432619
30
-1.5777218104420236e-29
11
51.500000000207748
21
515.71701558432619
31
1.0147849189056918e-28
0
LINE
5
187
100
AcDbEntity
8
0
100
AcDbLine
10
51.500000000207748
20
515.71701558432619
30
1.0147849189056918e-28
11
51.50000000020772
21
523.21701558432619
31
-9.4663308626521417e-29
0
LINE
5
188
100
AcDbEntity
8
0
100
AcDbLine
10
51.50000000020772
20
523.21701558432619
30
-9.4663308626521417e-29
11
57.500000000207777
21
523.21701558432619
31
-4.4408920985007279e-15
0
LINE
5
189
100
AcDbEntity
8
0
100
AcDbLine
10
57.500000000207777
20
523.21701558432619
30
-4.4408920985007279e-15
11
57.500000000207805
21
532.38368225099293
31
1.5777218104420236e-29
0
LINE
5
190
100
AcDbEntity
8
0
100
AcDbLine
10
57.500000000207805
20
532.38368225099293
30
1.5777218104420236e-29
11
51.500000000207748
21
532.38368225099282
31
1.0147849189056918e-28
0
LINE
5
191
100
AcDbEntity
8
0
100
AcDbLine
10
51.500000000207748
20
532.38368225099282
30
1.0147849189056918e-28
11
51.500000000207741
21
539.88368225099293
31
-1.4199496293978212e-28
0
LINE
5
192
100
AcDbEntity
8
0
100
AcDbLine
10
51.500000000207741
20
539.88368225099293
30
-1.4199496293978212e-28
11
57.500000000207798
21
539.88368225099293
31
-4.4408920985007279e-15
0
LINE
5
193
100
AcDbEntity
8
0
100
AcDbLine
10
57.500000000207798
20
539.88368225099293
30
-4.4408920985007279e-15
11
57.500000000207827
21
549.05034891765968
31
1.5777218104420236e-29
0
LINE
5
194
100
AcDbEntity
8
0
100
AcDbLine
10
57.500000000207827
20
549.05034891765968
30
1.5777218104420236e-29
11
51.500000000207756
21
549.05034891765968
31
1.0147849189056918e-28
0
LINE
5
195
100
AcDbEntity
8
0
100
AcDbLine
10
51.500000000207756
20
549.05034891765968
30
1.0147849189056918e-28
11
51.500000000207734
21
556.55034891765968
31
-6.3108872417680944e-29
0
LINE
5
196
100
AcDbEntity
8
0
100
AcDbLine
10
51.500000000207734
20
556.55034891765968
30
-6.3108872417680944e-29
11
57.500000000207798
21
556.55034891765968
31
-4.4408920985007279e-15
0
LINE
5
197
100
AcDbEntity
8
0
100
AcDbLine
10
57.500000000207798
20
556.55034891765968
30
-4.4408920985007279e-15
11
57.500000000207827
21
565.71701558432642
31
-3.1554436208840472e-29
0
LINE
5
198
100
AcDbEntity
8
0
100
AcDbLine
10
57.500000000207827
20
565.71701558432642
30
-3.1554436208840472e-29
11
51.500000000207756
21
565.71701558432642
31
1.0147849189056692e-28
0
LINE
5
199
100
AcDbEntity
8
0
100
AcDbLine
10
51.500000000207756
20
565.71701558432642
30
1.0147849189056692e-28
11
51.500000000207741
21
573.21701558432653
31
-4.4408920985006577e-15
0
LINE
5
200
100
AcDbEntity
8
0
100
AcDbLine
10
51.500000000207741
20
573.21701558432653
30
-4.4408920985006577e-15
11
57.500000000207805
21
573.21701558432653
31
-4.4408920985007279e-15
0
LINE
5
201
100
AcDbEntity
8
0
100
AcDbLine
10
57.500000000207805
20
573.21701558432653
30
-4.4408920985007279e-15
11
57.500000000207841
21
582.38368225099316
31
-4.4408920985007366e-15
0
LINE
5
202
100
AcDbEntity
8
0
100
AcDbLine
10
57.500000000207841
20
582.38368225099316
30
-4.4408920985007366e-15
11
51.500000000207777
21
582.38368225099316
31
1.0147849189056692e-28
0
LINE
5
203
100
AcDbEntity
8
0
100
AcDbLine
10
51.500000000207777
20
582.38368225099316
30
1.0147849189056692e-28
11
51.500000000208523
21
589.88368225098975
31
-4.4408920984993798e-15
0
LINE
5
204
100
AcDbEntity
8
0
100
AcDbLine
10
-28.999999621704703
20
486.15938802275429
30
-4.4408920985008873e-15
11
-28.999999621704692
21
480.15938802275707
31
-4.4408920985005867e-15
0
LINE
5
205
100
AcDbEntity
8
0
100
AcDbLine
10
-28.999999621704692
20
480.15938802275707
30
-4.4408920985005867e-15
11
-21.499999999792774
21
480.15938802275696
31
-4.4408920985003643e-15
0
LINE
5
206
100
AcDbEntity
8
0
100
AcDbLine
10
-21.499999999792774
20
480.15938802275696
30
-4.4408920985003643e-15
11
-21.499999999791342
21
486.15938802275429
31
-4.4408920985006262e-15
0
LINE
5
207
100
AcDbEntity
8
0
100
AcDbLine
10
-43.999998865528546
20
486.15938802275446
30
2.7105054363717481e-19
11
-43.999998865528525
21
480.15938802275707
31
-4.4408920985005631e-15
0
LINE
5
208
100
AcDbEntity
8
0
100
AcDbLine
10
-43.999998865528525
20
480.15938802275707
30
-4.4408920985005631e-15
11
-36.4999992436166
21
480.1593880227569
31
-4.4411631490442635e-15
0
LINE
5
209
100
AcDbEntity
8
0
100
AcDbLine
10
-36.4999992436166
20
480.1593880227569
30
-4.4411631490442635e-15
11
-36.499999243616621
21
486.15938802275434
31
0
0
LINE
5
210
100
AcDbEntity
8
0
100
AcDbLine
10
-43.999998865528546
20
486.15938802275446
30
2.7105054363717481e-19
11
-51.499999999787434
21
486.15938802275434
31
1.2464002302491987e-27
0
LINE
5
211
100
AcDbEntity
8
0
100
AcDbLine
10
-28.999999621704703
20
486.15938802275429
30
-4.4408920985008873e-15
11
-36.499999243616621
21
486.15938802275434
31
0
0
LINE
5
212
100
AcDbEntity
8
0
100
AcDbLine
10
-51.499999999787363
20
589.8836822509902
30
-4.4408920985006262e-15
11
-57.499999999787015
21
589.88368225098907
31
2.2088105346188331e-28
0
LINE
5
213
100
AcDbEntity
8
0
100
AcDbLine
10
57.500000000213433
20
589.88368225099055
30
8.6736173958171029e-18
11
51.500000000208523
21
589.88368225098975
31
-4.4408920984993798e-15
0
LINE
5
214
100
AcDbEntity
8
0
100
AcDbLine
10
21.500000000208562
20
589.88368225098998
30
-4.4408920985006262e-15
11
-21.499999999791285
21
589.88368225099009
31
-4.4408920985013835e-15
0
ENDSEC
0
SECTION
2
OBJECTS
0
DICTIONARY
5
C
100
AcDbDictionary
3
ACAD_GROUP
350
D
3
ACAD_MLINESTYLE
350
17
0
DICTIONARY
5
D
100
AcDbDictionary
0
DICTIONARY
5
1A
330
C
100
AcDbDictionary
0
DICTIONARY
5
17
100
AcDbDictionary
0
ENDSEC
0
EOF
