0
SECTION
2
HEADER
9
$INSUNITS
70
4
9
$ACADVER
1
AC1014
9
$HANDSEED
5
FFFF
0
ENDSEC
0
SECTION
2
TABLES
0
TABLE
2
VPORT
5
8
100
AcDbSymbolTable
0
ENDTAB
0
TABLE
2
LTYPE
5
5
100
AcDbSymbolTable
0
LTYPE
5
14
100
AcDbSymbolTableRecord
100
AcDbLinetypeTableRecord
2
BYBLOCK
70
0
0
LTYPE
5
15
100
AcDbSymbolTableRecord
100
AcDbLinetypeTableRecord
2
BYLAYER
70
0
0
ENDTAB
0
TABLE
2
LAYER
5
2
100
AcDbSymbolTable
70
2
0
LAYER
5
50
100
AcDbSymbolTableRecord
100
AcDbLayerTableRecord
2
0
70
0
6
CONTINUOUS
0
ENDTAB
0
TABLE
2
STYLE
5
3
100
AcDbSymbolTable
70
1
0
STYLE
5
11
100
AcDbSymbolTableRecord
100
AcDbTextStyleTableRecord
2
STANDARD
70
0
0
ENDTAB
0
TABLE
2
VIEW
5
6
100
AcDbSymbolTable
70
0
0
ENDTAB
0
TABLE
2
UCS
5
7
100
AcDbSymbolTable
70
0
0
ENDTAB
0
TABLE
2
APPID
5
9
100
AcDbSymbolTable
70
2
0
APPID
5
12
100
AcDbSymbolTableRecord
100
AcDbRegAppTableRecord
2
ACAD
70
0
0
ENDTAB
0
TABLE
2
DIMSTYLE
5
A
100
AcDbSymbolTable
70
1
0
ENDTAB
0
TABLE
2
BLOCK_RECORD
5
1
100
AcDbSymbolTable
70
1
0
BLOCK_RECORD
5
1F
100
AcDbSymbolTableRecord
100
AcDbBlockTableRecord
2
*MODEL_SPACE
0
BLOCK_RECORD
5
1B
100
AcDbSymbolTableRecord
100
AcDbBlockTableRecord
2
*PAPER_SPACE
0
ENDTAB
0
ENDSEC
0
SECTION
2
BLOCKS
0
BLOCK
5
20
100
AcDbEntity
100
AcDbBlockBegin
2
*MODEL_SPACE
0
ENDBLK
5
21
100
AcDbEntity
100
AcDbBlockEnd
0
BLOCK
5
1C
100
AcDbEntity
100
AcDbBlockBegin
2
*PAPER_SPACE
0
ENDBLK
5
1D
100
AcDbEntity
100
AcDbBlockEnd
0
ENDSEC
0
SECTION
2
ENTITIES
0
LINE
5
100
100
AcDbEntity
8
0
100
AcDbLine
10
-8.9999999999897842
20
586.94184185495772
30
0
11
-8.9999999999912568
21
624.94184185494692
31
-1.2621774483536189e-28
0
LINE
5
101
100
AcDbEntity
8
0
100
AcDbLine
10
-8.9999999999912568
20
624.94184185494692
30
-1.2621774483536189e-28
11
9.0000000000089351
21
624.94184185494669
31
5.5104596998366594e-28
0
LINE
5
102
100
AcDbEntity
8
0
100
AcDbLine
10
9.0000000000089351
20
624.94184185494669
30
5.5104596998366594e-28
11
9.0000000000104095
21
586.9418418549576
31
-8.8817841970010314e-15
0
LINE
5
103
100
AcDbEntity
8
0
100
AcDbLine
10
21.500000000010239
20
586.9418418549576
30
-8.8817841970013912e-15
11
21.500000000009791
21
596.44184185495749
31
-8.8817841970011924e-15
0
LINE
5
104
100
AcDbEntity
8
0
100
AcDbLine
10
21.500000000009791
20
596.44184185495749
30
-8.8817841970011924e-15
11
27.500000000009742
21
596.44184185495737
31
-8.8817841970010693e-15
0
LINE
5
105
100
AcDbEntity
8
0
100
AcDbLine
10
27.500000000009742
20
596.44184185495737
30
-8.8817841970010693e-15
11
27.500000000009454
21
603.94184185495749
31
-3.1554436208840472e-29
0
LINE
5
106
100
AcDbEntity
8
0
100
AcDbLine
10
27.500000000009454
20
603.94184185495749
30
-3.1554436208840472e-29
11
21.500000000009504
21
603.94184185495749
31
-8.8817841970014353e-15
0
LINE
5
107
100
AcDbEntity
8
0
100
AcDbLine
10
21.500000000009504
20
603.94184185495749
30
-8.8817841970014353e-15
11
21.500000000009223
21
611.44184185495749
31
-8.8817841970012334e-15
0
LINE
5
108
100
AcDbEntity
8
0
100
AcDbLine
10
21.500000000009223
20
611.44184185495749
30
-8.8817841970012334e-15
11
27.50000000000918
21
611.44184185495749
31
1.8368198999455335e-28
0
LINE
5
109
100
AcDbEntity
8
0
100
AcDbLine
10
27.50000000000918
20
611.44184185495749
30
1.8368198999455335e-28
11
27.500000000008882
21
618.94184185495749
31
-4.7331654313260708e-29
0
LINE
5
110
100
AcDbEntity
8
0
100
AcDbLine
10
27.500000000008882
20
618.94184185495749
30
-4.7331654313260708e-29
11
21.500000000008932
21
618.94184185495749
31
-1.8368198999455335e-28
0
LINE
5
111
100
AcDbEntity
8
0
100
AcDbLine
10
21.500000000008932
20
618.94184185495749
30
-1.8368198999455335e-28
11
21.50000000000864
21
626.44184185495749
31
-8.8817841970012807e-15
0
LINE
5
112
100
AcDbEntity
8
0
100
AcDbLine
10
21.50000000000864
20
626.44184185495749
30
-8.8817841970012807e-15
11
27.500000000008594
21
626.44184185495749
31
1.8368198999455335e-28
0
LINE
5
113
100
AcDbEntity
8
0
100
AcDbLine
10
27.500000000008594
20
626.44184185495749
30
1.8368198999455335e-28
11
27.500000000008313
21
633.94184185495749
31
-1.5777218104420236e-29
0
LINE
5
114
100
AcDbEntity
8
0
100
AcDbLine
10
27.500000000008313
20
633.94184185495749
30
-1.5777218104420236e-29
11
21.500000000008363
21
633.9418418549576
31
-1.8368198999455335e-28
0
LINE
5
115
100
AcDbEntity
8
0
100
AcDbLine
10
21.500000000008363
20
633.9418418549576
30
-1.8368198999455335e-28
11
21.500000000008228
21
637.44184185494703
31
-2.5637979419682884e-29
0
LINE
5
116
100
AcDbEntity
8
0
100
AcDbLine
10
21.500000000008228
20
637.44184185494703
30
-2.5637979419682884e-29
11
11.25000000000788
21
637.44184185495749
31
-5.4210111847835855e-19
0
LINE
5
117
100
AcDbEntity
8
0
100
AcDbLine
10
11.25000000000788
20
637.44184185495749
30
-5.4210111847835855e-19
11
11.250000000007649
21
643.44184185495749
31
3.944304526105059e-30
0
LINE
5
118
100
AcDbEntity
8
0
100
AcDbLine
10
11.250000000007649
20
643.44184185495749
30
3.944304526105059e-30
11
3.7500000000077058
21
643.4418418549576
31
2.7105054289177363e-19
0
LINE
5
119
100
AcDbEntity
8
0
100
AcDbLine
10
3.7500000000077058
20
643.4418418549576
30
2.7105054289177363e-19
11
3.7500000000079394
21
637.4418418549576
31
-8.8817841970011971e-15
0
LINE
5
120
100
AcDbEntity
8
0
100
AcDbLine
10
3.7500000000079394
20
637.4418418549576
30
-8.8817841970011971e-15
11
-3.749999999992002
21
637.4418418549576
31
-8.8817841970014811e-15
0
LINE
5
121
100
AcDbEntity
8
0
100
AcDbLine
10
-3.749999999992002
20
637.4418418549576
30
-8.8817841970014811e-15
11
-3.7499999999922333
21
643.4418418549576
31
8.8817841970011971e-15
0
LINE
5
122
100
AcDbEntity
8
0
100
AcDbLine
10
-3.7499999999922333
20
643.4418418549576
30
8.8817841970011971e-15
11
-11.249999999992177
21
643.4418418549576
31
8.8820552475441986e-15
0
LINE
5
123
100
AcDbEntity
8
0
100
AcDbLine
10
-11.249999999992177
20
643.4418418549576
30
8.8820552475441986e-15
11
-11.249999999991937
21
637.44184185495772
31
3.944304526105059e-29
0
LINE
5
124
100
AcDbEntity
8
0
100
AcDbLine
10
-11.249999999991937
20
637.44184185495772
30
3.944304526105059e-29
11
-21.499999999991829
21
637.44184185494748
31
-5.4210105468948043e-19
0
LINE
5
125
100
AcDbEntity
8
0
100
AcDbLine
10
-21.499999999991829
20
637.44184185494748
30
-5.4210105468948043e-19
11
-21.49999999999169
21
633.94184185495806
31
2.3665827156630354e-29
0
LINE
5
126
100
AcDbEntity
8
0
100
AcDbLine
10
-21.49999999999169
20
633.94184185495806
30
2.3665827156630354e-29
11
-27.499999999991644
21
633.94184185495806
31
-1.8368198999455335e-28
0
LINE
5
127
100
AcDbEntity
8
0
100
AcDbLine
10
-27.499999999991644
20
633.94184185495806
30
-1.8368198999455335e-28
11
-27.499999999991349
21
626.44184185495806
31
4.7331654313260708e-29
0
LINE
5
128
100
AcDbEntity
8
0
100
AcDbLine
10
-27.499999999991349
20
626.44184185495806
30
4.7331654313260708e-29
11
-21.499999999991395
21
626.44184185495794
31
1.8368198999455335e-28
0
LINE
5
129
100
AcDbEntity
8
0
100
AcDbLine
10
-21.499999999991395
20
626.44184185495794
30
1.8368198999455335e-28
11
-21.499999999991104
21
618.94184185495806
31
2.7610131682735413e-29
0
LINE
5
130
100
AcDbEntity
8
0
100
AcDbLine
10
-21.499999999991104
20
618.94184185495806
30
2.7610131682735413e-29
11
-27.499999999991054
21
618.94184185495806
31
-1.8368198999455335e-28
0
LINE
5
131
100
AcDbEntity
8
0
100
AcDbLine
10
-27.499999999991054
20
618.94184185495806
30
-1.8368198999455335e-28
11
-27.499999999990781
21
611.44184185495806
31
-8.8817841970012365e-15
0
LINE
5
132
100
AcDbEntity
8
0
100
AcDbLine
10
-27.499999999990781
20
611.44184185495806
30
-8.8817841970012365e-15
11
-21.499999999990827
21
611.44184185495794
31
1.8368198999455335e-28
0
LINE
5
133
100
AcDbEntity
8
0
100
AcDbLine
10
-21.499999999990827
20
611.44184185495794
30
1.8368198999455335e-28
11
-21.499999999990528
21
603.94184185495794
31
-5.5220263365470826e-29
0
LINE
5
134
100
AcDbEntity
8
0
100
AcDbLine
10
-21.499999999990528
20
603.94184185495794
30
-5.5220263365470826e-29
11
-27.499999999990482
21
603.94184185495794
31
-8.8817841970014353e-15
0
LINE
5
135
100
AcDbEntity
8
0
100
AcDbLine
10
-27.499999999990482
20
603.94184185495794
30
-8.8817841970014353e-15
11
-27.499999999990198
21
596.44184185495794
31
-8.8817841970012208e-15
0
LINE
5
136
100
AcDbEntity
8
0
100
AcDbLine
10
-27.499999999990198
20
596.44184185495794
30
-8.8817841970012208e-15
11
-21.499999999990248
21
596.44184185495783
31
-8.8817841970010693e-15
0
LINE
5
137
100
AcDbEntity
8
0
100
AcDbLine
10
-21.499999999990248
20
596.44184185495783
30
-8.8817841970010693e-15
11
-21.49999999998942
21
586.94184185495806
31
0
0
LINE
5
138
100
AcDbEntity
8
0
100
AcDbLine
10
13.982299927049551
20
489.15944994986518
30
-8.8817841970012523e-15
11
21.482299548981977
21
489.15944994986808
31
-8.8817841970101633e-15
0
LINE
5
139
100
AcDbEntity
8
0
100
AcDbLine
10
21.482299548981977
20
489.15944994986808
30
-8.8817841970101633e-15
11
21.482299548981693
21
496.10850852163901
31
-8.8817841970012807e-15
0
LINE
5
140
100
AcDbEntity
8
0
100
AcDbLine
10
21.482299548981693
20
496.10850852163901
30
-8.8817841970012807e-15
11
27.500000000016527
21
496.1085085216389
31
2.710505431773289e-19
0
LINE
5
141
100
AcDbEntity
8
0
100
AcDbLine
10
27.500000000016527
20
496.1085085216389
30
2.710505431773289e-19
11
27.500000000016232
21
503.60850852163901
31
8.8817841970012176e-15
0
LINE
5
142
100
AcDbEntity
8
0
100
AcDbLine
10
27.500000000016232
20
503.60850852163901
30
8.8817841970012176e-15
11
21.482299548981377
21
503.60850852163901
31
-2.710505431773289e-19
0
LINE
5
143
100
AcDbEntity
8
0
100
AcDbLine
10
21.482299548981377
20
503.60850852163901
30
-2.710505431773289e-19
11
21.482299548981004
21
512.77517518830575
31
-8.8817841970012918e-15
0
LINE
5
144
100
AcDbEntity
8
0
100
AcDbLine
10
21.482299548981004
20
512.77517518830575
30
-8.8817841970012918e-15
11
27.500000000015884
21
512.77517518830575
31
2.710505431773289e-19
0
LINE
5
145
100
AcDbEntity
8
0
100
AcDbLine
10
27.500000000015884
20
512.77517518830575
30
2.710505431773289e-19
11
27.500000000015589
21
520.27517518830587
31
8.8817841970012176e-15
0
LINE
5
146
100
AcDbEntity
8
0
100
AcDbLine
10
27.500000000015589
20
520.27517518830587
30
8.8817841970012176e-15
11
21.482299548980684
21
520.27517518830575
31
-2.710505431773289e-19
0
LINE
5
147
100
AcDbEntity
8
0
100
AcDbLine
10
21.482299548980684
20
520.27517518830575
30
-2.710505431773289e-19
11
21.482299548980311
21
529.44184185497249
31
-8.8817841970012918e-15
0
LINE
5
148
100
AcDbEntity
8
0
100
AcDbLine
10
21.482299548980311
20
529.44184185497249
30
-8.8817841970012918e-15
11
27.500000000015241
21
529.44184185497249
31
-8.8812420959149528e-15
0
LINE
5
149
100
AcDbEntity
8
0
100
AcDbLine
10
27.500000000015241
20
529.44184185497249
30
-8.8812420959149528e-15
11
27.500000000014943
21
536.94184185497261
31
-3.1554436208840472e-29
0
LINE
5
150
100
AcDbEntity
8
0
100
AcDbLine
10
27.500000000014943
20
536.94184185497261
30
-3.1554436208840472e-29
11
21.482299548979995
21
536.94184185497261
31
8.8815131464580741e-15
0
LINE
5
151
100
AcDbEntity
8
0
100
AcDbLine
10
21.482299548979995
20
536.94184185497261
30
8.8815131464580741e-15
11
21.482299548979622
21
546.10850852163924
31
-3.944304526105059e-29
0
LINE
5
152
100
AcDbEntity
8
0
100
AcDbLine
10
21.482299548979622
20
546.10850852163924
30
-3.944304526105059e-29
11
27.500000000014595
21
546.10850852163924
31
-8.8812420959149528e-15
0
LINE
5
153
100
AcDbEntity
8
0
100
AcDbLine
10
27.500000000014595
20
546.10850852163924
30
-8.8812420959149528e-15
11
27.500000000014296
21
553.60850852163924
31
-3.5498740734945531e-29
0
LINE
5
154
100
AcDbEntity
8
0
100
AcDbLine
10
27.500000000014296
20
553.60850852163924
30
-3.5498740734945531e-29
11
21.482299548979306
21
553.60850852163924
31
-2.710505431773289e-19
0
LINE
5
155
100
AcDbEntity
8
0
100
AcDbLine
10
21.482299548979306
20
553.60850852163924
30
-2.710505431773289e-19
11
21.482299548978933
21
562.77517518830609
31
-3.944304526105059e-29
0
LINE
5
156
100
AcDbEntity
8
0
100
AcDbLine
10
21.482299548978933
20
562.77517518830609
30
-3.944304526105059e-29
11
27.500000000013948
21
562.77517518830609
31
2.710505431773289e-19
0
LINE
5
157
100
AcDbEntity
8
0
100
AcDbLine
10
27.500000000013948
20
562.77517518830609
30
2.710505431773289e-19
11
27.50000000001365
21
570.27517518830609
31
-3.1554436208840472e-29
0
LINE
5
158
100
AcDbEntity
8
0
100
AcDbLine
10
27.50000000001365
20
570.27517518830609
30
-3.1554436208840472e-29
11
21.482299548978617
21
570.27517518830609
31
-2.710505431773289e-19
0
LINE
5
159
100
AcDbEntity
8
0
100
AcDbLine
10
21.482299548978617
20
570.27517518830609
30
-2.710505431773289e-19
11
21.48229954897824
21
579.44184185497284
31
-3.944304526105059e-29
0
LINE
5
160
100
AcDbEntity
8
0
100
AcDbLine
10
21.48229954897824
20
579.44184185497284
30
-3.944304526105059e-29
11
27.500000000013301
21
579.44184185497284
31
2.710505431773289e-19
0
LINE
5
161
100
AcDbEntity
8
0
100
AcDbLine
10
27.500000000013301
20
579.44184185497284
30
2.710505431773289e-19
11
27.500000000013006
21
586.94184185496954
31
-2.7610131682735413e-29
0
LINE
5
162
100
AcDbEntity
8
0
100
AcDbLine
10
8.9823001786339223
20
586.94184185496965
30
-8.8817841970014243e-15
11
8.9823001786234116
21
498.65938802274678
31
3.1554436208840472e-28
0
LINE
5
163
100
AcDbEntity
8
0
100
AcDbLine
10
8.9823001786234116
20
498.65938802274678
30
3.1554436208840472e-28
11
-9.0176989139604142
21
498.65938802274678
31
-8.8806999948287163e-15
0
LINE
5
164
100
AcDbEntity
8
0
100
AcDbLine
10
-9.0176989139604142
20
498.65938802274678
30
-8.8806999948287163e-15
11
-9.01769891396407
21
586.94184185496977
31
-3.4709879829724519e-28
0
LINE
5
165
100
AcDbEntity
8
0
100
AcDbLine
10
-27.499994454693969
20
586.94184185496977
30
-1.0842021726573534e-18
11
-27.499994454693677
21
579.44184185497295
31
-8.8817841970013281e-15
0
LINE
5
166
100
AcDbEntity
8
0
100
AcDbLine
10
-27.499994454693677
20
579.44184185497295
30
-8.8817841970013281e-15
11
-21.517698283318019
21
579.44184185497295
31
-8.8815131464580757e-15
0
LINE
5
167
100
AcDbEntity
8
0
100
AcDbLine
10
-21.517698283318019
20
579.44184185497295
30
-8.8815131464580757e-15
11
-21.517698283317639
21
570.27517518830621
31
3.944304526105059e-29
0
LINE
5
168
100
AcDbEntity
8
0
100
AcDbLine
10
-21.517698283317639
20
570.27517518830621
30
3.944304526105059e-29
11
-27.499994454693329
21
570.27517518830609
31
1.6339400516672243e-28
0
LINE
5
169
100
AcDbEntity
8
0
100
AcDbLine
10
-27.499994454693329
20
570.27517518830609
30
1.6339400516672243e-28
11
-27.499994454693038
21
562.77517518830621
31
-8.8817841970012287e-15
0
LINE
5
170
100
AcDbEntity
8
0
100
AcDbLine
10
-27.499994454693038
20
562.77517518830621
30
-8.8817841970012287e-15
11
-21.51769828331733
21
562.77517518830632
31
-8.8817841970011971e-15
0
LINE
5
171
100
AcDbEntity
8
0
100
AcDbLine
10
-21.51769828331733
20
562.77517518830632
30
-8.8817841970011971e-15
11
-21.51769828331695
21
553.60850852163946
31
3.944304526105059e-29
0
LINE
5
172
100
AcDbEntity
8
0
100
AcDbLine
10
-21.51769828331695
20
553.60850852163946
30
3.944304526105059e-29
11
-27.499994454692683
21
553.60850852163935
31
1.6339400516672198e-28
0
LINE
5
173
100
AcDbEntity
8
0
100
AcDbLine
10
-27.499994454692683
20
553.60850852163935
30
1.6339400516672198e-28
11
-27.499994454692391
21
546.10850852163946
31
-8.8817841970012129e-15
0
LINE
5
174
100
AcDbEntity
8
0
100
AcDbLine
10
-27.499994454692391
20
546.10850852163946
30
-8.8817841970012129e-15
11
-21.517698283316641
21
546.10850852163946
31
-1.7763297343459326e-14
0
LINE
5
175
100
AcDbEntity
8
0
100
AcDbLine
10
-21.517698283316641
20
546.10850852163946
30
-1.7763297343459326e-14
11
-21.517698283316264
21
536.94184185497261
31
-8.8817841970012176e-15
0
LINE
5
176
100
AcDbEntity
8
0
100
AcDbLine
10
-21.517698283316264
20
536.94184185497261
30
-8.8817841970012176e-15
11
-27.49999445469204
21
536.94184185497261
31
1.633940051667216e-28
0
LINE
5
177
100
AcDbEntity
8
0
100
AcDbLine
10
-27.49999445469204
20
536.94184185497261
30
1.633940051667216e-28
11
-27.499994454691748
21
529.44184185497272
31
-8.8817841970012239e-15
0
LINE
5
178
100
AcDbEntity
8
0
100
AcDbLine
10
-27.499994454691748
20
529.44184185497272
30
-8.8817841970012239e-15
11
-21.517698283315948
21
529.44184185497272
31
-8.8815131464580757e-15
0
LINE
5
179
100
AcDbEntity
8
0
100
AcDbLine
10
-21.517698283315948
20
529.44184185497272
30
-8.8815131464580757e-15
11
-21.517698283315568
21
520.27517518830587
31
-8.8817841970012129e-15
0
LINE
5
180
100
AcDbEntity
8
0
100
AcDbLine
10
-21.517698283315568
20
520.27517518830587
30
-8.8817841970012129e-15
11
-27.499994454691397
21
520.27517518830587
31
-8.8820552475442096e-15
0
LINE
5
181
100
AcDbEntity
8
0
100
AcDbLine
10
-27.499994454691397
20
520.27517518830587
30
-8.8820552475442096e-15
11
-27.499994454691105
21
512.77517518830587
31
-1.7763568394002467e-14
0
LINE
5
182
100
AcDbEntity
8
0
100
AcDbLine
10
-27.499994454691105
20
512.77517518830587
30
-1.7763568394002467e-14
11
-21.517698283315255
21
512.77517518830598
31
-8.8815131464580757e-15
0
LINE
5
183
100
AcDbEntity
8
0
100
AcDbLine
10
-21.517698283315255
20
512.77517518830598
30
-8.8815131464580757e-15
11
-21.517698283314878
21
503.60850852163912
31
3.944304526105059e-29
0
LINE
5
184
100
AcDbEntity
8
0
100
AcDbLine
10
-21.517698283314878
20
503.60850852163912
30
3.944304526105059e-29
11
-27.499994454690754
21
503.60850852163907
31
-8.8820552475442096e-15
0
LINE
5
185
100
AcDbEntity
8
0
100
AcDbLine
10
-27.499994454690754
20
503.60850852163907
30
-8.8820552475442096e-15
11
-27.499994454690459
21
496.10850852163912
31
-8.8817841970012239e-15
0
LINE
5
186
100
AcDbEntity
8
0
100
AcDbLine
10
-27.499994454690459
20
496.10850852163912
30
-8.8817841970012239e-15
11
-21.517698283314566
21
496.10850852163912
31
-8.8815131464580757e-15
0
LINE
5
187
100
AcDbEntity
8
0
100
AcDbLine
10
-21.517698283314566
20
496.10850852163912
30
-8.8815131464580757e-15
11
-21.517698283314278
21
489.15944994986808
31
2.7610131682735413e-29
0
LINE
5
188
100
AcDbEntity
8
0
100
AcDbLine
10
-21.517698283314278
20
489.15944994986808
30
2.7610131682735413e-29
11
-14.017698661423378
21
489.15944994986523
31
-8.8823262980784453e-15
0
LINE
5
189
100
AcDbEntity
8
0
100
AcDbLine
10
-14.017698661423378
20
489.15944994986523
30
-8.8823262980784453e-15
11
-14.017698661422893
21
483.1594499498687
31
-8.8817841970016341e-15
0
LINE
5
190
100
AcDbEntity
8
0
100
AcDbLine
10
-14.017698661422893
20
483.1594499498687
30
-8.8817841970016341e-15
11
-6.5176990395109859
21
483.15944994986893
31
-8.8820552475451799e-15
0
LINE
5
191
100
AcDbEntity
8
0
100
AcDbLine
10
-6.5176990395109859
20
483.15944994986893
30
-8.8820552475451799e-15
11
-6.5176990395114647
21
489.15944994986518
31
-8.8817841970012681e-15
0
LINE
5
192
100
AcDbEntity
8
0
100
AcDbLine
10
-6.5176990395114647
20
489.15944994986518
30
-8.8817841970012681e-15
11
6.4823003051376631
21
489.15944994986518
31
-8.8817841970011308e-15
0
LINE
5
193
100
AcDbEntity
8
0
100
AcDbLine
10
6.4823003051376631
20
489.15944994986518
30
-8.8817841970011308e-15
11
6.4823003051381276
21
483.1594499498695
31
-3.944304526105059e-30
0
LINE
5
194
100
AcDbEntity
8
0
100
AcDbLine
10
6.4823003051381276
20
483.1594499498695
30
-3.944304526105059e-30
11
13.982299927050033
21
483.15944994986972
31
-8.0633516677665131e-28
0
LINE
5
195
100
AcDbEntity
8
0
100
AcDbLine
10
13.982299927050033
20
483.15944994986972
30
-8.0633516677665131e-28
11
13.982299927049551
21
489.15944994986518
31
-8.8817841970012523e-15
0
LINE
5
196
100
AcDbEntity
8
0
100
AcDbLine
10
-27.499994454693969
20
586.94184185496977
30
-1.0842021726573534e-18
11
-21.49999999998942
21
586.94184185495806
31
0
0
LINE
5
197
100
AcDbEntity
8
0
100
AcDbLine
10
27.500000000013006
20
586.94184185496954
30
-2.7610131682735413e-29
11
21.500000000010239
21
586.9418418549576
31
-8.8817841970013912e-15
0
LWPOLYLINE
5
198
100
AcDbEntity
8
0
100
AcDbPolyline
90
4
70
1
43
0.0
10
-8.9999999999912568
20
624.94184185494692
10
8.9823001786234116
20
624.94184185494692
10
8.9823001786234116
20
498.65938802274678
10
-8.9999999999912568
20
498.65938802274678
0
LINE
5
199
100
AcDbEntity
8
0
100
AcDbLine
10
13.999999999972953
20
489.15944994986518
30
8.8817841970012523e-15
11
21.49999999999357
21
489.15944994986808
31
8.8817841970033917e-15
0
LINE
5
200
100
AcDbEntity
8
0
100
AcDbLine
10
21.49999999999357
20
489.15944994986808
30
8.8817841970033917e-15
11
21.499999999993278
21
496.10850852163901
31
-6.9025329206838533e-29
0
LINE
5
201
100
AcDbEntity
8
0
100
AcDbLine
10
21.499999999993278
20
496.10850852163901
30
-6.9025329206838533e-29
11
27.517700754390994
21
496.1085085216389
31
3.7303222274744965e-29
0
LINE
5
202
100
AcDbEntity
8
0
100
AcDbLine
10
27.517700754390994
20
496.1085085216389
30
3.7303222274744965e-29
11
27.517700754390702
21
503.60850852163901
31
-7.2969633732943592e-29
0
LINE
5
203
100
AcDbEntity
8
0
100
AcDbLine
10
27.517700754390702
20
503.60850852163901
30
-7.2969633732943592e-29
11
21.499999999992969
21
503.60850852163901
31
-3.7303222274745077e-29
0
LINE
5
204
100
AcDbEntity
8
0
100
AcDbLine
10
21.499999999992969
20
503.60850852163901
30
-3.7303222274745077e-29
11
21.499999999992593
21
512.77517518830575
31
8.8817841970011655e-15
0
LINE
5
205
100
AcDbEntity
8
0
100
AcDbLine
10
21.499999999992593
20
512.77517518830575
30
8.8817841970011655e-15
11
27.517700754390351
21
512.77517518830575
31
3.730322227474524e-29
0
LINE
5
206
100
AcDbEntity
8
0
100
AcDbLine
10
27.517700754390351
20
512.77517518830575
30
3.730322227474524e-29
11
27.517700754390056
21
520.27517518830587
31
-7.2969633732943592e-29
0
LINE
5
207
100
AcDbEntity
8
0
100
AcDbLine
10
27.517700754390056
20
520.27517518830587
30
-7.2969633732943592e-29
11
21.499999999992276
21
520.27517518830575
31
-3.7303222274745823e-29
0
LINE
5
208
100
AcDbEntity
8
0
100
AcDbLine
10
21.499999999992276
20
520.27517518830575
30
-3.7303222274745823e-29
11
21.4999999999919
21
529.44184185497249
31
-8.6774699574311299e-29
0
LINE
5
209
100
AcDbEntity
8
0
100
AcDbLine
10
21.4999999999919
20
529.44184185497249
30
-8.6774699574311299e-29
11
27.517700754389708
21
529.44184185497249
31
8.8817841970012902e-15
0
LINE
5
210
100
AcDbEntity
8
0
100
AcDbLine
10
27.517700754389708
20
529.44184185497249
30
8.8817841970012902e-15
11
27.517700754389413
21
536.94184185497261
31
-7.0997481469891062e-29
0
LINE
5
211
100
AcDbEntity
8
0
100
AcDbLine
10
27.517700754389413
20
536.94184185497261
30
-7.0997481469891062e-29
11
21.499999999991587
21
536.94184185497261
31
-3.7303222274745655e-29
0
LINE
5
212
100
AcDbEntity
8
0
100
AcDbLine
10
21.499999999991587
20
536.94184185497261
30
-3.7303222274745655e-29
11
21.499999999991211
21
546.10850852163924
31
-8.6774699574311299e-29
0
LINE
5
213
100
AcDbEntity
8
0
100
AcDbLine
10
21.499999999991211
20
546.10850852163924
30
-8.6774699574311299e-29
11
27.517700754389057
21
546.10850852163924
31
3.7303222274745823e-29
0
LINE
5
214
100
AcDbEntity
8
0
100
AcDbLine
10
27.517700754389057
20
546.10850852163924
30
3.7303222274745823e-29
11
27.517700754388766
21
553.60850852163924
31
-7.2969633732943592e-29
0
LINE
5
215
100
AcDbEntity
8
0
100
AcDbLine
10
27.517700754388766
20
553.60850852163924
30
-7.2969633732943592e-29
11
21.499999999990898
21
553.60850852163924
31
-3.7303222274745935e-29
0
LINE
5
216
100
AcDbEntity
8
0
100
AcDbLine
10
21.499999999990898
20
553.60850852163924
30
-3.7303222274745935e-29
11
21.499999999990521
21
562.77517518830609
31
-8.6774699574311299e-29
0
LINE
5
217
100
AcDbEntity
8
0
100
AcDbLine
10
21.499999999990521
20
562.77517518830609
30
-8.6774699574311299e-29
11
27.517700754388414
21
562.77517518830609
31
3.730322227474654e-29
0
LINE
5
218
100
AcDbEntity
8
0
100
AcDbLine
10
27.517700754388414
20
562.77517518830609
30
3.730322227474654e-29
11
27.517700754388123
21
570.27517518830609
31
-7.0997481469891062e-29
0
LINE
5
219
100
AcDbEntity
8
0
100
AcDbLine
10
27.517700754388123
20
570.27517518830609
30
-7.0997481469891062e-29
11
21.499999999990212
21
570.27517518830609
31
-3.7303222274746204e-29
0
LINE
5
220
100
AcDbEntity
8
0
100
AcDbLine
10
21.499999999990212
20
570.27517518830609
30
-3.7303222274746204e-29
11
21.499999999989829
21
579.44184185497284
31
-8.6774699574311299e-29
0
LINE
5
221
100
AcDbEntity
8
0
100
AcDbLine
10
21.499999999989829
20
579.44184185497284
30
-8.6774699574311299e-29
11
27.517700754387768
21
579.44184185497284
31
3.7303222274745941e-29
0
LINE
5
222
100
AcDbEntity
8
0
100
AcDbLine
10
27.517700754387768
20
579.44184185497284
30
3.7303222274745941e-29
11
27.517700754387477
21
586.94184185496954
31
-7.0997481469891062e-29
0
LINE
5
223
100
AcDbEntity
8
0
100
AcDbLine
10
8.9999999994985291
20
586.94184185496965
30
-1.1478967390869061e-28
11
8.9999999994880202
21
498.65938802274678
31
8.5196977763869275e-28
0
LINE
5
224
100
AcDbEntity
8
0
100
AcDbLine
10
8.9999999994880202
20
498.65938802274678
30
8.5196977763869275e-28
11
-9.000000000507459
21
498.65938802274678
31
8.8817841970012855e-15
0
LINE
5
225
100
AcDbEntity
8
0
100
AcDbLine
10
-9.000000000507459
20
498.65938802274678
30
8.8817841970012855e-15
11
-9.0000000005111165
21
586.94184185496977
31
-8.2041534142985228e-28
0
LINE
5
226
100
AcDbEntity
8
0
100
AcDbLine
10
-27.482296472966084
20
586.94184185496977
30
-1.1457020573122316e-28
11
-27.482296472965793
21
579.44184185497295
31
-8.8817841970012208e-15
0
LINE
5
227
100
AcDbEntity
8
0
100
AcDbLine
10
-27.482296472965793
20
579.44184185497295
30
-8.8817841970012208e-15
11
-21.500000000012047
21
579.44184185497295
31
3.7083754103441939e-29
0
LINE
5
228
100
AcDbEntity
8
0
100
AcDbLine
10
-21.500000000012047
20
579.44184185497295
30
3.7083754103441939e-29
11
-21.500000000011667
21
570.27517518830621
31
8.6774699574311299e-29
0
LINE
5
229
100
AcDbEntity
8
0
100
AcDbLine
10
-21.500000000011667
20
570.27517518830621
30
8.6774699574311299e-29
11
-27.482296472965441
21
570.27517518830609
31
1.0888594807291599e-28
0
LINE
5
230
100
AcDbEntity
8
0
100
AcDbLine
10
-27.482296472965441
20
570.27517518830609
30
1.0888594807291599e-28
11
-27.482296472965153
21
562.77517518830621
31
-8.8817841970011829e-15
0
LINE
5
231
100
AcDbEntity
8
0
100
AcDbLine
10
-27.482296472965153
20
562.77517518830621
30
-8.8817841970011829e-15
11
-21.500000000011354
21
562.77517518830632
31
3.708375410344227e-29
0
LINE
5
232
100
AcDbEntity
8
0
100
AcDbLine
10
-21.500000000011354
20
562.77517518830632
30
3.708375410344227e-29
11
-21.500000000010978
21
553.60850852163946
31
8.6774699574311299e-29
0
LINE
5
233
100
AcDbEntity
8
0
100
AcDbLine
10
-21.500000000010978
20
553.60850852163946
30
8.6774699574311299e-29
11
-27.482296472964798
21
553.60850852163935
31
1.088859480729157e-28
0
LINE
5
234
100
AcDbEntity
8
0
100
AcDbLine
10
-27.482296472964798
20
553.60850852163935
30
1.088859480729157e-28
11
-27.482296472964507
21
546.10850852163946
31
6.9025329206838533e-29
0
LINE
5
235
100
AcDbEntity
8
0
100
AcDbLine
10
-27.482296472964507
20
546.10850852163946
30
6.9025329206838533e-29
11
-21.500000000010665
21
546.10850852163946
31
3.7083754103442522e-29
0
LINE
5
236
100
AcDbEntity
8
0
100
AcDbLine
10
-21.500000000010665
20
546.10850852163946
30
3.7083754103442522e-29
11
-21.500000000010289
21
536.94184185497261
31
8.6774699574311299e-29
0
LINE
5
237
100
AcDbEntity
8
0
100
AcDbLine
10
-21.500000000010289
20
536.94184185497261
30
8.6774699574311299e-29
11
-27.482296472964155
21
536.94184185497261
31
1.0888594807291545e-28
0
LINE
5
238
100
AcDbEntity
8
0
100
AcDbLine
10
-27.482296472964155
20
536.94184185497261
30
1.0888594807291545e-28
11
-27.48229647296386
21
529.44184185497272
31
6.9025329206838533e-29
0
LINE
5
239
100
AcDbEntity
8
0
100
AcDbLine
10
-27.48229647296386
20
529.44184185497272
30
6.9025329206838533e-29
11
-21.500000000009972
21
529.44184185497272
31
3.7083754103442797e-29
0
LINE
5
240
100
AcDbEntity
8
0
100
AcDbLine
10
-21.500000000009972
20
529.44184185497272
30
3.7083754103442797e-29
11
-21.500000000009596
21
520.27517518830587
31
8.6774699574311299e-29
0
LINE
5
241
100
AcDbEntity
8
0
100
AcDbLine
10
-21.500000000009596
20
520.27517518830587
30
8.6774699574311299e-29
11
-27.482296472963512
21
520.27517518830587
31
1.0888594807291563e-28
0
LINE
5
242
100
AcDbEntity
8
0
100
AcDbLine
10
-27.482296472963512
20
520.27517518830587
30
1.0888594807291563e-28
11
-27.482296472963217
21
512.77517518830587
31
6.9025329206838533e-29
0
LINE
5
243
100
AcDbEntity
8
0
100
AcDbLine
10
-27.482296472963217
20
512.77517518830587
30
6.9025329206838533e-29
11
-21.50000000000928
21
512.77517518830598
31
-8.8817841970012145e-15
0
LINE
5
244
100
AcDbEntity
8
0
100
AcDbLine
10
-21.50000000000928
20
512.77517518830598
30
-8.8817841970012145e-15
11
-21.500000000008903
21
503.60850852163912
31
8.6774699574311299e-29
0
LINE
5
245
100
AcDbEntity
8
0
100
AcDbLine
10
-21.500000000008903
20
503.60850852163912
30
8.6774699574311299e-29
11
-27.482296472962865
21
503.60850852163907
31
1.0888594807291532e-28
0
LINE
5
246
100
AcDbEntity
8
0
100
AcDbLine
10
-27.482296472962865
20
503.60850852163907
30
1.0888594807291532e-28
11
-27.482296472962574
21
496.10850852163912
31
6.9025329206838533e-29
0
LINE
5
247
100
AcDbEntity
8
0
100
AcDbLine
10
-27.482296472962574
20
496.10850852163912
30
6.9025329206838533e-29
11
-21.50000000000859
21
496.10850852163912
31
-8.8817841970012145e-15
0
LINE
5
248
100
AcDbEntity
8
0
100
AcDbLine
10
-21.50000000000859
20
496.10850852163912
30
-8.8817841970012145e-15
11
-21.500000000008303
21
489.15944994986808
31
6.9025329206838533e-29
0
LINE
5
249
100
AcDbEntity
8
0
100
AcDbLine
10
-21.500000000008303
20
489.15944994986808
30
6.9025329206838533e-29
11
-14.000000000029214
21
489.15944994986523
31
-2.0466860092541916e-27
0
LINE
5
250
100
AcDbEntity
8
0
100
AcDbLine
10
-14.000000000029214
20
489.15944994986523
30
-2.0466860092541916e-27
11
-14.000000000028731
21
483.1594499498687
31
9.2691156363468887e-29
0
LINE
5
251
100
AcDbEntity
8
0
100
AcDbLine
10
-14.000000000028731
20
483.1594499498687
30
9.2691156363468887e-29
11
-6.5000000000286517
21
483.15944994986893
31
-8.8817841970017887e-15
0
LINE
5
252
100
AcDbEntity
8
0
100
AcDbLine
10
-6.5000000000286517
20
483.15944994986893
30
-8.8817841970017887e-15
11
-6.5000000000291323
21
489.15944994986518
31
-5.3248111102418297e-29
0
LINE
5
253
100
AcDbEntity
8
0
100
AcDbLine
10
-6.5000000000291323
20
489.15944994986518
30
-5.3248111102418297e-29
11
6.499999999972875
21
489.15944994986518
31
8.0585909693249088e-29
0
LINE
5
254
100
AcDbEntity
8
0
100
AcDbLine
10
6.499999999972875
20
489.15944994986518
30
8.0585909693249088e-29
11
6.4999999999733564
21
483.1594499498695
31
4.1651855795669423e-27
0
LINE
5
255
100
AcDbEntity
8
0
100
AcDbLine
10
6.4999999999733564
20
483.1594499498695
30
4.1651855795669423e-27
11
13.999999999973433
21
483.15944994986972
31
-8.8817841970017887e-15
0
LINE
5
256
100
AcDbEntity
8
0
100
AcDbLine
10
13.999999999973433
20
483.15944994986972
30
-8.8817841970017887e-15
11
13.999999999972953
21
489.15944994986518
31
8.8817841970012523e-15
0
ENDSEC
0
SECTION
2
OBJECTS
0
DICTIONARY
5
C
100
AcDbDictionary
3
ACAD_GROUP
350
D
3
ACAD_MLINESTYLE
350
17
0
DICTIONARY
5
D
100
AcDbDictionary
0
DICTIONARY
5
1A
330
C
100
AcDbDictionary
0
DICTIONARY
5
17
100
AcDbDictionary
0
ENDSEC
0
EOF
