0
SECTION
2
HEADER
9
$INSUNITS
70
4
9
$ACADVER
1
AC1014
9
$HANDSEED
5
FFFF
0
ENDSEC
0
SECTION
2
TABLES
0
TABLE
2
VPORT
5
8
100
AcDbSymbolTable
0
ENDTAB
0
TABLE
2
LTYPE
5
5
100
AcDbSymbolTable
0
LTYPE
5
14
100
AcDbSymbolTableRecord
100
AcDbLinetypeTableRecord
2
BYBLOCK
70
0
0
LTYPE
5
15
100
AcDbSymbolTableRecord
100
AcDbLinetypeTableRecord
2
BYLAYER
70
0
0
ENDTAB
0
TABLE
2
LAYER
5
2
100
AcDbSymbolTable
70
2
0
LAYER
5
50
100
AcDbSymbolTableRecord
100
AcDbLayerTableRecord
2
0
70
0
6
CONTINUOUS
0
ENDTAB
0
TABLE
2
STYLE
5
3
100
AcDbSymbolTable
70
1
0
STYLE
5
11
100
AcDbSymbolTableRecord
100
AcDbTextStyleTableRecord
2
STANDARD
70
0
0
ENDTAB
0
TABLE
2
VIEW
5
6
100
AcDbSymbolTable
70
0
0
ENDTAB
0
TABLE
2
UCS
5
7
100
AcDbSymbolTable
70
0
0
ENDTAB
0
TABLE
2
APPID
5
9
100
AcDbSymbolTable
70
2
0
APPID
5
12
100
AcDbSymbolTableRecord
100
AcDbRegAppTableRecord
2
ACAD
70
0
0
ENDTAB
0
TABLE
2
DIMSTYLE
5
A
100
AcDbSymbolTable
70
1
0
ENDTAB
0
TABLE
2
BLOCK_RECORD
5
1
100
AcDbSymbolTable
70
1
0
BLOCK_RECORD
5
1F
100
AcDbSymbolTableRecord
100
AcDbBlockTableRecord
2
*MODEL_SPACE
0
BLOCK_RECORD
5
1B
100
AcDbSymbolTableRecord
100
AcDbBlockTableRecord
2
*PAPER_SPACE
0
ENDTAB
0
ENDSEC
0
SECTION
2
BLOCKS
0
BLOCK
5
20
100
AcDbEntity
100
AcDbBlockBegin
2
*MODEL_SPACE
0
ENDBLK
5
21
100
AcDbEntity
100
AcDbBlockEnd
0
BLOCK
5
1C
100
AcDbEntity
100
AcDbBlockBegin
2
*PAPER_SPACE
0
ENDBLK
5
1D
100
AcDbEntity
100
AcDbBlockEnd
0
ENDSEC
0
SECTION
2
ENTITIES
0
LINE
5
100
100
AcDbEntity
8
0
100
AcDbLine
10
13.961584469163483
20
486.15938948169355
30
0
11
21.461587871958415
21
486.15938948169355
31
6.9920438603707701e-29
0
LINE
5
101
100
AcDbEntity
8
0
100
AcDbLine
10
21.461587871958415
20
486.15938948169355
30
6.9920438603707701e-29
11
21.461587871958891
21
480.15938948169855
31
-3.944304526105059e-30
0
LINE
5
102
100
AcDbEntity
8
0
100
AcDbLine
10
21.461587871958891
20
480.15938948169855
30
-3.944304526105059e-30
11
27.463495455654481
21
480.15938948169878
31
-8.2011632021228026e-28
0
LINE
5
103
100
AcDbEntity
8
0
100
AcDbLine
10
27.463495455654481
20
480.15938948169878
30
-8.2011632021228026e-28
11
27.463495455654009
21
486.15938948169349
31
0
0
LINE
5
104
100
AcDbEntity
8
0
100
AcDbLine
10
27.463495455654009
20
486.15938948169349
30
0
11
27.499999999990283
21
486.15938948169355
31
3.4032167901092736e-31
0
LINE
5
105
100
AcDbEntity
8
0
100
AcDbLine
10
27.499999999990283
20
486.15938948169355
30
3.4032167901092736e-31
11
27.499999999965759
21
489.88368370993226
31
-8.8817841970012539e-15
0
LINE
5
106
100
AcDbEntity
8
0
100
AcDbLine
10
27.499999999965759
20
489.88368370993226
30
-8.8817841970012539e-15
11
21.499999999965695
21
489.88368370993226
31
-8.8817841970013075e-15
0
LINE
5
107
100
AcDbEntity
8
0
100
AcDbLine
10
21.499999999965695
20
489.88368370993226
30
-8.8817841970013075e-15
11
21.499999999965311
21
499.050350376599
31
0
0
LINE
5
108
100
AcDbEntity
8
0
100
AcDbLine
10
21.499999999965311
20
499.050350376599
30
0
11
27.499999999965375
21
499.050350376599
31
5.5936325504273095e-29
0
LINE
5
109
100
AcDbEntity
8
0
100
AcDbLine
10
27.499999999965375
20
499.050350376599
30
5.5936325504273095e-29
11
27.49999999996507
21
506.55035037659906
31
3.944304526105059e-30
0
LINE
5
110
100
AcDbEntity
8
0
100
AcDbLine
10
27.49999999996507
20
506.55035037659906
30
3.944304526105059e-30
11
21.499999999965006
21
506.550350376599
31
-8.8817841970013075e-15
0
LINE
5
111
100
AcDbEntity
8
0
100
AcDbLine
10
21.499999999965006
20
506.550350376599
30
-8.8817841970013075e-15
11
21.499999999964622
21
515.71701704326574
31
-3.944304526105059e-30
0
LINE
5
112
100
AcDbEntity
8
0
100
AcDbLine
10
21.499999999964622
20
515.71701704326574
30
-3.944304526105059e-30
11
27.499999999964686
21
515.71701704326574
31
5.5936325504273095e-29
0
LINE
5
113
100
AcDbEntity
8
0
100
AcDbLine
10
27.499999999964686
20
515.71701704326574
30
5.5936325504273095e-29
11
27.499999999964373
21
523.21701704326586
31
-8.8817841970012649e-15
0
LINE
5
114
100
AcDbEntity
8
0
100
AcDbLine
10
27.499999999964373
20
523.21701704326586
30
-8.8817841970012649e-15
11
21.499999999964313
21
523.21701704326586
31
-8.8817841970013075e-15
0
LINE
5
115
100
AcDbEntity
8
0
100
AcDbLine
10
21.499999999964313
20
523.21701704326586
30
-8.8817841970013075e-15
11
21.499999999963929
21
532.3836837099326
31
0
0
LINE
5
116
100
AcDbEntity
8
0
100
AcDbLine
10
21.499999999963929
20
532.3836837099326
30
0
11
27.499999999963993
21
532.38368370993248
31
5.5936325504272411e-29
0
LINE
5
117
100
AcDbEntity
8
0
100
AcDbLine
10
27.499999999963993
20
532.38368370993248
30
5.5936325504272411e-29
11
27.499999999963688
21
539.8836837099326
31
-8.8817841970012492e-15
0
LINE
5
118
100
AcDbEntity
8
0
100
AcDbLine
10
27.499999999963688
20
539.8836837099326
30
-8.8817841970012492e-15
11
21.499999999963624
21
539.8836837099326
31
-5.5936325504275168e-29
0
LINE
5
119
100
AcDbEntity
8
0
100
AcDbLine
10
21.499999999963624
20
539.8836837099326
30
-5.5936325504275168e-29
11
21.499999999963244
21
549.05035037659923
31
8.8817841970012523e-15
0
LINE
5
120
100
AcDbEntity
8
0
100
AcDbLine
10
21.499999999963244
20
549.05035037659923
30
8.8817841970012523e-15
11
27.499999999963304
21
549.05035037659923
31
5.5936325504273095e-29
0
LINE
5
121
100
AcDbEntity
8
0
100
AcDbLine
10
27.499999999963304
20
549.05035037659923
30
5.5936325504273095e-29
11
27.499999999962998
21
556.55035037659934
31
-8.8817841970012492e-15
0
LINE
5
122
100
AcDbEntity
8
0
100
AcDbLine
10
27.499999999962998
20
556.55035037659934
30
-8.8817841970012492e-15
11
21.499999999962935
21
556.55035037659923
31
-5.5936325504275168e-29
0
LINE
5
123
100
AcDbEntity
8
0
100
AcDbLine
10
21.499999999962935
20
556.55035037659923
30
-5.5936325504275168e-29
11
21.499999999962554
21
565.71701704326608
31
-3.944304526105059e-30
0
LINE
5
124
100
AcDbEntity
8
0
100
AcDbLine
10
21.499999999962554
20
565.71701704326608
30
-3.944304526105059e-30
11
27.499999999962618
21
565.71701704326608
31
8.8817841970013075e-15
0
LINE
5
125
100
AcDbEntity
8
0
100
AcDbLine
10
27.499999999962618
20
565.71701704326608
30
8.8817841970013075e-15
11
27.499999999962309
21
573.2170170432662
31
-7.8886090522101181e-30
0
LINE
5
126
100
AcDbEntity
8
0
100
AcDbLine
10
27.499999999962309
20
573.2170170432662
30
-7.8886090522101181e-30
11
21.499999999962249
21
573.2170170432662
31
-8.8817841970013075e-15
0
LINE
5
127
100
AcDbEntity
8
0
100
AcDbLine
10
21.499999999962249
20
573.2170170432662
30
-8.8817841970013075e-15
11
21.499999999961862
21
582.38368370993282
31
0
0
LINE
5
128
100
AcDbEntity
8
0
100
AcDbLine
10
21.499999999961862
20
582.38368370993282
30
0
11
27.499999999961922
21
582.38368370993282
31
5.5936325504273095e-29
0
LINE
5
129
100
AcDbEntity
8
0
100
AcDbLine
10
27.499999999961922
20
582.38368370993282
30
5.5936325504273095e-29
11
27.499999999986279
21
589.88368370992941
31
-3.944304526105059e-30
0
LINE
5
130
100
AcDbEntity
8
0
100
AcDbLine
10
8.9999999990472102
20
589.88368370992941
30
-8.8817841970014243e-15
11
8.9999999990376196
21
498.65938948169639
31
3.142821846400511e-26
0
LINE
5
131
100
AcDbEntity
8
0
100
AcDbLine
10
8.9999999990376196
20
498.65938948169639
30
3.142821846400511e-26
11
-9.0000000009578613
21
498.65938948169651
31
-1.6780897650180493e-28
0
LINE
5
132
100
AcDbEntity
8
0
100
AcDbLine
10
-9.0000000009578613
20
498.65938948169651
30
-1.6780897650180493e-28
11
-9.0000000009536247
21
589.88368370992941
31
8.8817841969574548e-15
0
LINE
5
133
100
AcDbEntity
8
0
100
AcDbLine
10
-27.500000000015142
20
589.88368370992941
30
-1.084202172438957e-18
11
-27.500000000040071
21
582.38368370993282
31
-3.1554436208840472e-29
0
LINE
5
134
100
AcDbEntity
8
0
100
AcDbLine
10
-27.500000000040071
20
582.38368370993282
30
-3.1554436208840472e-29
11
-21.500000000040007
21
582.38368370993282
31
5.5936325504273095e-29
0
LINE
5
135
100
AcDbEntity
8
0
100
AcDbLine
10
-21.500000000040007
20
582.38368370993282
30
5.5936325504273095e-29
11
-21.50000000003962
21
573.21701704326608
31
8.8817841970012523e-15
0
LINE
5
136
100
AcDbEntity
8
0
100
AcDbLine
10
-21.50000000003962
20
573.21701704326608
30
8.8817841970012523e-15
11
-27.500000000039684
21
573.2170170432662
31
8.8817841970011955e-15
0
LINE
5
137
100
AcDbEntity
8
0
100
AcDbLine
10
-27.500000000039684
20
573.2170170432662
30
8.8817841970011955e-15
11
-27.500000000039378
21
565.71701704326608
31
-3.944304526105059e-30
0
LINE
5
138
100
AcDbEntity
8
0
100
AcDbLine
10
-27.500000000039378
20
565.71701704326608
30
-3.944304526105059e-30
11
-21.500000000039314
21
565.71701704326608
31
8.8817841970013075e-15
0
LINE
5
139
100
AcDbEntity
8
0
100
AcDbLine
10
-21.500000000039314
20
565.71701704326608
30
8.8817841970013075e-15
11
-21.500000000038931
21
556.55035037659923
31
8.8817841970012555e-15
0
LINE
5
140
100
AcDbEntity
8
0
100
AcDbLine
10
-21.500000000038931
20
556.55035037659923
30
8.8817841970012555e-15
11
-27.500000000038995
21
556.55035037659923
31
8.8817841970011955e-15
0
LINE
5
141
100
AcDbEntity
8
0
100
AcDbLine
10
-27.500000000038995
20
556.55035037659923
30
8.8817841970011955e-15
11
-27.500000000038689
21
549.05035037659923
31
-3.944304526105059e-30
0
LINE
5
142
100
AcDbEntity
8
0
100
AcDbLine
10
-27.500000000038689
20
549.05035037659923
30
-3.944304526105059e-30
11
-21.500000000038625
21
549.05035037659923
31
5.5936325504272411e-29
0
LINE
5
143
100
AcDbEntity
8
0
100
AcDbLine
10
-21.500000000038625
20
549.05035037659923
30
5.5936325504272411e-29
11
-21.500000000038245
21
539.8836837099326
31
3.944304526105059e-30
0
LINE
5
144
100
AcDbEntity
8
0
100
AcDbLine
10
-21.500000000038245
20
539.8836837099326
30
3.944304526105059e-30
11
-27.500000000038305
21
539.8836837099326
31
8.8817841970011955e-15
0
LINE
5
145
100
AcDbEntity
8
0
100
AcDbLine
10
-27.500000000038305
20
539.8836837099326
30
8.8817841970011955e-15
11
-27.500000000038
21
532.38368370993248
31
8.8817841970012602e-15
0
LINE
5
146
100
AcDbEntity
8
0
100
AcDbLine
10
-27.500000000038
20
532.38368370993248
30
8.8817841970012602e-15
11
-21.500000000037936
21
532.38368370993248
31
5.5936325504272411e-29
0
LINE
5
147
100
AcDbEntity
8
0
100
AcDbLine
10
-21.500000000037936
20
532.38368370993248
30
5.5936325504272411e-29
11
-21.500000000037556
21
523.21701704326574
31
0
0
LINE
5
148
100
AcDbEntity
8
0
100
AcDbLine
10
-21.500000000037556
20
523.21701704326574
30
0
11
-27.50000000003762
21
523.21701704326586
31
-5.5936325504270348e-29
0
LINE
5
149
100
AcDbEntity
8
0
100
AcDbLine
10
-27.50000000003762
20
523.21701704326586
30
-5.5936325504270348e-29
11
-27.500000000037307
21
515.71701704326574
31
1.1832913578315177e-29
0
LINE
5
150
100
AcDbEntity
8
0
100
AcDbLine
10
-27.500000000037307
20
515.71701704326574
30
1.1832913578315177e-29
11
-21.500000000037247
21
515.71701704326574
31
5.5936325504273095e-29
0
LINE
5
151
100
AcDbEntity
8
0
100
AcDbLine
10
-21.500000000037247
20
515.71701704326574
30
5.5936325504273095e-29
11
-21.500000000036863
21
506.550350376599
31
3.944304526105059e-30
0
LINE
5
152
100
AcDbEntity
8
0
100
AcDbLine
10
-21.500000000036863
20
506.550350376599
30
3.944304526105059e-30
11
-27.500000000036927
21
506.550350376599
31
-5.5936325504270348e-29
0
LINE
5
153
100
AcDbEntity
8
0
100
AcDbLine
10
-27.500000000036927
20
506.550350376599
30
-5.5936325504270348e-29
11
-27.500000000036621
21
499.05035037659894
31
-3.944304526105059e-30
0
LINE
5
154
100
AcDbEntity
8
0
100
AcDbLine
10
-27.500000000036621
20
499.05035037659894
30
-3.944304526105059e-30
11
-21.500000000036557
21
499.050350376599
31
5.5936325504273095e-29
0
LINE
5
155
100
AcDbEntity
8
0
100
AcDbLine
10
-21.500000000036557
20
499.050350376599
30
5.5936325504273095e-29
11
-21.500000000036174
21
489.88368370993226
31
8.8817841970012523e-15
0
LINE
5
156
100
AcDbEntity
8
0
100
AcDbLine
10
-21.500000000036174
20
489.88368370993226
30
8.8817841970012523e-15
11
-27.500000000036238
21
489.88368370993226
31
-5.5936325504270348e-29
0
LINE
5
157
100
AcDbEntity
8
0
100
AcDbLine
10
-27.500000000036238
20
489.88368370993226
30
-5.5936325504270348e-29
11
-27.500000000011141
21
486.15938948169372
31
1.0314356335764729e-27
0
LINE
5
158
100
AcDbEntity
8
0
100
AcDbLine
10
7.1420063397814548
20
486.15938948169367
30
-2.1684043446480512e-18
11
7.1420063397819344
21
480.15938948169799
31
-8.8817841970012523e-15
0
LINE
5
159
100
AcDbEntity
8
0
100
AcDbLine
10
7.1420063397819344
20
480.15938948169799
30
-8.8817841970012523e-15
11
13.961584469163963
21
480.15938948169827
31
-8.8817841970022842e-15
0
LINE
5
160
100
AcDbEntity
8
0
100
AcDbLine
10
13.961584469163963
20
480.15938948169827
30
-8.8817841970022842e-15
11
13.961584469163483
21
486.15938948169355
31
0
0
LINE
5
161
100
AcDbEntity
8
0
100
AcDbLine
10
-14.034606503696917
20
486.15938948169367
30
-6.9735262810377056e-29
11
-14.034606503696441
21
480.15938948169719
31
3.944304526105059e-30
0
LINE
5
162
100
AcDbEntity
8
0
100
AcDbLine
10
-14.034606503696441
20
480.15938948169719
30
3.944304526105059e-30
11
-6.5346068817845362
21
480.15938948169747
31
-8.8817841970022778e-15
0
LINE
5
163
100
AcDbEntity
8
0
100
AcDbLine
10
-6.5346068817845362
20
480.15938948169747
30
-8.8817841970022778e-15
11
-6.5346068817850149
21
486.15938948169367
31
0
0
LINE
5
164
100
AcDbEntity
8
0
100
AcDbLine
10
-27.500000000032085
20
486.15938948169367
30
-5.4210108607920109e-19
11
-27.500000000031601
21
480.15938948169668
31
-3.944304526105059e-30
0
LINE
5
165
100
AcDbEntity
8
0
100
AcDbLine
10
-27.500000000031601
20
480.15938948169668
30
-3.944304526105059e-30
11
-21.534605520571247
21
480.15938948169685
31
5.4210108564116585e-19
0
LINE
5
166
100
AcDbEntity
8
0
100
AcDbLine
10
-21.534605520571247
20
480.15938948169685
30
5.4210108564116585e-19
11
-21.534605520571727
21
486.15938948169372
31
0
0
LINE
5
167
100
AcDbEntity
8
0
100
AcDbLine
10
-9.0000000000138662
20
589.88368370992862
30
8.8817841970012523e-15
11
-9.0000000000153371
21
627.8836837099177
31
8.8817841970012523e-15
0
LINE
5
168
100
AcDbEntity
8
0
100
AcDbLine
10
-9.0000000000153371
20
627.8836837099177
30
8.8817841970012523e-15
11
8.9999999999848548
21
627.88368370991759
31
5.5205184454694995e-28
0
LINE
5
169
100
AcDbEntity
8
0
100
AcDbLine
10
8.9999999999848548
20
627.88368370991759
30
5.5205184454694995e-28
11
8.9999999999863274
21
589.88368370992839
31
1.5777218104420236e-29
0
LINE
5
170
100
AcDbEntity
8
0
100
AcDbLine
10
21.499999999986159
20
589.8836837099285
30
-1.3679748107636029e-28
11
21.499999999985707
21
599.38368370992839
31
-1.1832913578315177e-29
0
LINE
5
171
100
AcDbEntity
8
0
100
AcDbLine
10
21.499999999985707
20
599.38368370992839
30
-1.1832913578315177e-29
11
27.499999999985661
21
599.38368370992828
31
1.8401728151564651e-28
0
LINE
5
172
100
AcDbEntity
8
0
100
AcDbLine
10
27.499999999985661
20
599.38368370992828
30
1.8401728151564651e-28
11
27.499999999985377
21
606.88368370992839
31
-3.944304526105059e-30
0
LINE
5
173
100
AcDbEntity
8
0
100
AcDbLine
10
27.499999999985377
20
606.88368370992839
30
-3.944304526105059e-30
11
21.499999999985423
21
606.88368370992839
31
-8.8817841970014353e-15
0
LINE
5
174
100
AcDbEntity
8
0
100
AcDbLine
10
21.499999999985423
20
606.88368370992839
30
-8.8817841970014353e-15
11
21.499999999985139
21
614.38368370992839
31
-3.944304526105059e-30
0
LINE
5
175
100
AcDbEntity
8
0
100
AcDbLine
10
21.499999999985139
20
614.38368370992839
30
-3.944304526105059e-30
11
27.499999999985096
21
614.38368370992839
31
8.8817841970014353e-15
0
LINE
5
176
100
AcDbEntity
8
0
100
AcDbLine
10
27.499999999985096
20
614.38368370992839
30
8.8817841970014353e-15
11
27.499999999984801
21
621.88368370992839
31
0
0
LINE
5
177
100
AcDbEntity
8
0
100
AcDbLine
10
27.499999999984801
20
621.88368370992839
30
0
11
21.499999999984851
21
621.88368370992839
31
-1.8401728151564651e-28
0
LINE
5
178
100
AcDbEntity
8
0
100
AcDbLine
10
21.499999999984851
20
621.88368370992839
30
-1.8401728151564651e-28
11
21.49999999998456
21
629.38368370992839
31
-3.944304526105059e-30
0
LINE
5
179
100
AcDbEntity
8
0
100
AcDbLine
10
21.49999999998456
20
629.38368370992839
30
-3.944304526105059e-30
11
27.49999999998451
21
629.38368370992839
31
8.8817841970014353e-15
0
LINE
5
180
100
AcDbEntity
8
0
100
AcDbLine
10
27.49999999998451
20
629.38368370992839
30
8.8817841970014353e-15
11
27.499999999984233
21
636.88368370992839
31
-3.944304526105059e-30
0
LINE
5
181
100
AcDbEntity
8
0
100
AcDbLine
10
27.499999999984233
20
636.88368370992839
30
-3.944304526105059e-30
11
21.499999999984283
21
636.8836837099285
31
-1.8401728151564651e-28
0
LINE
5
182
100
AcDbEntity
8
0
100
AcDbLine
10
21.499999999984283
20
636.8836837099285
30
-1.8401728151564651e-28
11
21.499999999984144
21
640.38368370991793
31
0
0
LINE
5
183
100
AcDbEntity
8
0
100
AcDbLine
10
21.499999999984144
20
640.38368370991793
30
0
11
11.249999999983798
21
640.38368370992839
31
8.8817841969690163e-15
0
LINE
5
184
100
AcDbEntity
8
0
100
AcDbLine
10
11.249999999983798
20
640.38368370992839
30
8.8817841969690163e-15
11
11.249999999983569
21
646.38368370992839
31
0
0
LINE
5
185
100
AcDbEntity
8
0
100
AcDbLine
10
11.249999999983569
20
646.38368370992839
30
0
11
3.7499999999836264
21
646.3836837099285
31
8.881784197001022e-15
0
LINE
5
186
100
AcDbEntity
8
0
100
AcDbLine
10
3.7499999999836264
20
646.3836837099285
30
8.881784197001022e-15
11
3.7499999999838578
21
640.38368370992862
31
0
0
LINE
5
187
100
AcDbEntity
8
0
100
AcDbLine
10
3.7499999999838578
20
640.38368370992862
30
0
11
-3.7500000000160831
21
640.38368370992862
31
-2.3002160189455819e-28
0
LINE
5
188
100
AcDbEntity
8
0
100
AcDbLine
10
-3.7500000000160831
20
640.38368370992862
30
-2.3002160189455819e-28
11
-3.7500000000163141
21
646.3836837099285
31
0
0
LINE
5
189
100
AcDbEntity
8
0
100
AcDbLine
10
-3.7500000000163141
20
646.3836837099285
30
0
11
-11.250000000016255
21
646.3836837099285
31
-1.7526720004536961e-28
0
LINE
5
190
100
AcDbEntity
8
0
100
AcDbLine
10
-11.250000000016255
20
646.3836837099285
30
-1.7526720004536961e-28
11
-11.250000000016021
21
640.38368370992873
31
8.8817841970012523e-15
0
LINE
5
191
100
AcDbEntity
8
0
100
AcDbLine
10
-11.250000000016021
20
640.38368370992873
30
8.8817841970012523e-15
11
-21.500000000015909
21
640.38368370991839
31
8.8817841970328052e-15
0
LINE
5
192
100
AcDbEntity
8
0
100
AcDbLine
10
-21.500000000015909
20
640.38368370991839
30
8.8817841970328052e-15
11
-21.500000000015778
21
636.88368370992885
31
8.8817841970012507e-15
0
LINE
5
193
100
AcDbEntity
8
0
100
AcDbLine
10
-21.500000000015778
20
636.88368370992885
30
8.8817841970012507e-15
11
-27.500000000015731
21
636.88368370992896
31
8.8817841970010677e-15
0
LINE
5
194
100
AcDbEntity
8
0
100
AcDbLine
10
-27.500000000015731
20
636.88368370992896
30
8.8817841970010677e-15
11
-27.500000000015433
21
629.38368370992896
31
0
0
LINE
5
195
100
AcDbEntity
8
0
100
AcDbLine
10
-27.500000000015433
20
629.38368370992896
30
0
11
-21.500000000015479
21
629.38368370992885
31
8.8817841970014353e-15
0
LINE
5
196
100
AcDbEntity
8
0
100
AcDbLine
10
-21.500000000015479
20
629.38368370992885
30
8.8817841970014353e-15
11
-21.500000000015191
21
621.88368370992885
31
8.8817841970012555e-15
0
LINE
5
197
100
AcDbEntity
8
0
100
AcDbLine
10
-21.500000000015191
20
621.88368370992885
30
8.8817841970012555e-15
11
-27.500000000015142
21
621.88368370992896
31
8.8817841970010677e-15
0
LINE
5
198
100
AcDbEntity
8
0
100
AcDbLine
10
-27.500000000015142
20
621.88368370992896
30
8.8817841970010677e-15
11
-27.500000000014865
21
614.38368370992885
31
3.944304526105059e-30
0
LINE
5
199
100
AcDbEntity
8
0
100
AcDbLine
10
-27.500000000014865
20
614.38368370992885
30
3.944304526105059e-30
11
-21.500000000014911
21
614.38368370992885
31
8.8817841970014353e-15
0
LINE
5
200
100
AcDbEntity
8
0
100
AcDbLine
10
-21.500000000014911
20
614.38368370992885
30
8.8817841970014353e-15
11
-21.500000000014616
21
606.88368370992885
31
8.8817841970012492e-15
0
LINE
5
201
100
AcDbEntity
8
0
100
AcDbLine
10
-21.500000000014616
20
606.88368370992885
30
8.8817841970012492e-15
11
-27.50000000001457
21
606.88368370992885
31
-1.8401728151564651e-28
0
LINE
5
202
100
AcDbEntity
8
0
100
AcDbLine
10
-27.50000000001457
20
606.88368370992885
30
-1.8401728151564651e-28
11
-27.500000000014282
21
599.38368370992885
31
3.944304526105059e-30
0
LINE
5
203
100
AcDbEntity
8
0
100
AcDbLine
10
-27.500000000014282
20
599.38368370992885
30
3.944304526105059e-30
11
-21.500000000014332
21
599.38368370992873
31
1.8401728151564651e-28
0
LINE
5
204
100
AcDbEntity
8
0
100
AcDbLine
10
-21.500000000014332
20
599.38368370992873
30
1.8401728151564651e-28
11
-21.500000000013507
21
589.88368370992885
31
8.8817841970012444e-15
0
LINE
5
205
100
AcDbEntity
8
0
100
AcDbLine
10
-21.500000000013507
20
589.88368370992885
30
8.8817841970012444e-15
11
-27.500000000015142
21
589.88368370992941
31
-1.084202172438957e-18
0
LINE
5
206
100
AcDbEntity
8
0
100
AcDbLine
10
27.499999999986279
20
589.88368370992941
30
-3.944304526105059e-30
11
21.499999999986159
21
589.8836837099285
31
-1.3679748107636029e-28
0
LINE
5
207
100
AcDbEntity
8
0
100
AcDbLine
10
-14.034606503696917
20
486.15938948169367
30
-6.9735262810377056e-29
11
-21.534605520571727
21
486.15938948169372
31
0
0
LINE
5
208
100
AcDbEntity
8
0
100
AcDbLine
10
7.1420063397814548
20
486.15938948169367
30
-2.1684043446480512e-18
11
-6.5346068817850149
21
486.15938948169367
31
0
0
ENDSEC
0
SECTION
2
OBJECTS
0
DICTIONARY
5
C
100
AcDbDictionary
3
ACAD_GROUP
350
D
3
ACAD_MLINESTYLE
350
17
0
DICTIONARY
5
D
100
AcDbDictionary
0
DICTIONARY
5
1A
330
C
100
AcDbDictionary
0
DICTIONARY
5
17
100
AcDbDictionary
0
ENDSEC
0
EOF
