0
SECTION
2
HEADER
9
$INSUNITS
70
4
9
$ACADVER
1
AC1014
9
$HANDSEED
5
FFFF
0
ENDSEC
0
SECTION
2
TABLES
0
TABLE
2
VPORT
5
8
100
AcDbSymbolTable
0
ENDTAB
0
TABLE
2
LTYPE
5
5
100
AcDbSymbolTable
0
LTYPE
5
14
100
AcDbSymbolTableRecord
100
AcDbLinetypeTableRecord
2
BYBLOCK
70
0
0
LTYPE
5
15
100
AcDbSymbolTableRecord
100
AcDbLinetypeTableRecord
2
BYLAYER
70
0
0
ENDTAB
0
TABLE
2
LAYER
5
2
100
AcDbSymbolTable
70
2
0
LAYER
5
50
100
AcDbSymbolTableRecord
100
AcDbLayerTableRecord
2
0
70
0
6
CONTINUOUS
0
ENDTAB
0
TABLE
2
STYLE
5
3
100
AcDbSymbolTable
70
1
0
STYLE
5
11
100
AcDbSymbolTableRecord
100
AcDbTextStyleTableRecord
2
STANDARD
70
0
0
ENDTAB
0
TABLE
2
VIEW
5
6
100
AcDbSymbolTable
70
0
0
ENDTAB
0
TABLE
2
UCS
5
7
100
AcDbSymbolTable
70
0
0
ENDTAB
0
TABLE
2
APPID
5
9
100
AcDbSymbolTable
70
2
0
APPID
5
12
100
AcDbSymbolTableRecord
100
AcDbRegAppTableRecord
2
ACAD
70
0
0
ENDTAB
0
TABLE
2
DIMSTYLE
5
A
100
AcDbSymbolTable
70
1
0
ENDTAB
0
TABLE
2
BLOCK_RECORD
5
1
100
AcDbSymbolTable
70
1
0
BLOCK_RECORD
5
1F
100
AcDbSymbolTableRecord
100
AcDbBlockTableRecord
2
*MODEL_SPACE
0
BLOCK_RECORD
5
1B
100
AcDbSymbolTableRecord
100
AcDbBlockTableRecord
2
*PAPER_SPACE
0
ENDTAB
0
ENDSEC
0
SECTION
2
BLOCKS
0
BLOCK
5
20
100
AcDbEntity
100
AcDbBlockBegin
2
*MODEL_SPACE
0
ENDBLK
5
21
100
AcDbEntity
100
AcDbBlockEnd
0
BLOCK
5
1C
100
AcDbEntity
100
AcDbBlockBegin
2
*PAPER_SPACE
0
ENDBLK
5
1D
100
AcDbEntity
100
AcDbBlockEnd
0
ENDSEC
0
SECTION
2
ENTITIES
0
LINE
5
100
100
AcDbEntity
8
0
100
AcDbLine
10
-21.231440536165156
20
730.04307173265352
30
0
11
-21.23144053616539
21
724.04307173265352
31
0
0
LINE
5
101
100
AcDbEntity
8
0
100
AcDbLine
10
-21.23144053616539
20
724.04307173265352
30
0
11
-28.731440536165405
21
724.04307173265329
31
-5.4210108556515094e-19
0
LINE
5
102
100
AcDbEntity
8
0
100
AcDbLine
10
-28.731440536165405
20
724.04307173265329
30
-5.4210108556515094e-19
11
-28.731440536165174
21
730.04307173265329
31
0
0
LINE
5
103
100
AcDbEntity
8
0
100
AcDbLine
10
-28.731440536165174
20
730.04307173265329
30
0
11
-35.032090812961144
21
730.04307173265317
31
5.6924387986911082e-28
0
LINE
5
104
100
AcDbEntity
8
0
100
AcDbLine
10
-35.032090812961144
20
730.04307173265317
30
5.6924387986911082e-28
11
-35.032090812961385
21
724.04307173265329
31
-8.8817841970012602e-15
0
LINE
5
105
100
AcDbEntity
8
0
100
AcDbLine
10
-35.032090812961385
20
724.04307173265329
30
-8.8817841970012602e-15
11
-41.032090812961393
21
724.04307173265306
31
-8.8817841970007096e-15
0
LINE
5
106
100
AcDbEntity
8
0
100
AcDbLine
10
-41.032090812961393
20
724.04307173265306
30
-8.8817841970007096e-15
11
-41.032090812961819
21
713.24245606433192
31
-8.8817841970012523e-15
0
LINE
5
107
100
AcDbEntity
8
0
100
AcDbLine
10
-41.032090812961819
20
713.24245606433192
30
-8.8817841970012523e-15
11
-35.032090812961798
21
713.24245606433215
31
-5.4208107563010448e-28
0
LINE
5
108
100
AcDbEntity
8
0
100
AcDbLine
10
-35.032090812961798
20
713.24245606433215
30
-5.4208107563010448e-28
11
-35.032090812962082
21
705.74245606433215
31
-1.5777218104420236e-29
0
LINE
5
109
100
AcDbEntity
8
0
100
AcDbLine
10
-35.032090812962082
20
705.74245606433215
30
-1.5777218104420236e-29
11
-41.032090812962103
21
705.74245606433215
31
5.4208107563010448e-28
0
LINE
5
110
100
AcDbEntity
8
0
100
AcDbLine
10
-41.032090812962103
20
705.74245606433215
30
5.4208107563010448e-28
11
-41.032090812962487
21
695.74245606433215
31
-8.8817841970012602e-15
0
LINE
5
111
100
AcDbEntity
8
0
100
AcDbLine
10
-41.032090812962487
20
695.74245606433215
30
-8.8817841970012602e-15
11
-35.032090812962473
21
695.74245606433237
31
-8.8817841970017951e-15
0
LINE
5
112
100
AcDbEntity
8
0
100
AcDbLine
10
-35.032090812962473
20
695.74245606433237
30
-8.8817841970017951e-15
11
-35.032090812962728
21
688.94184039601089
31
-8.8817841970012602e-15
0
LINE
5
113
100
AcDbEntity
8
0
100
AcDbLine
10
-35.032090812962728
20
688.94184039601089
30
-8.8817841970012602e-15
11
-40.799891431863536
21
688.94184039601203
31
-5.4210108858944056e-19
0
LINE
5
114
100
AcDbEntity
8
0
100
AcDbLine
10
-40.799891431863536
20
688.94184039601203
30
-5.4210108858944056e-19
11
-40.799891431863557
21
688.24245606433351
31
-8.8817841970012444e-15
0
SPLINE
5
115
100
AcDbEntity
8
0
100
AcDbSpline
70
4
71
5
72
21
73
15
74
0
42
0.000000001
43
0.0000000001
44
0.0000000001
40
0.021899882542950232
40
0.021899882542950232
40
0.021899882542950232
40
0.021899882542950232
40
0.021899882542950232
40
0.021899882542950232
40
0.10000000000000001
40
0.20000000000000001
40
0.30000000000000004
40
0.40000000000000002
40
0.5
40
0.59999999999999998
40
0.69999999999999996
40
0.79999999999999993
40
0.89999999999999991
40
1
40
1
40
1
40
1
40
1
40
1
41
1
41
1
41
1
41
1
41
1
41
1
41
1
41
1
41
1
41
1
41
1
41
1
41
1
41
1
41
1
10
-40.799891431863543
20
688.2424560643334
30
-8.8817841970012523e-15
10
-40.63140742312445
20
687.74692483833621
30
8.8817841970012523e-15
10
-40.235524269570234
20
686.630348114291
30
-8.8817841970012523e-15
10
-39.575685979004149
20
684.93481230087104
30
0
10
-38.58854640737858
20
682.73324693837924
30
-8.8817841970012523e-15
10
-37.175745103086413
20
680.13889305556563
30
-8.8817841970012523e-15
10
-35.499369423972432
20
677.65464625420179
30
-8.8817841970012523e-15
10
-33.607116640977445
20
675.41893577944802
30
-8.8817841970012523e-15
10
-31.488297796053907
20
673.44406768099293
30
0
10
-29.150020648921263
20
671.72185889328023
30
0
10
-26.608086503421159
20
670.23411759353723
30
-8.8817841970012523e-15
10
-24.424592032894608
20
669.21655664022194
30
0
10
-22.707929992869147
20
668.5443849517319
30
-8.8817841970012523e-15
10
-21.528930025529718
20
668.13605733979307
30
-8.8817841970012523e-15
10
-20.930790259371761
20
667.94184039601168
30
-8.8817841970012523e-15
0
LINE
5
116
100
AcDbEntity
8
0
100
AcDbLine
10
-20.930790259371747
20
667.94184039601066
30
-4.8909367076345217e-30
11
21.069209740628473
21
667.941840396011
31
2.1684043411764412e-18
0
LINE
5
117
100
AcDbEntity
8
0
100
AcDbLine
10
21.069209740628473
20
667.941840396011
30
2.1684043411764412e-18
11
21.069209740630868
21
730.04307173265397
31
6.3108872417680944e-29
0
LINE
5
118
100
AcDbEntity
8
0
100
AcDbLine
10
21.069209740630868
20
730.04307173265397
30
6.3108872417680944e-29
11
8.7685594638349151
21
730.04307173265386
31
-5.4210108513142728e-19
0
LINE
5
119
100
AcDbEntity
8
0
100
AcDbLine
10
8.7685594638349151
20
730.04307173265386
30
-5.4210108513142728e-19
11
8.7685594638346824
21
724.04307173265397
31
7.8886090522101181e-30
0
LINE
5
120
100
AcDbEntity
8
0
100
AcDbLine
10
8.7685594638346824
20
724.04307173265397
30
7.8886090522101181e-30
11
1.2685594638346642
21
724.04307173265374
31
-5.4210108556515094e-19
0
LINE
5
121
100
AcDbEntity
8
0
100
AcDbLine
10
1.2685594638346642
20
724.04307173265374
30
-5.4210108556515094e-19
11
1.2685594638348927
21
730.04307173265374
31
-8.8817841970012523e-15
0
LINE
5
122
100
AcDbEntity
8
0
100
AcDbLine
10
1.2685594638348927
20
730.04307173265374
30
-8.8817841970012523e-15
11
-6.2314405361651222
21
730.04307173265363
31
-8.8820552475436953e-15
0
LINE
5
123
100
AcDbEntity
8
0
100
AcDbLine
10
-6.2314405361651222
20
730.04307173265363
30
-8.8820552475436953e-15
11
-6.2314405361653531
21
724.04307173265363
31
-8.8817841970012444e-15
0
LINE
5
124
100
AcDbEntity
8
0
100
AcDbLine
10
-6.2314405361653531
20
724.04307173265363
30
-8.8817841970012444e-15
11
-13.731440536165369
21
724.04307173265352
31
-8.8823262980868167e-15
0
LINE
5
125
100
AcDbEntity
8
0
100
AcDbLine
10
-13.731440536165369
20
724.04307173265352
30
-8.8823262980868167e-15
11
-13.73144053616514
21
730.04307173265352
31
0
0
LINE
5
126
100
AcDbEntity
8
0
100
AcDbLine
10
-13.73144053616514
20
730.04307173265352
30
0
11
-21.231440536165156
21
730.04307173265352
31
0
0
CIRCLE
5
127
100
AcDbEntity
8
0
100
AcDbCircle
10
0.069209740628668956
20
700.94184039601203
30
0
40
1.750000000000026
210
-1.0842021765099101e-19
220
3.1596262898314027e-30
230
1
0
CIRCLE
5
128
100
AcDbEntity
8
0
100
AcDbCircle
10
-11.930790259371967
20
688.94184039601191
30
-8.8817841970012523e-15
40
1.750000000000026
210
-1.0842021765099101e-19
220
3.1596262898314027e-30
230
1
0
CIRCLE
5
129
100
AcDbEntity
8
0
100
AcDbCircle
10
12.069209740628381
20
688.94184039601225
30
0
40
1.7500000000000251
210
-1.0842021765099098e-19
220
3.1596262898314027e-30
230
1
0
CIRCLE
5
130
100
AcDbEntity
8
0
100
AcDbCircle
10
0.069209740627740352
20
676.94184039601214
30
0
40
1.750000000000026
210
-1.0842021765099101e-19
220
3.1596262898314027e-30
230
1
0
CIRCLE
5
131
100
AcDbEntity
8
0
100
AcDbCircle
10
0.06920974062866897
20
700.94184039601237
30
0
40
1.7500000000000262
210
-5.4210109026715834e-20
220
3.1575349553654826e-30
230
1
0
CIRCLE
5
132
100
AcDbEntity
8
0
100
AcDbCircle
10
-11.930790259371971
20
688.94184039601214
30
-8.8817841970012523e-15
40
1.7500000000000262
210
-5.4210109026715834e-20
220
3.1575349553654826e-30
230
1
0
CIRCLE
5
133
100
AcDbEntity
8
0
100
AcDbCircle
10
12.069209740628384
20
688.94184039601259
30
0
40
1.7500000000000258
210
-5.4210109026715822e-20
220
3.1575349553654826e-30
230
1
0
CIRCLE
5
134
100
AcDbEntity
8
0
100
AcDbCircle
10
0.069209740627740352
20
676.94184039601237
30
0
40
1.7500000000000262
210
-5.4210109026715834e-20
220
3.1575349553654826e-30
230
1
0
LINE
5
135
100
AcDbEntity
8
0
100
AcDbLine
10
-21.231440536165181
20
730.04307173265499
30
-8.8817841970012523e-15
11
-21.231440536165419
21
724.04307173265511
31
-8.8817841970012208e-15
0
LINE
5
136
100
AcDbEntity
8
0
100
AcDbLine
10
-21.231440536165419
20
724.04307173265511
30
-8.8817841970012208e-15
11
-28.73144053616544
21
724.04307173265488
31
-8.8823262980905464e-15
0
LINE
5
137
100
AcDbEntity
8
0
100
AcDbLine
10
-28.73144053616544
20
724.04307173265488
30
-8.8823262980905464e-15
11
-28.731440536165206
21
730.04307173265488
31
-8.8817841970012839e-15
0
LINE
5
138
100
AcDbEntity
8
0
100
AcDbLine
10
-28.731440536165206
20
730.04307173265488
30
-8.8817841970012839e-15
11
-35.032090812961187
21
730.04307173265488
31
-8.8820552475469375e-15
0
LINE
5
139
100
AcDbEntity
8
0
100
AcDbLine
10
-35.032090812961187
20
730.04307173265488
30
-8.8820552475469375e-15
11
-35.032090812961421
21
724.04307173265488
31
3.1554436208840472e-29
0
LINE
5
140
100
AcDbEntity
8
0
100
AcDbLine
10
-35.032090812961421
20
724.04307173265488
30
3.1554436208840472e-29
11
-41.032090812961442
21
724.04307173265465
31
-2.4411610724173272e-27
0
LINE
5
141
100
AcDbEntity
8
0
100
AcDbLine
10
-41.032090812961442
20
724.04307173265465
30
-2.4411610724173272e-27
11
-41.032090812961862
21
713.24245606433362
31
6.3108872417680944e-29
0
LINE
5
142
100
AcDbEntity
8
0
100
AcDbLine
10
-41.032090812961862
20
713.24245606433362
30
6.3108872417680944e-29
11
-35.03209081296184
21
713.24245606433362
31
2.4411610724173272e-27
0
LINE
5
143
100
AcDbEntity
8
0
100
AcDbLine
10
-35.03209081296184
20
713.24245606433362
30
2.4411610724173272e-27
11
-35.032090812962124
21
705.74245606433362
31
3.1554436208840472e-29
0
LINE
5
144
100
AcDbEntity
8
0
100
AcDbLine
10
-35.032090812962124
20
705.74245606433362
30
3.1554436208840472e-29
11
-41.032090812962146
21
705.74245606433351
31
-2.4411610724173272e-27
0
LINE
5
145
100
AcDbEntity
8
0
100
AcDbLine
10
-41.032090812962146
20
705.74245606433351
30
-2.4411610724173272e-27
11
-41.032090812962529
21
695.74245606433362
31
3.1554436208840472e-29
0
LINE
5
146
100
AcDbEntity
8
0
100
AcDbLine
10
-41.032090812962529
20
695.74245606433362
30
3.1554436208840472e-29
11
-35.032090812962515
21
695.74245606433374
31
2.4411610724173272e-27
0
LINE
5
147
100
AcDbEntity
8
0
100
AcDbLine
10
-35.032090812962515
20
695.74245606433374
30
2.4411610724173272e-27
11
-35.032090812962771
21
688.94184039601237
31
6.3108872417680944e-29
0
LINE
5
148
100
AcDbEntity
8
0
100
AcDbLine
10
-35.032090812962771
20
688.94184039601237
30
6.3108872417680944e-29
11
-40.799891431863543
21
688.94184039601225
31
-2.710505454680645e-19
0
LINE
5
149
100
AcDbEntity
8
0
100
AcDbLine
10
-40.799891431863543
20
688.94184039601225
30
-2.710505454680645e-19
11
-40.799891431863564
21
688.24245606433374
31
-8.8817841970012444e-15
0
SPLINE
5
150
100
AcDbEntity
8
0
100
AcDbSpline
70
4
71
5
72
21
73
15
74
0
42
0.000000001
43
0.0000000001
44
0.0000000001
40
0.021899882542950232
40
0.021899882542950232
40
0.021899882542950232
40
0.021899882542950232
40
0.021899882542950232
40
0.021899882542950232
40
0.10000000000000001
40
0.20000000000000001
40
0.30000000000000004
40
0.40000000000000002
40
0.5
40
0.59999999999999998
40
0.69999999999999996
40
0.79999999999999993
40
0.89999999999999991
40
1
40
1
40
1
40
1
40
1
40
1
41
1
41
1
41
1
41
1
41
1
41
1
41
1
41
1
41
1
41
1
41
1
41
1
41
1
41
1
41
1
10
-40.799891431863557
20
688.24245606433362
30
-8.8817841970012523e-15
10
-40.631407423124458
20
687.74692483833644
30
8.8817841970012523e-15
10
-40.235524269570242
20
686.63034811429134
30
-8.8817841970012523e-15
10
-39.575685979004156
20
684.93481230087127
30
0
10
-38.588546407378587
20
682.73324693837947
30
-8.8817841970012523e-15
10
-37.17574510308642
20
680.13889305556586
30
-8.8817841970012523e-15
10
-35.499369423972439
20
677.65464625420213
30
-8.8817841970012523e-15
10
-33.607116640977452
20
675.41893577944836
30
-8.8817841970012523e-15
10
-31.488297796053914
20
673.44406768099316
30
0
10
-29.150020648921267
20
671.72185889328057
30
0
10
-26.60808650342117
20
670.23411759353758
30
-8.8817841970012523e-15
10
-24.424592032894612
20
669.21655664022239
30
-8.8817841970012523e-15
10
-22.70792999286915
20
668.54438495173224
30
-8.8817841970012523e-15
10
-21.528930025529721
20
668.13605733979341
30
-8.8817841970012523e-15
10
-20.930790259371769
20
667.94184039601203
30
-8.8817841970012523e-15
0
LINE
5
151
100
AcDbEntity
8
0
100
AcDbLine
10
-20.930790259371761
20
667.94184039601191
30
-8.8817841970012523e-15
11
21.069209740628505
21
667.94184039601259
31
-8.879615792639193e-15
0
LINE
5
152
100
AcDbEntity
8
0
100
AcDbLine
10
21.069209740628505
20
667.94184039601259
30
-8.879615792639193e-15
11
21.069209740630889
21
730.04307173265579
31
-8.8817841970017572e-15
0
LINE
5
153
100
AcDbEntity
8
0
100
AcDbLine
10
21.069209740630889
20
730.04307173265579
30
-8.8817841970017572e-15
11
8.768559463834924
21
730.04307173265556
31
-8.8823262980924996e-15
0
LINE
5
154
100
AcDbEntity
8
0
100
AcDbLine
10
8.768559463834924
20
730.04307173265556
30
-8.8823262980924996e-15
11
8.7685594638346913
21
724.04307173265568
31
-8.8817841970012208e-15
0
LINE
5
155
100
AcDbEntity
8
0
100
AcDbLine
10
8.7685594638346913
20
724.04307173265568
30
-8.8817841970012208e-15
11
1.2685594638346642
21
724.04307173265533
31
-5.4210108929420352e-19
0
LINE
5
156
100
AcDbEntity
8
0
100
AcDbLine
10
1.2685594638346642
20
724.04307173265533
30
-5.4210108929420352e-19
11
1.2685594638348938
21
730.04307173265533
31
8.8817841970012523e-15
0
LINE
5
157
100
AcDbEntity
8
0
100
AcDbLine
10
1.2685594638348938
20
730.04307173265533
30
8.8817841970012523e-15
11
-6.2314405361651302
21
730.04307173265533
31
-2.7105054617282746e-19
0
LINE
5
158
100
AcDbEntity
8
0
100
AcDbLine
10
-6.2314405361651302
20
730.04307173265533
30
-2.7105054617282746e-19
11
-6.231440536165362
21
724.04307173265533
31
3.1554436208840472e-29
0
LINE
5
159
100
AcDbEntity
8
0
100
AcDbLine
10
-6.231440536165362
20
724.04307173265533
30
3.1554436208840472e-29
11
-13.731440536165387
21
724.04307173265522
31
8.8812420959119583e-15
0
LINE
5
160
100
AcDbEntity
8
0
100
AcDbLine
10
-13.731440536165387
20
724.04307173265522
30
8.8812420959119583e-15
11
-13.731440536165156
21
730.04307173265511
31
-8.8817841970013154e-15
0
LINE
5
161
100
AcDbEntity
8
0
100
AcDbLine
10
-13.731440536165156
20
730.04307173265511
30
-8.8817841970013154e-15
11
-21.231440536165181
21
730.04307173265499
31
-8.8817841970012523e-15
0
ENDSEC
0
SECTION
2
OBJECTS
0
DICTIONARY
5
C
100
AcDbDictionary
3
ACAD_GROUP
350
D
3
ACAD_MLINESTYLE
350
17
0
DICTIONARY
5
D
100
AcDbDictionary
0
DICTIONARY
5
1A
330
C
100
AcDbDictionary
0
DICTIONARY
5
17
100
AcDbDictionary
0
ENDSEC
0
EOF
