0
SECTION
2
HEADER
9
$INSUNITS
70
4
9
$ACADVER
1
AC1014
9
$HANDSEED
5
FFFF
0
ENDSEC
0
SECTION
2
TABLES
0
TABLE
2
VPORT
5
8
100
AcDbSymbolTable
0
ENDTAB
0
TABLE
2
LTYPE
5
5
100
AcDbSymbolTable
0
LTYPE
5
14
100
AcDbSymbolTableRecord
100
AcDbLinetypeTableRecord
2
BYBLOCK
70
0
0
LTYPE
5
15
100
AcDbSymbolTableRecord
100
AcDbLinetypeTableRecord
2
BYLAYER
70
0
0
ENDTAB
0
TABLE
2
LAYER
5
2
100
AcDbSymbolTable
70
2
0
LAYER
5
50
100
AcDbSymbolTableRecord
100
AcDbLayerTableRecord
2
0
70
0
6
CONTINUOUS
0
ENDTAB
0
TABLE
2
STYLE
5
3
100
AcDbSymbolTable
70
1
0
STYLE
5
11
100
AcDbSymbolTableRecord
100
AcDbTextStyleTableRecord
2
STANDARD
70
0
0
ENDTAB
0
TABLE
2
VIEW
5
6
100
AcDbSymbolTable
70
0
0
ENDTAB
0
TABLE
2
UCS
5
7
100
AcDbSymbolTable
70
0
0
ENDTAB
0
TABLE
2
APPID
5
9
100
AcDbSymbolTable
70
2
0
APPID
5
12
100
AcDbSymbolTableRecord
100
AcDbRegAppTableRecord
2
ACAD
70
0
0
ENDTAB
0
TABLE
2
DIMSTYLE
5
A
100
AcDbSymbolTable
70
1
0
ENDTAB
0
TABLE
2
BLOCK_RECORD
5
1
100
AcDbSymbolTable
70
1
0
BLOCK_RECORD
5
1F
100
AcDbSymbolTableRecord
100
AcDbBlockTableRecord
2
*MODEL_SPACE
0
BLOCK_RECORD
5
1B
100
AcDbSymbolTableRecord
100
AcDbBlockTableRecord
2
*PAPER_SPACE
0
ENDTAB
0
ENDSEC
0
SECTION
2
BLOCKS
0
BLOCK
5
20
100
AcDbEntity
100
AcDbBlockBegin
2
*MODEL_SPACE
0
ENDBLK
5
21
100
AcDbEntity
100
AcDbBlockEnd
0
BLOCK
5
1C
100
AcDbEntity
100
AcDbBlockBegin
2
*PAPER_SPACE
0
ENDBLK
5
1D
100
AcDbEntity
100
AcDbBlockEnd
0
ENDSEC
0
SECTION
2
ENTITIES
0
LINE
5
100
100
AcDbEntity
8
0
100
AcDbLine
10
-49.749999925297878
20
626.44182586669797
30
0
11
-55.749999925297843
21
626.44182586669763
31
-2.7105053980432674e-19
0
LINE
5
101
100
AcDbEntity
8
0
100
AcDbLine
10
-55.749999925297843
20
626.44182586669763
30
-2.7105053980432674e-19
11
-55.749999925297402
21
618.94182586669763
31
-1.1044052673094165e-28
0
LINE
5
102
100
AcDbEntity
8
0
100
AcDbLine
10
-55.749999925297402
20
618.94182586669763
30
-1.1044052673094165e-28
11
-49.749999925297431
21
618.94182586669797
31
2.7105053980432674e-19
0
LINE
5
103
100
AcDbEntity
8
0
100
AcDbLine
10
-49.749999925297431
20
618.94182586669797
30
2.7105053980432674e-19
11
-49.749999925297004
21
611.44182586669797
31
-1.5777218104420236e-29
0
LINE
5
104
100
AcDbEntity
8
0
100
AcDbLine
10
-49.749999925297004
20
611.44182586669797
30
-1.5777218104420236e-29
11
-55.749999925296983
21
611.44182586669763
31
-2.7105053980432674e-19
0
LINE
5
105
100
AcDbEntity
8
0
100
AcDbLine
10
-55.749999925296983
20
611.44182586669763
30
-2.7105053980432674e-19
11
-55.749999925296542
21
603.94182586669763
31
-6.3108872417680944e-29
0
LINE
5
106
100
AcDbEntity
8
0
100
AcDbLine
10
-55.749999925296542
20
603.94182586669763
30
-6.3108872417680944e-29
11
-49.749999925296549
21
603.94182586669797
31
5.4210108292570285e-19
0
LINE
5
107
100
AcDbEntity
8
0
100
AcDbLine
10
-49.749999925296549
20
603.94182586669797
30
5.4210108292570285e-19
11
-49.749999925296123
21
596.44182586669797
31
-6.3108872417680944e-29
0
LINE
5
108
100
AcDbEntity
8
0
100
AcDbLine
10
-49.749999925296123
20
596.44182586669797
30
-6.3108872417680944e-29
11
-55.749999925296123
21
596.44182586669763
31
-5.4210108292570285e-19
0
LINE
5
109
100
AcDbEntity
8
0
100
AcDbLine
10
-55.749999925296123
20
596.44182586669763
30
-5.4210108292570285e-19
11
-55.749999925295285
21
586.94182586669763
31
-1.4199496293978212e-28
0
LINE
5
110
100
AcDbEntity
8
0
100
AcDbLine
10
59.250000074704246
20
586.94182586670422
30
4.3368086263652376e-18
11
59.250000074703905
21
596.44182586670411
31
6.3108872417680944e-29
0
LINE
5
111
100
AcDbEntity
8
0
100
AcDbLine
10
59.250000074703905
20
596.44182586670411
30
6.3108872417680944e-29
11
53.250000074703919
21
596.44182586670377
31
-5.421010830981822e-19
0
LINE
5
112
100
AcDbEntity
8
0
100
AcDbLine
10
53.250000074703919
20
596.44182586670377
30
-5.421010830981822e-19
11
53.250000074703479
21
603.94182586670377
31
1.5777218104420236e-29
0
LINE
5
113
100
AcDbEntity
8
0
100
AcDbLine
10
53.250000074703479
20
603.94182586670377
30
1.5777218104420236e-29
11
59.250000074703479
21
603.94182586670422
31
5.421010830981822e-19
0
LINE
5
114
100
AcDbEntity
8
0
100
AcDbLine
10
59.250000074703479
20
603.94182586670422
30
5.421010830981822e-19
11
59.250000074703038
21
611.44182586670411
31
9.4663308626521417e-29
0
LINE
5
115
100
AcDbEntity
8
0
100
AcDbLine
10
59.250000074703038
20
611.44182586670411
30
9.4663308626521417e-29
11
53.250000074703067
21
611.44182586670377
31
-4.4411631490406031e-15
0
LINE
5
116
100
AcDbEntity
8
0
100
AcDbLine
10
53.250000074703067
20
611.44182586670377
30
-4.4411631490406031e-15
11
53.250000074702626
21
618.94182586670377
31
1.5777218104420236e-29
0
LINE
5
117
100
AcDbEntity
8
0
100
AcDbLine
10
53.250000074702626
20
618.94182586670377
30
1.5777218104420236e-29
11
59.250000074702605
21
618.94182586670422
31
2.7105053997680605e-19
0
LINE
5
118
100
AcDbEntity
8
0
100
AcDbLine
10
59.250000074702605
20
618.94182586670422
30
2.7105053997680605e-19
11
59.250000074702172
21
626.44182586670422
31
1.1044052673094165e-28
0
LINE
5
119
100
AcDbEntity
8
0
100
AcDbLine
10
59.250000074702172
20
626.44182586670422
30
1.1044052673094165e-28
11
53.250000074702214
21
626.44182586670377
31
-4.4411631490406031e-15
0
LINE
5
120
100
AcDbEntity
8
0
100
AcDbLine
10
53.250000074702214
20
626.44182586670377
30
-4.4411631490406031e-15
11
53.250000074701774
21
633.94182586670377
31
-4.4408920985004999e-15
0
LINE
5
121
100
AcDbEntity
8
0
100
AcDbLine
10
53.250000074701774
20
633.94182586670377
30
-4.4408920985004999e-15
11
59.250000074701745
21
633.94182586670422
31
2.7105053997680605e-19
0
LINE
5
122
100
AcDbEntity
8
0
100
AcDbLine
10
59.250000074701745
20
633.94182586670422
30
2.7105053997680605e-19
11
59.250000074701539
21
637.44182586669365
31
3.5498740734945531e-29
0
LINE
5
123
100
AcDbEntity
8
0
100
AcDbLine
10
59.250000074701539
20
637.44182586669365
30
3.5498740734945531e-29
11
41.125000074661919
21
637.44182586669262
31
-4.4419763006632635e-15
0
LINE
5
124
100
AcDbEntity
8
0
100
AcDbLine
10
41.125000074661919
20
637.44182586669262
30
-4.4419763006632635e-15
11
41.125000074661571
21
643.44182586669251
31
-4.4408920985005867e-15
0
LINE
5
125
100
AcDbEntity
8
0
100
AcDbLine
10
41.125000074661571
20
643.44182586669251
30
-4.4408920985005867e-15
11
29.875000074661617
21
643.44182586669194
31
-4.4414341995806495e-15
0
LINE
5
126
100
AcDbEntity
8
0
100
AcDbLine
10
29.875000074661617
20
643.44182586669194
30
-4.4414341995806495e-15
11
29.875000074661962
21
637.44182586669194
31
-5.5220263365470826e-29
0
LINE
5
127
100
AcDbEntity
8
0
100
AcDbLine
10
29.875000074661962
20
637.44182586669194
30
-5.5220263365470826e-29
11
18.625000074662005
21
637.44182586669137
31
-5.4210108019576399e-19
0
LINE
5
128
100
AcDbEntity
8
0
100
AcDbLine
10
18.625000074662005
20
637.44182586669137
30
-5.4210108019576399e-19
11
18.625000074661664
21
643.44182586669137
31
-4.4408920985005473e-15
0
LINE
5
129
100
AcDbEntity
8
0
100
AcDbLine
10
18.625000074661664
20
643.44182586669137
30
-4.4408920985005473e-15
11
7.3750000746617062
21
643.44182586669058
31
-4.4414341995806495e-15
0
LINE
5
130
100
AcDbEntity
8
0
100
AcDbLine
10
7.3750000746617062
20
643.44182586669058
30
-4.4414341995806495e-15
11
7.3750000746620508
21
637.44182586669058
31
-8.6774699574311299e-29
0
LINE
5
131
100
AcDbEntity
8
0
100
AcDbLine
10
7.3750000746620508
20
637.44182586669058
30
-8.6774699574311299e-29
11
-3.8749999253379066
21
637.44182586669001
31
-5.4210108002328463e-19
0
LINE
5
132
100
AcDbEntity
8
0
100
AcDbLine
10
-3.8749999253379066
20
637.44182586669001
30
-5.4210108002328463e-19
11
-3.8749999253382494
21
643.44182586669012
31
7.0997481469891062e-29
0
LINE
5
133
100
AcDbEntity
8
0
100
AcDbLine
10
-3.8749999253382494
20
643.44182586669012
30
7.0997481469891062e-29
11
-15.124999925338205
21
643.44182586668944
31
-5.4210108019576399e-19
0
LINE
5
134
100
AcDbEntity
8
0
100
AcDbLine
10
-15.124999925338205
20
643.44182586668944
30
-5.4210108019576399e-19
11
-15.12499992533786
21
637.44182586668933
31
-3.944304526105059e-29
0
LINE
5
135
100
AcDbEntity
8
0
100
AcDbLine
10
-15.12499992533786
20
637.44182586668933
30
-3.944304526105059e-29
11
-26.374999925337814
21
637.44182586668876
31
-5.4210108002328463e-19
0
LINE
5
136
100
AcDbEntity
8
0
100
AcDbLine
10
-26.374999925337814
20
637.44182586668876
30
-5.4210108002328463e-19
11
-26.374999925338155
21
643.44182586668876
31
5.5220263365470826e-29
0
LINE
5
137
100
AcDbEntity
8
0
100
AcDbLine
10
-26.374999925338155
20
643.44182586668876
30
5.5220263365470826e-29
11
-37.624999925338109
21
643.44182586668819
31
-5.4210108019576399e-19
0
LINE
5
138
100
AcDbEntity
8
0
100
AcDbLine
10
-37.624999925338109
20
643.44182586668819
30
-5.4210108019576399e-19
11
-37.624999925337768
21
637.44182586668819
31
-5.5220263365470826e-29
0
LINE
5
139
100
AcDbEntity
8
0
100
AcDbLine
10
-37.624999925337768
20
637.44182586668819
30
-5.5220263365470826e-29
11
-49.749999925298326
21
637.44182586668717
31
-1.6263032494378631e-18
0
LINE
5
140
100
AcDbEntity
8
0
100
AcDbLine
10
-49.749999925298326
20
637.44182586668717
30
-1.6263032494378631e-18
11
-49.749999925298674
21
643.44182586668717
31
2.3665827156630354e-29
0
LINE
5
141
100
AcDbEntity
8
0
100
AcDbLine
10
-49.749999925298674
20
643.44182586668717
30
2.3665827156630354e-29
11
-55.749999925298894
21
643.44182586668694
31
-2.7105053997680605e-19
0
LINE
5
142
100
AcDbEntity
8
0
100
AcDbLine
10
-55.749999925298894
20
643.44182586668694
30
-2.7105053997680605e-19
11
-55.749999925298269
21
633.94182586669774
31
-7.8886090522101181e-29
0
LINE
5
143
100
AcDbEntity
8
0
100
AcDbLine
10
-55.749999925298269
20
633.94182586669774
30
-7.8886090522101181e-29
11
-49.749999925298305
21
633.94182586669808
31
2.7105053980432674e-19
0
LINE
5
144
100
AcDbEntity
8
0
100
AcDbLine
10
-49.749999925298305
20
633.94182586669808
30
2.7105053980432674e-19
11
-49.749999925297878
21
626.44182586669797
31
0
0
LINE
5
145
100
AcDbEntity
8
0
100
AcDbLine
10
-34.750010862597598
20
489.1594339616052
30
-4.4408920985006262e-15
11
-27.250000303378261
21
489.1594339616052
31
-4.4406210479572729e-15
0
LINE
5
146
100
AcDbEntity
8
0
100
AcDbLine
10
-27.250000303378261
20
489.1594339616052
30
-4.4406210479572729e-15
11
-27.250000303378293
21
483.15943396161026
31
-1.5777218104420236e-29
0
LINE
5
147
100
AcDbEntity
8
0
100
AcDbLine
10
-27.250000303378293
20
483.15943396161026
30
-1.5777218104420236e-29
11
-19.749999925290023
21
483.15943396161015
31
2.3239791226574756e-28
0
LINE
5
148
100
AcDbEntity
8
0
100
AcDbLine
10
-19.749999925290023
20
483.15943396161015
30
2.3239791226574756e-28
11
-19.749999925291739
21
586.94182586670968
31
-1.0097419586828951e-27
0
LINE
5
149
100
AcDbEntity
8
0
100
AcDbLine
10
-49.749999622820837
20
586.94182586670956
30
-2.1684043445207657e-18
11
-49.749999622820297
21
579.44182586671275
31
-6.3108872417680944e-29
0
LINE
5
150
100
AcDbEntity
8
0
100
AcDbLine
10
-49.749999622820297
20
579.44182586671275
30
-6.3108872417680944e-29
11
-55.749999925290936
21
579.44182586671275
31
-4.441434199586779e-15
0
LINE
5
151
100
AcDbEntity
8
0
100
AcDbLine
10
-55.749999925290936
20
579.44182586671275
30
-4.441434199586779e-15
11
-55.749999925290908
21
570.27515920004601
31
-4.440892098500705e-15
0
LINE
5
152
100
AcDbEntity
8
0
100
AcDbLine
10
-55.749999925290908
20
570.27515920004601
30
-4.440892098500705e-15
11
-49.749999622820269
21
570.27515920004601
31
-4.4403499974144733e-15
0
LINE
5
153
100
AcDbEntity
8
0
100
AcDbLine
10
-49.749999622820269
20
570.27515920004601
30
-4.4403499974144733e-15
11
-49.749999622820305
21
562.77515920004601
31
-4.4408920985006735e-15
0
LINE
5
154
100
AcDbEntity
8
0
100
AcDbLine
10
-49.749999622820305
20
562.77515920004601
30
-4.4408920985006735e-15
11
-55.749999925290943
21
562.77515920004601
31
-5.4210108615270363e-19
0
LINE
5
155
100
AcDbEntity
8
0
100
AcDbLine
10
-55.749999925290943
20
562.77515920004601
30
-5.4210108615270363e-19
11
-55.749999925290908
21
553.60849253337926
31
-1.4199496293978212e-28
0
LINE
5
156
100
AcDbEntity
8
0
100
AcDbLine
10
-55.749999925290908
20
553.60849253337926
30
-1.4199496293978212e-28
11
-49.749999622820276
21
553.60849253337926
31
5.4210108615270363e-19
0
LINE
5
157
100
AcDbEntity
8
0
100
AcDbLine
10
-49.749999622820276
20
553.60849253337926
30
5.4210108615270363e-19
11
-49.749999622820312
21
546.10849253337915
31
-4.7331654313260708e-29
0
LINE
5
158
100
AcDbEntity
8
0
100
AcDbLine
10
-49.749999622820312
20
546.10849253337915
30
-4.7331654313260708e-29
11
-55.749999925290943
21
546.10849253337915
31
-5.4210108615270363e-19
0
LINE
5
159
100
AcDbEntity
8
0
100
AcDbLine
10
-55.749999925290943
20
546.10849253337915
30
-5.4210108615270363e-19
11
-55.749999925290908
21
536.94182586671241
31
-4.7331654313260708e-29
0
LINE
5
160
100
AcDbEntity
8
0
100
AcDbLine
10
-55.749999925290908
20
536.94182586671241
30
-4.7331654313260708e-29
11
-49.749999622820276
21
536.94182586671252
31
5.4210108615270363e-19
0
LINE
5
161
100
AcDbEntity
8
0
100
AcDbLine
10
-49.749999622820276
20
536.94182586671252
30
5.4210108615270363e-19
11
-49.749999622820326
21
529.44182586671241
31
-4.4408920985006735e-15
0
LINE
5
162
100
AcDbEntity
8
0
100
AcDbLine
10
-49.749999622820326
20
529.44182586671241
30
-4.4408920985006735e-15
11
-55.749999925290965
21
529.44182586671241
31
-4.441434199586779e-15
0
LINE
5
163
100
AcDbEntity
8
0
100
AcDbLine
10
-55.749999925290965
20
529.44182586671241
30
-4.441434199586779e-15
11
-55.749999925290936
21
520.27515920004578
31
-4.4408920985006735e-15
0
LINE
5
164
100
AcDbEntity
8
0
100
AcDbLine
10
-55.749999925290936
20
520.27515920004578
30
-4.4408920985006735e-15
11
-49.749999622820297
21
520.27515920004578
31
-4.4403499974144733e-15
0
LINE
5
165
100
AcDbEntity
8
0
100
AcDbLine
10
-49.749999622820297
20
520.27515920004578
30
-4.4403499974144733e-15
11
-49.749999622820326
21
512.77515920004566
31
-4.4408920985006104e-15
0
LINE
5
166
100
AcDbEntity
8
0
100
AcDbLine
10
-49.749999622820326
20
512.77515920004566
30
-4.4408920985006104e-15
11
-55.749999925290965
21
512.77515920004578
31
-5.4210108615270363e-19
0
LINE
5
167
100
AcDbEntity
8
0
100
AcDbLine
10
-55.749999925290965
20
512.77515920004578
30
-5.4210108615270363e-19
11
-55.749999925290936
21
503.60849253337898
31
-4.7331654313260708e-29
0
LINE
5
168
100
AcDbEntity
8
0
100
AcDbLine
10
-55.749999925290936
20
503.60849253337898
30
-4.7331654313260708e-29
11
-49.749999622820297
21
503.60849253337898
31
5.4210108615270363e-19
0
LINE
5
169
100
AcDbEntity
8
0
100
AcDbLine
10
-49.749999622820297
20
503.60849253337898
30
5.4210108615270363e-19
11
-49.749999622820333
21
496.10849253337892
31
-4.7331654313260708e-29
0
LINE
5
170
100
AcDbEntity
8
0
100
AcDbLine
10
-49.749999622820333
20
496.10849253337892
30
-4.7331654313260708e-29
11
-55.749999925290972
21
496.10849253337892
31
-4.441434199586779e-15
0
LINE
5
171
100
AcDbEntity
8
0
100
AcDbLine
10
-55.749999925290972
20
496.10849253337892
30
-4.441434199586779e-15
11
-55.749999925289515
21
483.15943396161026
31
-4.4408920985007366e-15
0
LINE
5
172
100
AcDbEntity
8
0
100
AcDbLine
10
-55.749999925289515
20
483.15943396161026
30
-4.4408920985007366e-15
11
-49.749999622818812
21
483.15943396161015
31
5.4210108684262085e-19
0
LINE
5
173
100
AcDbEntity
8
0
100
AcDbLine
10
-49.749999622818812
20
483.15943396161015
30
5.4210108684262085e-19
11
-49.749999622820873
21
489.15943396160503
31
7.8886090522101181e-29
0
LINE
5
174
100
AcDbEntity
8
0
100
AcDbLine
10
-49.749999622820873
20
489.15943396160503
30
7.8886090522101181e-29
11
-42.250011240685872
21
489.15943396160515
31
-4.4403499974148409e-15
0
LINE
5
175
100
AcDbEntity
8
0
100
AcDbLine
10
-42.250011240685872
20
489.15943396160515
30
-4.4403499974148409e-15
11
-42.2500112406859
21
483.15943396161026
31
-4.4408920985055171e-15
0
LINE
5
176
100
AcDbEntity
8
0
100
AcDbLine
10
-42.2500112406859
20
483.15943396161026
30
-4.4408920985055171e-15
11
-34.750010862597627
21
483.15943396161015
31
8.1315162959652625e-19
0
LINE
5
177
100
AcDbEntity
8
0
100
AcDbLine
10
-34.750010862597627
20
483.15943396161015
30
8.1315162959652625e-19
11
-34.750010862597598
21
489.1594339616052
31
-4.4408920985006262e-15
0
LINE
5
178
100
AcDbEntity
8
0
100
AcDbLine
10
23.250000074708119
20
586.94182586670979
30
0
11
23.250000074708069
21
489.15943396160537
31
-2.5243548967072378e-28
0
LINE
5
179
100
AcDbEntity
8
0
100
AcDbLine
10
23.250000074708069
20
489.15943396160537
30
-2.5243548967072378e-28
11
23.250000074710243
21
483.15943396161009
31
-8.1252673237764216e-28
0
LINE
5
180
100
AcDbEntity
8
0
100
AcDbLine
10
23.250000074710243
20
483.15943396161009
30
-8.1252673237764216e-28
11
30.75000045279851
21
483.15943396161009
31
5.4210108578523292e-19
0
LINE
5
181
100
AcDbEntity
8
0
100
AcDbLine
10
30.75000045279851
20
483.15943396161009
30
5.4210108578523292e-19
11
30.750000452798538
21
489.1594339616052
31
4.4408920985007445e-15
0
LINE
5
182
100
AcDbEntity
8
0
100
AcDbLine
10
30.750000452798538
20
489.1594339616052
30
4.4408920985007445e-15
11
38.232535397937674
21
489.15943396160537
31
2.7105054266010236e-19
0
LINE
5
183
100
AcDbEntity
8
0
100
AcDbLine
10
38.232535397937674
20
489.15943396160537
30
2.7105054266010236e-19
11
38.232535397937646
21
483.15943396161009
31
-4.4408920985006656e-15
0
LINE
5
184
100
AcDbEntity
8
0
100
AcDbLine
10
38.232535397937646
20
483.15943396161009
30
-4.4408920985006656e-15
11
45.732535776025919
21
483.15943396161003
31
2.7105054335377403e-19
0
LINE
5
185
100
AcDbEntity
8
0
100
AcDbLine
10
45.732535776025919
20
483.15943396161003
30
2.7105054335377403e-19
11
45.732535837565408
21
489.15943396160526
31
4.4408920985031978e-15
0
LINE
5
186
100
AcDbEntity
8
0
100
AcDbLine
10
45.732535837565408
20
489.15943396160526
30
4.4408920985031978e-15
11
53.232535776023525
21
489.15943396160543
31
8.1315162890660884e-19
0
LINE
5
187
100
AcDbEntity
8
0
100
AcDbLine
10
53.232535776023525
20
489.15943396160543
30
8.1315162890660884e-19
11
53.232535776025991
21
483.15943396161003
31
-4.4408920985006419e-15
0
LINE
5
188
100
AcDbEntity
8
0
100
AcDbLine
10
53.232535776025991
20
483.15943396161003
30
-4.4408920985006419e-15
11
59.232536078496693
21
483.15943396160998
31
2.7105054303132752e-19
0
LINE
5
189
100
AcDbEntity
8
0
100
AcDbLine
10
59.232536078496693
20
483.15943396160998
30
2.7105054303132752e-19
11
59.232536078494164
21
496.10849253337909
31
6.3108872417680944e-29
0
LINE
5
190
100
AcDbEntity
8
0
100
AcDbLine
10
59.232536078494164
20
496.10849253337909
30
6.3108872417680944e-29
11
53.232535776023546
21
496.10849253337909
31
-4.441434199586779e-15
0
LINE
5
191
100
AcDbEntity
8
0
100
AcDbLine
10
53.232535776023546
20
496.10849253337909
30
-4.441434199586779e-15
11
53.232535776023546
21
503.60849253337915
31
-4.4408920985006104e-15
0
LINE
5
192
100
AcDbEntity
8
0
100
AcDbLine
10
53.232535776023546
20
503.60849253337915
30
-4.4408920985006104e-15
11
59.232536078494164
21
503.60849253337915
31
5.4210108615270363e-19
0
LINE
5
193
100
AcDbEntity
8
0
100
AcDbLine
10
59.232536078494164
20
503.60849253337915
30
5.4210108615270363e-19
11
59.232536078494171
21
512.77515920004601
31
6.3108872417680944e-29
0
LINE
5
194
100
AcDbEntity
8
0
100
AcDbLine
10
59.232536078494171
20
512.77515920004601
30
6.3108872417680944e-29
11
53.232535776023546
21
512.77515920004589
31
-2.710505423414103e-19
0
LINE
5
195
100
AcDbEntity
8
0
100
AcDbLine
10
53.232535776023546
20
512.77515920004589
30
-2.710505423414103e-19
11
53.232535776023553
21
520.27515920004601
31
1.5777218104420236e-29
0
LINE
5
196
100
AcDbEntity
8
0
100
AcDbLine
10
53.232535776023553
20
520.27515920004601
30
1.5777218104420236e-29
11
59.232536078494178
21
520.27515920004601
31
-4.440621047958285e-15
0
LINE
5
197
100
AcDbEntity
8
0
100
AcDbLine
10
59.232536078494178
20
520.27515920004601
30
-4.440621047958285e-15
11
59.232536078494185
21
529.44182586671263
31
-4.4408920985005631e-15
0
LINE
5
198
100
AcDbEntity
8
0
100
AcDbLine
10
59.232536078494185
20
529.44182586671263
30
-4.4408920985005631e-15
11
53.232535776023553
21
529.44182586671263
31
-4.4414341995860887e-15
0
LINE
5
199
100
AcDbEntity
8
0
100
AcDbLine
10
53.232535776023553
20
529.44182586671263
30
-4.4414341995860887e-15
11
53.232535776023553
21
536.94182586671263
31
-4.4408920985006104e-15
0
LINE
5
200
100
AcDbEntity
8
0
100
AcDbLine
10
53.232535776023553
20
536.94182586671263
30
-4.4408920985006104e-15
11
59.232536078494192
21
536.94182586671275
31
-4.4403499974151636e-15
0
LINE
5
201
100
AcDbEntity
8
0
100
AcDbLine
10
59.232536078494192
20
536.94182586671275
30
-4.4403499974151636e-15
11
59.232536078494192
21
546.10849253337949
31
-4.4408920985006262e-15
0
LINE
5
202
100
AcDbEntity
8
0
100
AcDbLine
10
59.232536078494192
20
546.10849253337949
30
-4.4408920985006262e-15
11
53.232535776023575
21
546.10849253337938
31
-4.441434199586779e-15
0
LINE
5
203
100
AcDbEntity
8
0
100
AcDbLine
10
53.232535776023575
20
546.10849253337938
30
-4.441434199586779e-15
11
53.232535776023575
21
553.60849253337949
31
1.5777218104420236e-29
0
LINE
5
204
100
AcDbEntity
8
0
100
AcDbLine
10
53.232535776023575
20
553.60849253337949
30
1.5777218104420236e-29
11
59.232536078494192
21
553.60849253337949
31
5.4210108615270363e-19
0
LINE
5
205
100
AcDbEntity
8
0
100
AcDbLine
10
59.232536078494192
20
553.60849253337949
30
5.4210108615270363e-19
11
59.232536078494192
21
562.77515920004623
31
0
0
LINE
5
206
100
AcDbEntity
8
0
100
AcDbLine
10
59.232536078494192
20
562.77515920004623
30
0
11
53.232535776023575
21
562.77515920004612
31
-5.4210108546278641e-19
0
LINE
5
207
100
AcDbEntity
8
0
100
AcDbLine
10
53.232535776023575
20
562.77515920004612
30
-5.4210108546278641e-19
11
53.232535776023582
21
570.27515920004623
31
4.7331654313260708e-29
0
LINE
5
208
100
AcDbEntity
8
0
100
AcDbLine
10
53.232535776023582
20
570.27515920004623
30
4.7331654313260708e-29
11
59.232536078494206
21
570.27515920004623
31
-4.440621047958285e-15
0
LINE
5
209
100
AcDbEntity
8
0
100
AcDbLine
10
59.232536078494206
20
570.27515920004623
30
-4.440621047958285e-15
11
59.232536078494213
21
579.44182586671297
31
-4.4408920985005631e-15
0
LINE
5
210
100
AcDbEntity
8
0
100
AcDbLine
10
59.232536078494213
20
579.44182586671297
30
-4.4408920985005631e-15
11
53.232535776023582
21
579.44182586671286
31
-4.4414341995860887e-15
0
LINE
5
211
100
AcDbEntity
8
0
100
AcDbLine
10
53.232535776023582
20
579.44182586671286
30
-4.4414341995860887e-15
11
53.232535776023589
21
586.94182586670979
31
-4.4408920985005315e-15
0
LINE
5
212
100
AcDbEntity
8
0
100
AcDbLine
10
-55.749999925295285
20
586.94182586669763
30
-1.4199496293978212e-28
11
-49.749999622820837
21
586.94182586670956
31
-2.1684043445207657e-18
0
LINE
5
213
100
AcDbEntity
8
0
100
AcDbLine
10
-19.749999925291739
20
586.94182586670968
30
-1.0097419586828951e-27
11
23.250000074708119
21
586.94182586670979
31
0
0
LINE
5
214
100
AcDbEntity
8
0
100
AcDbLine
10
53.232535776023589
20
586.94182586670979
30
-4.4408920985005315e-15
11
59.250000074704246
21
586.94182586670422
31
4.3368086263652376e-18
0
ENDSEC
0
SECTION
2
OBJECTS
0
DICTIONARY
5
C
100
AcDbDictionary
3
ACAD_GROUP
350
D
3
ACAD_MLINESTYLE
350
17
0
DICTIONARY
5
D
100
AcDbDictionary
0
DICTIONARY
5
1A
330
C
100
AcDbDictionary
0
DICTIONARY
5
17
100
AcDbDictionary
0
ENDSEC
0
EOF
