0
SECTION
2
HEADER
9
$INSUNITS
70
4
9
$ACADVER
1
AC1014
9
$HANDSEED
5
FFFF
0
ENDSEC
0
SECTION
2
TABLES
0
TABLE
2
VPORT
5
8
100
AcDbSymbolTable
0
ENDTAB
0
TABLE
2
LTYPE
5
5
100
AcDbSymbolTable
0
LTYPE
5
14
100
AcDbSymbolTableRecord
100
AcDbLinetypeTableRecord
2
BYBLOCK
70
0
0
LTYPE
5
15
100
AcDbSymbolTableRecord
100
AcDbLinetypeTableRecord
2
BYLAYER
70
0
0
ENDTAB
0
TABLE
2
LAYER
5
2
100
AcDbSymbolTable
70
2
0
LAYER
5
50
100
AcDbSymbolTableRecord
100
AcDbLayerTableRecord
2
0
70
0
6
CONTINUOUS
0
ENDTAB
0
TABLE
2
STYLE
5
3
100
AcDbSymbolTable
70
1
0
STYLE
5
11
100
AcDbSymbolTableRecord
100
AcDbTextStyleTableRecord
2
STANDARD
70
0
0
ENDTAB
0
TABLE
2
VIEW
5
6
100
AcDbSymbolTable
70
0
0
ENDTAB
0
TABLE
2
UCS
5
7
100
AcDbSymbolTable
70
0
0
ENDTAB
0
TABLE
2
APPID
5
9
100
AcDbSymbolTable
70
2
0
APPID
5
12
100
AcDbSymbolTableRecord
100
AcDbRegAppTableRecord
2
ACAD
70
0
0
ENDTAB
0
TABLE
2
DIMSTYLE
5
A
100
AcDbSymbolTable
70
1
0
ENDTAB
0
TABLE
2
BLOCK_RECORD
5
1
100
AcDbSymbolTable
70
1
0
BLOCK_RECORD
5
1F
100
AcDbSymbolTableRecord
100
AcDbBlockTableRecord
2
*MODEL_SPACE
0
BLOCK_RECORD
5
1B
100
AcDbSymbolTableRecord
100
AcDbBlockTableRecord
2
*PAPER_SPACE
0
ENDTAB
0
ENDSEC
0
SECTION
2
BLOCKS
0
BLOCK
5
20
100
AcDbEntity
100
AcDbBlockBegin
2
*MODEL_SPACE
0
ENDBLK
5
21
100
AcDbEntity
100
AcDbBlockEnd
0
BLOCK
5
1C
100
AcDbEntity
100
AcDbBlockBegin
2
*PAPER_SPACE
0
ENDBLK
5
1D
100
AcDbEntity
100
AcDbBlockEnd
0
ENDSEC
0
SECTION
2
ENTITIES
0
LINE
5
100
100
AcDbEntity
8
0
100
AcDbLine
10
-21.231440536787268
20
486.15938566697594
30
-8.8817841970012523e-15
11
-21.231440536787517
21
480.15938566697605
31
-8.8817841970012365e-15
0
LINE
5
101
100
AcDbEntity
8
0
100
AcDbLine
10
-21.231440536787517
20
480.15938566697605
30
-8.8817841970012365e-15
11
-28.731440536787495
21
480.15938566697639
31
-8.8817841970012539e-15
0
LINE
5
102
100
AcDbEntity
8
0
100
AcDbLine
10
-28.731440536787495
20
480.15938566697639
30
-8.8817841970012539e-15
11
-28.73144053678725
21
486.15938566697628
31
-8.8817841970012523e-15
0
LINE
5
103
100
AcDbEntity
8
0
100
AcDbLine
10
-28.73144053678725
20
486.15938566697628
30
-8.8817841970012523e-15
11
-35.032090813583181
21
486.15938566697662
31
-8.3474690583553046e-31
0
LINE
5
104
100
AcDbEntity
8
0
100
AcDbLine
10
-35.032090813583181
20
486.15938566697662
30
-8.3474690583553046e-31
11
-35.03209081358343
21
480.15938566697679
31
-8.8817841970012523e-15
0
LINE
5
105
100
AcDbEntity
8
0
100
AcDbLine
10
-35.03209081358343
20
480.15938566697679
30
-8.8817841970012523e-15
11
-41.032090813583423
21
480.15938566697713
31
-8.8817841970012539e-15
0
LINE
5
106
100
AcDbEntity
8
0
100
AcDbLine
10
-41.032090813583423
20
480.15938566697713
30
-8.8817841970012539e-15
11
-41.032090813583856
21
469.35876999865627
31
-1.7763568394002505e-14
0
LINE
5
107
100
AcDbEntity
8
0
100
AcDbLine
10
-41.032090813583856
20
469.35876999865627
30
-1.7763568394002505e-14
11
-35.032090813583864
21
469.35876999865582
31
-8.8817841970012507e-15
0
LINE
5
108
100
AcDbEntity
8
0
100
AcDbLine
10
-35.032090813583864
20
469.35876999865582
30
-8.8817841970012507e-15
11
-35.032090813584176
21
461.85876999865599
31
-8.8817841970012523e-15
0
LINE
5
109
100
AcDbEntity
8
0
100
AcDbLine
10
-35.032090813584176
20
461.85876999865599
30
-8.8817841970012523e-15
11
-41.032090813584162
21
461.85876999865627
31
-8.8817841970012539e-15
0
LINE
5
110
100
AcDbEntity
8
0
100
AcDbLine
10
-41.032090813584162
20
461.85876999865627
30
-8.8817841970012539e-15
11
-41.032090813584574
21
451.85876999865656
31
-8.8817841970012523e-15
0
LINE
5
111
100
AcDbEntity
8
0
100
AcDbLine
10
-41.032090813584574
20
451.85876999865656
30
-8.8817841970012523e-15
11
-35.032090813584588
21
451.85876999865621
31
-1.7763568394002501e-14
0
LINE
5
112
100
AcDbEntity
8
0
100
AcDbLine
10
-35.032090813584588
20
451.85876999865621
30
-1.7763568394002501e-14
11
-35.032090813584865
21
445.05815433033484
31
-8.8817841970012523e-15
0
LINE
5
113
100
AcDbEntity
8
0
100
AcDbLine
10
-35.032090813584865
20
445.05815433033484
30
-8.8817841970012523e-15
11
-40.799891432485602
21
445.05815433033541
31
-2.6144246619752229e-29
0
LINE
5
114
100
AcDbEntity
8
0
100
AcDbLine
10
-40.799891432485602
20
445.05815433033541
30
-2.6144246619752229e-29
11
-40.799891432485644
21
444.35876999865684
31
-8.8817841970012507e-15
0
SPLINE
5
115
100
AcDbEntity
8
0
100
AcDbSpline
70
4
71
5
72
21
73
15
74
0
42
0.000000001
43
0.0000000001
44
0.0000000001
40
0.021899882542950232
40
0.021899882542950232
40
0.021899882542950232
40
0.021899882542950232
40
0.021899882542950232
40
0.021899882542950232
40
0.10000000000000001
40
0.20000000000000001
40
0.30000000000000004
40
0.40000000000000002
40
0.5
40
0.59999999999999998
40
0.69999999999999996
40
0.79999999999999993
40
0.89999999999999991
40
1
40
1
40
1
40
1
40
1
40
1
41
1
41
1
41
1
41
1
41
1
41
1
41
1
41
1
41
1
41
1
41
1
41
1
41
1
41
1
41
1
10
-40.799891432485637
20
444.35876999865678
30
-1.7763568394002505e-14
10
-40.631407423746531
20
443.86323877265954
30
-1.7763568394002505e-14
10
-40.235524270192322
20
442.74666204861427
30
-8.8817841970012523e-15
10
-39.575685979626243
20
441.05112623519437
30
-8.8817841970012523e-15
10
-38.588546408000681
20
438.84956087270245
30
-8.8817841970012523e-15
10
-37.175745103708536
20
436.25520698988885
30
-8.8817841970012523e-15
10
-35.499369424594562
20
433.7709601885249
30
-8.8817841970012523e-15
10
-33.607116641599603
20
431.53524971377112
30
-8.8817841970012523e-15
10
-31.488297796676083
20
429.56038161531575
30
-1.7763568394002505e-14
10
-29.150020649543457
20
427.8381728276031
30
-8.8817841970012523e-15
10
-26.608086504043378
20
426.35043152785983
30
-8.8817841970012523e-15
10
-24.424592033516834
20
425.33287057454453
30
-8.8817841970012523e-15
10
-22.707929993491383
20
424.66069888605432
30
-8.8817841970012523e-15
10
-21.528930026151972
20
424.25237127411543
30
-8.8817841970012523e-15
10
-20.930790259994016
20
424.05815433033388
30
-8.8817841970012523e-15
0
LINE
5
116
100
AcDbEntity
8
0
100
AcDbLine
10
-20.930790259994016
20
424.05815433033376
30
-8.8817841970012649e-15
11
21.069209740005974
21
424.05815433033132
31
-8.8817841970011371e-15
0
LINE
5
117
100
AcDbEntity
8
0
100
AcDbLine
10
21.069209740005974
20
424.05815433033132
30
-8.8817841970011371e-15
11
21.069209740008525
21
486.15938566697344
31
-8.8817841970012523e-15
0
LINE
5
118
100
AcDbEntity
8
0
100
AcDbLine
10
21.069209740008525
20
486.15938566697344
30
-8.8817841970012523e-15
11
8.7685594632126396
21
486.15938566697417
31
-8.8817841970012681e-15
0
LINE
5
119
100
AcDbEntity
8
0
100
AcDbLine
10
8.7685594632126396
20
486.15938566697417
30
-8.8817841970012681e-15
11
8.7685594632123891
21
480.15938566697429
31
-8.8817841970012523e-15
0
LINE
5
120
100
AcDbEntity
8
0
100
AcDbLine
10
8.7685594632123891
20
480.15938566697429
30
-8.8817841970012523e-15
11
1.2685594632124131
21
480.15938566697463
31
-8.8817841970012539e-15
0
LINE
5
121
100
AcDbEntity
8
0
100
AcDbLine
10
1.2685594632124131
20
480.15938566697463
30
-8.8817841970012539e-15
11
1.2685594632126596
21
486.15938566697457
31
-8.8817841970012523e-15
0
LINE
5
122
100
AcDbEntity
8
0
100
AcDbLine
10
1.2685594632126596
20
486.15938566697457
30
-8.8817841970012523e-15
11
-6.2314405367873151
21
486.15938566697503
31
1.0706233775354354e-29
0
LINE
5
123
100
AcDbEntity
8
0
100
AcDbLine
10
-6.2314405367873151
20
486.15938566697503
30
1.0706233775354354e-29
11
-6.2314405367875647
21
480.15938566697508
31
-8.8817841970012523e-15
0
LINE
5
124
100
AcDbEntity
8
0
100
AcDbLine
10
-6.2314405367875647
20
480.15938566697508
30
-8.8817841970012523e-15
11
-13.731440536787538
21
480.1593856669756
31
-1.7763568394002492e-14
0
LINE
5
125
100
AcDbEntity
8
0
100
AcDbLine
10
-13.731440536787538
20
480.1593856669756
30
-1.7763568394002492e-14
11
-13.731440536787296
21
486.15938566697542
31
-1.7763568394002505e-14
0
LINE
5
126
100
AcDbEntity
8
0
100
AcDbLine
10
-13.731440536787296
20
486.15938566697542
30
-1.7763568394002505e-14
11
-21.231440536787268
21
486.15938566697594
31
-8.8817841970012523e-15
0
CIRCLE
5
127
100
AcDbEntity
8
0
100
AcDbCircle
10
0.069209740006366205
20
457.05815433033217
30
-8.8817841970012523e-15
40
1.7500000000000149
210
-4.6480865466271809e-30
220
1.9143412990974765e-43
230
1
0
CIRCLE
5
128
100
AcDbEntity
8
0
100
AcDbCircle
10
-11.930790259994229
20
445.05815433033314
30
0
40
1.7500000000000149
210
-4.6480865466271809e-30
220
1.9143412990974765e-43
230
1
0
CIRCLE
5
129
100
AcDbEntity
8
0
100
AcDbCircle
10
12.069209740005968
20
445.05815433033177
30
-8.8817841970012523e-15
40
1.7500000000000138
210
-5.8313779044585018e-30
220
3.1554436208842686e-30
230
1
0
CIRCLE
5
130
100
AcDbEntity
8
0
100
AcDbCircle
10
0.069209740005375026
20
433.05815433033274
30
-8.8817841970012523e-15
40
1.7500000000000149
210
-4.6480865466271809e-30
220
1.9143412990974765e-43
230
1
0
CIRCLE
5
131
100
AcDbEntity
8
0
100
AcDbCircle
10
0.069209739996176189
20
457.05815433034138
30
0
40
1.7500000000000204
210
-7.8826503554177267e-31
220
2.2079039043857022e-45
230
1
0
CIRCLE
5
132
100
AcDbEntity
8
0
100
AcDbCircle
10
-11.930790260003995
20
445.05815433034223
30
0
40
1.7500000000000204
210
-7.8826503554177267e-31
220
2.2079039043857022e-45
230
1
0
CIRCLE
5
133
100
AcDbEntity
8
0
100
AcDbCircle
10
12.069209739996277
20
445.05815433034081
30
0
40
1.7500000000000193
210
-3.9437086564257768e-30
220
1.1046195565806921e-44
230
1
0
CIRCLE
5
134
100
AcDbEntity
8
0
100
AcDbCircle
10
0.069209739996106232
20
433.05815433034149
30
0
40
1.7500000000000204
210
-7.8826503554177267e-31
220
2.2079039043857022e-45
230
1
0
LINE
5
135
100
AcDbEntity
8
0
100
AcDbLine
10
-21.23144053679864
20
486.15938566698605
30
0
11
-21.231440536798662
21
480.159385666986
31
0
0
LINE
5
136
100
AcDbEntity
8
0
100
AcDbLine
10
-21.231440536798662
20
480.159385666986
30
0
11
-28.731440536798658
21
480.1593856669864
31
-1.1473200948955663e-29
0
LINE
5
137
100
AcDbEntity
8
0
100
AcDbLine
10
-28.731440536798658
20
480.1593856669864
30
-1.1473200948955663e-29
11
-28.73144053679864
21
486.15938566698645
31
0
0
LINE
5
138
100
AcDbEntity
8
0
100
AcDbLine
10
-28.73144053679864
20
486.15938566698645
30
0
11
-35.0320908135946
21
486.15938566698679
31
-1.6962816880754495e-29
0
LINE
5
139
100
AcDbEntity
8
0
100
AcDbLine
10
-35.0320908135946
20
486.15938566698679
30
-1.6962816880754495e-29
11
-35.032090813594621
21
480.15938566698679
31
0
0
LINE
5
140
100
AcDbEntity
8
0
100
AcDbLine
10
-35.032090813594621
20
480.15938566698679
30
0
11
-41.032090813594621
21
480.15938566698713
31
-4.0732996967999622e-29
0
LINE
5
141
100
AcDbEntity
8
0
100
AcDbLine
10
-41.032090813594621
20
480.15938566698713
30
-4.0732996967999622e-29
11
-41.03209081359465
21
469.35876999866605
31
6.3108872417680944e-29
0
LINE
5
142
100
AcDbEntity
8
0
100
AcDbLine
10
-41.03209081359465
20
469.35876999866605
30
6.3108872417680944e-29
11
-35.032090813594642
21
469.35876999866565
31
4.0732996967999622e-29
0
LINE
5
143
100
AcDbEntity
8
0
100
AcDbLine
10
-35.032090813594642
20
469.35876999866565
30
4.0732996967999622e-29
11
-35.032090813594664
21
461.85876999866565
31
8.8817841970012839e-15
0
LINE
5
144
100
AcDbEntity
8
0
100
AcDbLine
10
-35.032090813594664
20
461.85876999866565
30
8.8817841970012839e-15
11
-41.032090813594664
21
461.85876999866593
31
-4.0732996967999622e-29
0
LINE
5
145
100
AcDbEntity
8
0
100
AcDbLine
10
-41.032090813594664
20
461.85876999866593
30
-4.0732996967999622e-29
11
-41.032090813594699
21
451.85876999866599
31
1.5777218104420236e-29
0
LINE
5
146
100
AcDbEntity
8
0
100
AcDbLine
10
-41.032090813594699
20
451.85876999866599
30
1.5777218104420236e-29
11
-35.032090813594692
21
451.85876999866565
31
4.0732996967999622e-29
0
LINE
5
147
100
AcDbEntity
8
0
100
AcDbLine
10
-35.032090813594692
20
451.85876999866565
30
4.0732996967999622e-29
11
-35.032090813594706
21
445.05815433034411
31
1.5777218104420236e-29
0
LINE
5
148
100
AcDbEntity
8
0
100
AcDbLine
10
-35.032090813594706
20
445.05815433034411
30
1.5777218104420236e-29
11
-40.799891432495471
21
445.05815433034456
31
-1.3098440461580923e-29
0
LINE
5
149
100
AcDbEntity
8
0
100
AcDbLine
10
-40.799891432495471
20
445.05815433034456
30
-1.3098440461580923e-29
11
-40.799891432495471
21
444.35876999866599
31
1.9721522630525295e-30
0
SPLINE
5
150
100
AcDbEntity
8
0
100
AcDbSpline
70
4
71
5
72
21
73
15
74
0
42
0.000000001
43
0.0000000001
44
0.0000000001
40
0.021899882542950232
40
0.021899882542950232
40
0.021899882542950232
40
0.021899882542950232
40
0.021899882542950232
40
0.021899882542950232
40
0.10000000000000001
40
0.20000000000000001
40
0.30000000000000004
40
0.40000000000000002
40
0.5
40
0.59999999999999998
40
0.69999999999999996
40
0.79999999999999993
40
0.89999999999999991
40
1
40
1
40
1
40
1
40
1
40
1
41
1
41
1
41
1
41
1
41
1
41
1
41
1
41
1
41
1
41
1
41
1
41
1
41
1
41
1
41
1
10
-40.799891432495457
20
444.35876999866599
30
0
10
-40.631407423756336
20
443.86323877266869
30
0
10
-40.235524270202077
20
442.74666204862342
30
0
10
-39.575685979635942
20
441.05112623520347
30
0
10
-38.588546408010288
20
438.84956087271155
30
0
10
-37.175745103718043
20
436.25520698989789
30
0
10
-35.499369424603969
20
433.77096018853388
30
0
10
-33.607116641608911
20
431.53524971378005
30
0
10
-31.488297796685316
20
429.56038161532462
30
0
10
-29.150020649552616
20
427.83817282761191
30
0
10
-26.608086504052469
20
426.35043152786864
30
0
10
-24.424592033525879
20
425.33287057455317
30
-8.8817841970012523e-15
10
-22.7079299935004
20
424.66069888606296
30
0
10
-21.528930026160968
20
424.25237127412407
30
8.8817841970012523e-15
10
-20.930790260003004
20
424.05815433034257
30
-8.8817841970012523e-15
0
LINE
5
151
100
AcDbEntity
8
0
100
AcDbLine
10
-20.930790260003008
20
424.05815433034263
30
-8.881784197001246e-15
11
21.069209739997117
21
424.05815433034002
31
-8.8817841970012192e-15
0
LINE
5
152
100
AcDbEntity
8
0
100
AcDbLine
10
21.069209739997117
20
424.05815433034002
30
-8.8817841970012192e-15
11
21.06920973999728
21
486.15938566698338
31
0
0
LINE
5
153
100
AcDbEntity
8
0
100
AcDbLine
10
21.06920973999728
20
486.15938566698338
30
0
11
8.7685594632013579
21
486.15938566698418
31
-1.0364159535527488e-29
0
LINE
5
154
100
AcDbEntity
8
0
100
AcDbLine
10
8.7685594632013579
20
486.15938566698418
30
-1.0364159535527488e-29
11
8.7685594632013402
21
480.15938566698418
31
0
0
LINE
5
155
100
AcDbEntity
8
0
100
AcDbLine
10
8.7685594632013402
20
480.15938566698418
30
0
11
1.2685594632013408
21
480.15938566698452
31
-1.1473200948955663e-29
0
LINE
5
156
100
AcDbEntity
8
0
100
AcDbLine
10
1.2685594632013408
20
480.15938566698452
30
-1.1473200948955663e-29
11
1.2685594632013562
21
486.15938566698458
31
1.5777218104420236e-29
0
LINE
5
157
100
AcDbEntity
8
0
100
AcDbLine
10
1.2685594632013562
20
486.15938566698458
30
1.5777218104420236e-29
11
-6.2314405367986412
21
486.15938566698503
31
-2.7250419053377693e-29
0
LINE
5
158
100
AcDbEntity
8
0
100
AcDbLine
10
-6.2314405367986412
20
486.15938566698503
30
-2.7250419053377693e-29
11
-6.2314405367986589
21
480.15938566698503
31
0
0
LINE
5
159
100
AcDbEntity
8
0
100
AcDbLine
10
-6.2314405367986589
20
480.15938566698503
30
0
11
-13.731440536798658
21
480.15938566698549
31
-3.5139028105586914e-29
0
LINE
5
160
100
AcDbEntity
8
0
100
AcDbLine
10
-13.731440536798658
20
480.15938566698549
30
-3.5139028105586914e-29
11
-13.731440536798644
21
486.15938566698554
31
0
0
LINE
5
161
100
AcDbEntity
8
0
100
AcDbLine
10
-13.731440536798644
20
486.15938566698554
30
0
11
-21.23144053679864
21
486.15938566698605
31
0
0
ENDSEC
0
SECTION
2
OBJECTS
0
DICTIONARY
5
C
100
AcDbDictionary
3
ACAD_GROUP
350
D
3
ACAD_MLINESTYLE
350
17
0
DICTIONARY
5
D
100
AcDbDictionary
0
DICTIONARY
5
1A
330
C
100
AcDbDictionary
0
DICTIONARY
5
17
100
AcDbDictionary
0
ENDSEC
0
EOF
