0
SECTION
2
HEADER
9
$INSUNITS
70
4
9
$ACADVER
1
AC1014
9
$HANDSEED
5
FFFF
0
ENDSEC
0
SECTION
2
TABLES
0
TABLE
2
VPORT
5
8
100
AcDbSymbolTable
0
ENDTAB
0
TABLE
2
LTYPE
5
5
100
AcDbSymbolTable
0
LTYPE
5
14
100
AcDbSymbolTableRecord
100
AcDbLinetypeTableRecord
2
BYBLOCK
70
0
0
LTYPE
5
15
100
AcDbSymbolTableRecord
100
AcDbLinetypeTableRecord
2
BYLAYER
70
0
0
ENDTAB
0
TABLE
2
LAYER
5
2
100
AcDbSymbolTable
70
2
0
LAYER
5
50
100
AcDbSymbolTableRecord
100
AcDbLayerTableRecord
2
0
70
0
6
CONTINUOUS
0
ENDTAB
0
TABLE
2
STYLE
5
3
100
AcDbSymbolTable
70
1
0
STYLE
5
11
100
AcDbSymbolTableRecord
100
AcDbTextStyleTableRecord
2
STANDARD
70
0
0
ENDTAB
0
TABLE
2
VIEW
5
6
100
AcDbSymbolTable
70
0
0
ENDTAB
0
TABLE
2
UCS
5
7
100
AcDbSymbolTable
70
0
0
ENDTAB
0
TABLE
2
APPID
5
9
100
AcDbSymbolTable
70
2
0
APPID
5
12
100
AcDbSymbolTableRecord
100
AcDbRegAppTableRecord
2
ACAD
70
0
0
ENDTAB
0
TABLE
2
DIMSTYLE
5
A
100
AcDbSymbolTable
70
1
0
ENDTAB
0
TABLE
2
BLOCK_RECORD
5
1
100
AcDbSymbolTable
70
1
0
BLOCK_RECORD
5
1F
100
AcDbSymbolTableRecord
100
AcDbBlockTableRecord
2
*MODEL_SPACE
0
BLOCK_RECORD
5
1B
100
AcDbSymbolTableRecord
100
AcDbBlockTableRecord
2
*PAPER_SPACE
0
ENDTAB
0
ENDSEC
0
SECTION
2
BLOCKS
0
BLOCK
5
20
100
AcDbEntity
100
AcDbBlockBegin
2
*MODEL_SPACE
0
ENDBLK
5
21
100
AcDbEntity
100
AcDbBlockEnd
0
BLOCK
5
1C
100
AcDbEntity
100
AcDbBlockBegin
2
*PAPER_SPACE
0
ENDBLK
5
1D
100
AcDbEntity
100
AcDbBlockEnd
0
ENDSEC
0
SECTION
2
ENTITIES
0
LWPOLYLINE
5
100
100
AcDbEntity
8
0
100
AcDbPolyline
90
94
70
1
43
0.0
10
-21.516351565919557
20
-57.49126510386948
10
-27.481746346105879
20
-57.49126510386948
10
-27.48174080079152
20
-69.631836496861567
10
-8.7685594631868629
20
-69.631836496861496
10
-8.7685594631868096
20
-75.631836496861496
10
-1.2685594631867714
20
-75.631836496861425
10
-1.2685594631868227
20
-69.631836496861425
10
6.2314405368132055
20
-69.631836496861382
10
6.2314405368132579
20
-75.631836496861368
10
13.731440536813299
20
-75.631836496861268
10
13.731440536813249
20
-69.631836496861283
10
21.231440536813277
20
-69.631836496861226
10
21.231440536813327
20
-75.631836496861226
10
28.731440536813373
20
-75.631836496861141
10
28.731440536813324
20
-69.631836496861141
10
35.032090813609322
20
-69.631836496861098
10
35.032090813609372
20
-75.631836496861098
10
41.032090813609372
20
-75.631836496861041
10
41.032090813609159
20
-62.381836496861013
10
35.032090813608924
20
-62.381836496861041
10
35.032090813608882
20
-54.881836496861041
10
41.032090813609088
20
-54.881836496861013
10
41.032090813609024
20
-47.381836496861013
10
35.032090813608846
20
-47.381836496861041
10
35.032090813608804
20
-39.881836496861034
10
41.03209081360896
20
-39.881836496861006
10
41.032090813608889
20
-32.381836496861006
10
35.032090813608775
20
-32.381836496861034
10
35.032090813608733
20
-24.881836496861034
10
41.032090813608818
20
-24.881836496861002
10
41.032090813608761
20
-17.381836496861002
10
35.032090813608697
20
-17.38183649686103
10
35.032090813608654
20
-9.8818364968610322
10
41.032090813608697
20
-9.881836496861002
10
41.032090813608633
20
-2.3818364968610028
10
35.032090813608619
20
-2.3818364968610326
10
35.032090813608583
20
5.118163503138967
10
41.032090813608555
20
5.1181635031389972
10
41.032090813608505
20
12.618163503138998
10
35.032090813608548
20
12.618163503138968
10
35.032090813608498
20
20.118163503138966
10
41.032090813608434
20
20.118163503138998
10
41.032090813608377
20
27.618163503138998
10
35.03209081360847
20
27.618163503138966
10
35.032090813608427
20
35.118163503138966
10
41.032090813608306
20
35.118163503138994
10
41.032090813608242
20
42.618163503138987
10
35.032090813608391
20
42.618163503138959
10
35.032090813608349
20
50.118163503138959
10
41.032090813608178
20
50.118163503138987
10
41.032090813608129
20
57.618163503138987
10
35.03209081360832
20
57.618163503138959
10
35.032090813608278
20
65.118163503138959
10
41.032090813608058
20
65.118163503138987
10
41.032090813608065
20
78.368163503139129
10
35.03209081360805
20
78.368163503139101
10
35.032090813608093
20
72.368163503139101
10
28.731440536812102
20
72.368163503139073
10
28.731440536812048
20
78.368163503139073
10
21.231440536811998
20
78.368163503139016
10
21.231440536812052
20
72.368163503139002
10
13.731440536812025
20
72.368163503138945
10
13.731440536811977
20
78.368163503138945
10
6.2314405368119328
20
78.368163503138874
10
6.2314405368119843
20
72.368163503138888
10
-1.2685594631880448
20
72.368163503138845
10
-1.2685594631880965
20
78.368163503138845
10
-8.7685594631881347
20
78.368163503138803
10
-8.7685594631880832
20
72.368163503138803
10
-21.069209739983638
20
72.36816350313849
10
-21.069209739983684
20
78.368163503138547
10
-27.481740800792551
20
78.368163503138504
10
-27.481740800792402
20
57.491265103883357
10
-21.516351565919557
20
57.491265103883357
10
-21.516351565919557
20
51.493170569434398
10
-27.481740800792359
20
51.493170569434398
10
-27.481740800792309
20
43.991266918710828
10
-21.513969507483534
20
43.991266918710828
10
-21.51158805350839
20
36.491266918710828
10
-27.481740800792256
20
36.491266918710828
10
-27.481740800792203
20
28.991266918710824
10
-21.512541239751414
20
28.991266918710824
10
-21.512541239751414
20
21.491266918710824
10
-27.481740800792153
20
21.491266918710824
10
-27.481740800791851
20
-21.508730913583577
10
-21.512541239751414
20
-21.508730913630444
10
-21.512541239751414
20
-28.991266918696951
10
-27.481740800791798
20
-28.991266918696951
10
-27.481740800791748
20
-36.491266918696951
10
-21.506825448034192
20
-36.491266918696951
10
-21.506825448034192
20
-43.991266918696965
10
-27.481740800791698
20
-43.991266918696958
10
-27.481740800791641
20
-51.508728796289638
10
-21.516351565919557
20
-51.506834622972512
0
LWPOLYLINE
5
101
100
AcDbEntity
8
0
100
AcDbPolyline
90
4
70
1
43
0.0
10
27.48364596440021
20
-36.5087278888928
10
27.478883056939999
20
-44.008726376540167
10
21.513973848548119
20
-44.004938334367225
10
21.511592393617306
20
-36.504935309660695
0
LWPOLYLINE
5
102
100
AcDbEntity
8
0
100
AcDbPolyline
90
4
70
1
43
0.0
10
27.48364596440021
20
36.50872788890667
10
21.488409778784838
20
36.504920587451721
10
21.486028324811208
20
44.004920587451721
10
27.478883056939999
20
44.00872637655403
0
LWPOLYLINE
5
103
100
AcDbEntity
8
0
100
AcDbPolyline
90
4
70
1
43
0.0
10
21.479837150510711
20
57.504917563126376
10
27.481740800839876
20
57.508729098784499
10
27.483645358978922
20
51.510634564335554
10
21.483646266404733
20
51.506824238175312
0
LWPOLYLINE
5
104
100
AcDbEntity
8
0
100
AcDbPolyline
90
4
70
1
43
0.0
10
21.479844602937803
20
-57.493182463832923
10
21.483646266404733
20
-51.506824238161435
10
27.485549916733895
20
-51.510635773819573
10
27.481751884066632
20
-57.491276695042401
0
LWPOLYLINE
5
105
100
AcDbEntity
8
0
100
AcDbPolyline
90
6
70
1
43
0.0
10
13.983647778757398
20
-51.502061330701224
10
13.979841578231294
20
-57.495563918764461
10
7.1602637926362478
20
-57.497729320177633
10
6.4798389651418784
20
-57.497297213358905
10
6.483648881221705
20
-51.497943861340936
10
7.1612163724379876
20
-51.497728715235311
0
LWPOLYLINE
5
106
100
AcDbEntity
8
0
100
AcDbPolyline
90
5
70
1
43
0.0
10
27.493171779320619
20
-21.5087309135981
10
27.488408871860411
20
-29.00872940124545
10
21.5092109386865
20
-29.004932284954176
10
21.508730913612037
20
-27.493171779290474
10
21.5087309136591
20
-21.504930467759191
0
LWPOLYLINE
5
107
100
AcDbEntity
8
0
100
AcDbPolyline
90
4
70
1
43
0.0
10
-6.5163515659195523
20
57.493170569434405
10
-6.5163515659195523
20
51.497933477374971
10
-14.016351565919551
20
51.495552023404692
10
-14.016351565919551
20
57.493170569434405
0
LWPOLYLINE
5
108
100
AcDbEntity
8
0
100
AcDbPolyline
90
4
70
1
43
0.0
10
27.488408871860411
20
29.008729401259323
10
27.493171779320619
20
21.508730913611977
10
21.498886362308024
20
21.508730913660635
10
21.494125872307187
20
29.004922705129424
0
LWPOLYLINE
5
109
100
AcDbEntity
8
0
100
AcDbPolyline
90
4
70
1
43
0.0
10
13.97983745278923
20
57.502060120832979
10
13.983646266404746
20
51.504442784205438
10
6.4836462664047456
20
51.502061330235158
10
6.4798389651418784
20
57.497297213372782
0
LWPOLYLINE
5
110
100
AcDbEntity
8
0
100
AcDbPolyline
90
4
70
1
43
0.0
10
-14.016351565919551
20
-57.493170569420535
10
-14.016351565919551
20
-51.504453169002076
10
-6.5163515659195514
20
-51.502071715031654
10
-6.5163515659195523
20
-57.493170569420535
0
ENDSEC
0
SECTION
2
OBJECTS
0
DICTIONARY
5
C
100
AcDbDictionary
3
ACAD_GROUP
350
D
3
ACAD_MLINESTYLE
350
17
0
DICTIONARY
5
D
100
AcDbDictionary
0
DICTIONARY
5
1A
330
C
100
AcDbDictionary
0
DICTIONARY
5
17
100
AcDbDictionary
0
ENDSEC
0
EOF
