0
SECTION
2
HEADER
9
$INSUNITS
70
4
9
$ACADVER
1
AC1014
9
$HANDSEED
5
FFFF
0
ENDSEC
0
SECTION
2
TABLES
0
TABLE
2
VPORT
5
8
100
AcDbSymbolTable
0
ENDTAB
0
TABLE
2
LTYPE
5
5
100
AcDbSymbolTable
0
LTYPE
5
14
100
AcDbSymbolTableRecord
100
AcDbLinetypeTableRecord
2
BYBLOCK
70
0
0
LTYPE
5
15
100
AcDbSymbolTableRecord
100
AcDbLinetypeTableRecord
2
BYLAYER
70
0
0
ENDTAB
0
TABLE
2
LAYER
5
2
100
AcDbSymbolTable
70
2
0
LAYER
5
50
100
AcDbSymbolTableRecord
100
AcDbLayerTableRecord
2
0
70
0
6
CONTINUOUS
0
ENDTAB
0
TABLE
2
STYLE
5
3
100
AcDbSymbolTable
70
1
0
STYLE
5
11
100
AcDbSymbolTableRecord
100
AcDbTextStyleTableRecord
2
STANDARD
70
0
0
ENDTAB
0
TABLE
2
VIEW
5
6
100
AcDbSymbolTable
70
0
0
ENDTAB
0
TABLE
2
UCS
5
7
100
AcDbSymbolTable
70
0
0
ENDTAB
0
TABLE
2
APPID
5
9
100
AcDbSymbolTable
70
2
0
APPID
5
12
100
AcDbSymbolTableRecord
100
AcDbRegAppTableRecord
2
ACAD
70
0
0
ENDTAB
0
TABLE
2
DIMSTYLE
5
A
100
AcDbSymbolTable
70
1
0
ENDTAB
0
TABLE
2
BLOCK_RECORD
5
1
100
AcDbSymbolTable
70
1
0
BLOCK_RECORD
5
1F
100
AcDbSymbolTableRecord
100
AcDbBlockTableRecord
2
*MODEL_SPACE
0
BLOCK_RECORD
5
1B
100
AcDbSymbolTableRecord
100
AcDbBlockTableRecord
2
*PAPER_SPACE
0
ENDTAB
0
ENDSEC
0
SECTION
2
BLOCKS
0
BLOCK
5
20
100
AcDbEntity
100
AcDbBlockBegin
2
*MODEL_SPACE
0
ENDBLK
5
21
100
AcDbEntity
100
AcDbBlockEnd
0
BLOCK
5
1C
100
AcDbEntity
100
AcDbBlockBegin
2
*PAPER_SPACE
0
ENDBLK
5
1D
100
AcDbEntity
100
AcDbBlockEnd
0
ENDSEC
0
SECTION
2
ENTITIES
0
LINE
5
100
100
AcDbEntity
8
0
100
AcDbLine
10
-21.231440536787268
20
486.15938566697594
30
-8.8817841970012523e-15
11
-21.231440536787517
21
480.15938566697605
31
-8.8817841970012365e-15
0
LINE
5
101
100
AcDbEntity
8
0
100
AcDbLine
10
-21.231440536787517
20
480.15938566697605
30
-8.8817841970012365e-15
11
-28.731440536787495
21
480.15938566697639
31
-8.8817841970012539e-15
0
LINE
5
102
100
AcDbEntity
8
0
100
AcDbLine
10
-28.731440536787495
20
480.15938566697639
30
-8.8817841970012539e-15
11
-28.73144053678725
21
486.15938566697628
31
-8.8817841970012523e-15
0
LINE
5
103
100
AcDbEntity
8
0
100
AcDbLine
10
-28.73144053678725
20
486.15938566697628
30
-8.8817841970012523e-15
11
-35.032090813583181
21
486.15938566697662
31
-8.3474690583553046e-31
0
LINE
5
104
100
AcDbEntity
8
0
100
AcDbLine
10
-35.032090813583181
20
486.15938566697662
30
-8.3474690583553046e-31
11
-35.03209081358343
21
480.15938566697679
31
-8.8817841970012523e-15
0
LINE
5
105
100
AcDbEntity
8
0
100
AcDbLine
10
-35.03209081358343
20
480.15938566697679
30
-8.8817841970012523e-15
11
-41.032090813583423
21
480.15938566697713
31
-8.8817841970012539e-15
0
LINE
5
106
100
AcDbEntity
8
0
100
AcDbLine
10
-41.032090813583423
20
480.15938566697713
30
-8.8817841970012539e-15
11
-41.032090813583856
21
469.35876999865627
31
-1.7763568394002505e-14
0
LINE
5
107
100
AcDbEntity
8
0
100
AcDbLine
10
-41.032090813583856
20
469.35876999865627
30
-1.7763568394002505e-14
11
-35.032090813583864
21
469.35876999865582
31
-8.8817841970012507e-15
0
LINE
5
108
100
AcDbEntity
8
0
100
AcDbLine
10
-35.032090813583864
20
469.35876999865582
30
-8.8817841970012507e-15
11
-35.032090813584176
21
461.85876999865599
31
-8.8817841970012523e-15
0
LINE
5
109
100
AcDbEntity
8
0
100
AcDbLine
10
-35.032090813584176
20
461.85876999865599
30
-8.8817841970012523e-15
11
-41.032090813584162
21
461.85876999865627
31
-8.8817841970012539e-15
0
LINE
5
110
100
AcDbEntity
8
0
100
AcDbLine
10
-41.032090813584162
20
461.85876999865627
30
-8.8817841970012539e-15
11
-41.032090813584574
21
451.85876999865656
31
-8.8817841970012523e-15
0
LINE
5
111
100
AcDbEntity
8
0
100
AcDbLine
10
-41.032090813584574
20
451.85876999865656
30
-8.8817841970012523e-15
11
-35.032090813584588
21
451.85876999865621
31
-1.7763568394002501e-14
0
LINE
5
112
100
AcDbEntity
8
0
100
AcDbLine
10
-35.032090813584588
20
451.85876999865621
30
-1.7763568394002501e-14
11
-35.032090813584865
21
445.05815433033484
31
-8.8817841970012523e-15
0
LINE
5
113
100
AcDbEntity
8
0
100
AcDbLine
10
-35.032090813584865
20
445.05815433033484
30
-8.8817841970012523e-15
11
-40.692049700805711
21
445.05815433033524
31
1.8109236927966393e-30
0
LINE
5
114
100
AcDbEntity
8
0
100
AcDbLine
10
-40.692049700805711
20
445.05815433033524
30
1.8109236927966393e-30
11
-40.692049700805754
21
444.35876999865661
31
-8.8817841970012539e-15
0
SPLINE
5
115
100
AcDbEntity
8
0
100
AcDbSpline
70
4
71
5
72
21
73
15
74
0
42
0.000000001
43
0.0000000001
44
0.0000000001
40
0.023480252665075297
40
0.023480252665075297
40
0.023480252665075297
40
0.023480252665075297
40
0.023480252665075297
40
0.023480252665075297
40
0.10000000000000001
40
0.20000000000000001
40
0.30000000000000004
40
0.40000000000000002
40
0.5
40
0.59999999999999998
40
0.69999999999999996
40
0.79999999999999993
40
0.89999999999999991
40
1
40
1
40
1
40
1
40
1
40
1
41
1
41
1
41
1
41
1
41
1
41
1
41
1
41
1
41
1
41
1
41
1
41
1
41
1
41
1
41
1
10
-40.692049700805761
20
444.35876999865661
30
-8.8817841970012523e-15
10
-40.468648193339263
20
443.90569250631813
30
-1.7763568394002505e-14
10
-39.946637510670378
20
442.87091736555294
30
-1.7763568394002505e-14
10
-39.104778139052435
20
441.2876536704045
30
-8.8817841970012523e-15
10
-37.906095753315569
20
439.21371271807573
30
0
10
-36.2930580041035
20
436.73904935511354
30
-8.8817841970012523e-15
10
-34.48340306895345
20
434.32559598728352
30
-8.8817841970012523e-15
10
-32.546135251881083
20
432.11167205526971
30
-1.7763568394002505e-14
10
-30.473961982316787
20
430.10867987572124
30
-8.8817841970012523e-15
10
-28.269967094078389
20
428.31179771265499
30
-1.7763568394002505e-14
10
-25.943182233917376
20
426.70690411253099
30
-8.8817841970012523e-15
10
-23.991111658648002
20
425.5647138290812
30
-8.8817841970012523e-15
10
-22.479244482491389
20
424.78283119651758
30
-1.7763568394002505e-14
10
-21.450426146021698
20
424.29426512074662
30
0
10
-20.930790259994016
20
424.05815433033376
30
-8.8817841970012523e-15
0
LINE
5
116
100
AcDbEntity
8
0
100
AcDbLine
10
-20.930790259994016
20
424.05815433033376
30
-8.8817841970012649e-15
11
21.069209740005974
21
424.05815433033132
31
-8.8817841970011371e-15
0
LINE
5
117
100
AcDbEntity
8
0
100
AcDbLine
10
21.069209740005974
20
424.05815433033132
30
-8.8817841970011371e-15
11
21.069209740008525
21
486.15938566697344
31
-8.8817841970012523e-15
0
LINE
5
118
100
AcDbEntity
8
0
100
AcDbLine
10
21.069209740008525
20
486.15938566697344
30
-8.8817841970012523e-15
11
8.7685594632126396
21
486.15938566697417
31
-8.8817841970012681e-15
0
LINE
5
119
100
AcDbEntity
8
0
100
AcDbLine
10
8.7685594632126396
20
486.15938566697417
30
-8.8817841970012681e-15
11
8.7685594632123891
21
480.15938566697429
31
-8.8817841970012523e-15
0
LINE
5
120
100
AcDbEntity
8
0
100
AcDbLine
10
8.7685594632123891
20
480.15938566697429
30
-8.8817841970012523e-15
11
1.2685594632124131
21
480.15938566697463
31
-8.8817841970012539e-15
0
LINE
5
121
100
AcDbEntity
8
0
100
AcDbLine
10
1.2685594632124131
20
480.15938566697463
30
-8.8817841970012539e-15
11
1.2685594632126596
21
486.15938566697457
31
-8.8817841970012523e-15
0
LINE
5
122
100
AcDbEntity
8
0
100
AcDbLine
10
1.2685594632126596
20
486.15938566697457
30
-8.8817841970012523e-15
11
-6.2314405367873151
21
486.15938566697503
31
1.0706233775354354e-29
0
LINE
5
123
100
AcDbEntity
8
0
100
AcDbLine
10
-6.2314405367873151
20
486.15938566697503
30
1.0706233775354354e-29
11
-6.2314405367875647
21
480.15938566697508
31
-8.8817841970012523e-15
0
LINE
5
124
100
AcDbEntity
8
0
100
AcDbLine
10
-6.2314405367875647
20
480.15938566697508
30
-8.8817841970012523e-15
11
-13.731440536787538
21
480.1593856669756
31
-1.7763568394002492e-14
0
LINE
5
125
100
AcDbEntity
8
0
100
AcDbLine
10
-13.731440536787538
20
480.1593856669756
30
-1.7763568394002492e-14
11
-13.731440536787296
21
486.15938566697542
31
-1.7763568394002505e-14
0
LINE
5
126
100
AcDbEntity
8
0
100
AcDbLine
10
-13.731440536787296
20
486.15938566697542
30
-1.7763568394002505e-14
11
-21.231440536787268
21
486.15938566697594
31
-8.8817841970012523e-15
0
ENDSEC
0
SECTION
2
OBJECTS
0
DICTIONARY
5
C
100
AcDbDictionary
3
ACAD_GROUP
350
D
3
ACAD_MLINESTYLE
350
17
0
DICTIONARY
5
D
100
AcDbDictionary
0
DICTIONARY
5
1A
330
C
100
AcDbDictionary
0
DICTIONARY
5
17
100
AcDbDictionary
0
ENDSEC
0
EOF
