0
SECTION
2
HEADER
9
$INSUNITS
70
4
9
$ACADVER
1
AC1014
9
$HANDSEED
5
FFFF
0
ENDSEC
0
SECTION
2
TABLES
0
TABLE
2
VPORT
5
8
100
AcDbSymbolTable
0
ENDTAB
0
TABLE
2
LTYPE
5
5
100
AcDbSymbolTable
0
LTYPE
5
14
100
AcDbSymbolTableRecord
100
AcDbLinetypeTableRecord
2
BYBLOCK
70
0
0
LTYPE
5
15
100
AcDbSymbolTableRecord
100
AcDbLinetypeTableRecord
2
BYLAYER
70
0
0
ENDTAB
0
TABLE
2
LAYER
5
2
100
AcDbSymbolTable
70
2
0
LAYER
5
50
100
AcDbSymbolTableRecord
100
AcDbLayerTableRecord
2
0
70
0
6
CONTINUOUS
0
ENDTAB
0
TABLE
2
STYLE
5
3
100
AcDbSymbolTable
70
1
0
STYLE
5
11
100
AcDbSymbolTableRecord
100
AcDbTextStyleTableRecord
2
STANDARD
70
0
0
ENDTAB
0
TABLE
2
VIEW
5
6
100
AcDbSymbolTable
70
0
0
ENDTAB
0
TABLE
2
UCS
5
7
100
AcDbSymbolTable
70
0
0
ENDTAB
0
TABLE
2
APPID
5
9
100
AcDbSymbolTable
70
2
0
APPID
5
12
100
AcDbSymbolTableRecord
100
AcDbRegAppTableRecord
2
ACAD
70
0
0
ENDTAB
0
TABLE
2
DIMSTYLE
5
A
100
AcDbSymbolTable
70
1
0
ENDTAB
0
TABLE
2
BLOCK_RECORD
5
1
100
AcDbSymbolTable
70
1
0
BLOCK_RECORD
5
1F
100
AcDbSymbolTableRecord
100
AcDbBlockTableRecord
2
*MODEL_SPACE
0
BLOCK_RECORD
5
1B
100
AcDbSymbolTableRecord
100
AcDbBlockTableRecord
2
*PAPER_SPACE
0
ENDTAB
0
ENDSEC
0
SECTION
2
BLOCKS
0
BLOCK
5
20
100
AcDbEntity
100
AcDbBlockBegin
2
*MODEL_SPACE
0
ENDBLK
5
21
100
AcDbEntity
100
AcDbBlockEnd
0
BLOCK
5
1C
100
AcDbEntity
100
AcDbBlockBegin
2
*PAPER_SPACE
0
ENDBLK
5
1D
100
AcDbEntity
100
AcDbBlockEnd
0
ENDSEC
0
SECTION
2
ENTITIES
0
CIRCLE
5
100
100
AcDbEntity
8
0
100
AcDbCircle
10
-0.069209740006680037
20
445.05815433033729
30
8.8817841970012523e-15
40
11.249999999999984
210
1.2905669911269157e-30
220
5.1618393580357956e-44
230
1
0
LINE
5
101
100
AcDbEntity
8
0
100
AcDbLine
10
41.032090813584567
20
461.85876999866059
30
8.8817841970012523e-15
11
35.032090813584539
21
461.85876999866031
31
8.8817841970012507e-15
0
LINE
5
102
100
AcDbEntity
8
0
100
AcDbLine
10
35.032090813584539
20
461.85876999866031
30
8.8817841970012507e-15
11
35.032090813584226
21
469.35876999866002
31
8.8817841970012681e-15
0
LINE
5
103
100
AcDbEntity
8
0
100
AcDbLine
10
35.032090813584226
20
469.35876999866002
30
8.8817841970012681e-15
11
41.032090813584261
21
469.35876999866036
31
1.7763568394002511e-14
0
LINE
5
104
100
AcDbEntity
8
0
100
AcDbLine
10
41.032090813584261
20
469.35876999866036
30
1.7763568394002511e-14
11
41.032090813583785
21
480.15938566698185
31
1.7763568394002505e-14
0
LINE
5
105
100
AcDbEntity
8
0
100
AcDbLine
10
41.032090813583785
20
480.15938566698185
30
1.7763568394002505e-14
11
35.032090813583778
21
480.15938566698151
31
1.7763568394002498e-14
0
LINE
5
106
100
AcDbEntity
8
0
100
AcDbLine
10
35.032090813583778
20
480.15938566698151
30
1.7763568394002498e-14
11
35.032090813583537
21
486.15938566698111
31
8.8817841970012523e-15
0
LINE
5
107
100
AcDbEntity
8
0
100
AcDbLine
10
35.032090813583537
20
486.15938566698111
30
8.8817841970012523e-15
11
28.731440536787556
21
486.15938566698082
31
8.8817841970012618e-15
0
LINE
5
108
100
AcDbEntity
8
0
100
AcDbLine
10
28.731440536787556
20
486.15938566698082
30
8.8817841970012618e-15
11
28.731440536787801
21
480.15938566698088
31
8.8817841970012365e-15
0
LINE
5
109
100
AcDbEntity
8
0
100
AcDbLine
10
28.731440536787801
20
480.15938566698088
30
8.8817841970012365e-15
11
21.231440536787755
21
480.15938566698048
31
8.8817841970012539e-15
0
LINE
5
110
100
AcDbEntity
8
0
100
AcDbLine
10
21.231440536787755
20
480.15938566698048
30
8.8817841970012539e-15
11
21.23144053678751
21
486.15938566698043
31
8.8817841970012681e-15
0
LINE
5
111
100
AcDbEntity
8
0
100
AcDbLine
10
21.23144053678751
20
486.15938566698043
30
8.8817841970012681e-15
11
13.731440536787503
21
486.15938566697997
31
8.8817841970012618e-15
0
LINE
5
112
100
AcDbEntity
8
0
100
AcDbLine
10
13.731440536787503
20
486.15938566697997
30
8.8817841970012618e-15
11
13.731440536787741
21
480.15938566698014
31
1.7763568394002489e-14
0
LINE
5
113
100
AcDbEntity
8
0
100
AcDbLine
10
13.731440536787741
20
480.15938566698014
30
1.7763568394002489e-14
11
6.2314405367877086
21
480.15938566697969
31
1.7763568394002517e-14
0
LINE
5
114
100
AcDbEntity
8
0
100
AcDbLine
10
6.2314405367877086
20
480.15938566697969
30
1.7763568394002517e-14
11
6.2314405367874652
21
486.15938566697963
31
8.8817841970012681e-15
0
LINE
5
115
100
AcDbEntity
8
0
100
AcDbLine
10
6.2314405367874652
20
486.15938566697963
30
8.8817841970012681e-15
11
-1.268559463212553
21
486.15938566697923
31
8.8817841970012523e-15
0
LINE
5
116
100
AcDbEntity
8
0
100
AcDbLine
10
-1.268559463212553
20
486.15938566697923
30
8.8817841970012523e-15
11
-1.2685594632123105
21
480.15938566697923
31
8.8817841970012365e-15
0
LINE
5
117
100
AcDbEntity
8
0
100
AcDbLine
10
-1.2685594632123105
20
480.15938566697923
30
8.8817841970012365e-15
11
-8.7685594632123411
21
480.15938566697884
31
8.8817841970012555e-15
0
LINE
5
118
100
AcDbEntity
8
0
100
AcDbLine
10
-8.7685594632123411
20
480.15938566697884
30
8.8817841970012555e-15
11
-8.768559463212581
21
486.15938566697884
31
1.776356839400252e-14
0
LINE
5
119
100
AcDbEntity
8
0
100
AcDbLine
10
-8.768559463212581
20
486.15938566697884
30
1.776356839400252e-14
11
-21.069209740008354
21
486.15938566697849
31
8.8817841970012334e-15
0
LINE
5
120
100
AcDbEntity
8
0
100
AcDbLine
10
-21.069209740008354
20
486.15938566697849
30
8.8817841970012334e-15
11
-21.069209740005871
21
424.0581543303357
31
8.8817841970012523e-15
0
LINE
5
121
100
AcDbEntity
8
0
100
AcDbLine
10
-21.069209740005871
20
424.0581543303357
30
8.8817841970012523e-15
11
20.930790259994186
21
424.05815433033797
31
1.7763568394002479e-14
0
SPLINE
5
122
100
AcDbEntity
8
0
100
AcDbSpline
70
4
71
5
72
21
73
15
74
0
42
0.000000001
43
0.0000000001
44
0.0000000001
40
0
40
0
40
0
40
0
40
0
40
0
40
0.10000000000000001
40
0.20000000000000001
40
0.30000000000000004
40
0.40000000000000002
40
0.5
40
0.59999999999999998
40
0.69999999999999996
40
0.79999999999999993
40
0.89999999999999991
40
1
40
1
40
1
40
1
40
1
40
1
41
1
41
1
41
1
41
1
41
1
41
1
41
1
41
1
41
1
41
1
41
1
41
1
41
1
41
1
41
1
10
41.032090813585107
20
445.05815433033979
30
8.8817841970012523e-15
10
40.74476237195541
20
444.45881866314471
30
8.8817841970012523e-15
10
40.160262599579326
20
443.2755372022815
30
8.8817841970012523e-15
10
39.253985889115796
20
441.54678210572632
30
1.7763568394002505e-14
10
37.985577315458031
20
439.33565041604186
30
8.8817841970012523e-15
10
36.29305800410372
20
436.7390493551178
30
0
10
34.483403068953656
20
434.32559598728778
30
8.8817841970012523e-15
10
32.546135251881296
20
432.11167205527397
30
8.8817841970012523e-15
10
30.47396198231699
20
430.10867987572544
30
8.8817841970012523e-15
10
28.269967094078588
20
428.31179771265914
30
8.8817841970012523e-15
10
25.943182233917561
20
426.70690411253503
30
8.8817841970012523e-15
10
23.99111165864818
20
425.56471382908535
30
8.8817841970012523e-15
10
22.479244482491577
20
424.78283119652178
30
8.8817841970012523e-15
10
21.450426146021876
20
424.29426512075077
30
8.8817841970012523e-15
10
20.93079025999419
20
424.05815433033797
30
8.8817841970012523e-15
0
LINE
5
123
100
AcDbEntity
8
0
100
AcDbLine
10
41.032090813585107
20
445.05815433033979
30
8.8817841970012523e-15
11
35.032090813585235
21
445.05815433033922
31
8.8817841970012586e-15
0
LINE
5
124
100
AcDbEntity
8
0
100
AcDbLine
10
35.032090813585235
20
445.05815433033922
30
8.8817841970012586e-15
11
35.032090813584958
21
451.85876999866036
31
8.8817841970012681e-15
0
LINE
5
125
100
AcDbEntity
8
0
100
AcDbLine
10
35.032090813584958
20
451.85876999866036
30
8.8817841970012681e-15
11
41.032090813584972
21
451.85876999866059
31
1.7763568394002511e-14
0
LINE
5
126
100
AcDbEntity
8
0
100
AcDbLine
10
41.032090813584972
20
451.85876999866059
30
1.7763568394002511e-14
11
41.032090813584567
21
461.85876999866059
31
8.8817841970012523e-15
0
ENDSEC
0
SECTION
2
OBJECTS
0
DICTIONARY
5
C
100
AcDbDictionary
3
ACAD_GROUP
350
D
3
ACAD_MLINESTYLE
350
17
0
DICTIONARY
5
D
100
AcDbDictionary
0
DICTIONARY
5
1A
330
C
100
AcDbDictionary
0
DICTIONARY
5
17
100
AcDbDictionary
0
ENDSEC
0
EOF
