0
SECTION
2
HEADER
9
$INSUNITS
70
4
9
$ACADVER
1
AC1014
9
$HANDSEED
5
FFFF
0
ENDSEC
0
SECTION
2
TABLES
0
TABLE
2
VPORT
5
8
100
AcDbSymbolTable
0
ENDTAB
0
TABLE
2
LTYPE
5
5
100
AcDbSymbolTable
0
LTYPE
5
14
100
AcDbSymbolTableRecord
100
AcDbLinetypeTableRecord
2
BYBLOCK
70
0
0
LTYPE
5
15
100
AcDbSymbolTableRecord
100
AcDbLinetypeTableRecord
2
BYLAYER
70
0
0
ENDTAB
0
TABLE
2
LAYER
5
2
100
AcDbSymbolTable
70
2
0
LAYER
5
50
100
AcDbSymbolTableRecord
100
AcDbLayerTableRecord
2
0
70
0
6
CONTINUOUS
0
ENDTAB
0
TABLE
2
STYLE
5
3
100
AcDbSymbolTable
70
1
0
STYLE
5
11
100
AcDbSymbolTableRecord
100
AcDbTextStyleTableRecord
2
STANDARD
70
0
0
ENDTAB
0
TABLE
2
VIEW
5
6
100
AcDbSymbolTable
70
0
0
ENDTAB
0
TABLE
2
UCS
5
7
100
AcDbSymbolTable
70
0
0
ENDTAB
0
TABLE
2
APPID
5
9
100
AcDbSymbolTable
70
2
0
APPID
5
12
100
AcDbSymbolTableRecord
100
AcDbRegAppTableRecord
2
ACAD
70
0
0
ENDTAB
0
TABLE
2
DIMSTYLE
5
A
100
AcDbSymbolTable
70
1
0
ENDTAB
0
TABLE
2
BLOCK_RECORD
5
1
100
AcDbSymbolTable
70
1
0
BLOCK_RECORD
5
1F
100
AcDbSymbolTableRecord
100
AcDbBlockTableRecord
2
*MODEL_SPACE
0
BLOCK_RECORD
5
1B
100
AcDbSymbolTableRecord
100
AcDbBlockTableRecord
2
*PAPER_SPACE
0
ENDTAB
0
ENDSEC
0
SECTION
2
BLOCKS
0
BLOCK
5
20
100
AcDbEntity
100
AcDbBlockBegin
2
*MODEL_SPACE
0
ENDBLK
5
21
100
AcDbEntity
100
AcDbBlockEnd
0
BLOCK
5
1C
100
AcDbEntity
100
AcDbBlockBegin
2
*PAPER_SPACE
0
ENDBLK
5
1D
100
AcDbEntity
100
AcDbBlockEnd
0
ENDSEC
0
SECTION
2
ENTITIES
0
LINE
5
100
100
AcDbEntity
8
0
100
AcDbLine
10
-21.231440536165156
20
730.04307173265352
30
0
11
-21.23144053616539
21
724.04307173265352
31
0
0
LINE
5
101
100
AcDbEntity
8
0
100
AcDbLine
10
-21.23144053616539
20
724.04307173265352
30
0
11
-28.731440536165405
21
724.04307173265329
31
-5.4210108556515094e-19
0
LINE
5
102
100
AcDbEntity
8
0
100
AcDbLine
10
-28.731440536165405
20
724.04307173265329
30
-5.4210108556515094e-19
11
-28.731440536165174
21
730.04307173265329
31
0
0
LINE
5
103
100
AcDbEntity
8
0
100
AcDbLine
10
-28.731440536165174
20
730.04307173265329
30
0
11
-35.032090812961144
21
730.04307173265317
31
5.6924387986911082e-28
0
LINE
5
104
100
AcDbEntity
8
0
100
AcDbLine
10
-35.032090812961144
20
730.04307173265317
30
5.6924387986911082e-28
11
-35.032090812961385
21
724.04307173265329
31
-8.8817841970012602e-15
0
LINE
5
105
100
AcDbEntity
8
0
100
AcDbLine
10
-35.032090812961385
20
724.04307173265329
30
-8.8817841970012602e-15
11
-41.032090812961393
21
724.04307173265306
31
-8.8817841970007096e-15
0
LINE
5
106
100
AcDbEntity
8
0
100
AcDbLine
10
-41.032090812961393
20
724.04307173265306
30
-8.8817841970007096e-15
11
-41.032090812961819
21
713.24245606433192
31
-8.8817841970012523e-15
0
LINE
5
107
100
AcDbEntity
8
0
100
AcDbLine
10
-41.032090812961819
20
713.24245606433192
30
-8.8817841970012523e-15
11
-35.032090812961798
21
713.24245606433215
31
-5.4208107563010448e-28
0
LINE
5
108
100
AcDbEntity
8
0
100
AcDbLine
10
-35.032090812961798
20
713.24245606433215
30
-5.4208107563010448e-28
11
-35.032090812962082
21
705.74245606433215
31
-1.5777218104420236e-29
0
LINE
5
109
100
AcDbEntity
8
0
100
AcDbLine
10
-35.032090812962082
20
705.74245606433215
30
-1.5777218104420236e-29
11
-41.032090812962103
21
705.74245606433215
31
5.4208107563010448e-28
0
LINE
5
110
100
AcDbEntity
8
0
100
AcDbLine
10
-41.032090812962103
20
705.74245606433215
30
5.4208107563010448e-28
11
-41.032090812962487
21
695.74245606433215
31
-8.8817841970012602e-15
0
LINE
5
111
100
AcDbEntity
8
0
100
AcDbLine
10
-41.032090812962487
20
695.74245606433215
30
-8.8817841970012602e-15
11
-35.032090812962473
21
695.74245606433237
31
-8.8817841970017951e-15
0
LINE
5
112
100
AcDbEntity
8
0
100
AcDbLine
10
-35.032090812962473
20
695.74245606433237
30
-8.8817841970017951e-15
11
-35.032090812962728
21
688.94184039601089
31
-8.8817841970012602e-15
0
LINE
5
113
100
AcDbEntity
8
0
100
AcDbLine
10
-35.032090812962728
20
688.94184039601089
30
-8.8817841970012602e-15
11
-40.69204970018361
21
688.94184039601078
31
-2.7105054261001667e-19
0
LINE
5
114
100
AcDbEntity
8
0
100
AcDbLine
10
-40.69204970018361
20
688.94184039601078
30
-2.7105054261001667e-19
11
-40.692049700183624
21
688.24245606433226
31
-9.8607613152626476e-31
0
SPLINE
5
115
100
AcDbEntity
8
0
100
AcDbSpline
70
4
71
5
72
21
73
15
74
0
42
0.000000001
43
0.0000000001
44
0.0000000001
40
0.023480252665075297
40
0.023480252665075297
40
0.023480252665075297
40
0.023480252665075297
40
0.023480252665075297
40
0.023480252665075297
40
0.10000000000000001
40
0.20000000000000001
40
0.30000000000000004
40
0.40000000000000002
40
0.5
40
0.59999999999999998
40
0.69999999999999996
40
0.79999999999999993
40
0.89999999999999991
40
1
40
1
40
1
40
1
40
1
40
1
41
1
41
1
41
1
41
1
41
1
41
1
41
1
41
1
41
1
41
1
41
1
41
1
41
1
41
1
41
1
10
-40.692049700183631
20
688.24245606433226
30
-8.8817841970012523e-15
10
-40.46864819271714
20
687.78937857199378
30
8.8817841970012523e-15
10
-39.946637510048255
20
686.75460343122847
30
0
10
-39.104778138430298
20
685.17133973608009
30
0
10
-37.906095752693417
20
683.09739878375137
30
0
10
-36.293058003481342
20
680.62273542078924
30
8.8817841970012523e-15
10
-34.48340306833127
20
678.20928205295945
30
0
10
-32.546135251258896
20
675.99535812094575
30
0
10
-30.473961981694579
20
673.99236594139734
30
0
10
-28.269967093456174
20
672.19548377833121
30
0
10
-25.943182233295133
20
670.59059017820732
30
0
10
-23.991111658025737
20
669.4483998947577
30
-8.8817841970012523e-15
10
-22.479244481869127
20
668.66651726219413
30
0
10
-21.450426145399426
20
668.17795118642323
30
0
10
-20.930790259371747
20
667.94184039601055
30
0
0
LINE
5
116
100
AcDbEntity
8
0
100
AcDbLine
10
-20.930790259371747
20
667.94184039601066
30
-4.8909367076345217e-30
11
21.069209740628473
21
667.941840396011
31
2.1684043411764412e-18
0
LINE
5
117
100
AcDbEntity
8
0
100
AcDbLine
10
21.069209740628473
20
667.941840396011
30
2.1684043411764412e-18
11
21.069209740630868
21
730.04307173265397
31
6.3108872417680944e-29
0
LINE
5
118
100
AcDbEntity
8
0
100
AcDbLine
10
21.069209740630868
20
730.04307173265397
30
6.3108872417680944e-29
11
8.7685594638349151
21
730.04307173265386
31
-5.4210108513142728e-19
0
LINE
5
119
100
AcDbEntity
8
0
100
AcDbLine
10
8.7685594638349151
20
730.04307173265386
30
-5.4210108513142728e-19
11
8.7685594638346824
21
724.04307173265397
31
7.8886090522101181e-30
0
LINE
5
120
100
AcDbEntity
8
0
100
AcDbLine
10
8.7685594638346824
20
724.04307173265397
30
7.8886090522101181e-30
11
1.2685594638346642
21
724.04307173265374
31
-5.4210108556515094e-19
0
LINE
5
121
100
AcDbEntity
8
0
100
AcDbLine
10
1.2685594638346642
20
724.04307173265374
30
-5.4210108556515094e-19
11
1.2685594638348927
21
730.04307173265374
31
-8.8817841970012523e-15
0
LINE
5
122
100
AcDbEntity
8
0
100
AcDbLine
10
1.2685594638348927
20
730.04307173265374
30
-8.8817841970012523e-15
11
-6.2314405361651222
21
730.04307173265363
31
-8.8820552475436953e-15
0
LINE
5
123
100
AcDbEntity
8
0
100
AcDbLine
10
-6.2314405361651222
20
730.04307173265363
30
-8.8820552475436953e-15
11
-6.2314405361653531
21
724.04307173265363
31
-8.8817841970012444e-15
0
LINE
5
124
100
AcDbEntity
8
0
100
AcDbLine
10
-6.2314405361653531
20
724.04307173265363
30
-8.8817841970012444e-15
11
-13.731440536165369
21
724.04307173265352
31
-8.8823262980868167e-15
0
LINE
5
125
100
AcDbEntity
8
0
100
AcDbLine
10
-13.731440536165369
20
724.04307173265352
30
-8.8823262980868167e-15
11
-13.73144053616514
21
730.04307173265352
31
0
0
LINE
5
126
100
AcDbEntity
8
0
100
AcDbLine
10
-13.73144053616514
20
730.04307173265352
30
0
11
-21.231440536165156
21
730.04307173265352
31
0
0
ENDSEC
0
SECTION
2
OBJECTS
0
DICTIONARY
5
C
100
AcDbDictionary
3
ACAD_GROUP
350
D
3
ACAD_MLINESTYLE
350
17
0
DICTIONARY
5
D
100
AcDbDictionary
0
DICTIONARY
5
1A
330
C
100
AcDbDictionary
0
DICTIONARY
5
17
100
AcDbDictionary
0
ENDSEC
0
EOF
