0
SECTION
2
HEADER
9
$INSUNITS
70
4
9
$ACADVER
1
AC1014
9
$HANDSEED
5
FFFF
0
ENDSEC
0
SECTION
2
TABLES
0
TABLE
2
VPORT
5
8
100
AcDbSymbolTable
0
ENDTAB
0
TABLE
2
LTYPE
5
5
100
AcDbSymbolTable
0
LTYPE
5
14
100
AcDbSymbolTableRecord
100
AcDbLinetypeTableRecord
2
BYBLOCK
70
0
0
LTYPE
5
15
100
AcDbSymbolTableRecord
100
AcDbLinetypeTableRecord
2
BYLAYER
70
0
0
ENDTAB
0
TABLE
2
LAYER
5
2
100
AcDbSymbolTable
70
2
0
LAYER
5
50
100
AcDbSymbolTableRecord
100
AcDbLayerTableRecord
2
0
70
0
6
CONTINUOUS
0
ENDTAB
0
TABLE
2
STYLE
5
3
100
AcDbSymbolTable
70
1
0
STYLE
5
11
100
AcDbSymbolTableRecord
100
AcDbTextStyleTableRecord
2
STANDARD
70
0
0
ENDTAB
0
TABLE
2
VIEW
5
6
100
AcDbSymbolTable
70
0
0
ENDTAB
0
TABLE
2
UCS
5
7
100
AcDbSymbolTable
70
0
0
ENDTAB
0
TABLE
2
APPID
5
9
100
AcDbSymbolTable
70
2
0
APPID
5
12
100
AcDbSymbolTableRecord
100
AcDbRegAppTableRecord
2
ACAD
70
0
0
ENDTAB
0
TABLE
2
DIMSTYLE
5
A
100
AcDbSymbolTable
70
1
0
ENDTAB
0
TABLE
2
BLOCK_RECORD
5
1
100
AcDbSymbolTable
70
1
0
BLOCK_RECORD
5
1F
100
AcDbSymbolTableRecord
100
AcDbBlockTableRecord
2
*MODEL_SPACE
0
BLOCK_RECORD
5
1B
100
AcDbSymbolTableRecord
100
AcDbBlockTableRecord
2
*PAPER_SPACE
0
ENDTAB
0
ENDSEC
0
SECTION
2
BLOCKS
0
BLOCK
5
20
100
AcDbEntity
100
AcDbBlockBegin
2
*MODEL_SPACE
0
ENDBLK
5
21
100
AcDbEntity
100
AcDbBlockEnd
0
BLOCK
5
1C
100
AcDbEntity
100
AcDbBlockBegin
2
*PAPER_SPACE
0
ENDBLK
5
1D
100
AcDbEntity
100
AcDbBlockEnd
0
ENDSEC
0
SECTION
2
ENTITIES
0
CIRCLE
5
100
100
AcDbEntity
8
0
100
AcDbCircle
10
-0.069209739421347116
20
688.94184039601146
30
-8.8817841970012523e-15
40
11.250000000000027
210
9.1148397170410278e-29
220
3.5014091923522441e-42
230
1
0
LINE
5
101
100
AcDbEntity
8
0
100
AcDbLine
10
41.032090814170076
20
705.74245606433192
30
0
11
35.032090814170033
21
705.74245606433215
31
5.4689038302246636e-28
0
LINE
5
102
100
AcDbEntity
8
0
100
AcDbLine
10
35.032090814170033
20
705.74245606433215
30
5.4689038302246636e-28
11
35.03209081416972
21
713.2424560643318
31
-8.8817841970012602e-15
0
LINE
5
103
100
AcDbEntity
8
0
100
AcDbLine
10
35.03209081416972
20
713.2424560643318
30
-8.8817841970012602e-15
11
41.032090814169777
21
713.2424560643318
31
-8.8820552475449196e-15
0
LINE
5
104
100
AcDbEntity
8
0
100
AcDbLine
10
41.032090814169777
20
713.2424560643318
30
-8.8820552475449196e-15
11
41.032090814169337
21
724.04307173265329
31
0
0
LINE
5
105
100
AcDbEntity
8
0
100
AcDbLine
10
41.032090814169337
20
724.04307173265329
30
0
11
35.032090814169308
21
724.0430717326534
31
5.4689038302246438e-28
0
LINE
5
106
100
AcDbEntity
8
0
100
AcDbLine
10
35.032090814169308
20
724.0430717326534
30
5.4689038302246438e-28
11
35.032090814169059
21
730.04307173265306
31
-8.8817841970012602e-15
0
LINE
5
107
100
AcDbEntity
8
0
100
AcDbLine
10
35.032090814169059
20
730.04307173265306
30
-8.8817841970012602e-15
11
28.731440537373057
21
730.04307173265317
31
-8.8817841970004635e-15
0
LINE
5
108
100
AcDbEntity
8
0
100
AcDbLine
10
28.731440537373057
20
730.04307173265317
30
-8.8817841970004635e-15
11
28.731440537373288
21
724.04307173265306
31
0
0
LINE
5
109
100
AcDbEntity
8
0
100
AcDbLine
10
28.731440537373288
20
724.04307173265306
30
0
11
21.231440537373217
21
724.04307173265329
31
-5.4210108555913924e-19
0
LINE
5
110
100
AcDbEntity
8
0
100
AcDbLine
10
21.231440537373217
20
724.04307173265329
30
-5.4210108555913924e-19
11
21.231440537372983
21
730.04307173265317
31
0
0
LINE
5
111
100
AcDbEntity
8
0
100
AcDbLine
10
21.231440537372983
20
730.04307173265317
30
0
11
13.731440537372944
21
730.04307173265329
31
-2.7105054243776313e-19
0
LINE
5
112
100
AcDbEntity
8
0
100
AcDbLine
10
13.731440537372944
20
730.04307173265329
30
-2.7105054243776313e-19
11
13.731440537373178
21
724.0430717326534
31
0
0
LINE
5
113
100
AcDbEntity
8
0
100
AcDbLine
10
13.731440537373178
20
724.0430717326534
30
0
11
6.2314405373731176
21
724.04307173265352
31
-5.4210108555913924e-19
0
LINE
5
114
100
AcDbEntity
8
0
100
AcDbLine
10
6.2314405373731176
20
724.04307173265352
30
-5.4210108555913924e-19
11
6.2314405373728849
21
730.04307173265329
31
8.8817841970012523e-15
0
LINE
5
115
100
AcDbEntity
8
0
100
AcDbLine
10
6.2314405373728849
20
730.04307173265329
30
8.8817841970012523e-15
11
-1.2685594626271601
21
730.04307173265363
31
-2.7105054243776313e-19
0
LINE
5
116
100
AcDbEntity
8
0
100
AcDbLine
10
-1.2685594626271601
20
730.04307173265363
30
-2.7105054243776313e-19
11
-1.2685594626269263
21
724.04307173265363
31
-8.8817841970012523e-15
0
LINE
5
117
100
AcDbEntity
8
0
100
AcDbLine
10
-1.2685594626269263
20
724.04307173265363
30
-8.8817841970012523e-15
11
-8.7685594626269836
21
724.04307173265363
31
-5.4210108555913924e-19
0
LINE
5
118
100
AcDbEntity
8
0
100
AcDbLine
10
-8.7685594626269836
20
724.04307173265363
30
-5.4210108555913924e-19
11
-8.7685594626272163
21
730.04307173265363
31
0
0
LINE
5
119
100
AcDbEntity
8
0
100
AcDbLine
10
-8.7685594626272163
20
730.04307173265363
30
0
11
-21.069209739423034
21
730.04307173265397
31
-8.8823262980846583e-15
0
LINE
5
120
100
AcDbEntity
8
0
100
AcDbLine
10
-21.069209739423034
20
730.04307173265397
30
-8.8823262980846583e-15
11
-21.06920973942065
21
667.94184039601123
31
-8.8817841970011892e-15
0
LINE
5
121
100
AcDbEntity
8
0
100
AcDbLine
10
-21.06920973942065
20
667.94184039601123
30
-8.8817841970011892e-15
11
20.930790260579567
21
667.94184039601066
31
-8.8796157926601089e-15
0
SPLINE
5
122
100
AcDbEntity
8
0
100
AcDbSpline
70
4
71
5
72
21
73
15
74
0
42
0.000000001
43
0.0000000001
44
0.0000000001
40
0
40
0
40
0
40
0
40
0
40
0
40
0.10000000000000001
40
0.20000000000000001
40
0.30000000000000004
40
0.40000000000000002
40
0.5
40
0.59999999999999998
40
0.69999999999999996
40
0.79999999999999993
40
0.89999999999999991
40
1
40
1
40
1
40
1
40
1
40
1
41
1
41
1
41
1
41
1
41
1
41
1
41
1
41
1
41
1
41
1
41
1
41
1
41
1
41
1
41
1
10
41.032090814170594
20
688.94184039601112
30
0
10
40.744762372540897
20
688.34250472881604
30
0
10
40.160262600164806
20
687.15922326795294
30
-8.8817841970012523e-15
10
39.253985889701269
20
685.43046817139771
30
0
10
37.985577316043489
20
683.21933648171341
30
-8.8817841970012523e-15
10
36.293058004689172
20
680.62273542078947
30
0
10
34.483403069539094
20
678.20928205295957
30
0
10
32.546135252466726
20
675.99535812094587
30
-8.8817841970012523e-15
10
30.473961982902402
20
673.99236594139757
30
0
10
28.269967094663997
20
672.19548377833132
30
0
10
25.943182234502963
20
670.59059017820744
30
0
10
23.991111659233567
20
669.4483998947577
30
8.8817841970012523e-15
10
22.479244483076958
20
668.66651726219425
30
-8.8817841970012523e-15
10
21.450426146607249
20
668.17795118642334
30
0
10
20.93079026057957
20
667.94184039601066
30
0
0
LINE
5
123
100
AcDbEntity
8
0
100
AcDbLine
10
41.032090814170594
20
688.94184039601112
30
0
11
35.032090814170701
21
688.941840396011
31
-9.5407980797828526e-28
0
LINE
5
124
100
AcDbEntity
8
0
100
AcDbLine
10
35.032090814170701
20
688.941840396011
30
-9.5407980797828526e-28
11
35.032090814170417
21
695.74245606433215
31
-8.8817841970012602e-15
0
LINE
5
125
100
AcDbEntity
8
0
100
AcDbLine
10
35.032090814170417
20
695.74245606433215
30
-8.8817841970012602e-15
11
41.032090814170452
21
695.74245606433192
31
-8.8820552475449196e-15
0
LINE
5
126
100
AcDbEntity
8
0
100
AcDbLine
10
41.032090814170452
20
695.74245606433192
30
-8.8820552475449196e-15
11
41.032090814170076
21
705.74245606433192
31
0
0
ENDSEC
0
SECTION
2
OBJECTS
0
DICTIONARY
5
C
100
AcDbDictionary
3
ACAD_GROUP
350
D
3
ACAD_MLINESTYLE
350
17
0
DICTIONARY
5
D
100
AcDbDictionary
0
DICTIONARY
5
1A
330
C
100
AcDbDictionary
0
DICTIONARY
5
17
100
AcDbDictionary
0
ENDSEC
0
EOF
