0
SECTION
2
HEADER
9
$INSUNITS
70
4
9
$ACADVER
1
AC1014
9
$HANDSEED
5
FFFF
0
ENDSEC
0
SECTION
2
TABLES
0
TABLE
2
VPORT
5
8
100
AcDbSymbolTable
0
ENDTAB
0
TABLE
2
LTYPE
5
5
100
AcDbSymbolTable
0
LTYPE
5
14
100
AcDbSymbolTableRecord
100
AcDbLinetypeTableRecord
2
BYBLOCK
70
0
0
LTYPE
5
15
100
AcDbSymbolTableRecord
100
AcDbLinetypeTableRecord
2
BYLAYER
70
0
0
ENDTAB
0
TABLE
2
LAYER
5
2
100
AcDbSymbolTable
70
2
0
LAYER
5
50
100
AcDbSymbolTableRecord
100
AcDbLayerTableRecord
2
0
70
0
6
CONTINUOUS
0
ENDTAB
0
TABLE
2
STYLE
5
3
100
AcDbSymbolTable
70
1
0
STYLE
5
11
100
AcDbSymbolTableRecord
100
AcDbTextStyleTableRecord
2
STANDARD
70
0
0
ENDTAB
0
TABLE
2
VIEW
5
6
100
AcDbSymbolTable
70
0
0
ENDTAB
0
TABLE
2
UCS
5
7
100
AcDbSymbolTable
70
0
0
ENDTAB
0
TABLE
2
APPID
5
9
100
AcDbSymbolTable
70
2
0
APPID
5
12
100
AcDbSymbolTableRecord
100
AcDbRegAppTableRecord
2
ACAD
70
0
0
ENDTAB
0
TABLE
2
DIMSTYLE
5
A
100
AcDbSymbolTable
70
1
0
ENDTAB
0
TABLE
2
BLOCK_RECORD
5
1
100
AcDbSymbolTable
70
1
0
BLOCK_RECORD
5
1F
100
AcDbSymbolTableRecord
100
AcDbBlockTableRecord
2
*MODEL_SPACE
0
BLOCK_RECORD
5
1B
100
AcDbSymbolTableRecord
100
AcDbBlockTableRecord
2
*PAPER_SPACE
0
ENDTAB
0
ENDSEC
0
SECTION
2
BLOCKS
0
BLOCK
5
20
100
AcDbEntity
100
AcDbBlockBegin
2
*MODEL_SPACE
0
ENDBLK
5
21
100
AcDbEntity
100
AcDbBlockEnd
0
BLOCK
5
1C
100
AcDbEntity
100
AcDbBlockBegin
2
*PAPER_SPACE
0
ENDBLK
5
1D
100
AcDbEntity
100
AcDbBlockEnd
0
ENDSEC
0
SECTION
2
ENTITIES
0
LWPOLYLINE
5
100
100
AcDbEntity
8
0
100
AcDbPolyline
90
68
70
1
43
0.0
10
35.039989707146482
20
-24.870711601246242
10
41.039989404676042
20
-24.86880643811897
10
41.037607950766912
20
-17.368806816207258
10
35.037608253237394
20
-17.370711979334523
10
35.035226799328292
20
-9.8707123574228071
10
41.035226496857796
20
-9.8688071942955364
10
41.032845042948679
20
-2.3688075723838233
10
35.032845345419204
20
-2.3707127355110962
10
35.030463891510109
20
5.1292868864006174
10
41.030463589039556
20
5.1311920495278907
10
41.028082135130433
20
12.631191671439602
10
35.028082437601014
20
12.629286508312331
10
35.02570098369192
20
20.129286130224045
10
41.025700681221323
20
20.131191293351311
10
41.0233192273122
20
27.631190915263026
10
35.023319529782832
20
27.629285752135754
10
35.020938075873744
20
35.12928537404747
10
41.020937773403084
20
35.131190537174739
10
41.018556319493953
20
42.631190159086444
10
35.018556621964649
20
42.629284995959161
10
35.016175168055554
20
50.12928461787088
10
41.016174865584844
20
50.13118978099817
10
41.013793411675728
20
57.631189402909868
10
35.013793714146466
20
57.629284239782592
10
35.011412260237371
20
65.129283861694319
10
41.011411957766612
20
65.131189024821595
10
41.007204722527284
20
78.381188356865763
10
35.007205024997802
20
78.379283193738473
10
35.009110188125099
20
72.379283496209112
10
28.708460228955957
20
72.377282868444894
10
28.70655506582866
20
78.377282565974284
10
21.206555443916784
20
78.374901112065174
10
21.208460607044081
20
72.374901414535785
10
13.708460985132236
20
72.372519960626676
10
13.706555822004935
20
78.372519658156037
10
6.2065562000930719
20
78.370138204246928
10
6.2084613632203665
20
72.370138506717552
10
-1.2915382586914859
20
72.367757052808471
10
-1.2934434218187816
20
78.367756750337833
10
-8.7934430437306439
20
78.365375296428724
10
-8.7915378806033466
20
72.365375598899362
10
-21.092187537301513
20
72.361469808007627
10
-21.047098676622408
20
-69.638523033520812
10
-8.7464490199240164
20
-69.634617242629361
10
-8.7445438567967262
20
-75.634616940158736
10
-1.2445442348848657
20
-75.632235486249613
10
-1.24644939801216
20
-69.632235788720237
10
6.2535502238996932
20
-69.629854334811128
10
6.2554553870269878
20
-75.629854032340504
10
13.755455008938853
20
-75.627472578431352
10
13.753549845811557
20
-69.627472880901976
10
21.253549467723403
20
-69.625091426992881
10
21.255454630850707
20
-75.625091124522243
10
28.755454252762576
20
-75.622709670613105
10
28.753549089635282
20
-69.622709973083744
10
35.054199048804435
20
-69.620709345319526
10
35.056104211931732
20
-75.620709042848901
10
41.056103909461193
20
-75.618803879721582
10
41.051896674221638
20
-62.368804547677541
10
35.05189697669195
20
-62.37070971080481
10
35.049515522782855
20
-54.870710088893098
10
41.049515220312514
20
-54.868804925765822
10
41.047133766403398
20
-47.368805303854117
10
35.04713406887376
20
-47.370710466981379
10
35.044752614964665
20
-39.870710845069667
10
41.044752312494282
20
-39.868805681942391
10
41.042370858585151
20
-32.368806060030678
10
35.042371161055577
20
-32.370711223157947
0
ENDSEC
0
SECTION
2
OBJECTS
0
DICTIONARY
5
C
100
AcDbDictionary
3
ACAD_GROUP
350
D
3
ACAD_MLINESTYLE
350
17
0
DICTIONARY
5
D
100
AcDbDictionary
0
DICTIONARY
5
1A
330
C
100
AcDbDictionary
0
DICTIONARY
5
17
100
AcDbDictionary
0
ENDSEC
0
EOF
