0
SECTION
2
HEADER
9
$INSUNITS
70
4
9
$ACADVER
1
AC1014
9
$HANDSEED
5
FFFF
0
ENDSEC
0
SECTION
2
TABLES
0
TABLE
2
VPORT
5
8
100
AcDbSymbolTable
0
ENDTAB
0
TABLE
2
LTYPE
5
5
100
AcDbSymbolTable
0
LTYPE
5
14
100
AcDbSymbolTableRecord
100
AcDbLinetypeTableRecord
2
BYBLOCK
70
0
0
LTYPE
5
15
100
AcDbSymbolTableRecord
100
AcDbLinetypeTableRecord
2
BYLAYER
70
0
0
ENDTAB
0
TABLE
2
LAYER
5
2
100
AcDbSymbolTable
70
2
0
LAYER
5
50
100
AcDbSymbolTableRecord
100
AcDbLayerTableRecord
2
0
70
0
6
CONTINUOUS
0
ENDTAB
0
TABLE
2
STYLE
5
3
100
AcDbSymbolTable
70
1
0
STYLE
5
11
100
AcDbSymbolTableRecord
100
AcDbTextStyleTableRecord
2
STANDARD
70
0
0
ENDTAB
0
TABLE
2
VIEW
5
6
100
AcDbSymbolTable
70
0
0
ENDTAB
0
TABLE
2
UCS
5
7
100
AcDbSymbolTable
70
0
0
ENDTAB
0
TABLE
2
APPID
5
9
100
AcDbSymbolTable
70
2
0
APPID
5
12
100
AcDbSymbolTableRecord
100
AcDbRegAppTableRecord
2
ACAD
70
0
0
ENDTAB
0
TABLE
2
DIMSTYLE
5
A
100
AcDbSymbolTable
70
1
0
ENDTAB
0
TABLE
2
BLOCK_RECORD
5
1
100
AcDbSymbolTable
70
1
0
BLOCK_RECORD
5
1F
100
AcDbSymbolTableRecord
100
AcDbBlockTableRecord
2
*MODEL_SPACE
0
BLOCK_RECORD
5
1B
100
AcDbSymbolTableRecord
100
AcDbBlockTableRecord
2
*PAPER_SPACE
0
ENDTAB
0
ENDSEC
0
SECTION
2
BLOCKS
0
BLOCK
5
20
100
AcDbEntity
100
AcDbBlockBegin
2
*MODEL_SPACE
0
ENDBLK
5
21
100
AcDbEntity
100
AcDbBlockEnd
0
BLOCK
5
1C
100
AcDbEntity
100
AcDbBlockBegin
2
*PAPER_SPACE
0
ENDBLK
5
1D
100
AcDbEntity
100
AcDbBlockEnd
0
ENDSEC
0
SECTION
2
ENTITIES
0
LWPOLYLINE
5
100
100
AcDbEntity
8
0
100
AcDbPolyline
90
52
70
1
43
0.0
10
-69.631836496541979
20
727.04313220082713
10
-69.631836496541993
20
714.74248629841998
10
-75.631836496541908
20
714.74248629841998
10
-75.631836496541908
20
707.24248629841998
10
-69.631836496541979
20
707.24248629841998
10
-69.631836496541993
20
697.2424862984202
10
-75.631836496541922
20
697.24248629842009
10
-75.631836496541908
20
688.94184039601157
10
78.368163503456316
20
688.94184039601078
10
78.368163503456287
20
697.24248629841907
10
72.368163503456358
20
697.24248629841918
10
72.368163503456373
20
707.24248629841895
10
78.368163503456302
20
707.24248629841907
10
78.368163503456302
20
714.74248629841907
10
72.368163503456373
20
714.74248629841895
10
72.368163503456387
20
727.04313220082611
10
65.11816350345633
20
727.04313220082599
10
65.118163503456344
20
733.04313220082588
10
57.618163503456437
20
733.04313220082588
10
57.618163503456429
20
727.04313220082599
10
50.118163503456529
20
727.04313220082599
10
50.118163503456529
20
733.04313220082588
10
42.618163503456621
20
733.04313220082588
10
42.618163503456614
20
727.04313220082599
10
35.118163503456699
20
727.04313220082599
10
35.118163503456721
20
733.04313220082588
10
27.618163503456813
20
733.04313220082599
10
27.618163503456806
20
727.04313220082611
10
20.118163503456913
20
727.04313220082611
10
20.118163503456913
20
733.04313220082622
10
12.618163503457005
20
733.04313220082622
10
12.618163503457005
20
727.04313220082645
10
5.1181635034571018
20
727.04313220082645
10
5.1181635034571107
20
733.04313220082634
10
-2.3818364965427916
20
733.04313220082634
10
-2.3818364965427987
20
727.04313220082645
10
-9.8818364965427019
20
727.04313220082645
10
-9.8818364965426984
20
733.04313220082634
10
-17.381836496542601
20
733.04313220082645
10
-17.381836496542604
20
727.04313220082656
10
-24.881836496542515
20
727.04313220082645
10
-24.881836496542512
20
733.04313220082645
10
-32.381836496542419
20
733.04313220082645
10
-32.381836496542419
20
727.04313220082656
10
-39.881836496542313
20
727.04313220082656
10
-39.881836496542306
20
733.04313220082668
10
-47.381836496542213
20
733.04313220082668
10
-47.381836496542221
20
727.04313220082668
10
-54.881836496542121
20
727.04313220082668
10
-54.881836496542114
20
733.04313220082668
10
-62.381836496542022
20
733.04313220082668
10
-62.381836496542029
20
727.04313220082668
0
ENDSEC
0
SECTION
2
OBJECTS
0
DICTIONARY
5
C
100
AcDbDictionary
3
ACAD_GROUP
350
D
3
ACAD_MLINESTYLE
350
17
0
DICTIONARY
5
D
100
AcDbDictionary
0
DICTIONARY
5
1A
330
C
100
AcDbDictionary
0
DICTIONARY
5
17
100
AcDbDictionary
0
ENDSEC
0
EOF
