0
SECTION
2
HEADER
9
$INSUNITS
70
4
9
$ACADVER
1
AC1014
9
$HANDSEED
5
FFFF
0
ENDSEC
0
SECTION
2
TABLES
0
TABLE
2
VPORT
5
8
100
AcDbSymbolTable
0
ENDTAB
0
TABLE
2
LTYPE
5
5
100
AcDbSymbolTable
0
LTYPE
5
14
100
AcDbSymbolTableRecord
100
AcDbLinetypeTableRecord
2
BYBLOCK
70
0
0
LTYPE
5
15
100
AcDbSymbolTableRecord
100
AcDbLinetypeTableRecord
2
BYLAYER
70
0
0
ENDTAB
0
TABLE
2
LAYER
5
2
100
AcDbSymbolTable
70
2
0
LAYER
5
50
100
AcDbSymbolTableRecord
100
AcDbLayerTableRecord
2
0
70
0
6
CONTINUOUS
0
ENDTAB
0
TABLE
2
STYLE
5
3
100
AcDbSymbolTable
70
1
0
STYLE
5
11
100
AcDbSymbolTableRecord
100
AcDbTextStyleTableRecord
2
STANDARD
70
0
0
ENDTAB
0
TABLE
2
VIEW
5
6
100
AcDbSymbolTable
70
0
0
ENDTAB
0
TABLE
2
UCS
5
7
100
AcDbSymbolTable
70
0
0
ENDTAB
0
TABLE
2
APPID
5
9
100
AcDbSymbolTable
70
2
0
APPID
5
12
100
AcDbSymbolTableRecord
100
AcDbRegAppTableRecord
2
ACAD
70
0
0
ENDTAB
0
TABLE
2
DIMSTYLE
5
A
100
AcDbSymbolTable
70
1
0
ENDTAB
0
TABLE
2
BLOCK_RECORD
5
1
100
AcDbSymbolTable
70
1
0
BLOCK_RECORD
5
1F
100
AcDbSymbolTableRecord
100
AcDbBlockTableRecord
2
*MODEL_SPACE
0
BLOCK_RECORD
5
1B
100
AcDbSymbolTableRecord
100
AcDbBlockTableRecord
2
*PAPER_SPACE
0
ENDTAB
0
ENDSEC
0
SECTION
2
BLOCKS
0
BLOCK
5
20
100
AcDbEntity
100
AcDbBlockBegin
2
*MODEL_SPACE
0
ENDBLK
5
21
100
AcDbEntity
100
AcDbBlockEnd
0
BLOCK
5
1C
100
AcDbEntity
100
AcDbBlockBegin
2
*PAPER_SPACE
0
ENDBLK
5
1D
100
AcDbEntity
100
AcDbBlockEnd
0
ENDSEC
0
SECTION
2
ENTITIES
0
LINE
5
100
100
AcDbEntity
8
0
100
AcDbLine
10
-38.032090812961187
20
733.04313220082622
30
0
11
-38.032090812961336
21
727.04313220082713
31
0
0
LINE
5
101
100
AcDbEntity
8
0
100
AcDbLine
10
-38.032090812961336
20
727.04313220082713
30
0
11
-44.032090812961364
21
727.0431322008269
31
-2.7105054949757789e-19
0
LINE
5
102
100
AcDbEntity
8
0
100
AcDbLine
10
-44.032090812961364
20
727.0431322008269
30
-2.7105054949757789e-19
11
-44.032090812961833
21
714.7424862984202
31
8.8817841970013785e-15
0
LINE
5
103
100
AcDbEntity
8
0
100
AcDbLine
10
-44.032090812961833
20
714.7424862984202
30
8.8817841970013785e-15
11
-38.032090812961798
21
714.74248629842032
31
2.7105054949757789e-19
0
LINE
5
104
100
AcDbEntity
8
0
100
AcDbLine
10
-38.032090812961798
20
714.74248629842032
30
2.7105054949757789e-19
11
-38.032090812962096
21
707.2424862984202
31
1.2621774483536189e-28
0
LINE
5
105
100
AcDbEntity
8
0
100
AcDbLine
10
-38.032090812962096
20
707.2424862984202
30
1.2621774483536189e-28
11
-44.032090812962124
21
707.2424862984202
31
-2.7105054949757789e-19
0
LINE
5
106
100
AcDbEntity
8
0
100
AcDbLine
10
-44.032090812962124
20
707.2424862984202
30
-2.7105054949757789e-19
11
-44.032090812962508
21
697.2424862984202
31
2.5243548967072378e-28
0
LINE
5
107
100
AcDbEntity
8
0
100
AcDbLine
10
-44.032090812962508
20
697.2424862984202
30
2.5243548967072378e-28
11
-38.032090812962473
21
697.24248629842032
31
2.7105054949757789e-19
0
LINE
5
108
100
AcDbEntity
8
0
100
AcDbLine
10
-38.032090812962473
20
697.24248629842032
30
2.7105054949757789e-19
11
-38.032090812962799
21
688.94184039601316
31
1.2621774483536189e-28
0
LINE
5
109
100
AcDbEntity
8
0
100
AcDbLine
10
-38.032090812962799
20
688.94184039601316
30
1.2621774483536189e-28
11
-44.032090812962835
21
688.94184039601339
31
-2.7105053322111171e-19
0
SPLINE
5
110
100
AcDbEntity
8
0
100
AcDbSpline
70
4
71
5
72
21
73
15
74
0
42
0.000000001
43
0.0000000001
44
0.0000000001
40
0
40
0
40
0
40
0
40
0
40
0
40
0.10000000000000001
40
0.20000000000000001
40
0.30000000000000004
40
0.40000000000000002
40
0.5
40
0.59999999999999998
40
0.69999999999999996
40
0.79999999999999993
40
0.89999999999999991
40
1
40
1
40
1
40
1
40
1
40
1
41
1
41
1
41
1
41
1
41
1
41
1
41
1
41
1
41
1
41
1
41
1
41
1
41
1
41
1
41
1
10
-44.032090812962828
20
688.94184039601328
30
0
10
-43.67270651413989
20
688.31903606126377
30
0
10
-42.945150198088925
20
687.09079058014265
30
1.7763568394002505e-14
10
-41.827454071885938
20
685.3005089537221
30
0
10
-40.283588869427398
20
683.01937950479964
30
0
10
-38.258201056191375
20
680.35677235688138
30
8.8817841970012523e-15
10
-36.128149260288964
20
677.90096524096521
30
8.8817841970012523e-15
10
-33.883961327176706
20
675.67067368661867
30
0
10
-31.518887919757201
20
673.67923335231114
30
8.8817841970012523e-15
10
-29.035402829528433
20
671.92175640414473
30
0
10
-26.441503310940764
20
670.38244148967897
30
0
10
-24.284817947302493
20
669.31215101041153
30
0
10
-22.624269264598222
20
668.59446306125096
30
8.8817841970012523e-15
10
-21.498419469076179
20
668.15318461685956
30
0
10
-20.930790259371786
20
667.94184039601259
30
8.8817841970012523e-15
0
LINE
5
111
100
AcDbEntity
8
0
100
AcDbLine
10
-20.930790259371783
20
667.94184039601248
30
8.8817841970012492e-15
11
21.069209740628505
21
667.94184039601316
31
8.8817841970458861e-15
0
LINE
5
112
100
AcDbEntity
8
0
100
AcDbLine
10
21.069209740628505
20
667.94184039601316
30
8.8817841970458861e-15
11
21.069209740631006
21
733.04313220082804
31
8.8817841970032718e-15
0
LINE
5
113
100
AcDbEntity
8
0
100
AcDbLine
10
21.069209740631006
20
733.04313220082804
30
8.8817841970032718e-15
11
7.2685594638350164
21
733.04313220082781
31
-1.0842021871514598e-18
0
LINE
5
114
100
AcDbEntity
8
0
100
AcDbLine
10
7.2685594638350164
20
733.04313220082781
30
-1.0842021871514598e-18
11
7.2685594638347792
21
727.04313220082781
31
8.8817841970012523e-15
0
LINE
5
115
100
AcDbEntity
8
0
100
AcDbLine
10
7.2685594638347792
20
727.04313220082781
30
8.8817841970012523e-15
11
-0.23144053616525051
21
727.0431322008277
31
8.8809710453639175e-15
0
LINE
5
116
100
AcDbEntity
8
0
100
AcDbLine
10
-0.23144053616525051
20
727.0431322008277
30
8.8809710453639175e-15
11
-0.23144053616501906
21
733.04313220082759
31
-6.3108872417680944e-29
0
LINE
5
117
100
AcDbEntity
8
0
100
AcDbLine
10
-0.23144053616501906
20
733.04313220082759
30
-6.3108872417680944e-29
11
-7.7314405361650484
21
733.04313220082747
31
-8.1315163733438053e-19
0
LINE
5
118
100
AcDbEntity
8
0
100
AcDbLine
10
-7.7314405361650484
20
733.04313220082747
30
-8.1315163733438053e-19
11
-7.7314405361652794
21
727.0431322008277
31
0
0
LINE
5
119
100
AcDbEntity
8
0
100
AcDbLine
10
-7.7314405361652794
20
727.0431322008277
30
0
11
-15.23144053616531
21
727.04313220082759
31
-8.1315163733438053e-19
0
LINE
5
120
100
AcDbEntity
8
0
100
AcDbLine
10
-15.23144053616531
20
727.04313220082759
30
-8.1315163733438053e-19
11
-15.231440536165081
21
733.04313220082747
31
-6.3108872417680944e-29
0
LINE
5
121
100
AcDbEntity
8
0
100
AcDbLine
10
-15.231440536165081
20
733.04313220082747
30
-6.3108872417680944e-29
11
-22.73144053616511
21
733.04313220082736
31
-8.1315163733438053e-19
0
LINE
5
122
100
AcDbEntity
8
0
100
AcDbLine
10
-22.73144053616511
20
733.04313220082736
30
-8.1315163733438053e-19
11
-22.731440536165337
21
727.04313220082736
31
8.8817841970013154e-15
0
LINE
5
123
100
AcDbEntity
8
0
100
AcDbLine
10
-22.731440536165337
20
727.04313220082736
30
8.8817841970013154e-15
11
-30.231440536165358
21
727.04313220082724
31
8.8809710453639175e-15
0
LINE
5
124
100
AcDbEntity
8
0
100
AcDbLine
10
-30.231440536165358
20
727.04313220082724
30
8.8809710453639175e-15
11
-30.231440536165127
21
733.04313220082713
31
8.8817841970011261e-15
0
LINE
5
125
100
AcDbEntity
8
0
100
AcDbLine
10
-30.231440536165127
20
733.04313220082713
30
8.8817841970011261e-15
11
-38.032090812961187
21
733.04313220082622
31
0
0
CIRCLE
5
126
100
AcDbEntity
8
0
100
AcDbCircle
10
0.069209740627729527
20
676.94184039601305
30
8.8817841970012523e-15
40
1.7500000000000271
210
-1.0511460921886762e-27
220
-3.7865323450567879e-29
230
1
0
CIRCLE
5
127
100
AcDbEntity
8
0
100
AcDbCircle
10
12.069209740628377
20
688.94184039601328
30
8.8817841970012523e-15
40
1.7500000000000266
210
-1.0511460921886758e-27
220
-3.7865323450567884e-29
230
1
0
CIRCLE
5
128
100
AcDbEntity
8
0
100
AcDbCircle
10
-11.930790259371991
20
688.94184039601282
30
0
40
1.7500000000000271
210
-1.0511460921886762e-27
220
-3.7865323450567879e-29
230
1
0
CIRCLE
5
129
100
AcDbEntity
8
0
100
AcDbCircle
10
0.069209740628658145
20
700.94184039601305
30
0
40
1.7500000000000271
210
-1.0511460921886762e-27
220
-3.7865323450567879e-29
230
1
0
ENDSEC
0
SECTION
2
OBJECTS
0
DICTIONARY
5
C
100
AcDbDictionary
3
ACAD_GROUP
350
D
3
ACAD_MLINESTYLE
350
17
0
DICTIONARY
5
D
100
AcDbDictionary
0
DICTIONARY
5
1A
330
C
100
AcDbDictionary
0
DICTIONARY
5
17
100
AcDbDictionary
0
ENDSEC
0
EOF
